<svg width="88" height="65" viewBox="0 0 88 65" fill="none" xmlns="http://www.w3.org/2000/svg">
<circle cx="32" cy="32" r="32" fill="#1388F7"/>
<path d="M15.18 26V40H11.94V28.6H9.14V26H15.18ZM23.612 40.24C22.452 40.24 21.4187 39.9533 20.512 39.38C19.6054 38.8067 18.892 37.98 18.372 36.9C17.8654 35.8067 17.612 34.5067 17.612 33C17.612 31.4933 17.8654 30.2 18.372 29.12C18.892 28.0267 19.6054 27.1933 20.512 26.62C21.4187 26.0467 22.452 25.76 23.612 25.76C24.772 25.76 25.8054 26.0467 26.712 26.62C27.6187 27.1933 28.3254 28.0267 28.832 29.12C29.352 30.2 29.612 31.4933 29.612 33C29.612 34.5067 29.352 35.8067 28.832 36.9C28.3254 37.98 27.6187 38.8067 26.712 39.38C25.8054 39.9533 24.772 40.24 23.612 40.24ZM23.612 37.5C24.4654 37.5 25.132 37.1333 25.612 36.4C26.1054 35.6667 26.352 34.5333 26.352 33C26.352 31.4667 26.1054 30.3333 25.612 29.6C25.132 28.8667 24.4654 28.5 23.612 28.5C22.772 28.5 22.1054 28.8667 21.612 29.6C21.132 30.3333 20.892 31.4667 20.892 33C20.892 34.5333 21.132 35.6667 21.612 36.4C22.1054 37.1333 22.772 37.5 23.612 37.5ZM37.1863 40.24C36.0263 40.24 34.9929 39.9533 34.0863 39.38C33.1796 38.8067 32.4663 37.98 31.9463 36.9C31.4396 35.8067 31.1863 34.5067 31.1863 33C31.1863 31.4933 31.4396 30.2 31.9463 29.12C32.4663 28.0267 33.1796 27.1933 34.0863 26.62C34.9929 26.0467 36.0263 25.76 37.1863 25.76C38.3463 25.76 39.3796 26.0467 40.2863 26.62C41.1929 27.1933 41.8996 28.0267 42.4063 29.12C42.9263 30.2 43.1863 31.4933 43.1863 33C43.1863 34.5067 42.9263 35.8067 42.4063 36.9C41.8996 37.98 41.1929 38.8067 40.2863 39.38C39.3796 39.9533 38.3463 40.24 37.1863 40.24ZM37.1863 37.5C38.0396 37.5 38.7063 37.1333 39.1863 36.4C39.6796 35.6667 39.9263 34.5333 39.9263 33C39.9263 31.4667 39.6796 30.3333 39.1863 29.6C38.7063 28.8667 38.0396 28.5 37.1863 28.5C36.3463 28.5 35.6796 28.8667 35.1863 29.6C34.7063 30.3333 34.4663 31.4667 34.4663 33C34.4663 34.5333 34.7063 35.6667 35.1863 36.4C35.6796 37.1333 36.3463 37.5 37.1863 37.5ZM50.7605 40.24C49.6005 40.24 48.5671 39.9533 47.6605 39.38C46.7538 38.8067 46.0405 37.98 45.5205 36.9C45.0138 35.8067 44.7605 34.5067 44.7605 33C44.7605 31.4933 45.0138 30.2 45.5205 29.12C46.0405 28.0267 46.7538 27.1933 47.6605 26.62C48.5671 26.0467 49.6005 25.76 50.7605 25.76C51.9205 25.76 52.9538 26.0467 53.8605 26.62C54.7671 27.1933 55.4738 28.0267 55.9805 29.12C56.5005 30.2 56.7605 31.4933 56.7605 33C56.7605 34.5067 56.5005 35.8067 55.9805 36.9C55.4738 37.98 54.7671 38.8067 53.8605 39.38C52.9538 39.9533 51.9205 40.24 50.7605 40.24ZM50.7605 37.5C51.6138 37.5 52.2805 37.1333 52.7605 36.4C53.2538 35.6667 53.5005 34.5333 53.5005 33C53.5005 31.4667 53.2538 30.3333 52.7605 29.6C52.2805 28.8667 51.6138 28.5 50.7605 28.5C49.9205 28.5 49.2538 28.8667 48.7605 29.6C48.2805 30.3333 48.0405 31.4667 48.0405 33C48.0405 34.5333 48.2805 35.6667 48.7605 36.4C49.2538 37.1333 49.9205 37.5 50.7605 37.5ZM64.3347 40.24C63.1747 40.24 62.1414 39.9533 61.2347 39.38C60.328 38.8067 59.6147 37.98 59.0947 36.9C58.588 35.8067 58.3347 34.5067 58.3347 33C58.3347 31.4933 58.588 30.2 59.0947 29.12C59.6147 28.0267 60.328 27.1933 61.2347 26.62C62.1414 26.0467 63.1747 25.76 64.3347 25.76C65.4947 25.76 66.528 26.0467 67.4347 26.62C68.3414 27.1933 69.048 28.0267 69.5547 29.12C70.0747 30.2 70.3347 31.4933 70.3347 33C70.3347 34.5067 70.0747 35.8067 69.5547 36.9C69.048 37.98 68.3414 38.8067 67.4347 39.38C66.528 39.9533 65.4947 40.24 64.3347 40.24ZM64.3347 37.5C65.188 37.5 65.8547 37.1333 66.3347 36.4C66.828 35.6667 67.0747 34.5333 67.0747 33C67.0747 31.4667 66.828 30.3333 66.3347 29.6C65.8547 28.8667 65.188 28.5 64.3347 28.5C63.4947 28.5 62.828 28.8667 62.3347 29.6C61.8547 30.3333 61.6147 31.4667 61.6147 33C61.6147 34.5333 61.8547 35.6667 62.3347 36.4C62.828 37.1333 63.4947 37.5 64.3347 37.5ZM81.967 34.22H78.487V37.62H75.907V34.22H72.447V31.78H75.907V28.38H78.487V31.78H81.967V34.22Z" fill="#002766"/>
<path d="M14.18 25V39H10.94V27.6H8.14V25H14.18ZM22.612 39.24C21.452 39.24 20.4187 38.9533 19.512 38.38C18.6054 37.8067 17.892 36.98 17.372 35.9C16.8654 34.8067 16.612 33.5067 16.612 32C16.612 30.4933 16.8654 29.2 17.372 28.12C17.892 27.0267 18.6054 26.1933 19.512 25.62C20.4187 25.0467 21.452 24.76 22.612 24.76C23.772 24.76 24.8054 25.0467 25.712 25.62C26.6187 26.1933 27.3254 27.0267 27.832 28.12C28.352 29.2 28.612 30.4933 28.612 32C28.612 33.5067 28.352 34.8067 27.832 35.9C27.3254 36.98 26.6187 37.8067 25.712 38.38C24.8054 38.9533 23.772 39.24 22.612 39.24ZM22.612 36.5C23.4654 36.5 24.132 36.1333 24.612 35.4C25.1054 34.6667 25.352 33.5333 25.352 32C25.352 30.4667 25.1054 29.3333 24.612 28.6C24.132 27.8667 23.4654 27.5 22.612 27.5C21.772 27.5 21.1054 27.8667 20.612 28.6C20.132 29.3333 19.892 30.4667 19.892 32C19.892 33.5333 20.132 34.6667 20.612 35.4C21.1054 36.1333 21.772 36.5 22.612 36.5ZM36.1863 39.24C35.0263 39.24 33.9929 38.9533 33.0863 38.38C32.1796 37.8067 31.4663 36.98 30.9463 35.9C30.4396 34.8067 30.1863 33.5067 30.1863 32C30.1863 30.4933 30.4396 29.2 30.9463 28.12C31.4663 27.0267 32.1796 26.1933 33.0863 25.62C33.9929 25.0467 35.0263 24.76 36.1863 24.76C37.3463 24.76 38.3796 25.0467 39.2863 25.62C40.1929 26.1933 40.8996 27.0267 41.4063 28.12C41.9263 29.2 42.1863 30.4933 42.1863 32C42.1863 33.5067 41.9263 34.8067 41.4063 35.9C40.8996 36.98 40.1929 37.8067 39.2863 38.38C38.3796 38.9533 37.3463 39.24 36.1863 39.24ZM36.1863 36.5C37.0396 36.5 37.7063 36.1333 38.1863 35.4C38.6796 34.6667 38.9263 33.5333 38.9263 32C38.9263 30.4667 38.6796 29.3333 38.1863 28.6C37.7063 27.8667 37.0396 27.5 36.1863 27.5C35.3463 27.5 34.6796 27.8667 34.1863 28.6C33.7063 29.3333 33.4663 30.4667 33.4663 32C33.4663 33.5333 33.7063 34.6667 34.1863 35.4C34.6796 36.1333 35.3463 36.5 36.1863 36.5ZM49.7605 39.24C48.6005 39.24 47.5671 38.9533 46.6605 38.38C45.7538 37.8067 45.0405 36.98 44.5205 35.9C44.0138 34.8067 43.7605 33.5067 43.7605 32C43.7605 30.4933 44.0138 29.2 44.5205 28.12C45.0405 27.0267 45.7538 26.1933 46.6605 25.62C47.5671 25.0467 48.6005 24.76 49.7605 24.76C50.9205 24.76 51.9538 25.0467 52.8605 25.62C53.7671 26.1933 54.4738 27.0267 54.9805 28.12C55.5005 29.2 55.7605 30.4933 55.7605 32C55.7605 33.5067 55.5005 34.8067 54.9805 35.9C54.4738 36.98 53.7671 37.8067 52.8605 38.38C51.9538 38.9533 50.9205 39.24 49.7605 39.24ZM49.7605 36.5C50.6138 36.5 51.2805 36.1333 51.7605 35.4C52.2538 34.6667 52.5005 33.5333 52.5005 32C52.5005 30.4667 52.2538 29.3333 51.7605 28.6C51.2805 27.8667 50.6138 27.5 49.7605 27.5C48.9205 27.5 48.2538 27.8667 47.7605 28.6C47.2805 29.3333 47.0405 30.4667 47.0405 32C47.0405 33.5333 47.2805 34.6667 47.7605 35.4C48.2538 36.1333 48.9205 36.5 49.7605 36.5ZM63.3347 39.24C62.1747 39.24 61.1414 38.9533 60.2347 38.38C59.328 37.8067 58.6147 36.98 58.0947 35.9C57.588 34.8067 57.3347 33.5067 57.3347 32C57.3347 30.4933 57.588 29.2 58.0947 28.12C58.6147 27.0267 59.328 26.1933 60.2347 25.62C61.1414 25.0467 62.1747 24.76 63.3347 24.76C64.4947 24.76 65.528 25.0467 66.4347 25.62C67.3414 26.1933 68.048 27.0267 68.5547 28.12C69.0747 29.2 69.3347 30.4933 69.3347 32C69.3347 33.5067 69.0747 34.8067 68.5547 35.9C68.048 36.98 67.3414 37.8067 66.4347 38.38C65.528 38.9533 64.4947 39.24 63.3347 39.24ZM63.3347 36.5C64.188 36.5 64.8547 36.1333 65.3347 35.4C65.828 34.6667 66.0747 33.5333 66.0747 32C66.0747 30.4667 65.828 29.3333 65.3347 28.6C64.8547 27.8667 64.188 27.5 63.3347 27.5C62.4947 27.5 61.828 27.8667 61.3347 28.6C60.8547 29.3333 60.6147 30.4667 60.6147 32C60.6147 33.5333 60.8547 34.6667 61.3347 35.4C61.828 36.1333 62.4947 36.5 63.3347 36.5ZM80.967 33.22H77.487V36.62H74.907V33.22H71.447V30.78H74.907V27.38H77.487V30.78H80.967V33.22Z" fill="white"/>
</svg>
