<svg width="64" height="64" viewBox="0 0 64 64" fill="none" xmlns="http://www.w3.org/2000/svg">
<g clip-path="url(#clip0)">
<path fill-rule="evenodd" clip-rule="evenodd" d="M41.5631 41H43.429V0.932975C43.429 0.417691 43.0113 7.62939e-06 42.4961 7.62939e-06H7.04717C6.53188 7.62939e-06 6.1142 0.417691 6.1142 0.932975V3.73149H7.98013V1.86556H41.5631V41ZM37.8316 41V15.8589C37.8316 15.8475 37.8286 15.837 37.8255 15.8264C37.8231 15.8178 37.8206 15.8092 37.8197 15.8001C37.8151 15.7183 37.799 15.6376 37.7721 15.5603C37.7687 15.5506 37.7657 15.541 37.7626 15.5315C37.7564 15.5116 37.7502 15.4921 37.7413 15.4723C37.696 15.3709 37.633 15.2783 37.5546 15.1991L28.2261 5.87062C28.1469 5.79185 28.0539 5.72883 27.9517 5.68388C27.9237 5.67196 27.8952 5.66197 27.866 5.65314C27.788 5.62624 27.7069 5.6101 27.6243 5.60472C27.6158 5.60617 27.6065 5.60393 27.5967 5.60156C27.5883 5.59954 27.5796 5.59742 27.5705 5.59742H1.45015C0.934865 5.59742 0.517181 6.01472 0.517181 6.53V55.0389C0.517181 55.5542 0.934865 55.9719 1.45015 55.9719H16V54.1063H2.38273V7.46297H26.6376V15.8589C26.6376 16.3738 27.0552 16.7915 27.5701 16.7915H35.9661V41H37.8316ZM16 41.0459H7.98014V42.9119H16V41.0459ZM16 46.6433H13.5772V48.5089H16V46.6433ZM28.5031 14.9259H34.6469L28.5031 8.78211V14.9259ZM7.98014 18.6574H30.3686V20.523H7.98014V18.6574ZM15.4431 13.06H7.98014V14.9259H15.4431V13.06ZM7.98014 24.2544H22.9061V26.1204H7.98014V24.2544ZM30.3687 24.2544H24.7716V26.1204H30.3687V24.2544ZM7.98014 29.8515H30.3686V31.7174H7.98014V29.8515ZM16.3757 35.4489H30.3686V37.3144H16.3757V35.4489ZM14.5101 35.4489H7.98014V37.3144H14.5101V35.4489ZM7.98014 46.6433H11.7116V48.5089H7.98014V46.6433Z" fill="white"/>
<rect x="18" y="44" width="46" height="20" fill="#1388F7"/>
<path d="M30.1597 58.24V60H21.9038V58.608L26.3518 54.384C26.8531 53.904 27.1891 53.488 27.3598 53.136C27.5411 52.7733 27.6318 52.416 27.6318 52.064C27.6318 51.5413 27.4558 51.1413 27.1038 50.864C26.7518 50.5867 26.2344 50.448 25.5518 50.448C24.4104 50.448 23.5358 50.8373 22.9278 51.616L21.4718 50.496C21.9091 49.9093 22.4958 49.456 23.2318 49.136C23.9784 48.8053 24.8104 48.64 25.7278 48.64C26.9438 48.64 27.9144 48.928 28.6398 49.504C29.3651 50.08 29.7278 50.864 29.7278 51.856C29.7278 52.464 29.5998 53.0347 29.3438 53.568C29.0878 54.1013 28.5971 54.7093 27.8718 55.392L24.8798 58.24H30.1597ZM35.9854 60.16C35.0894 60.16 34.2894 59.936 33.5854 59.488C32.8814 59.0293 32.3267 58.368 31.9214 57.504C31.516 56.6293 31.3134 55.5947 31.3134 54.4C31.3134 53.2053 31.516 52.176 31.9214 51.312C32.3267 50.4373 32.8814 49.776 33.5854 49.328C34.2894 48.8693 35.0894 48.64 35.9854 48.64C36.8814 48.64 37.6814 48.8693 38.3854 49.328C39.1 49.776 39.66 50.4373 40.0654 51.312C40.4707 52.176 40.6734 53.2053 40.6734 54.4C40.6734 55.5947 40.4707 56.6293 40.0654 57.504C39.66 58.368 39.1 59.0293 38.3854 59.488C37.6814 59.936 36.8814 60.16 35.9854 60.16ZM35.9854 58.352C36.7854 58.352 37.4147 58.0213 37.8734 57.36C38.3427 56.6987 38.5774 55.712 38.5774 54.4C38.5774 53.088 38.3427 52.1013 37.8734 51.44C37.4147 50.7787 36.7854 50.448 35.9854 50.448C35.196 50.448 34.5667 50.7787 34.0974 51.44C33.6387 52.1013 33.4094 53.088 33.4094 54.4C33.4094 55.712 33.6387 56.6987 34.0974 57.36C34.5667 58.0213 35.196 58.352 35.9854 58.352ZM46.751 60.16C45.855 60.16 45.055 59.936 44.351 59.488C43.647 59.0293 43.0923 58.368 42.687 57.504C42.2817 56.6293 42.079 55.5947 42.079 54.4C42.079 53.2053 42.2817 52.176 42.687 51.312C43.0923 50.4373 43.647 49.776 44.351 49.328C45.055 48.8693 45.855 48.64 46.751 48.64C47.647 48.64 48.447 48.8693 49.151 49.328C49.8657 49.776 50.4257 50.4373 50.831 51.312C51.2363 52.176 51.439 53.2053 51.439 54.4C51.439 55.5947 51.2363 56.6293 50.831 57.504C50.4257 58.368 49.8657 59.0293 49.151 59.488C48.447 59.936 47.647 60.16 46.751 60.16ZM46.751 58.352C47.551 58.352 48.1803 58.0213 48.639 57.36C49.1083 56.6987 49.343 55.712 49.343 54.4C49.343 53.088 49.1083 52.1013 48.639 51.44C48.1803 50.7787 47.551 50.448 46.751 50.448C45.9617 50.448 45.3323 50.7787 44.863 51.44C44.4043 52.1013 44.175 53.088 44.175 54.4C44.175 55.712 44.4043 56.6987 44.863 57.36C45.3323 58.0213 45.9617 58.352 46.751 58.352ZM60.6348 55.2H57.8028V58H56.0908V55.2H53.2588V53.6H56.0908V50.8H57.8028V53.6H60.6348V55.2Z" fill="white"/>
</g>
<defs>
<clipPath id="clip0">
<rect width="64" height="64" fill="white"/>
</clipPath>
</defs>
</svg>
