<svg width="88" height="65" viewBox="0 0 88 65" fill="none" xmlns="http://www.w3.org/2000/svg">
<circle cx="32" cy="32" r="32" fill="#1388F7"/>
<path d="M16.32 31.7C17.5467 31.9 18.4867 32.36 19.14 33.08C19.7933 33.7867 20.12 34.6667 20.12 35.72C20.12 36.5333 19.9067 37.2867 19.48 37.98C19.0533 38.66 18.4 39.2067 17.52 39.62C16.6533 40.0333 15.5867 40.24 14.32 40.24C13.3333 40.24 12.36 40.1133 11.4 39.86C10.4533 39.5933 9.64667 39.22 8.98 38.74L10.24 36.26C10.7733 36.66 11.3867 36.9733 12.08 37.2C12.7867 37.4133 13.5067 37.52 14.24 37.52C15.0533 37.52 15.6933 37.3667 16.16 37.06C16.6267 36.74 16.86 36.2933 16.86 35.72C16.86 34.5733 15.9867 34 14.24 34H12.76V31.86L15.64 28.6H9.68V26H19.48V28.1L16.32 31.7ZM36.62 31.8H31.1V40H28V29.24H36.62V31.8ZM42.8642 40.16C41.7309 40.16 40.7109 39.9267 39.8042 39.46C38.9109 38.98 38.2109 38.32 37.7042 37.48C37.1976 36.64 36.9442 35.6867 36.9442 34.62C36.9442 33.5533 37.1976 32.6 37.7042 31.76C38.2109 30.92 38.9109 30.2667 39.8042 29.8C40.7109 29.32 41.7309 29.08 42.8642 29.08C43.9976 29.08 45.0109 29.32 45.9042 29.8C46.7976 30.2667 47.4976 30.92 48.0042 31.76C48.5109 32.6 48.7642 33.5533 48.7642 34.62C48.7642 35.6867 48.5109 36.64 48.0042 37.48C47.4976 38.32 46.7976 38.98 45.9042 39.46C45.0109 39.9267 43.9976 40.16 42.8642 40.16ZM42.8642 37.6C43.6642 37.6 44.3176 37.3333 44.8242 36.8C45.3442 36.2533 45.6042 35.5267 45.6042 34.62C45.6042 33.7133 45.3442 32.9933 44.8242 32.46C44.3176 31.9133 43.6642 31.64 42.8642 31.64C42.0642 31.64 41.4042 31.9133 40.8842 32.46C40.3642 32.9933 40.1042 33.7133 40.1042 34.62C40.1042 35.5267 40.3642 36.2533 40.8842 36.8C41.4042 37.3333 42.0642 37.6 42.8642 37.6ZM62.8139 37.44V42.32H59.9139V40H52.3539V42.32H49.4539V37.44H49.8939C50.5606 37.4267 51.0206 37.0333 51.2739 36.26C51.5272 35.4867 51.6872 34.3867 51.7539 32.96L51.8939 29.24H61.2739V37.44H62.8139ZM54.5739 33.18C54.5339 34.2733 54.4472 35.1667 54.3139 35.86C54.1939 36.5533 53.9606 37.08 53.6139 37.44H58.1539V31.8H54.6339L54.5739 33.18ZM68.9573 29.08C70.624 29.08 71.904 29.48 72.7973 30.28C73.6907 31.0667 74.1373 32.26 74.1373 33.86V40H71.2173V38.66C70.6307 39.66 69.5373 40.16 67.9373 40.16C67.1107 40.16 66.3907 40.02 65.7773 39.74C65.1773 39.46 64.7173 39.0733 64.3973 38.58C64.0773 38.0867 63.9173 37.5267 63.9173 36.9C63.9173 35.9 64.2907 35.1133 65.0373 34.54C65.7973 33.9667 66.964 33.68 68.5373 33.68H71.0173C71.0173 33 70.8107 32.48 70.3973 32.12C69.984 31.7467 69.364 31.56 68.5373 31.56C67.964 31.56 67.3973 31.6533 66.8373 31.84C66.2907 32.0133 65.824 32.2533 65.4373 32.56L64.3173 30.38C64.904 29.9667 65.604 29.6467 66.4173 29.42C67.244 29.1933 68.0907 29.08 68.9573 29.08ZM68.7173 38.06C69.2507 38.06 69.724 37.94 70.1373 37.7C70.5507 37.4467 70.844 37.08 71.0173 36.6V35.5H68.8773C67.5973 35.5 66.9573 35.92 66.9573 36.76C66.9573 37.16 67.1107 37.48 67.4173 37.72C67.7373 37.9467 68.1707 38.06 68.7173 38.06Z" fill="#002766"/>
<path d="M15.32 30.7C16.5467 30.9 17.4867 31.36 18.14 32.08C18.7933 32.7867 19.12 33.6667 19.12 34.72C19.12 35.5333 18.9067 36.2867 18.48 36.98C18.0533 37.66 17.4 38.2067 16.52 38.62C15.6533 39.0333 14.5867 39.24 13.32 39.24C12.3333 39.24 11.36 39.1133 10.4 38.86C9.45333 38.5933 8.64667 38.22 7.98 37.74L9.24 35.26C9.77333 35.66 10.3867 35.9733 11.08 36.2C11.7867 36.4133 12.5067 36.52 13.24 36.52C14.0533 36.52 14.6933 36.3667 15.16 36.06C15.6267 35.74 15.86 35.2933 15.86 34.72C15.86 33.5733 14.9867 33 13.24 33H11.76V30.86L14.64 27.6H8.68V25H18.48V27.1L15.32 30.7ZM35.62 30.8H30.1V39H27V28.24H35.62V30.8ZM41.8642 39.16C40.7309 39.16 39.7109 38.9267 38.8042 38.46C37.9109 37.98 37.2109 37.32 36.7042 36.48C36.1976 35.64 35.9442 34.6867 35.9442 33.62C35.9442 32.5533 36.1976 31.6 36.7042 30.76C37.2109 29.92 37.9109 29.2667 38.8042 28.8C39.7109 28.32 40.7309 28.08 41.8642 28.08C42.9976 28.08 44.0109 28.32 44.9042 28.8C45.7976 29.2667 46.4976 29.92 47.0042 30.76C47.5109 31.6 47.7642 32.5533 47.7642 33.62C47.7642 34.6867 47.5109 35.64 47.0042 36.48C46.4976 37.32 45.7976 37.98 44.9042 38.46C44.0109 38.9267 42.9976 39.16 41.8642 39.16ZM41.8642 36.6C42.6642 36.6 43.3176 36.3333 43.8242 35.8C44.3442 35.2533 44.6042 34.5267 44.6042 33.62C44.6042 32.7133 44.3442 31.9933 43.8242 31.46C43.3176 30.9133 42.6642 30.64 41.8642 30.64C41.0642 30.64 40.4042 30.9133 39.8842 31.46C39.3642 31.9933 39.1042 32.7133 39.1042 33.62C39.1042 34.5267 39.3642 35.2533 39.8842 35.8C40.4042 36.3333 41.0642 36.6 41.8642 36.6ZM61.8139 36.44V41.32H58.9139V39H51.3539V41.32H48.4539V36.44H48.8939C49.5606 36.4267 50.0206 36.0333 50.2739 35.26C50.5272 34.4867 50.6872 33.3867 50.7539 31.96L50.8939 28.24H60.2739V36.44H61.8139ZM53.5739 32.18C53.5339 33.2733 53.4472 34.1667 53.3139 34.86C53.1939 35.5533 52.9606 36.08 52.6139 36.44H57.1539V30.8H53.6339L53.5739 32.18ZM67.9573 28.08C69.624 28.08 70.904 28.48 71.7973 29.28C72.6907 30.0667 73.1373 31.26 73.1373 32.86V39H70.2173V37.66C69.6307 38.66 68.5373 39.16 66.9373 39.16C66.1107 39.16 65.3907 39.02 64.7773 38.74C64.1773 38.46 63.7173 38.0733 63.3973 37.58C63.0773 37.0867 62.9173 36.5267 62.9173 35.9C62.9173 34.9 63.2907 34.1133 64.0373 33.54C64.7973 32.9667 65.964 32.68 67.5373 32.68H70.0173C70.0173 32 69.8107 31.48 69.3973 31.12C68.984 30.7467 68.364 30.56 67.5373 30.56C66.964 30.56 66.3973 30.6533 65.8373 30.84C65.2907 31.0133 64.824 31.2533 64.4373 31.56L63.3173 29.38C63.904 28.9667 64.604 28.6467 65.4173 28.42C66.244 28.1933 67.0907 28.08 67.9573 28.08ZM67.7173 37.06C68.2507 37.06 68.724 36.94 69.1373 36.7C69.5507 36.4467 69.844 36.08 70.0173 35.6V34.5H67.8773C66.5973 34.5 65.9573 34.92 65.9573 35.76C65.9573 36.16 66.1107 36.48 66.4173 36.72C66.7373 36.9467 67.1707 37.06 67.7173 37.06Z" fill="white"/>
</svg>
