<svg width="64" height="64" viewBox="0 0 64 64" fill="none" xmlns="http://www.w3.org/2000/svg">
<circle cx="32" cy="32" r="32" fill="#1388F7"/>
<path d="M15.4929 31.512C17.8609 31.512 19.6049 31.984 20.7249 32.928C21.8609 33.872 22.4289 35.136 22.4289 36.72C22.4289 37.744 22.1729 38.68 21.6609 39.528C21.1489 40.36 20.3649 41.032 19.3089 41.544C18.2689 42.04 16.9809 42.288 15.4449 42.288C14.2609 42.288 13.0929 42.136 11.9409 41.832C10.8049 41.512 9.83688 41.064 9.03688 40.488L10.5729 37.512C11.2129 37.992 11.9489 38.368 12.7809 38.64C13.6129 38.896 14.4689 39.024 15.3489 39.024C16.3249 39.024 17.0929 38.832 17.6529 38.448C18.2129 38.064 18.4929 37.528 18.4929 36.84C18.4929 36.12 18.1969 35.576 17.6049 35.208C17.0289 34.84 16.0209 34.656 14.5809 34.656H10.2849L11.1489 25.2H21.3969V28.32H14.3889L14.1249 31.512H15.4929ZM31.2063 42.288C29.8143 42.288 28.5743 41.944 27.4863 41.256C26.3983 40.568 25.5423 39.576 24.9183 38.28C24.3103 36.968 24.0063 35.408 24.0063 33.6C24.0063 31.792 24.3103 30.24 24.9183 28.944C25.5423 27.632 26.3983 26.632 27.4863 25.944C28.5743 25.256 29.8143 24.912 31.2063 24.912C32.5983 24.912 33.8383 25.256 34.9263 25.944C36.0143 26.632 36.8623 27.632 37.4703 28.944C38.0943 30.24 38.4063 31.792 38.4063 33.6C38.4063 35.408 38.0943 36.968 37.4703 38.28C36.8623 39.576 36.0143 40.568 34.9263 41.256C33.8383 41.944 32.5983 42.288 31.2063 42.288ZM31.2063 39C32.2303 39 33.0303 38.56 33.6063 37.68C34.1983 36.8 34.4943 35.44 34.4943 33.6C34.4943 31.76 34.1983 30.4 33.6063 29.52C33.0303 28.64 32.2303 28.2 31.2063 28.2C30.1983 28.2 29.3983 28.64 28.8063 29.52C28.2303 30.4 27.9423 31.76 27.9423 33.6C27.9423 35.44 28.2303 36.8 28.8063 37.68C29.3983 38.56 30.1983 39 31.2063 39ZM46.6314 36.936L44.8314 38.712V42H41.0874V24.192H44.8314V34.272L50.3034 29.088H54.7674L49.3914 34.56L55.2474 42H50.7114L46.6314 36.936Z" fill="#002766"/>
<path d="M15.4929 29.512C17.8609 29.512 19.6049 29.984 20.7249 30.928C21.8609 31.872 22.4289 33.136 22.4289 34.72C22.4289 35.744 22.1729 36.68 21.6609 37.528C21.1489 38.36 20.3649 39.032 19.3089 39.544C18.2689 40.04 16.9809 40.288 15.4449 40.288C14.2609 40.288 13.0929 40.136 11.9409 39.832C10.8049 39.512 9.83688 39.064 9.03688 38.488L10.5729 35.512C11.2129 35.992 11.9489 36.368 12.7809 36.64C13.6129 36.896 14.4689 37.024 15.3489 37.024C16.3249 37.024 17.0929 36.832 17.6529 36.448C18.2129 36.064 18.4929 35.528 18.4929 34.84C18.4929 34.12 18.1969 33.576 17.6049 33.208C17.0289 32.84 16.0209 32.656 14.5809 32.656H10.2849L11.1489 23.2H21.3969V26.32H14.3889L14.1249 29.512H15.4929ZM31.2063 40.288C29.8143 40.288 28.5743 39.944 27.4863 39.256C26.3983 38.568 25.5423 37.576 24.9183 36.28C24.3103 34.968 24.0063 33.408 24.0063 31.6C24.0063 29.792 24.3103 28.24 24.9183 26.944C25.5423 25.632 26.3983 24.632 27.4863 23.944C28.5743 23.256 29.8143 22.912 31.2063 22.912C32.5983 22.912 33.8383 23.256 34.9263 23.944C36.0143 24.632 36.8623 25.632 37.4703 26.944C38.0943 28.24 38.4063 29.792 38.4063 31.6C38.4063 33.408 38.0943 34.968 37.4703 36.28C36.8623 37.576 36.0143 38.568 34.9263 39.256C33.8383 39.944 32.5983 40.288 31.2063 40.288ZM31.2063 37C32.2303 37 33.0303 36.56 33.6063 35.68C34.1983 34.8 34.4943 33.44 34.4943 31.6C34.4943 29.76 34.1983 28.4 33.6063 27.52C33.0303 26.64 32.2303 26.2 31.2063 26.2C30.1983 26.2 29.3983 26.64 28.8063 27.52C28.2303 28.4 27.9423 29.76 27.9423 31.6C27.9423 33.44 28.2303 34.8 28.8063 35.68C29.3983 36.56 30.1983 37 31.2063 37ZM46.6314 34.936L44.8314 36.712V40H41.0874V22.192H44.8314V32.272L50.3034 27.088H54.7674L49.3914 32.56L55.2474 40H50.7114L46.6314 34.936Z" fill="white"/>
</svg>
