<svg width="64" height="64" viewBox="0 0 64 64" fill="none" xmlns="http://www.w3.org/2000/svg">
<g clip-path="url(#clip0)">
<path fill-rule="evenodd" clip-rule="evenodd" d="M61.1098 14.67C61.1098 13.8719 61.7627 13.2189 62.5608 13.2189C63.3589 13.2189 64.0119 13.8719 63.9998 14.67V53.1721C63.9998 58.8435 59.3926 63.4507 53.7213 63.4507H18.2785C14.9702 63.4507 12.024 61.8829 10.1432 59.4507H14.3889C15.518 60.1539 16.8507 60.5606 18.2785 60.5606H53.7334C57.7964 60.5606 61.1098 57.2594 61.1098 53.1842V14.67Z" fill="white"/>
</g>
<path d="M54.5608 5.21887C53.7627 5.21887 53.1098 5.87186 53.1098 6.66995V45.1842C53.1098 49.2594 49.7964 52.5606 45.7334 52.5606H10.2785C6.20339 52.5606 2.90217 49.2473 2.90217 45.1842V3.63476H45.3827V41.0003C45.3827 41.7983 46.0357 42.4513 46.8338 42.4513C47.6319 42.4513 48.2849 41.7983 48.2849 41.0003V2.18368C48.2849 1.38558 47.6319 0.73259 46.8338 0.73259H1.45109C0.652989 0.73259 0 1.38558 0 2.18368V45.1721C0 50.8435 4.6072 55.4507 10.2785 55.4507H45.7213C51.3926 55.4507 55.9998 50.8435 55.9998 45.1721V6.66995C56.0119 5.87186 55.3589 5.21887 54.5608 5.21887Z" fill="white"/>
<path d="M39.8202 12.0027C40.6183 12.0027 41.2713 11.3497 41.2713 10.5516C41.2713 9.75351 40.6183 9.10052 39.8202 9.10052H8.18654C7.38845 9.10052 6.73546 9.75351 6.73546 10.5516C6.73546 11.3497 7.38845 12.0027 8.18654 12.0027H39.8202Z" fill="#1388F7"/>
<path d="M39.8202 38.6785H8.18654C7.38845 38.6785 6.73546 39.3315 6.73546 40.1296C6.73546 40.9277 7.38845 41.5807 8.18654 41.5807H39.8081C40.6062 41.5807 41.2592 40.9277 41.2592 40.1296C41.2592 39.3315 40.6183 38.6785 39.8202 38.6785Z" fill="white"/>
<path d="M39.8202 46.1153H13.2049C12.4068 46.1153 11.7538 46.7683 11.7538 47.5664C11.7538 48.3645 12.4068 49.0175 13.2049 49.0175H39.8202C40.6183 49.0175 41.2713 48.3645 41.2713 47.5664C41.2713 46.7683 40.6183 46.1153 39.8202 46.1153Z" fill="white"/>
<path d="M6.25175 17.0694V32.7653C6.25175 33.5634 6.90474 34.2164 7.70284 34.2164H23.4592C24.2573 34.2164 24.9103 33.5634 24.9103 32.7653V17.0694C24.9103 16.2713 24.2573 15.6183 23.4592 15.6183H7.70284C6.90474 15.6183 6.25175 16.2713 6.25175 17.0694ZM9.15393 18.5205H22.0081V31.3142H9.15393V18.5205Z" fill="#1388F7"/>
<path d="M40.5941 17.0694H30.1584C29.3603 17.0694 28.7073 17.7224 28.7073 18.5205C28.7073 19.3186 29.3603 19.9716 30.1584 19.9716H40.5941C41.3922 19.9716 42.0452 19.3186 42.0452 18.5205C42.0452 17.7224 41.4043 17.0694 40.5941 17.0694Z" fill="white"/>
<path d="M40.5941 23.6235H30.1584C29.3603 23.6235 28.7073 24.2765 28.7073 25.0746C28.7073 25.8727 29.3603 26.5257 30.1584 26.5257H40.5941C41.3922 26.5257 42.0452 25.8727 42.0452 25.0746C42.0452 24.2765 41.4043 23.6235 40.5941 23.6235Z" fill="white"/>
<path d="M42.0452 32.0398C42.0452 31.2417 41.3922 30.5887 40.5941 30.5887H30.1584C29.3603 30.5887 28.7073 31.2417 28.7073 32.0398C28.7073 32.8379 29.3603 33.4909 30.1584 33.4909H40.5941C41.4043 33.4909 42.0452 32.8379 42.0452 32.0398Z" fill="white"/>
<defs>
<clipPath id="clip0">
<rect width="56" height="56" fill="white" transform="translate(8 8)"/>
</clipPath>
</defs>
</svg>
