<svg width="56" height="56" viewBox="0 0 56 56" fill="none" xmlns="http://www.w3.org/2000/svg">
<path d="M33.866 7.27352C34.034 7.27352 34.2044 7.23469 34.3642 7.15277C34.9017 6.87714 35.1139 6.21794 34.8383 5.68047L34.8267 5.65816C34.5456 5.12343 33.8851 4.91944 33.3504 5.20021C32.8157 5.4813 32.6108 6.14389 32.8919 6.67863C33.0856 7.05641 33.4687 7.27352 33.866 7.27352Z" fill="white"/>
<path d="M5.82536 41.2651C5.42395 40.8135 4.73259 40.7729 4.2812 41.1742C3.83955 41.5668 3.79099 42.2368 4.16472 42.6885C4.38008 42.9503 4.69333 43.0871 5.00986 43.0871C5.24458 43.0871 5.48105 43.0119 5.68055 42.8566C6.15742 42.4858 6.24328 41.7987 5.87239 41.3218C5.85774 41.3029 5.84122 41.283 5.82536 41.2651Z" fill="white"/>
<ellipse cx="28" cy="28" rx="5.25" ry="5.25" fill="#1388F7"/>
<path d="M27.9348 22.0938C24.6781 22.0938 22.0286 24.7433 22.0286 28C22.0286 31.2568 24.6781 33.9062 27.9348 33.9062C31.1916 33.9062 33.8411 31.2568 33.8411 28C33.8411 24.7433 31.1916 22.0938 27.9348 22.0938ZM27.9348 31.7188C25.8843 31.7188 24.2161 30.0506 24.2161 28C24.2161 25.9494 25.8843 24.2812 27.9348 24.2812C29.9854 24.2812 31.6536 25.9494 31.6536 28C31.6536 30.0506 29.9854 31.7188 27.9348 31.7188Z" fill="white"/>
<path d="M48.3238 26.5739C48.6442 26.6597 48.9693 26.7022 49.2923 26.7022C49.9368 26.7022 50.5727 26.5332 51.1457 26.2023C52.0059 25.7056 52.6213 24.9037 52.8783 23.9443C53.1354 22.9848 53.0035 21.9826 52.5069 21.1224C52.3628 20.8728 52.1923 20.6446 52.0005 20.439C53.3767 17.2857 52.8832 15.2117 52.1835 13.9999C50.5861 11.233 46.4901 10.2395 40.6507 11.2022C39.54 11.3853 38.3867 11.6354 37.2018 11.9466C37.0034 11.2184 36.7913 10.5124 36.565 9.83314C36.3741 9.26013 35.7548 8.95038 35.1816 9.14123C34.6085 9.3322 34.2988 9.95159 34.4897 10.5246C34.7067 11.1757 34.91 11.8532 35.1002 12.5526C32.7833 13.2792 30.3718 14.2224 27.9335 15.3552C25.4976 14.2243 23.0847 13.2813 20.767 12.5538C21.074 11.4287 21.4159 10.3599 21.7927 9.35944C23.5094 4.80178 25.748 2.1875 27.9348 2.1875C28.7665 2.1875 29.6115 2.56648 30.446 3.31395C30.8959 3.71689 31.5875 3.67883 31.9905 3.22886C32.3936 2.77889 32.3554 2.08742 31.9054 1.68437C30.6575 0.566672 29.3215 0 27.9348 0C24.7399 0 21.8315 3.05025 19.7454 8.58889C19.3487 9.64217 18.9888 10.7659 18.6659 11.9475C17.9613 11.7622 17.2684 11.5989 16.5892 11.4585C16.5684 11.3237 16.541 11.1893 16.5052 11.0557C16.2482 10.0963 15.6328 9.29436 14.7726 8.79769C13.9124 8.30101 12.9104 8.169 11.9507 8.42625C10.9913 8.68328 10.1893 9.29862 9.69267 10.1589C9.54851 10.4085 9.43619 10.6702 9.35405 10.9391C5.93509 11.3239 4.38558 12.7883 3.68601 14C2.08859 16.7669 3.27597 20.8107 7.02961 25.3866C7.74142 26.2544 8.5322 27.1255 9.39112 27.9934C6.14454 31.2682 3.95978 34.5229 3.24458 37.351C3.09648 37.9366 3.45118 38.5314 4.03678 38.6795C4.12679 38.7022 4.21692 38.7132 4.30573 38.7132C4.79464 38.7132 5.24001 38.3829 5.36536 37.8873C5.9877 35.4261 7.99364 32.4985 10.9675 29.5117C12.757 31.1571 14.782 32.7763 16.9852 34.3235C17.2238 36.9951 17.6132 39.5546 18.1411 41.9239C14.7538 42.822 11.7216 43.1693 9.38106 42.862C8.78256 42.7837 8.23295 43.2051 8.1542 43.804C8.07556 44.403 8.49731 44.9523 9.09625 45.0309C9.75217 45.117 10.4494 45.1593 11.1847 45.1593C13.3892 45.1593 15.9284 44.7782 18.6682 44.0569C18.8599 44.7594 19.0648 45.4407 19.2826 46.0986C18.4321 46.7807 17.886 47.8276 17.886 49.0001C17.886 51.0507 19.5541 52.7189 21.6047 52.7189C21.8952 52.7189 22.1776 52.6843 22.4491 52.621C24.4922 55.3902 26.5355 56 27.9348 56C31.1296 56 34.038 52.9497 36.1241 47.4111C36.5207 46.358 36.8806 45.2348 37.2034 44.0536C38.3877 44.3646 39.5405 44.6146 40.6507 44.7977C42.1045 45.0373 43.4503 45.1558 44.6764 45.1558C48.3749 45.1558 50.9838 44.078 52.1835 42C53.781 39.2331 52.5936 35.1893 48.8401 30.6135C48.1263 29.7433 47.3331 28.8697 46.4714 27.9995C46.9842 27.4819 47.4721 26.9635 47.9333 26.4455C48.0601 26.4947 48.1903 26.5381 48.3238 26.5739ZM50.7653 23.3781C50.6594 23.7732 50.4061 24.1034 50.0518 24.3079C49.6977 24.5125 49.285 24.5668 48.8898 24.4608C48.4948 24.355 48.1646 24.1017 47.96 23.7474C47.7555 23.3931 47.7013 22.9806 47.8071 22.5854C47.913 22.1903 48.1663 21.8601 48.5206 21.6556C48.7565 21.5193 49.0183 21.4499 49.2837 21.4499C49.4167 21.4499 49.5506 21.4674 49.6825 21.5027C50.0775 21.6086 50.4077 21.8619 50.6123 22.2161C50.8169 22.5704 50.8712 22.9831 50.7653 23.3781ZM41.0065 13.3607C45.8123 12.5684 49.1958 13.2001 50.2891 15.0938C51.0069 16.3369 50.6561 17.9724 50.0872 19.3507C49.1774 19.149 48.2389 19.2925 47.4269 19.7613C46.5667 20.258 45.9514 21.0599 45.6943 22.0194C45.4372 22.9788 45.5691 23.981 46.0658 24.8412C46.1137 24.9242 46.1652 25.004 46.2186 25.0822C45.8004 25.5488 45.3584 26.0159 44.8958 26.4825C43.1074 24.8386 41.084 23.2211 38.8828 21.6753C38.6436 19.0043 38.2538 16.4409 37.7259 14.07C38.8541 13.7729 39.9513 13.5346 41.0065 13.3607ZM32.4548 35.829C30.9516 36.6968 29.4354 37.4956 27.9276 38.2221C26.4265 37.4957 24.9166 36.696 23.4146 35.829C21.9111 34.9608 20.4618 34.0519 19.0809 33.114C18.958 31.4448 18.8946 29.7336 18.8946 28C18.8946 26.2639 18.9572 24.5546 19.0789 22.8897C20.4578 21.9521 21.9078 21.041 23.4146 20.171C24.9184 19.3028 26.4303 18.5022 27.9333 17.7751C29.4395 18.5031 30.9528 19.3039 32.4547 20.171C33.9578 21.0389 35.4065 21.9475 36.7873 22.8852C36.9109 24.5574 36.9748 26.2695 36.9748 28.0001C36.9748 29.7367 36.9123 31.4463 36.7904 33.1115C35.4072 34.0516 33.957 34.9617 32.4548 35.829ZM36.525 35.9082C36.3034 37.7981 36.0021 39.6119 35.6253 41.3203C33.9576 40.7925 32.2366 40.1469 30.4896 39.3939C31.5085 38.8688 32.5298 38.3114 33.5486 37.7233C34.5647 37.1367 35.5579 36.5303 36.525 35.9082ZM39.0778 24.5142C40.6036 25.6508 42.0234 26.8185 43.3144 27.9988C42.0232 29.1788 40.6034 30.3465 39.0795 31.4824C39.1342 30.3359 39.1623 29.1735 39.1623 28C39.1623 26.8286 39.1335 25.6647 39.0778 24.5142ZM35.6214 14.6809C35.9969 16.3889 36.2981 18.2025 36.5202 20.0876C35.5555 19.4675 34.5639 18.8627 33.5487 18.2766C32.5327 17.69 31.5108 17.133 30.4884 16.6065C32.2345 15.854 33.9547 15.2087 35.6214 14.6809ZM25.378 16.6073C24.3578 17.1332 23.3371 17.69 22.3209 18.2767C21.3006 18.8657 20.3078 19.4715 19.3447 20.0902C19.5662 18.2016 19.8673 16.3892 20.2437 14.6817C21.9115 15.21 23.6325 15.8555 25.378 16.6073ZM11.587 11.2525C11.7916 10.8982 12.1218 10.6449 12.5168 10.539C12.6487 10.5037 12.7826 10.4862 12.9156 10.4862C13.181 10.4862 13.4428 10.5558 13.6787 10.692C14.033 10.8965 14.2863 11.2267 14.3922 11.6217C14.4981 12.0168 14.4437 12.4295 14.2393 12.7837C14.0347 13.138 13.7045 13.3913 13.3095 13.4972C12.9145 13.6031 12.5019 13.5487 12.1475 13.3443C11.7932 13.1398 11.5399 12.8096 11.434 12.4145C11.3283 12.0194 11.3826 11.6068 11.587 11.2525ZM5.5805 15.0938C6.29822 13.8506 7.89006 13.3366 9.36815 13.1402C9.64837 14.0289 10.2418 14.7699 11.0538 15.2387C11.6269 15.5695 12.2628 15.7385 12.9072 15.7385C13.2302 15.7385 13.5554 15.6961 13.8757 15.6102C14.8352 15.3532 15.6371 14.7378 16.1338 13.8776C16.1816 13.7948 16.2249 13.7104 16.266 13.6251C16.8792 13.7539 17.5047 13.9029 18.1401 14.0703C17.6112 16.4391 17.2222 18.9978 16.984 21.6745C14.7642 23.2318 12.7424 24.8497 10.9679 26.4782C10.1494 25.6519 9.39703 24.8235 8.72087 23.9993C5.63179 20.2334 4.48718 16.9875 5.5805 15.0938ZM12.5517 27.9981C13.8357 26.8287 15.2567 25.6607 16.7899 24.5184C16.7352 25.6646 16.7071 26.8268 16.7071 28C16.7071 29.1728 16.7359 30.3364 16.7911 31.4855C15.2643 30.348 13.8437 29.1794 12.5517 27.9981ZM19.347 35.9108C20.3124 36.5314 21.3049 37.1367 22.321 37.7234C23.3342 38.3085 24.352 38.8638 25.3693 39.3883C23.6204 40.1393 21.9009 40.783 20.2445 41.3092C19.8695 39.6037 19.5685 37.794 19.347 35.9108ZM20.0737 49C20.0737 48.1556 20.7605 47.4688 21.6049 47.4688C22.4493 47.4688 23.1362 48.1556 23.1362 49C23.1362 49.8444 22.4493 50.5312 21.6049 50.5312C20.7605 50.5312 20.0737 49.8444 20.0737 49ZM34.077 46.6401C32.3602 51.1982 30.1214 53.8125 27.9348 53.8125C26.4987 53.8125 25.2574 52.6902 24.348 51.5078C24.9535 50.846 25.3236 49.9655 25.3236 49C25.3236 46.9494 23.6554 45.2812 21.6048 45.2812C21.5091 45.2812 21.4145 45.2861 21.3205 45.2932C21.1257 44.6982 20.9419 44.0829 20.7693 43.4492C23.0709 42.7259 25.483 41.7832 27.9338 40.6447C30.3726 41.7779 32.7847 42.721 35.102 43.4477C34.7953 44.5722 34.4535 45.6403 34.077 46.6401ZM50.2891 40.9062C49.1958 42.8 45.8123 43.4317 41.0065 42.6393C39.9524 42.4655 38.8564 42.2275 37.7292 41.931C38.2586 39.5606 38.6478 36.9999 38.886 34.3211C41.0834 32.7768 43.1066 31.1589 44.8952 29.5154C45.7161 30.3438 46.4707 31.1743 47.1486 32.0008C50.2378 35.7666 51.3824 39.0125 50.2891 40.9062Z" fill="white"/>
</svg>
