<svg width="64" height="64" viewBox="0 0 64 64" fill="none" xmlns="http://www.w3.org/2000/svg">
<path d="M62.9333 61.8667H56.5333V26.6667C56.5333 26.0776 56.0557 25.6 55.4667 25.6H40.5333V1.06667C40.5333 0.4776 40.0557 0 39.4667 0H11.7333C11.1443 0 10.6667 0.4776 10.6667 1.06667V61.8667H1.06667C0.4776 61.8667 0 62.3443 0 62.9333C0 63.5224 0.4776 64 1.06667 64H62.9333C63.5224 64 64 63.5224 64 62.9333C64 62.3443 63.5224 61.8667 62.9333 61.8667ZM22.4 61.8667H18.1333V52.2667C18.1333 51.6776 18.6109 51.2 19.2 51.2H21.3333C21.9224 51.2 22.4 51.6776 22.4 52.2667V61.8667ZM26.6667 26.6667V61.8667H24.5333V52.2667C24.5333 50.4993 23.1007 49.0667 21.3333 49.0667H19.2C17.4327 49.0667 16 50.4993 16 52.2667V61.8667H12.8V2.13333H38.4V25.6H27.7333C27.1443 25.6 26.6667 26.0776 26.6667 26.6667ZM54.4 61.8667H28.8V27.7333H54.4V61.8667Z" fill="#002766"/>
<path d="M34.1334 14.9333H27.7334C27.1443 14.9333 26.6667 15.4109 26.6667 16V22.4C26.6667 22.9891 27.1443 23.4667 27.7334 23.4667H34.1334C34.7224 23.4667 35.2 22.9891 35.2 22.4V16C35.2 15.4109 34.7224 14.9333 34.1334 14.9333ZM33.0667 21.3334H28.8V17.0667H33.0667V21.3334Z" fill="#002766"/>
<path d="M34.1334 4.2666H27.7334C27.1443 4.2666 26.6667 4.7442 26.6667 5.33327V11.7333C26.6667 12.3223 27.1443 12.7999 27.7334 12.7999H34.1334C34.7224 12.7999 35.2 12.3223 35.2 11.7333V5.33327C35.2 4.7442 34.7224 4.2666 34.1334 4.2666ZM33.0667 10.6666H28.8V6.39993H33.0667V10.6666Z" fill="#002766"/>
<path d="M23.4667 14.9333H17.0667C16.4776 14.9333 16 15.4109 16 16V22.4C16 22.9891 16.4776 23.4667 17.0667 23.4667H23.4667C24.0557 23.4667 24.5333 22.9891 24.5333 22.4V16C24.5333 15.4109 24.0557 14.9333 23.4667 14.9333ZM22.4 21.3334H18.1333V17.0667H22.4V21.3334Z" fill="#002766"/>
<path d="M23.4667 4.2666H17.0667C16.4776 4.2666 16 4.7442 16 5.33327V11.7333C16 12.3223 16.4776 12.7999 17.0667 12.7999H23.4667C24.0557 12.7999 24.5333 12.3223 24.5333 11.7333V5.33327C24.5333 4.7442 24.0557 4.2666 23.4667 4.2666ZM22.4 10.6666H18.1333V6.39993H22.4V10.6666Z" fill="#002766"/>
<path d="M23.4667 25.6001H17.0667C16.4776 25.6001 16 26.0777 16 26.6668V33.0668C16 33.6558 16.4776 34.1334 17.0667 34.1334H23.4667C24.0557 34.1334 24.5333 33.6558 24.5333 33.0668V26.6668C24.5333 26.0777 24.0557 25.6001 23.4667 25.6001ZM22.4 32.0001H18.1333V27.7334H22.4V32.0001Z" fill="#002766"/>
<path d="M23.4667 36.2666H17.0667C16.4776 36.2666 16 36.7442 16 37.3333V43.7333C16 44.3223 16.4776 44.7999 17.0667 44.7999H23.4667C24.0557 44.7999 24.5333 44.3223 24.5333 43.7333V37.3333C24.5333 36.7442 24.0557 36.2666 23.4667 36.2666ZM22.4 42.6666H18.1333V38.3999H22.4V42.6666Z" fill="#002766"/>
<path d="M43.7334 49.0668H50.1334C50.7224 49.0668 51.2 48.5892 51.2 48.0001V41.6001C51.2 41.011 50.7224 40.5334 50.1334 40.5334H43.7334C43.1443 40.5334 42.6667 41.011 42.6667 41.6001V48.0001C42.6667 48.5892 43.1443 49.0668 43.7334 49.0668ZM44.8 42.6668H49.0667V46.9334H44.8V42.6668Z" fill="#002766"/>
<path d="M43.7334 38.4H50.1334C50.7224 38.4 51.2 37.9224 51.2 37.3334V30.9334C51.2 30.3443 50.7224 29.8667 50.1334 29.8667H43.7334C43.1443 29.8667 42.6667 30.3443 42.6667 30.9334V37.3334C42.6667 37.9224 43.1443 38.4 43.7334 38.4ZM44.8 32H49.0667V36.2667H44.8V32Z" fill="#002766"/>
<path d="M43.7334 59.7333H50.1334C50.7224 59.7333 51.2 59.2557 51.2 58.6666V52.2666C51.2 51.6776 50.7224 51.2 50.1334 51.2H43.7334C43.1443 51.2 42.6667 51.6776 42.6667 52.2666V58.6666C42.6667 59.2557 43.1443 59.7333 43.7334 59.7333ZM44.8 53.3333H49.0667V57.6H44.8V53.3333Z" fill="#002766"/>
<path d="M33.0667 49.0668H39.4667C40.0557 49.0668 40.5333 48.5892 40.5333 48.0001V41.6001C40.5333 41.011 40.0557 40.5334 39.4667 40.5334H33.0667C32.4776 40.5334 32 41.011 32 41.6001V48.0001C32 48.5892 32.4776 49.0668 33.0667 49.0668ZM34.1333 42.6668H38.4V46.9334H34.1333V42.6668Z" fill="#002766"/>
<path d="M33.0667 38.4H39.4667C40.0557 38.4 40.5333 37.9224 40.5333 37.3334V30.9334C40.5333 30.3443 40.0557 29.8667 39.4667 29.8667H33.0667C32.4776 29.8667 32 30.3443 32 30.9334V37.3334C32 37.9224 32.4776 38.4 33.0667 38.4ZM34.1333 32H38.4V36.2667H34.1333V32Z" fill="#002766"/>
<path d="M33.0667 59.7333H39.4667C40.0557 59.7333 40.5333 59.2557 40.5333 58.6666V52.2666C40.5333 51.6776 40.0557 51.2 39.4667 51.2H33.0667C32.4776 51.2 32 51.6776 32 52.2666V58.6666C32 59.2557 32.4776 59.7333 33.0667 59.7333ZM34.1333 53.3333H38.4V57.6H34.1333V53.3333Z" fill="#002766"/>
</svg>
