<svg width="32" height="32" viewBox="0 0 32 32" fill="none" xmlns="http://www.w3.org/2000/svg">
<path d="M15.9999 25.3654C16.6902 25.3654 17.2498 24.8058 17.2498 24.1155C17.2498 23.4252 16.6902 22.8656 15.9999 22.8656C15.3096 22.8656 14.75 23.4252 14.75 24.1155C14.75 24.8058 15.3096 25.3654 15.9999 25.3654Z" fill="white"/>
<path d="M19.4868 7.27966H12.5127C12.1218 7.27966 11.8037 7.58292 11.8037 7.95497V21.1381C11.8037 21.5105 12.1216 21.8134 12.5127 21.8134H19.4868C19.8777 21.8134 20.1958 21.5102 20.1958 21.1381V7.95497C20.1956 7.5826 19.8777 7.27966 19.4868 7.27966Z" fill="white"/>
<path d="M15.9995 0C7.16331 0 0 7.16384 0 15.9997C0 24.8355 7.16331 32 15.9995 32C24.8356 32 31.9998 24.8359 31.9998 15.9997C31.9998 7.16341 24.8356 0 15.9995 0ZM22.2243 23.8956C22.2243 25.1178 21.2334 26.1088 20.0111 26.1088H11.9883C10.7661 26.1088 9.77504 25.1179 9.77504 23.8956V8.03445C9.77504 6.81227 10.766 5.82123 11.9883 5.82123H20.0111C21.2333 5.82123 22.2243 6.81216 22.2243 8.03445V23.8956Z" fill="white"/>
</svg>
