<svg width="24" height="24" viewBox="0 0 24 24" fill="none" xmlns="http://www.w3.org/2000/svg">
<g clip-path="url(#clip0)">
<mask id="path-1-inside-1" fill="white">
<path d="M3.99501e-06 4C1.78863e-06 2.89543 0.895433 2 2 2H7.33333C7.76607 2 8.18714 2.14036 8.53333 2.4L11.4667 4.6C11.8129 4.85964 12.2339 5 12.6667 5H22C23.1046 5 24 5.89543 24 7V20C24 21.1046 23.1046 22 22 22H2.00004C0.895469 22 3.81614e-05 21.1046 3.5955e-05 20L3.99501e-06 4Z"/>
</mask>
<path d="M11.4667 4.6L10.5667 5.8L11.4667 4.6ZM22.5 7V20H25.5V7H22.5ZM22 20.5H2.00004V23.5H22V20.5ZM1.50004 20L1.5 4L-1.5 4.00001L-1.49996 20L1.50004 20ZM12.6667 6.5H22V3.5H12.6667V6.5ZM2 3.5H7.33333V0.5H2V3.5ZM7.63333 3.6L10.5667 5.8L12.3667 3.4L9.43333 1.2L7.63333 3.6ZM7.33333 3.5C7.44152 3.5 7.54679 3.53509 7.63333 3.6L9.43333 1.2C8.8275 0.745623 8.09063 0.5 7.33333 0.5V3.5ZM12.6667 3.5C12.5585 3.5 12.4532 3.46491 12.3667 3.4L10.5667 5.8C11.1725 6.25438 11.9094 6.5 12.6667 6.5V3.5ZM2.00004 20.5C1.72389 20.5 1.50004 20.2761 1.50004 20L-1.49996 20C-1.49996 21.933 0.0670433 23.5 2.00004 23.5V20.5ZM22.5 20C22.5 20.2761 22.2762 20.5 22 20.5V23.5C23.933 23.5 25.5 21.933 25.5 20H22.5ZM25.5 7C25.5 5.067 23.933 3.5 22 3.5V6.5C22.2762 6.5 22.5 6.72386 22.5 7H25.5ZM1.5 4C1.5 3.72386 1.72386 3.5 2 3.5V0.5C0.0670047 0.5 -1.5 2.06701 -1.5 4.00001L1.5 4Z" fill="#1388F7" mask="url(#path-1-inside-1)"/>
<mask id="path-3-inside-2" fill="white">
<path d="M7.4 15C6.94133 15 6.528 14.9067 6.16 14.72C5.79733 14.528 5.512 14.264 5.304 13.928C5.10133 13.592 5 13.2107 5 12.784C5 12.3573 5.10133 11.976 5.304 11.64C5.512 11.304 5.79733 11.0427 6.16 10.856C6.528 10.664 6.94133 10.568 7.4 10.568C7.85333 10.568 8.248 10.664 8.584 10.856C8.92533 11.0427 9.17333 11.312 9.328 11.664L8.36 12.184C8.136 11.7893 7.81333 11.592 7.392 11.592C7.06667 11.592 6.79733 11.6987 6.584 11.912C6.37067 12.1253 6.264 12.416 6.264 12.784C6.264 13.152 6.37067 13.4427 6.584 13.656C6.79733 13.8693 7.06667 13.976 7.392 13.976C7.81867 13.976 8.14133 13.7787 8.36 13.384L9.328 13.912C9.17333 14.2533 8.92533 14.52 8.584 14.712C8.248 14.904 7.85333 15 7.4 15ZM12.5593 10.568C12.9593 10.568 13.322 10.6613 13.6473 10.848C13.978 11.0293 14.2366 11.288 14.4233 11.624C14.61 11.9547 14.7033 12.3413 14.7033 12.784C14.7033 13.2267 14.61 13.616 14.4233 13.952C14.2366 14.2827 13.978 14.5413 13.6473 14.728C13.322 14.9093 12.9593 15 12.5593 15C11.9673 15 11.5166 14.8133 11.2073 14.44V14.936H10.0153V9H11.2633V11.088C11.578 10.7413 12.01 10.568 12.5593 10.568ZM12.3433 13.976C12.6633 13.976 12.9246 13.8693 13.1273 13.656C13.3353 13.4373 13.4393 13.1467 13.4393 12.784C13.4393 12.4213 13.3353 12.1333 13.1273 11.92C12.9246 11.7013 12.6633 11.592 12.3433 11.592C12.0233 11.592 11.7593 11.7013 11.5513 11.92C11.3486 12.1333 11.2473 12.4213 11.2473 12.784C11.2473 13.1467 11.3486 13.4373 11.5513 13.656C11.7593 13.8693 12.0233 13.976 12.3433 13.976ZM16.9868 15C16.6294 15 16.2801 14.9573 15.9388 14.872C15.5974 14.7813 15.3254 14.6693 15.1228 14.536L15.5387 13.64C15.7307 13.7627 15.9627 13.864 16.2347 13.944C16.5067 14.0187 16.7734 14.056 17.0347 14.056C17.5628 14.056 17.8267 13.9253 17.8267 13.664C17.8267 13.5413 17.7548 13.4533 17.6108 13.4C17.4668 13.3467 17.2454 13.3013 16.9467 13.264C16.5947 13.2107 16.3041 13.1493 16.0747 13.08C15.8454 13.0107 15.6454 12.888 15.4747 12.712C15.3094 12.536 15.2268 12.2853 15.2268 11.96C15.2268 11.688 15.3041 11.448 15.4587 11.24C15.6187 11.0267 15.8481 10.8613 16.1468 10.744C16.4508 10.6267 16.8081 10.568 17.2188 10.568C17.5228 10.568 17.8241 10.6027 18.1228 10.672C18.4268 10.736 18.6774 10.8267 18.8748 10.944L18.4587 11.832C18.0801 11.6187 17.6668 11.512 17.2188 11.512C16.9521 11.512 16.7521 11.5493 16.6188 11.624C16.4854 11.6987 16.4187 11.7947 16.4187 11.912C16.4187 12.0453 16.4908 12.1387 16.6348 12.192C16.7788 12.2453 17.0081 12.296 17.3228 12.344C17.6748 12.4027 17.9628 12.4667 18.1868 12.536C18.4108 12.6 18.6054 12.72 18.7708 12.896C18.9361 13.072 19.0188 13.3173 19.0188 13.632C19.0188 13.8987 18.9388 14.136 18.7788 14.344C18.6188 14.552 18.3841 14.7147 18.0747 14.832C17.7707 14.944 17.4081 15 16.9868 15Z"/>
</mask>
<path d="M6.16 14.72L5.45817 16.0457L5.46975 16.0518L5.48144 16.0577L6.16 14.72ZM5.304 13.928L4.01956 14.7027L4.02404 14.7102L4.0286 14.7175L5.304 13.928ZM5.304 11.64L4.0286 10.8505L4.02404 10.8578L4.01956 10.8653L5.304 11.64ZM6.16 10.856L6.84648 12.1897L6.85385 12.1859L6.16 10.856ZM8.584 10.856L7.83979 12.1584L7.85197 12.1653L7.86428 12.1721L8.584 10.856ZM9.328 11.664L10.0378 12.9854L11.2588 12.3295L10.7013 11.0606L9.328 11.664ZM8.36 12.184L7.05547 12.9244L7.77884 14.1989L9.06985 13.5054L8.36 12.184ZM6.584 11.912L5.52334 10.8513L5.52334 10.8513L6.584 11.912ZM8.36 13.384L9.07828 12.0672L7.7701 11.3536L7.04793 12.657L8.36 13.384ZM9.328 13.912L10.6943 14.5311L11.2692 13.2622L10.0463 12.5952L9.328 13.912ZM8.584 14.712L7.84859 13.4046L7.83979 13.4096L8.584 14.712ZM13.6473 10.848L12.9008 12.1491L12.9134 12.1563L12.9261 12.1632L13.6473 10.848ZM14.4233 11.624L13.112 12.3525L13.1171 12.3614L14.4233 11.624ZM14.4233 13.952L15.7296 14.6894L15.7345 14.6805L14.4233 13.952ZM13.6473 14.728L14.3776 16.0382L14.3847 16.0342L13.6473 14.728ZM11.2073 14.44L12.3623 13.483L9.70731 10.2786V14.44H11.2073ZM11.2073 14.936V16.436H12.7073V14.936H11.2073ZM10.0153 14.936H8.51531V16.436H10.0153V14.936ZM10.0153 9V7.5H8.51531V9H10.0153ZM11.2633 9H12.7633V7.5H11.2633V9ZM11.2633 11.088H9.76331V14.9723L12.374 12.0962L11.2633 11.088ZM13.1273 13.656L12.0405 12.6222L12.0398 12.6229L13.1273 13.656ZM13.1273 11.92L12.0272 12.9396L12.0401 12.9536L12.0533 12.9672L13.1273 11.92ZM11.5513 11.92L10.4645 10.8862L10.4638 10.8869L11.5513 11.92ZM11.5513 13.656L10.4512 14.6756L10.4641 14.6896L10.4773 14.7032L11.5513 13.656ZM15.9388 14.872L15.5537 16.3217L15.5643 16.3245L15.5749 16.3272L15.9388 14.872ZM15.1228 14.536L13.7622 13.9043L13.2173 15.078L14.2983 15.7891L15.1228 14.536ZM15.5387 13.64L16.3463 12.376L14.9007 11.4523L14.1782 13.0083L15.5387 13.64ZM16.2347 13.944L15.8115 15.383L15.8246 15.3869L15.8377 15.3905L16.2347 13.944ZM17.6108 13.4L17.0898 14.8066L17.0898 14.8066L17.6108 13.4ZM16.9467 13.264L16.722 14.7471L16.7413 14.75L16.7607 14.7524L16.9467 13.264ZM16.0747 13.08L16.5088 11.6442L16.5088 11.6442L16.0747 13.08ZM15.4747 12.712L14.3815 13.739L14.3896 13.7477L14.3979 13.7562L15.4747 12.712ZM15.4587 11.24L14.2587 10.34L14.2551 10.3449L15.4587 11.24ZM16.1468 10.744L15.6066 9.34459L15.5983 9.34787L16.1468 10.744ZM18.1228 10.672L17.7836 12.1331L17.7986 12.1366L17.8137 12.1398L18.1228 10.672ZM18.8748 10.944L20.2331 11.5803L20.8097 10.3494L19.6414 9.6547L18.8748 10.944ZM18.4587 11.832L17.7225 13.1389L19.1312 13.9325L19.8171 12.4683L18.4587 11.832ZM16.6188 11.624L15.8858 10.3152L15.8858 10.3152L16.6188 11.624ZM16.6348 12.192L17.1557 10.7854L17.1557 10.7854L16.6348 12.192ZM17.3228 12.344L17.5693 10.8644L17.5592 10.8627L17.5489 10.8612L17.3228 12.344ZM18.1868 12.536L17.7432 13.9689L17.7589 13.9738L17.7747 13.9783L18.1868 12.536ZM18.7708 12.896L17.6775 13.923L17.6775 13.923L18.7708 12.896ZM18.7788 14.344L19.9677 15.2586L19.9677 15.2586L18.7788 14.344ZM18.0747 14.832L18.5933 16.2395L18.6 16.237L18.6067 16.2345L18.0747 14.832ZM7.4 13.5C7.15047 13.5 6.97372 13.4508 6.83856 13.3823L5.48144 16.0577C6.08228 16.3625 6.7322 16.5 7.4 16.5V13.5ZM6.86183 13.3943C6.72512 13.3219 6.64168 13.2391 6.5794 13.1385L4.0286 14.7175C4.38232 15.2889 4.86955 15.7341 5.45817 16.0457L6.86183 13.3943ZM6.58844 13.1533C6.53902 13.0713 6.5 12.9623 6.5 12.784H3.5C3.5 13.459 3.66364 14.1127 4.01956 14.7027L6.58844 13.1533ZM6.5 12.784C6.5 12.6057 6.53902 12.4967 6.58844 12.4147L4.01956 10.8653C3.66364 11.4553 3.5 12.109 3.5 12.784H6.5ZM6.5794 12.4295C6.63935 12.3327 6.71768 12.256 6.84647 12.1897L5.47353 9.5223C4.87698 9.82935 4.38465 10.2753 4.0286 10.8505L6.5794 12.4295ZM6.85385 12.1859C6.98587 12.117 7.15713 12.068 7.4 12.068V9.068C6.72554 9.068 6.07013 9.211 5.46615 9.52612L6.85385 12.1859ZM7.4 12.068C7.63738 12.068 7.76661 12.1165 7.83979 12.1584L9.32821 9.55363C8.72939 9.21145 8.06928 9.068 7.4 9.068V12.068ZM7.86428 12.1721C7.9188 12.2019 7.93497 12.2225 7.95472 12.2674L10.7013 11.0606C10.4117 10.4015 9.93187 9.88346 9.30372 9.53994L7.86428 12.1721ZM8.61815 10.3426L7.65015 10.8626L9.06985 13.5054L10.0378 12.9854L8.61815 10.3426ZM9.66453 11.4436C9.19919 10.6237 8.40224 10.092 7.392 10.092V13.092C7.35888 13.092 7.26785 13.0811 7.1674 13.0197C7.0724 12.9616 7.04393 12.9041 7.05547 12.9244L9.66453 11.4436ZM7.392 10.092C6.70327 10.092 6.04142 10.3333 5.52334 10.8513L7.64466 12.9727C7.6126 13.0047 7.56203 13.0414 7.49832 13.0666C7.43684 13.091 7.39527 13.092 7.392 13.092V10.092ZM5.52334 10.8513C4.96909 11.4056 4.764 12.1113 4.764 12.784H7.764C7.764 12.7439 7.76983 12.7586 7.75218 12.8068C7.73254 12.8603 7.69603 12.9213 7.64466 12.9727L5.52334 10.8513ZM4.764 12.784C4.764 13.4567 4.96909 14.1624 5.52334 14.7167L7.64466 12.5953C7.69603 12.6467 7.73254 12.7077 7.75218 12.7612C7.76983 12.8094 7.764 12.8241 7.764 12.784H4.764ZM5.52334 14.7167C6.04142 15.2347 6.70327 15.476 7.392 15.476V12.476C7.39527 12.476 7.43684 12.477 7.49832 12.5014C7.56203 12.5266 7.6126 12.5633 7.64466 12.5953L5.52334 14.7167ZM7.392 15.476C7.84525 15.476 8.31053 15.3682 8.7366 15.1077C9.1584 14.8497 9.4613 14.4914 9.67207 14.111L7.04793 12.657C7.04003 12.6713 7.07227 12.609 7.1714 12.5483C7.2748 12.4851 7.36542 12.476 7.392 12.476V15.476ZM7.64172 14.7008L8.60972 15.2288L10.0463 12.5952L9.07828 12.0672L7.64172 14.7008ZM7.96172 13.2929C7.94497 13.3299 7.92516 13.3616 7.84861 13.4046L9.31939 16.0194C9.9255 15.6784 10.4017 15.1768 10.6943 14.5311L7.96172 13.2929ZM7.83979 13.4096C7.76661 13.4515 7.63738 13.5 7.4 13.5V16.5C8.06928 16.5 8.72939 16.3565 9.32821 16.0144L7.83979 13.4096ZM12.5593 12.068C12.7154 12.068 12.8178 12.1014 12.9008 12.1491L14.3938 9.54695C13.8262 9.22124 13.2032 9.068 12.5593 9.068V12.068ZM12.9261 12.1632C13.0037 12.2058 13.06 12.2588 13.1121 12.3525L15.7345 10.8955C15.4133 10.3172 14.9523 9.85288 14.3686 9.53278L12.9261 12.1632ZM13.1171 12.3614C13.1571 12.4322 13.2033 12.5565 13.2033 12.784H16.2033C16.2033 12.1261 16.0629 11.4771 15.7295 10.8866L13.1171 12.3614ZM13.2033 12.784C13.2033 13.0108 13.1573 13.1422 13.1121 13.2235L15.7345 14.6805C16.0627 14.0898 16.2033 13.4425 16.2033 12.784H13.2033ZM13.1171 13.2146C13.0647 13.3074 13.0027 13.3694 12.9099 13.4218L14.3847 16.0342C14.9532 15.7133 15.4086 15.2579 15.7295 14.6894L13.1171 13.2146ZM12.917 13.4178C12.8314 13.4655 12.7232 13.5 12.5593 13.5V16.5C13.1954 16.5 13.8126 16.3532 14.3776 16.0382L12.917 13.4178ZM12.5593 13.5C12.4193 13.5 12.3603 13.4779 12.3513 13.4742C12.347 13.4724 12.3497 13.4731 12.3556 13.4774C12.3615 13.4818 12.3639 13.4849 12.3623 13.483L10.0523 15.397C10.7092 16.1899 11.6291 16.5 12.5593 16.5V13.5ZM9.70731 14.44V14.936H12.7073V14.44H9.70731ZM11.2073 13.436H10.0153V16.436H11.2073V13.436ZM11.5153 14.936V9H8.51531V14.936H11.5153ZM10.0153 10.5H11.2633V7.5H10.0153V10.5ZM9.76331 9V11.088H12.7633V9H9.76331ZM12.374 12.0962C12.379 12.0906 12.3805 12.0901 12.3786 12.0914C12.3766 12.0928 12.3768 12.0922 12.3819 12.0901C12.3914 12.0863 12.4422 12.068 12.5593 12.068V9.068C11.6672 9.068 10.8014 9.36506 10.1526 10.0798L12.374 12.0962ZM12.3433 15.476C13.0345 15.476 13.7025 15.2283 14.2148 14.6891L12.0398 12.6229C12.0785 12.5821 12.138 12.5376 12.2125 12.5072C12.2842 12.4779 12.3348 12.476 12.3433 12.476V15.476ZM14.2141 14.6898C14.7392 14.1378 14.9393 13.4491 14.9393 12.784H11.9393C11.9393 12.8225 11.9338 12.8111 11.949 12.7687C11.9658 12.7217 11.997 12.6679 12.0405 12.6222L14.2141 14.6898ZM14.9393 12.784C14.9393 12.1203 14.7395 11.4249 14.2013 10.8729L12.0533 12.9672C12.0038 12.9164 11.9691 12.8569 11.9505 12.8055C11.9337 12.7591 11.9393 12.7451 11.9393 12.784H14.9393ZM14.2275 10.9004C13.7184 10.3511 13.0466 10.092 12.3433 10.092V13.092C12.3302 13.092 12.2754 13.0892 12.2004 13.0578C12.123 13.0254 12.0637 12.9791 12.0272 12.9396L14.2275 10.9004ZM12.3433 10.092C11.6402 10.092 10.9742 10.3503 10.4645 10.8862L12.6381 12.9538C12.6059 12.9877 12.5517 13.0298 12.4793 13.0599C12.4087 13.0891 12.3567 13.092 12.3433 13.092V10.092ZM10.4638 10.8869C9.9379 11.4405 9.74731 12.1309 9.74731 12.784H12.7473C12.7473 12.7412 12.7533 12.751 12.7383 12.7939C12.7215 12.8417 12.6887 12.9007 12.6388 12.9531L10.4638 10.8869ZM9.74731 12.784C9.74731 13.4386 9.93831 14.1223 10.4512 14.6756L12.6515 12.6364C12.6953 12.6836 12.7246 12.7368 12.7397 12.7802C12.7533 12.8191 12.7473 12.8265 12.7473 12.784H9.74731ZM10.4773 14.7032C10.99 15.229 11.6521 15.476 12.3433 15.476V12.476C12.3521 12.476 12.3999 12.478 12.4672 12.5052C12.5368 12.5333 12.5911 12.5738 12.6253 12.6088L10.4773 14.7032ZM16.9868 13.5C16.7501 13.5 16.523 13.4719 16.3026 13.4168L15.5749 16.3272C16.0371 16.4428 16.5087 16.5 16.9868 16.5V13.5ZM16.3238 13.4223C16.074 13.3559 15.9686 13.297 15.9472 13.2829L14.2983 15.7891C14.6822 16.0417 15.1208 16.2067 15.5537 16.3217L16.3238 13.4223ZM16.4833 15.1677L16.8993 14.2717L14.1782 13.0083L13.7622 13.9043L16.4833 15.1677ZM14.7312 14.904C15.0673 15.1188 15.4354 15.2724 15.8115 15.383L16.658 12.505C16.4901 12.4556 16.3942 12.4065 16.3463 12.376L14.7312 14.904ZM15.8377 15.3905C16.2288 15.4979 16.6291 15.556 17.0347 15.556V12.556C16.9177 12.556 16.7847 12.5395 16.6318 12.4975L15.8377 15.3905ZM17.0347 15.556C17.3742 15.556 17.8506 15.5219 18.2941 15.3023C18.5369 15.1822 18.811 14.9858 19.0214 14.6734C19.2387 14.3508 19.3267 13.995 19.3267 13.664H16.3267C16.3267 13.4637 16.3818 13.2222 16.5331 12.9976C16.6775 12.7832 16.8526 12.6685 16.9634 12.6137C17.1429 12.5248 17.2233 12.556 17.0347 12.556V15.556ZM19.3267 13.664C19.3267 13.2857 19.2068 12.89 18.9337 12.5561C18.6796 12.2456 18.3694 12.0814 18.1317 11.9934L17.0898 14.8066C16.9961 14.7719 16.7939 14.6784 16.6118 14.4559C16.4107 14.21 16.3267 13.9196 16.3267 13.664H19.3267ZM18.1317 11.9934C17.8203 11.878 17.4588 11.8163 17.1328 11.7756L16.7607 14.7524C16.8833 14.7677 16.9732 14.7827 17.0358 14.7955C17.103 14.8093 17.1142 14.8157 17.0898 14.8066L18.1317 11.9934ZM17.1715 11.7809C16.8598 11.7337 16.6453 11.6854 16.5088 11.6442L15.6407 14.5158C15.9629 14.6132 16.3297 14.6876 16.722 14.7471L17.1715 11.7809ZM16.5088 11.6442C16.5145 11.6459 16.5252 11.6501 16.537 11.6573C16.5487 11.6645 16.5535 11.6698 16.5516 11.6678L14.3979 13.7562C14.7417 14.1108 15.1614 14.3709 15.6407 14.5158L16.5088 11.6442ZM16.568 11.685C16.6486 11.7707 16.6926 11.8594 16.7133 11.9222C16.732 11.979 16.7268 11.9987 16.7268 11.96H13.7268C13.7268 12.5318 13.8751 13.1999 14.3815 13.739L16.568 11.685ZM16.7268 11.96C16.7268 11.9679 16.7253 11.9961 16.7125 12.036C16.6994 12.0767 16.6803 12.111 16.6624 12.1351L14.2551 10.3449C13.8981 10.825 13.7268 11.3826 13.7268 11.96H16.7268ZM16.6587 12.14C16.6511 12.1501 16.6438 12.1583 16.6376 12.1643C16.6315 12.1702 16.6278 12.1729 16.628 12.1728C16.6284 12.1725 16.6471 12.159 16.6952 12.1401L15.5983 9.34787C15.0936 9.54613 14.6168 9.86254 14.2587 10.34L16.6587 12.14ZM16.6869 12.1434C16.7802 12.1074 16.9466 12.068 17.2188 12.068V9.068C16.6695 9.068 16.1213 9.14597 15.6066 9.34461L16.6869 12.1434ZM17.2188 12.068C17.4076 12.068 17.5951 12.0894 17.7836 12.1331L18.4619 9.21085C18.053 9.11593 17.6379 9.068 17.2188 9.068V12.068ZM17.8137 12.1398C18.0095 12.181 18.0926 12.2241 18.1081 12.2333L19.6414 9.6547C19.2622 9.42925 18.844 9.29095 18.4318 9.20418L17.8137 12.1398ZM17.5164 10.3077L17.1004 11.1957L19.8171 12.4683L20.2331 11.5803L17.5164 10.3077ZM19.195 10.5251C18.5845 10.1812 17.9164 10.012 17.2188 10.012V13.012C17.4171 13.012 17.5757 13.0562 17.7225 13.1389L19.195 10.5251ZM17.2188 10.012C16.8612 10.012 16.3532 10.0535 15.8858 10.3152L17.3517 12.9328C17.2926 12.9658 17.2428 12.9855 17.209 12.9969C17.1751 13.0083 17.1522 13.013 17.144 13.0145C17.1303 13.0171 17.1511 13.012 17.2188 13.012V10.012ZM15.8858 10.3152C15.4442 10.5625 14.9187 11.0855 14.9187 11.912H17.9187C17.9187 12.1579 17.8426 12.4033 17.7008 12.6076C17.5707 12.7949 17.4249 12.8917 17.3517 12.9328L15.8858 10.3152ZM14.9187 11.912C14.9187 12.2645 15.0204 12.655 15.2851 12.9982C15.5377 13.3257 15.8564 13.5033 16.1138 13.5986L17.1557 10.7854C17.2691 10.8274 17.4798 10.9317 17.6604 11.1658C17.8531 11.4156 17.9187 11.6928 17.9187 11.912H14.9187ZM16.1138 13.5986C16.4086 13.7078 16.7644 13.7762 17.0966 13.8268L17.5489 10.8612C17.4137 10.8405 17.3117 10.8215 17.2383 10.8053C17.1596 10.7879 17.1391 10.7792 17.1557 10.7854L16.1138 13.5986ZM17.0762 13.8236C17.3921 13.8762 17.6078 13.927 17.7432 13.9689L18.6303 11.1031C18.3177 11.0063 17.9574 10.9291 17.5693 10.8644L17.0762 13.8236ZM17.7747 13.9783C17.7572 13.9733 17.7353 13.9643 17.7136 13.9509C17.6922 13.9377 17.6803 13.9261 17.6775 13.923L19.864 11.869C19.5204 11.5032 19.093 11.2349 18.5988 11.0937L17.7747 13.9783ZM17.6775 13.923C17.6022 13.8429 17.5577 13.7575 17.5353 13.691C17.5148 13.6302 17.5188 13.6036 17.5188 13.632H20.5188C20.5188 13.055 20.3623 12.3994 19.864 11.869L17.6775 13.923ZM17.5188 13.632C17.5188 13.613 17.522 13.5763 17.5373 13.5309C17.5527 13.4852 17.5737 13.4504 17.5898 13.4294L19.9677 15.2586C20.3329 14.7838 20.5188 14.2237 20.5188 13.632H17.5188ZM17.5898 13.4294C17.6005 13.4156 17.6103 13.4052 17.6179 13.3981C17.6253 13.3911 17.6294 13.3884 17.6282 13.3892C17.6254 13.3911 17.601 13.4074 17.5428 13.4295L18.6067 16.2345C19.1089 16.044 19.5991 15.7377 19.9677 15.2586L17.5898 13.4294ZM17.5562 13.4245C17.4597 13.46 17.2815 13.5 16.9868 13.5V16.5C17.5346 16.5 18.0818 16.428 18.5933 16.2395L17.5562 13.4245Z" fill="#1388F7" mask="url(#path-3-inside-2)"/>
</g>
<defs>
<clipPath id="clip0">
<rect width="24" height="24" fill="white"/>
</clipPath>
</defs>
</svg>
