<svg width="32" height="32" viewBox="0 0 32 32" fill="none" xmlns="http://www.w3.org/2000/svg">
<path fill-rule="evenodd" clip-rule="evenodd" d="M16 32C24.8366 32 32 24.8366 32 16C32 7.16344 24.8366 0 16 0C7.16344 0 0 7.16344 0 16C0 24.8366 7.16344 32 16 32ZM25.2919 21.9545C25.4816 21.6111 25.6 21.2209 25.6 20.8V11.2002C25.6 10.7303 25.4595 10.2955 25.2262 9.92528L19.2297 15.1717L25.2919 21.9545ZM24.344 9.1025L16 16.4032L7.65684 9.1025C7.99785 8.91505 8.38355 8.8001 8.79998 8.8001H23.2001C23.616 8.8001 24.0016 8.91505 24.344 9.1025ZM16.3949 17.6526L18.3262 15.9616L24.4656 22.8309C24.0978 23.0618 23.6664 23.2001 23.2001 23.2001H8.79995C8.33357 23.2001 7.90233 23.0618 7.53437 22.8309L13.6733 15.9615L15.6051 17.6526C15.7181 17.751 15.8588 17.8001 16 17.8001C16.1412 17.8001 16.2819 17.751 16.3949 17.6526ZM6.4 11.2002C6.4 10.7303 6.54063 10.2954 6.77386 9.92524L12.7697 15.1705L6.70821 21.9545C6.51784 21.6112 6.4 21.221 6.4 20.8001V11.2002Z" fill="#002766"/>
</svg>
