<svg width="64" height="64" viewBox="0 0 64 64" fill="none" xmlns="http://www.w3.org/2000/svg">
<g clip-path="url(#clip0)">
<path d="M36.129 50.5806L32 48.5161L27.871 50.5806L29.9355 53.6774L27.871 62.9677H36.129L34.0645 53.6774L36.129 50.5806Z" fill="#1388F7"/>
<path d="M24.7268 19.6562L18.5806 17.8125V16.2445C20.4501 14.937 21.6774 12.7722 21.6774 10.3236V7.22581C21.6774 3.24143 18.436 0 14.4516 0C10.4672 0 7.22581 3.24143 7.22581 7.22581V10.3226C7.22581 12.7722 8.45312 14.937 10.3226 16.2434V17.8115L3.67792 19.8049C1.47833 20.4657 0 22.4526 0 24.7495V33.0323H2.06452V24.7495C2.06452 23.3715 2.95111 22.1789 4.27167 21.7838L10.9183 19.7893C11.5192 20.5696 12.6815 21.6774 14.4516 21.6774C16.2218 21.6774 17.3841 20.5696 17.9849 19.7893L24.1331 21.6341L24.7268 19.6562ZM14.4516 2.06452C17.2974 2.06452 19.6129 4.38004 19.6129 7.22581H14.879C14.2233 7.22581 13.5801 6.95968 13.1169 6.49597L12.3871 5.76613L11.6573 6.49597C11.1941 6.95968 10.5509 7.22581 9.89516 7.22581H9.29032C9.29032 4.38004 11.6058 2.06452 14.4516 2.06452ZM9.29032 10.3226V9.29032H9.89516C10.7944 9.29032 11.6532 9.03226 12.3871 8.5504C13.121 9.03226 13.9798 9.29032 14.879 9.29032H19.6129V10.3226C19.6129 13.1683 17.2974 15.4839 14.4516 15.4839C11.6058 15.4839 9.29032 13.1683 9.29032 10.3226ZM14.4516 19.6129C13.3543 19.6129 12.6431 18.691 12.3871 18.2969V17.245C13.0413 17.44 13.7344 17.5484 14.4516 17.5484C15.1689 17.5484 15.8619 17.44 16.5161 17.244V18.2959C16.2601 18.692 15.5489 19.6129 14.4516 19.6129Z" fill="white"/>
<path d="M60.3221 19.8059L53.6774 17.8125V16.2445C55.5469 14.937 56.7742 12.7722 56.7742 10.3236V7.22581C56.7742 3.24143 53.5328 0 49.5484 0C45.564 0 42.3226 3.24143 42.3226 7.22581V10.3226C42.3226 12.7722 43.5499 14.937 45.4194 16.2434V17.8115L39.2732 19.6552L39.8669 21.6331L46.0151 19.7883C46.6159 20.5696 47.7782 21.6774 49.5484 21.6774C51.3186 21.6774 52.4809 20.5696 53.0817 19.7893L59.7293 21.7838C61.0489 22.1789 61.9355 23.3715 61.9355 24.7495V33.0323H64V24.7495C64 22.4526 62.5217 20.4657 60.3221 19.8059V19.8059ZM49.5484 2.06452C52.3942 2.06452 54.7097 4.38004 54.7097 7.22581H54.1048C53.4491 7.22581 52.806 6.95968 52.3427 6.49597L51.6129 5.76613L50.8831 6.49597C50.4199 6.95968 49.7767 7.22581 49.121 7.22581H44.3871C44.3871 4.38004 46.7026 2.06452 49.5484 2.06452ZM44.3871 10.3226V9.29032H49.121C50.0202 9.29032 50.879 9.03226 51.6129 8.5504C52.3468 9.03226 53.2057 9.29032 54.1048 9.29032H54.7097V10.3226C54.7097 13.1683 52.3942 15.4839 49.5484 15.4839C46.7026 15.4839 44.3871 13.1683 44.3871 10.3226ZM49.5484 19.6129C48.4491 19.6129 47.7369 18.688 47.4839 18.2969V17.244C48.1381 17.44 48.8312 17.5484 49.5484 17.5484C50.2656 17.5484 50.9587 17.44 51.6129 17.244V18.2959C51.3569 18.692 50.6457 19.6129 49.5484 19.6129Z" fill="white"/>
<path d="M40.8246 20.7843L40.066 20.0257C37.8024 17.7621 34.7944 16.5161 31.5933 16.5161C24.9879 16.5161 19.6129 21.8911 19.6129 28.4965V34.0645H20.6689C20.6689 33.9294 20.6512 33.7974 20.6648 33.6588C20.869 31.5116 22.7954 29.9355 24.9516 29.9355H29.31C31.7369 29.9355 34.1089 29.2172 36.129 27.871L37.1613 29.9355H39.0484C41.2046 29.9355 43.1311 31.5116 43.3352 33.6588C43.3488 33.7974 43.3312 33.9284 43.3312 34.0645H44.3871V25.9738C44.3871 23.6623 42.9657 21.6084 40.8246 20.7843Z" fill="#1388F7"/>
<path d="M23.7419 0H25.8065V2.06452H23.7419V0Z" fill="white"/>
<path d="M23.7419 4.12903H25.8065V15.4839H23.7419V4.12903Z" fill="white"/>
<path d="M38.1935 0H40.2581V2.06452H38.1935V0Z" fill="white"/>
<path d="M38.1935 4.12903H40.2581V15.4839H38.1935V4.12903Z" fill="white"/>
<path d="M27.871 4.12903H29.9355V11.3548H27.871V4.12903Z" fill="white"/>
<path d="M27.871 13.4194H29.9355V15.4839H27.871V13.4194Z" fill="white"/>
<path d="M34.0645 4.12903H36.129V11.3548H34.0645V4.12903Z" fill="white"/>
<path d="M34.0645 13.4194H36.129V15.4839H34.0645V13.4194Z" fill="white"/>
<path d="M60.3221 44.5801L53.6774 42.5867V41.0187C55.5469 39.7112 56.7742 37.5464 56.7742 35.0978V32.001C56.7742 28.0166 53.5328 24.7752 49.5484 24.7752C46.1875 24.7752 43.3639 27.0842 42.56 30.1976C41.6124 29.3957 40.38 28.9032 39.0484 28.9032H37.7994L36.5297 26.3639L35.557 27.0121C33.7001 28.25 31.5408 28.9032 29.311 28.9032H24.9516C23.62 28.9032 22.3876 29.3957 21.441 30.1966C20.6361 27.0832 17.8125 24.7742 14.4516 24.7742C10.4672 24.7742 7.22581 28.0156 7.22581 32V35.0968C7.22581 37.5464 8.45312 39.7112 10.3226 41.0176V42.5857L3.67792 44.5791C1.47833 45.2399 0 47.2268 0 49.5237V58.8387H12.3871C12.9556 58.8387 13.4194 59.3024 13.4194 59.871V64H50.5806V59.871C50.5806 59.3024 51.0444 58.8387 51.6129 58.8387H64V49.5237C64 47.2268 62.5217 45.2399 60.3221 44.5801V44.5801ZM51.6129 43.0711C51.3569 43.4662 50.6457 44.3871 49.5484 44.3871C48.4491 44.3871 47.7369 43.4622 47.4839 43.0711V42.0182C48.1381 42.2142 48.8311 42.3226 49.5484 42.3226C50.2656 42.3226 50.9587 42.2142 51.6129 42.0182V43.0711ZM25.2253 44.5801L18.5806 42.5867V41.0187C19.7399 40.2077 20.6482 39.066 21.1739 37.7309C22.0282 38.5691 23.1431 39.0761 24.3337 39.1794C24.8659 40.5141 25.7354 41.6784 26.8397 42.565V44.5988L25.8644 44.8236C25.6557 44.7298 25.443 44.6452 25.2253 44.5801ZM35.0968 44.9032L32 47.2258L28.9032 44.9032V43.7792C29.8599 44.1684 30.9047 44.3871 32 44.3871C33.0953 44.3871 34.1401 44.1684 35.0968 43.7792V44.9032ZM27.6356 46.5333L30.1522 48.4214L27.5635 49.9748L26.9088 46.7016L27.6356 46.5333ZM36.3644 46.5333L37.0912 46.7006L36.4365 49.9738L33.8478 48.4204L36.3644 46.5333ZM38.1366 44.8236L37.1613 44.5988V42.565C38.2646 41.6784 39.1341 40.5141 39.6678 39.1794C40.8579 39.0751 41.9718 38.5691 42.8271 37.7309C43.3528 39.066 44.2601 40.2077 45.4204 41.0187V42.5867L38.7767 44.5801C38.557 44.6452 38.3443 44.7298 38.1366 44.8236V44.8236ZM49.5484 40.2581C46.7026 40.2581 44.3871 37.9425 44.3871 35.0968V34.0645H44.9919C45.8911 34.0645 46.75 33.8065 47.4839 33.3246C48.2177 33.8065 49.0766 34.0645 49.9758 34.0645H54.7097V35.0968C54.7097 37.9425 52.3942 40.2581 49.5484 40.2581ZM49.5484 26.8387C52.3942 26.8387 54.7097 29.1542 54.7097 32H49.9758C49.3201 32 48.6769 31.7339 48.2137 31.2702L47.4839 30.5403L46.754 31.2702C46.2908 31.7339 45.6477 32 44.9919 32H44.3871C44.3871 29.1542 46.7026 26.8387 49.5484 26.8387ZM42.307 33.7571C42.3916 34.6447 42.1119 35.494 41.5176 36.1477C41.1603 36.5398 40.7061 36.8145 40.2137 36.9819C40.2424 36.7011 40.2581 36.4168 40.2581 36.129V31.1895C41.369 31.6109 42.1956 32.5882 42.307 33.7571ZM35.7056 29.3337L36.5232 30.9677H38.1935V36.129C38.1935 39.5449 35.4158 42.3226 32 42.3226C28.5842 42.3226 25.8065 39.5449 25.8065 36.129V30.9677H29.311C31.5605 30.9677 33.7485 30.4063 35.7056 29.3337ZM23.7419 31.1895V36.129C23.7419 36.4168 23.7576 36.7011 23.7863 36.9819C23.2939 36.8145 22.8397 36.5398 22.4824 36.1477C21.8881 35.494 21.6084 34.6447 21.693 33.7571C21.8044 32.5882 22.631 31.6109 23.7419 31.1895ZM14.4516 26.8387C17.2974 26.8387 19.6129 29.1542 19.6129 32H19.0081C18.3523 32 17.7092 31.7339 17.246 31.2702L16.5161 30.5403L15.7863 31.2702C15.3231 31.7339 14.6799 32 14.0242 32H9.29032C9.29032 29.1542 11.6058 26.8387 14.4516 26.8387ZM9.29032 35.0968V34.0645H14.0242C14.9234 34.0645 15.7823 33.8065 16.5161 33.3246C17.25 33.8065 18.1089 34.0645 19.0081 34.0645H19.6129V35.0968C19.6129 37.9425 17.2974 40.2581 14.4516 40.2581C11.6058 40.2581 9.29032 37.9425 9.29032 35.0968ZM14.4516 42.3226C15.1689 42.3226 15.8619 42.2142 16.5161 42.0182V43.0701C16.2601 43.4662 15.5489 44.3871 14.4516 44.3871C13.3543 44.3871 12.6431 43.4652 12.3871 43.0711V42.0192C13.0413 42.2142 13.7344 42.3226 14.4516 42.3226V42.3226ZM61.9355 56.7742H57.8064V49.5484H55.7419V56.7742H51.6129C49.9057 56.7742 48.5161 58.1638 48.5161 59.871V61.9355H43.3548V53.6774H41.2903V61.9355H22.7097V53.6774H20.6452V61.9355H15.4839V59.871C15.4839 58.1638 14.0943 56.7742 12.3871 56.7742H8.25806V49.5484H6.19355V56.7742H2.06452V49.5237C2.06452 48.1457 2.95111 46.9531 4.27167 46.558L10.9183 44.5635C11.5192 45.3438 12.6815 46.4516 14.4516 46.4516C16.2218 46.4516 17.3841 45.3438 17.9849 44.5635L21.8992 45.7384L19.0202 46.4022C15.7223 47.1638 13.4194 50.0595 13.4194 53.4431V54.7097H15.4839V53.4431C15.4839 51.0257 17.1295 48.9582 19.4849 48.4138L24.8962 47.1648L26.1129 53.251L32 49.7198L37.8861 53.251L39.1028 47.1648L44.5151 48.4138C46.8705 48.9582 48.5161 51.0257 48.5161 53.4431V54.7097H50.5806V53.4431C50.5806 50.0595 48.2777 47.1638 44.9798 46.4022L42.1008 45.7384L46.0151 44.5635C46.6159 45.3438 47.7782 46.4516 49.5484 46.4516C51.3185 46.4516 52.4808 45.3438 53.0817 44.5635L59.7293 46.558C61.0489 46.9531 61.9355 48.1457 61.9355 49.5237V56.7742Z" fill="white"/>
</g>
<defs>
<clipPath id="clip0">
<rect width="64" height="64" fill="white"/>
</clipPath>
</defs>
</svg>
