<svg width="64" height="64" viewBox="0 0 64 64" fill="none" xmlns="http://www.w3.org/2000/svg">
<path d="M30 15L29.521 14.521C27.266 12.266 24.209 11 21.021 11C14.382 11 9 16.382 9 23.021V31C9 29.343 10.343 28 12 28H13V26L17 24C19.63 25.315 22.531 26 25.472 26H31V28H32C33.657 28 35 29.343 35 31V21.099C35 18.134 32.907 15.581 30 15Z" fill="#1388F7"/>
<path d="M56 15C56 9.486 51.514 5 46 5C40.486 5 36 9.486 36 15C36 20.514 40.486 25 46 25C51.514 25 56 20.514 56 15ZM40.458 20.756C41.366 18.525 43.559 17 46 17C48.44 17 50.634 18.525 51.542 20.757C50.102 22.142 48.151 23 46 23C43.849 23 41.897 22.142 40.458 20.756ZM44 13C44 11.897 44.897 11 46 11C47.103 11 48 11.897 48 13C48 14.103 47.103 15 46 15C44.897 15 44 14.103 44 13ZM46 7C50.411 7 54 10.589 54 15C54 16.466 53.597 17.837 52.905 19.02C52.011 17.481 50.631 16.289 48.999 15.618C49.614 14.915 50 14.006 50 13C50 10.794 48.206 9 46 9C43.794 9 42 10.794 42 13C42 14.006 42.386 14.915 43.001 15.618C41.369 16.289 39.989 17.481 39.095 19.02C38.403 17.837 38 16.466 38 15C38 10.589 41.589 7 46 7Z" fill="#002766"/>
<path d="M25 36H23C23 36.551 22.551 37 22 37C21.449 37 21 36.551 21 36H19C19 37.654 20.346 39 22 39C23.654 39 25 37.654 25 36Z" fill="#002766"/>
<path d="M18 31C18.5523 31 19 30.5523 19 30C19 29.4477 18.5523 29 18 29C17.4477 29 17 29.4477 17 30C17 30.5523 17.4477 31 18 31Z" fill="#002766"/>
<path d="M26 31C26.5523 31 27 30.5523 27 30C27 29.4477 26.5523 29 26 29C25.4477 29 25 29.4477 25 30C25 30.5523 25.4477 31 26 31Z" fill="#002766"/>
<path d="M60 29.424V1H32V15.777C32.817 16.272 33.49 16.956 34 17.751V3H58V29H49.657C48.322 29 47.066 29.52 46.122 30.464L43.586 33H35.444C35.788 32.409 36 31.732 36 31C36 28.794 34.206 27 32 27V25H25.472C22.7 25 19.925 24.345 17.447 23.105L17 22.882L12 25.382V27C9.794 27 8 28.794 8 31C8 33.206 9.794 35 12 35H13.104C14.127 37.438 15.823 39.546 18 41.08V42.293L8.339 45.703C3.949 47.251 1 51.42 1 56.075V63H43V56.075C43 56.05 42.997 56.025 42.997 56H58C60.757 56 63 53.757 63 51V34C63 31.955 61.763 30.198 60 29.424ZM44.414 35L47.536 31.878C48.094 31.32 48.867 31 49.657 31H58C59.654 31 61 32.346 61 34V37H29.859C30.256 36.363 30.604 35.695 30.896 35H32H44.414ZM34 31C34 32.103 33.103 33 32 33H31.561C31.846 31.878 32 30.71 32 29.513V29C33.103 29 34 29.897 34 31V31ZM12 33C10.897 33 10 32.103 10 31C10 29.897 10.897 29 12 29V29.513C12 30.71 12.154 31.878 12.439 33H12ZM14 29.513V26.618L17.007 25.114C19.645 26.35 22.56 27 25.472 27H30V29.513C30 34.644 26.799 39.195 22 40.941C17.201 39.195 14 34.645 14 29.513V29.513ZM25.5 44.237L26.841 44.71L26.198 51.783L23.218 48.803L25.5 44.237ZM21.684 42.949L22 43.054L22.316 42.949C22.899 42.755 23.457 42.516 24 42.254V42.764L22 46.764L20 42.764V42.254C20.543 42.516 21.101 42.754 21.684 42.949ZM18.5 44.237L20.783 48.803L17.803 51.783L17.16 44.71L18.5 44.237ZM41 61H35V56.829C35 55.272 35.606 53.808 36.707 52.707L35.293 51.293C33.814 52.771 33 54.737 33 56.829V61H11V56.829C11 54.738 10.186 52.772 8.707 51.293L7.293 52.707C8.394 53.808 9 55.271 9 56.829V61H3V56.075C3 52.266 5.413 48.855 9.005 47.588L15.214 45.397L16.198 56.217L22 50.414L27.803 56.217L28.787 45.397L34.996 47.588C38.587 48.855 41 52.267 41 56.075V61ZM58 54H42.794C42.064 50.218 39.385 47.016 35.661 45.702L26 42.292V41.08C26.862 40.472 27.646 39.774 28.345 39H61V51C61 52.654 59.654 54 58 54V54Z" fill="#002766"/>
<path d="M57 33H59V35H57V33Z" fill="#002766"/>
<path d="M49 33H51V35H49V33Z" fill="#002766"/>
<path d="M53 33H55V35H53V33Z" fill="#002766"/>
<path d="M57 52H51C49.897 52 49 51.103 49 50V48C49 46.897 49.897 46 51 46H57C58.103 46 59 46.897 59 48V50C59 51.103 58.103 52 57 52Z" fill="#1388F7"/>
</svg>
