<svg width="72" height="72" viewBox="0 0 72 72" fill="none" xmlns="http://www.w3.org/2000/svg">
<g clip-path="url(#clip0)">
<path d="M31.7317 44.2835C31.3377 44.2843 30.9626 44.1113 30.707 43.8114L23.5905 35.4778C23.1071 34.9117 23.174 34.0614 23.7401 33.578C24.3062 33.0953 25.1565 33.1623 25.6399 33.7276L31.9016 41.0606L47.4539 28.4079C48.0313 27.9381 48.8801 28.0253 49.3492 28.6026C49.819 29.18 49.7318 30.0288 49.1545 30.4979L32.5804 43.9813C32.3414 44.1768 32.0414 44.2835 31.7317 44.2835Z" fill="#1388F7"/>
<path d="M31.2866 70.2962L34.9388 71.8877C35.2801 72.0366 35.6688 72.0374 36.0109 71.8892L40.1262 70.112C54.5756 64.0435 63.976 49.9008 63.9775 34.229V15.7672C63.9775 15.2695 63.7031 14.8117 63.2641 14.5779L36.2033 0.15853C35.8019 -0.0557306 35.3207 -0.0527236 34.9223 0.166048L8.6103 14.5854C8.17877 14.8222 7.91113 15.2748 7.91113 15.7672V34.6026C7.92692 50.0858 17.1003 64.0932 31.2866 70.2962ZM10.6056 16.5649L35.5786 2.87776L61.2831 16.5747V34.229C61.2801 48.8205 52.5255 61.9866 39.0714 67.6334L39.0616 67.6379L35.4786 69.1851L32.3647 67.8266C19.1594 62.0528 10.6198 49.0152 10.6048 34.6026L10.6056 16.5649Z" fill="#002766"/>
<path d="M44.8458 59.9342L44.8368 59.9379L41.253 61.4859L38.1391 60.1281C24.9339 54.3544 16.3943 41.3168 16.3792 26.9042V13.4005L10.6055 16.5648V34.6025C10.6205 49.0151 19.1601 62.0527 32.3653 67.8265L35.4785 69.1842L39.0623 67.6363L39.0713 67.6325C46.5291 64.4923 52.7261 58.9546 56.6813 51.896C53.3057 55.3302 49.2829 58.0622 44.8458 59.9342Z" fill="#D4E1F4"/>
</g>
<defs>
<clipPath id="clip0">
<rect width="72" height="72" fill="white"/>
</clipPath>
</defs>
</svg>
