<svg width="80" height="80" viewBox="0 0 80 80" fill="none" xmlns="http://www.w3.org/2000/svg">
<path d="M11.3296 44.9964C11.3281 37.8382 13.9837 30.9343 18.7818 25.6223C23.5799 20.3103 30.179 16.9684 37.3004 16.2442C36.3436 16.1485 35.3738 16.1 34.3911 16.0989C18.4409 16.0989 5.51074 29.0364 5.51074 44.9964C5.51074 60.9564 18.4409 73.8939 34.3914 73.8939C35.3735 73.8939 36.3432 73.8454 37.3007 73.7486C30.1793 73.0244 23.5801 69.6826 18.7819 64.3706C13.9837 59.0586 11.3281 52.1546 11.3296 44.9964Z" fill="#D4E1F4"/>
<path d="M34.8438 75.9376C51.8166 75.9376 65.625 62.1292 65.625 45.1564C65.6448 38.488 63.48 31.9967 59.4616 26.6751C59.2866 26.445 59.0277 26.2934 58.7414 26.2536C58.455 26.2138 58.1646 26.289 57.9335 26.4627C57.7024 26.6365 57.5495 26.8946 57.5082 27.1807C57.4669 27.4669 57.5406 27.7577 57.7131 27.9897C61.4455 32.9328 63.4562 38.9624 63.4375 45.1564C63.4375 60.9231 50.6105 73.7501 34.8438 73.7501C19.077 73.7501 6.25 60.9231 6.25 45.1564C6.25 29.3897 19.077 16.5626 34.8438 16.5626C41.0379 16.544 47.0676 18.5547 52.0108 22.2873C52.2426 22.4617 52.5343 22.5368 52.8215 22.4961C53.1087 22.4554 53.368 22.3023 53.5423 22.0704C53.7167 21.8386 53.7918 21.547 53.7511 21.2598C53.7104 20.9725 53.5573 20.7132 53.3255 20.5389C48.0038 16.5203 41.5123 14.3553 34.8438 14.3751C17.8709 14.3751 4.0625 28.1836 4.0625 45.1564C4.0625 62.1292 17.8709 75.9376 34.8438 75.9376Z" fill="#002766"/>
<path d="M47.6673 29.3649C47.7519 29.2488 47.8127 29.1171 47.8463 28.9775C47.88 28.8378 47.8858 28.6929 47.8634 28.5511C47.8411 28.4092 47.791 28.2731 47.716 28.1506C47.6411 28.028 47.5427 27.9215 47.4266 27.8369C43.7741 25.1702 39.3661 23.7385 34.8438 23.7501C23.0403 23.7501 13.4375 33.3529 13.4375 45.1563C13.4375 56.9598 23.0403 66.5626 34.8438 66.5626C46.6472 66.5626 56.25 56.9598 56.25 45.1563C56.2613 40.6438 54.8358 36.2449 52.18 32.5966C52.0956 32.4804 51.9892 32.3819 51.8668 32.3068C51.7443 32.2317 51.6083 32.1814 51.4665 32.1588C51.3246 32.1363 51.1797 32.1419 51.04 32.1754C50.9003 32.2088 50.7686 32.2695 50.6523 32.3538C50.5361 32.4382 50.4376 32.5446 50.3625 32.667C50.2874 32.7895 50.2371 32.9255 50.2145 33.0674C50.192 33.2092 50.1976 33.3541 50.2311 33.4938C50.2645 33.6335 50.3252 33.7652 50.4095 33.8815C53.2451 37.7964 54.501 42.6363 53.9267 47.4361C53.3525 52.2359 50.9903 56.6429 47.3111 59.7784C43.632 62.9139 38.9062 64.5476 34.0761 64.3536C29.246 64.1597 24.6664 62.1524 21.2505 58.732C17.8346 55.3116 15.8333 50.7294 15.6457 45.899C15.4581 41.0686 17.098 36.345 20.2384 32.67C23.3787 28.995 27.7889 26.6386 32.5894 26.0706C37.3899 25.5027 42.2281 26.7649 46.1394 29.6057C46.2555 29.6902 46.3872 29.751 46.5268 29.7847C46.6664 29.8183 46.8113 29.8241 46.9532 29.8018C47.0951 29.7794 47.2312 29.7293 47.3537 29.6544C47.4763 29.5794 47.5828 29.4811 47.6673 29.3649Z" fill="#002766"/>
<path d="M34.8437 41.5625C35.1338 41.5625 35.412 41.4473 35.6171 41.2421C35.8223 41.037 35.9375 40.7588 35.9375 40.4687C35.9375 40.1787 35.8223 39.9005 35.6171 39.6954C35.412 39.4902 35.1338 39.375 34.8437 39.375C33.7003 39.375 32.5826 39.7141 31.6319 40.3493C30.6811 40.9846 29.9401 41.8875 29.5026 42.9439C29.065 44.0002 28.9505 45.1627 29.1736 46.2841C29.3967 47.4056 29.9473 48.4357 30.7558 49.2442C31.5643 50.0527 32.5944 50.6033 33.7159 50.8264C34.8373 51.0495 35.9998 50.935 37.0561 50.4974C38.1125 50.0599 39.0154 49.3189 39.6507 48.3681C40.2859 47.4174 40.625 46.2997 40.625 45.1562C40.625 44.8662 40.5098 44.588 40.3046 44.3829C40.0995 44.1777 39.8213 44.0625 39.5312 44.0625C39.2412 44.0625 38.963 44.1777 38.7578 44.3829C38.5527 44.588 38.4375 44.8662 38.4375 45.1562C38.4375 45.867 38.2267 46.5618 37.8318 47.1528C37.437 47.7438 36.8757 48.2044 36.219 48.4764C35.5623 48.7484 34.8398 48.8196 34.1426 48.6809C33.4455 48.5423 32.8052 48.2 32.3026 47.6974C31.8 47.1948 31.4577 46.5545 31.3191 45.8574C31.1804 45.1602 31.2516 44.4376 31.5236 43.781C31.7956 43.1243 32.2562 42.563 32.8472 42.1682C33.4382 41.7733 34.133 41.5625 34.8437 41.5625Z" fill="#002766"/>
<path d="M74.9515 15.1162L65.7897 14.21L64.8835 5.04824C64.863 4.84216 64.7845 4.64613 64.657 4.48293C64.5295 4.31973 64.3583 4.19608 64.1633 4.12636C63.9683 4.05663 63.7576 4.0437 63.5555 4.08906C63.3534 4.13443 63.1684 4.23622 63.0219 4.38261L50.8685 16.5361C50.735 16.6696 50.6383 16.8355 50.5879 17.0175C50.5375 17.1995 50.535 17.3914 50.5808 17.5746L52.6407 25.8123L34.0704 44.3826C33.9688 44.4842 33.8882 44.6048 33.8333 44.7375C33.7783 44.8702 33.75 45.0124 33.75 45.1561C33.75 45.2997 33.7783 45.4419 33.8333 45.5746C33.8882 45.7073 33.9688 45.8279 34.0704 45.9295C34.1719 46.0311 34.2925 46.1116 34.4252 46.1666C34.5579 46.2216 34.7002 46.2499 34.8438 46.2499C34.9874 46.2499 35.1297 46.2216 35.2624 46.1666C35.3951 46.1116 35.5157 46.0311 35.6172 45.9295L54.1876 27.3592L62.4257 29.4187C62.6089 29.4645 62.8009 29.4621 62.9829 29.4117C63.1649 29.3613 63.3307 29.2646 63.4643 29.1311L75.6172 16.9779C75.7637 16.8314 75.8655 16.6464 75.9109 16.4443C75.9563 16.2422 75.9434 16.0314 75.8736 15.8363C75.8039 15.6413 75.6802 15.4701 75.5169 15.3426C75.3537 15.2151 75.1576 15.1366 74.9515 15.1162ZM52.8532 17.645L62.9343 7.56386L63.6502 14.8028L54.4441 24.0089L52.8532 17.645ZM62.3549 27.1467L55.991 25.5556L65.1971 16.3496L72.436 17.0656L62.3549 27.1467Z" fill="#1388F7"/>
</svg>
