<svg width="72" height="72" viewBox="0 0 72 72" fill="none" xmlns="http://www.w3.org/2000/svg">
<path d="M18.8067 57.2058C20.3584 55.6465 21.2295 53.5356 21.2282 51.3357V21.502C21.2275 20.8234 21.3448 20.1504 21.5754 19.5133C19.2484 20.3541 17.6967 22.5616 17.6939 25.0362V54.8699C17.6953 57.0698 16.8242 59.1807 15.2725 60.74H49.945C49.5736 59.59 49.3134 58.4062 49.1677 57.2058H18.8067Z" fill="#D4E1F4"/>
<path d="M12.8814 57.2058H12.1338C8.89365 57.2024 6.26715 54.5765 6.2637 51.3357V4.76005C6.26301 4.0822 6.38105 3.40918 6.61091 2.77136C4.28399 3.61212 2.73225 5.82031 2.72949 8.29426V54.8699C2.73294 58.1108 5.35944 60.7366 8.5996 60.74H9.34716C11.8225 60.7373 14.0307 59.1855 14.8721 56.8586C14.2336 57.0891 13.5599 57.2065 12.8814 57.2058Z" fill="#D4E1F4"/>
<path d="M8.59893 63.2644H49.2037V60.7905H15.2711C16.8229 59.2305 17.6933 57.1196 17.6926 54.9197V25.086C17.6961 21.8451 20.3219 19.2193 23.5627 19.2152H57.9985C61.24 19.2186 63.8665 21.8445 63.8707 25.086V41.3523H66.3446V25.086C66.3391 20.4791 62.6054 16.7461 57.9985 16.7413H57.6278V16.5314C57.6223 11.9245 53.89 8.1915 49.2831 8.18598H35.9435C35.7916 8.18598 35.6474 8.12247 35.5452 8.00996L30.705 2.71554C29.1229 0.987784 26.8885 0.00207084 24.5457 0H8.59893C3.99273 0.00483194 0.259715 3.73853 0.254883 8.34474V54.9204C0.260405 59.5266 3.99342 63.2589 8.59893 63.2644ZM2.72883 8.34474C2.73228 5.1039 5.35878 2.47809 8.59893 2.47464H24.5457C26.1941 2.47602 27.7658 3.16905 28.8792 4.38463L33.7167 9.67628C34.2875 10.3024 35.0959 10.6592 35.9435 10.6592H49.2831C52.5239 10.6634 55.1504 13.2899 55.1532 16.5314V16.7413H23.5627C18.9565 16.7468 15.2242 20.4798 15.2187 25.086V54.9197C15.2145 58.1612 12.588 60.787 9.34719 60.7905H8.59962C5.35878 60.7863 2.73228 58.1605 2.72883 54.9197V8.34474Z" fill="#002766"/>
<path d="M52.739 71.9997H66.8758C69.5099 71.997 71.6442 69.8626 71.647 67.2285V57.038C71.6449 55.0417 70.4017 53.2574 68.5297 52.5629V46.7225C68.5297 41.8671 64.6172 37.9174 59.8074 37.9174C54.9982 37.9174 51.0851 41.8664 51.0851 46.7225V52.5629C49.2137 53.2567 47.9698 55.0417 47.9678 57.038V67.2285C47.9705 69.8626 50.1049 71.997 52.739 71.9997ZM59.8074 40.3913C63.2532 40.3913 66.0558 43.2311 66.0558 46.7225V52.2668H53.559V46.7225C53.559 43.2311 56.3615 40.3913 59.8074 40.3913ZM50.4417 57.0373C50.4431 55.7693 51.4709 54.7414 52.739 54.7401H66.8758C68.1438 54.7414 69.1717 55.7693 69.173 57.0373V67.2278C69.1717 68.4959 68.1438 69.5237 66.8758 69.5251H52.739C51.4709 69.5237 50.4431 68.4959 50.4417 67.2278V57.0373Z" fill="#1388F7"/>
</svg>
