<svg width="80" height="72" viewBox="0 0 80 72" fill="none" xmlns="http://www.w3.org/2000/svg">
<path d="M63.124 43.225C61.9389 43.2196 60.7748 42.9039 59.7417 42.3076C58.7086 41.7114 57.8406 40.8544 57.2199 39.8177C56.5991 38.7809 56.2461 37.5987 56.1942 36.3828C56.1423 35.1669 56.3933 33.9574 56.9233 32.8689C55.9301 33.3669 55.0667 34.1008 54.4047 35.0098C53.7426 35.9188 53.301 36.9767 53.1163 38.0959C52.9317 39.2151 53.0093 40.3634 53.3429 41.4456C53.6764 42.5278 54.2562 43.5129 55.0343 44.3191C55.8123 45.1254 56.7663 45.7296 57.817 46.0818C58.8677 46.434 59.985 46.524 61.0764 46.3444C62.1678 46.1647 63.2017 45.7206 64.0927 45.0488C64.9836 44.377 65.7058 43.4968 66.1996 42.4812C65.2446 42.9713 64.1915 43.226 63.124 43.225Z" fill="#D4E1F4"/>
<path d="M10.3125 54.99C9.77102 54.9827 9.25418 54.7565 8.87396 54.3605C8.49375 53.9645 8.28079 53.4305 8.28125 52.8744V15.6742H7.1875C6.92274 15.6704 6.65987 15.7205 6.41409 15.8217C6.16832 15.9229 5.94452 16.0731 5.75563 16.2637C5.56674 16.4543 5.41651 16.6814 5.31363 16.932C5.21075 17.1826 5.15726 17.4516 5.15625 17.7236V56.0838C5.15579 56.64 5.36875 57.1739 5.74896 57.5699C6.12918 57.966 6.64602 58.1921 7.1875 58.1995H45.3805L46.5948 54.99H10.3125Z" fill="#D4E1F4"/>
<path d="M7.1875 60.4459H45.9375C46.2276 60.4459 46.5058 60.3276 46.7109 60.1169C46.916 59.9062 47.0312 59.6205 47.0312 59.3226C47.0312 59.0247 46.916 58.739 46.7109 58.5283C46.5058 58.3176 46.2276 58.1993 45.9375 58.1993H7.1875C6.64602 58.1919 6.12917 57.9657 5.74896 57.5697C5.36874 57.1737 5.15579 56.6398 5.15625 56.0836V17.7233C5.15726 17.4514 5.21075 17.1824 5.31363 16.9318C5.41651 16.6812 5.56674 16.4541 5.75563 16.2635C5.94452 16.0729 6.16832 15.9227 6.41409 15.8215C6.65987 15.7203 6.92274 15.6701 7.1875 15.6739H62.3438C62.6085 15.6701 62.8714 15.7203 63.1172 15.8215C63.3629 15.9227 63.5867 16.0729 63.7756 16.2635C63.9645 16.4541 64.1147 16.6812 64.2176 16.9318C64.3205 17.1824 64.374 17.4514 64.375 17.7233V26.9167C64.375 27.2146 64.4902 27.5003 64.6954 27.711C64.9005 27.9216 65.1787 28.04 65.4688 28.04C65.7588 28.04 66.037 27.9216 66.2421 27.711C66.4473 27.5003 66.5625 27.2146 66.5625 26.9167V17.7233C66.5612 17.1565 66.4509 16.5954 66.238 16.0724C66.025 15.5494 65.7137 15.0748 65.3217 14.6756C64.9298 14.2765 64.4649 13.9608 63.9539 13.7466C63.4429 13.5323 62.8957 13.4239 62.3438 13.4273H7.1875C6.63555 13.4239 6.08837 13.5323 5.57734 13.7466C5.06631 13.9608 4.60148 14.2765 4.20953 14.6756C3.81758 15.0748 3.50621 15.5494 3.29329 16.0724C3.08036 16.5954 2.97008 17.1565 2.96875 17.7233V56.0836C2.96889 57.2354 3.4125 58.3404 4.20281 59.1576C4.99313 59.9748 6.06603 60.4379 7.1875 60.4459Z" fill="#002766"/>
<path d="M60 26.4716C60.2901 26.4716 60.5683 26.3532 60.7734 26.1426C60.9785 25.9319 61.0938 25.6462 61.0938 25.3483V22.7226C61.0938 20.6554 59.2514 19.0439 56.9473 19.0439H12.5247C10.2206 19.0439 8.28125 20.8987 8.28125 23.2652V50.4795C8.29495 51.6302 8.74667 52.7297 9.53974 53.5427C10.3328 54.3557 11.4042 54.8175 12.5247 54.8294H48.1553C48.4454 54.8294 48.7236 54.7111 48.9287 54.5004C49.1338 54.2897 49.2491 54.004 49.2491 53.7061C49.2491 53.4082 49.1338 53.1225 48.9287 52.9118C48.7236 52.7011 48.4454 52.5828 48.1553 52.5828H12.5247C11.9842 52.5716 11.4688 52.3466 11.0858 51.9548C10.7028 51.563 10.4818 51.0345 10.4688 50.4795V23.2652C10.4688 22.1375 11.4269 21.2906 12.5247 21.2906H56.9473C58.0266 21.2906 58.9062 21.9082 58.9062 22.7226V25.3483C58.9062 25.6462 59.0215 25.9319 59.2266 26.1426C59.4317 26.3532 59.7099 26.4716 60 26.4716Z" fill="#002766"/>
<path d="M43.75 33.647H13.5938C13.3037 33.647 13.0255 33.7653 12.8204 33.976C12.6152 34.1866 12.5 34.4724 12.5 34.7703C12.5 35.0682 12.6152 35.3539 12.8204 35.5646C13.0255 35.7752 13.3037 35.8936 13.5938 35.8936H43.75C44.0401 35.8936 44.3183 35.7752 44.5234 35.5646C44.7285 35.3539 44.8438 35.0682 44.8438 34.7703C44.8438 34.4724 44.7285 34.1866 44.5234 33.976C44.3183 33.7653 44.0401 33.647 43.75 33.647Z" fill="#002766"/>
<path d="M13.5938 47.4477H43.75C44.0401 47.4477 44.3183 47.3293 44.5234 47.1187C44.7285 46.908 44.8438 46.6223 44.8438 46.3244C44.8438 46.0264 44.7285 45.7407 44.5234 45.5301C44.3183 45.3194 44.0401 45.201 43.75 45.201H13.5938C13.3037 45.201 13.0255 45.3194 12.8204 45.5301C12.6152 45.7407 12.5 46.0264 12.5 46.3244C12.5 46.6223 12.6152 46.908 12.8204 47.1187C13.0255 47.3293 13.3037 47.4477 13.5938 47.4477Z" fill="#002766"/>
<path d="M13.5938 41.5102H34.375C34.6651 41.5102 34.9433 41.3918 35.1484 41.1812C35.3535 40.9705 35.4688 40.6848 35.4688 40.3869C35.4688 40.0889 35.3535 39.8032 35.1484 39.5926C34.9433 39.3819 34.6651 39.2635 34.375 39.2635H13.5938C13.3037 39.2635 13.0255 39.3819 12.8204 39.5926C12.6152 39.8032 12.5 40.0889 12.5 40.3869C12.5 40.6848 12.6152 40.9705 12.8204 41.1812C13.0255 41.3918 13.3037 41.5102 13.5938 41.5102Z" fill="#002766"/>
<path d="M59.9987 48.681C61.8106 48.6872 63.5834 48.1411 65.0929 47.1118C66.6023 46.0825 67.7803 44.6163 68.4779 42.8989C69.1754 41.1816 69.361 39.2902 69.0112 37.4644C68.6614 35.6386 67.792 33.9605 66.513 32.6425C65.2339 31.3246 63.6028 30.426 61.8263 30.0607C60.0497 29.6955 58.2075 29.8798 56.533 30.5905C54.8585 31.3012 53.427 32.5062 52.4198 34.053C51.4126 35.5998 50.875 37.4187 50.875 39.2795C50.8738 41.768 51.8336 44.1553 53.5441 45.9178C55.2545 47.6803 57.5758 48.674 59.9987 48.681ZM59.9987 32.1245C61.3779 32.1183 62.7278 32.5327 63.8775 33.3151C65.0272 34.0976 65.9249 35.2128 66.4568 36.5197C66.9888 37.8265 67.1311 39.2661 66.8658 40.6561C66.6004 42.0461 65.9393 43.324 64.9662 44.3277C63.9931 45.3315 62.7518 46.0161 61.3996 46.2947C60.0474 46.5733 58.645 46.4335 57.3703 45.8928C56.0955 45.3522 55.0056 44.4352 54.2388 43.2579C53.4719 42.0806 53.0625 40.696 53.0625 39.2795C53.0606 37.3867 53.7898 35.5704 55.0901 34.2291C56.3905 32.8877 58.1558 32.1309 59.9987 32.1245Z" fill="#1388F7"/>
<path d="M70.9008 48.3805C71.8181 47.8437 72.5146 46.9834 72.8612 45.9592C73.2078 44.935 73.1809 43.8165 72.7855 42.8111C73.306 42.3907 73.7267 41.8543 74.016 41.2426C74.3053 40.6309 74.4556 39.9597 74.4556 39.2796C74.4556 38.5995 74.3053 37.9283 74.016 37.3166C73.7267 36.7049 73.306 36.1685 72.7855 35.7481C73.0327 35.1177 73.1373 34.4379 73.0913 33.76C73.0454 33.0821 72.8501 32.4237 72.5202 31.8347C72.1903 31.2456 71.7344 30.7411 71.187 30.3594C70.6396 29.9777 70.0149 29.7287 69.36 29.6312C69.2689 28.9587 69.0299 28.3164 68.661 27.753C68.2922 27.1896 67.8033 26.7198 67.2314 26.3794C66.6595 26.0389 66.0196 25.8367 65.3602 25.788C64.7009 25.7393 64.0394 25.8455 63.426 26.0985C63.0193 25.5632 62.4991 25.1302 61.905 24.8324C61.3109 24.5346 60.6585 24.3798 59.9974 24.3798C59.3363 24.3798 58.6839 24.5346 58.0898 24.8324C57.4957 25.1302 56.9755 25.5632 56.5688 26.0985C55.9552 25.8454 55.2936 25.7392 54.6341 25.7879C53.9747 25.8365 53.3346 26.0388 52.7626 26.3794C52.1906 26.7199 51.7016 27.1898 51.3328 27.7534C50.9639 28.3169 50.7249 28.9594 50.6338 29.632C49.979 29.7293 49.3544 29.9782 48.807 30.3598C48.2596 30.7414 47.8038 31.2458 47.474 31.8348C47.1442 32.4238 46.949 33.0821 46.9032 33.7599C46.8574 34.4378 46.9622 35.1174 47.2096 35.7476C46.6893 36.1681 46.2688 36.7045 45.9796 37.3162C45.6904 37.9279 45.5402 38.599 45.5402 39.279C45.5402 39.9589 45.6904 40.63 45.9796 41.2417C46.2688 41.8534 46.6893 42.3898 47.2096 42.8103C46.8142 43.8158 46.7873 44.9343 47.1339 45.9586C47.4804 46.9829 48.177 47.8433 49.0943 48.3802L43.0616 64.3273C42.9863 64.5263 42.9678 64.7432 43.0082 64.9526C43.0486 65.1621 43.1463 65.3553 43.2898 65.5098C43.4333 65.6642 43.6166 65.7735 43.8184 65.8247C44.0202 65.876 44.232 65.8671 44.4291 65.7992L50.6824 63.6431L54.0758 69.6947C54.1717 69.8657 54.3098 70.0077 54.4761 70.1065C54.6425 70.2052 54.8312 70.2573 55.0233 70.2573C55.051 70.2573 55.0788 70.2562 55.1068 70.2541C55.3124 70.238 55.5095 70.1625 55.6752 70.0363C55.8409 69.9101 55.9684 69.7384 56.0432 69.541L59.9986 59.0866L63.9546 69.541C64.0293 69.7384 64.1569 69.9102 64.3226 70.0364C64.4883 70.1626 64.6854 70.238 64.8911 70.2541C64.9188 70.2562 64.9466 70.2573 64.9743 70.2573C65.1664 70.2572 65.3551 70.2052 65.5215 70.1064C65.6878 70.0076 65.8259 69.8655 65.9218 69.6945L69.3146 63.6431L75.5682 65.7992C75.7652 65.8671 75.9771 65.876 76.1788 65.8247C76.3806 65.7735 76.564 65.6642 76.7075 65.5098C76.851 65.3553 76.9487 65.1621 76.9891 64.9526C77.0295 64.7432 77.011 64.5263 76.9357 64.3273L70.9008 48.3805ZM49.7547 42.1108C49.7105 41.9413 49.6281 41.7847 49.5143 41.6537C49.4005 41.5227 49.2584 41.421 49.0994 41.3566C48.6948 41.191 48.3478 40.9045 48.1033 40.5342C47.8589 40.1639 47.7282 39.7268 47.7282 39.2794C47.7282 38.8321 47.8589 38.395 48.1033 38.0247C48.3478 37.6544 48.6948 37.3679 49.0994 37.2023C49.2584 37.1379 49.4005 37.0361 49.5143 36.9051C49.6281 36.7741 49.7105 36.6176 49.7547 36.448C49.7989 36.2784 49.8039 36.1006 49.7691 35.9287C49.7343 35.7568 49.6608 35.5957 49.5544 35.4583C49.2817 35.1078 49.1184 34.6809 49.0861 34.2335C49.0537 33.7861 49.1538 33.3391 49.3732 32.9512C49.5873 32.5634 49.9112 32.2516 50.3019 32.0574C50.6927 31.8632 51.1317 31.7956 51.5607 31.8637C51.73 31.8901 51.903 31.8753 52.0658 31.8205C52.2286 31.7657 52.3765 31.6723 52.4978 31.548C52.619 31.4237 52.7101 31.2719 52.7637 31.1049C52.8174 30.9378 52.8321 30.7601 52.8066 30.5861C52.7395 30.1432 52.8045 29.6897 52.9931 29.2854C53.1817 28.8812 53.4851 28.545 53.8633 28.3212C54.2378 28.0964 54.67 27.9938 55.1026 28.0272C55.5351 28.0605 55.9476 28.2281 56.2852 28.5078C56.4191 28.6178 56.5762 28.6939 56.744 28.73C56.9117 28.7662 57.0854 28.7613 57.251 28.7158C57.4166 28.6703 57.5695 28.5855 57.6973 28.4681C57.8251 28.3508 57.9242 28.2043 57.9868 28.0404C58.144 27.6241 58.4201 27.2663 58.7789 27.014C59.1376 26.7617 59.5623 26.6267 59.9971 26.6267C60.4319 26.6267 60.8565 26.7617 61.2153 27.014C61.574 27.2663 61.8501 27.6241 62.0074 28.0404C62.0699 28.2044 62.1691 28.351 62.2969 28.4684C62.4248 28.5858 62.5777 28.6707 62.7434 28.7162C62.9091 28.7617 63.0828 28.7665 63.2507 28.7304C63.4185 28.6942 63.5757 28.6179 63.7096 28.5078C64.0471 28.228 64.4596 28.0603 64.8922 28.027C65.3248 27.9937 65.7571 28.0964 66.1314 28.3215C66.5094 28.5451 66.8125 28.8808 67.001 29.2847C67.1895 29.6886 67.2546 30.1416 67.1875 30.5842C67.1621 30.7582 67.1767 30.9359 67.2303 31.1029C67.284 31.27 67.375 31.4218 67.4963 31.5462C67.6175 31.6705 67.7654 31.7638 67.9282 31.8187C68.0909 31.8735 68.264 31.8883 68.4333 31.8619C68.8627 31.7938 69.302 31.8616 69.693 32.0561C70.084 32.2506 70.4081 32.5627 70.6222 32.9509C70.8416 33.3388 70.9418 33.7858 70.9095 34.2332C70.8772 34.6806 70.7141 35.1076 70.4414 35.4581C70.3351 35.5955 70.2616 35.7566 70.2268 35.9285C70.1921 36.1003 70.197 36.2782 70.2413 36.4477C70.2855 36.6173 70.3678 36.7738 70.4816 36.9048C70.5954 37.0358 70.7375 37.1376 70.8965 37.202C71.3012 37.3675 71.6482 37.654 71.8927 38.0243C72.1372 38.3946 72.2679 38.8317 72.2679 39.2791C72.2679 39.7265 72.1372 40.1637 71.8927 40.534C71.6482 40.9043 71.3012 41.1907 70.8965 41.3563C70.7375 41.4206 70.5954 41.5223 70.4816 41.6533C70.3678 41.7842 70.2855 41.9406 70.2412 42.1101C70.1969 42.2796 70.1919 42.4574 70.2265 42.6292C70.2612 42.8011 70.3346 42.9622 70.4408 43.0997C70.7135 43.4502 70.8767 43.8772 70.9091 44.3247C70.9415 44.7721 70.8417 45.2192 70.6225 45.6074C70.476 45.8722 70.2773 46.1029 70.0393 46.2846C69.8012 46.4664 69.5289 46.5953 69.2397 46.6631C68.9758 46.7274 68.7023 46.7387 68.4343 46.6965C68.2648 46.6699 68.0917 46.6846 67.9288 46.7394C67.7659 46.7941 67.6178 46.8874 67.4965 47.0118C67.3752 47.1361 67.284 47.288 67.2304 47.4552C67.1767 47.6223 67.162 47.8001 67.1875 47.9742C67.2545 48.4167 67.1895 48.8697 67.001 49.2736C66.8126 49.6775 66.5095 50.0133 66.1316 50.2369C65.7572 50.4619 65.325 50.5646 64.8924 50.5313C64.4598 50.498 64.0473 50.3303 63.7097 50.0505C63.5759 49.9405 63.4187 49.8642 63.2508 49.828C63.083 49.7918 62.9092 49.7967 62.7435 49.8422C62.5779 49.8877 62.4249 49.9726 62.2971 50.09C62.1692 50.2074 62.07 50.354 62.0075 50.518C61.8513 50.935 61.5754 51.2934 61.2165 51.5458C60.8575 51.7982 60.4324 51.9327 59.9974 51.9314C59.7256 51.9324 59.4562 51.8797 59.2038 51.7763C58.928 51.663 58.6778 51.493 58.4685 51.2766C58.2593 51.0601 58.0954 50.802 57.9871 50.518C57.9246 50.354 57.8255 50.2074 57.6977 50.09C57.5699 49.9726 57.417 49.8877 57.2513 49.8421C57.0857 49.7966 56.9119 49.7917 56.7441 49.8278C56.5763 49.8639 56.4191 49.94 56.2852 50.0501C55.9476 50.3298 55.5352 50.4975 55.1026 50.5309C54.6701 50.5642 54.2378 50.4618 53.8633 50.237C53.4852 50.0132 53.182 49.6772 52.9933 49.273C52.8047 48.8689 52.7396 48.4156 52.8066 47.9727C52.832 47.799 52.8173 47.6215 52.7637 47.4547C52.7102 47.2878 52.6193 47.1361 52.4983 47.0119C52.3773 46.8877 52.2296 46.7943 52.0671 46.7393C51.9047 46.6844 51.7319 46.6693 51.5627 46.6954C51.132 46.7597 50.6924 46.6895 50.3011 46.494C49.9097 46.2985 49.5846 45.9866 49.368 45.5989C49.1514 45.2112 49.0533 44.7656 49.0864 44.3199C49.1196 43.8742 49.2824 43.4491 49.5538 43.0997C49.6601 42.9624 49.7337 42.8015 49.7686 42.6297C49.8035 42.458 49.7987 42.2803 49.7547 42.1108ZM54.8308 66.5406L52.1305 61.7248C52.0044 61.5 51.8064 61.3269 51.5702 61.235C51.334 61.1431 51.074 61.138 50.8346 61.2206L45.9453 62.9056L50.8711 49.8875C51.076 50.4447 51.3872 50.9543 51.7864 51.3864C52.1856 51.8184 52.6647 52.1643 53.1958 52.4037C53.7268 52.6431 54.299 52.7712 54.8789 52.7805C55.4588 52.7898 56.0346 52.6801 56.5727 52.4578C56.9435 52.9451 57.4084 53.3485 57.9382 53.6426L58.8244 55.9855L54.8308 66.5406ZM69.161 61.2206C68.9215 61.138 68.6615 61.1431 68.4253 61.2351C68.1891 61.327 67.9911 61.5001 67.865 61.725L65.165 66.5404L60.4775 54.1519C61.0547 54.0886 61.6135 53.9061 62.1203 53.6155C62.6271 53.3248 63.0715 52.932 63.4268 52.4605C63.9647 52.6821 64.5403 52.7912 65.1198 52.7814C65.6993 52.7717 66.2711 52.6433 66.8017 52.4037C67.3322 52.1641 67.8109 51.8183 68.2097 51.3863C68.6085 50.9544 68.9194 50.445 69.1241 49.8881L74.05 62.9064L69.161 61.2206Z" fill="#1388F7"/>
</svg>
