<svg width="24" height="24" viewBox="0 0 24 24" fill="none" xmlns="http://www.w3.org/2000/svg">
<path d="M21 6H21.75C21.75 5.77742 21.6511 5.56633 21.4801 5.42383L21 6ZM15 1L15.4801 0.423834C15.3454 0.311512 15.1755 0.25 15 0.25V1ZM7 5.25C6.58579 5.25 6.25 5.58579 6.25 6C6.25 6.41421 6.58579 6.75 7 6.75V5.25ZM12 6.75C12.4142 6.75 12.75 6.41421 12.75 6C12.75 5.58579 12.4142 5.25 12 5.25V6.75ZM7 9.25C6.58579 9.25 6.25 9.58579 6.25 10C6.25 10.4142 6.58579 10.75 7 10.75V9.25ZM17 10.75C17.4142 10.75 17.75 10.4142 17.75 10C17.75 9.58579 17.4142 9.25 17 9.25V10.75ZM7 13.25C6.58579 13.25 6.25 13.5858 6.25 14C6.25 14.4142 6.58579 14.75 7 14.75V13.25ZM17 14.75C17.4142 14.75 17.75 14.4142 17.75 14C17.75 13.5858 17.4142 13.25 17 13.25V14.75ZM7 17.25C6.58579 17.25 6.25 17.5858 6.25 18C6.25 18.4142 6.58579 18.75 7 18.75V17.25ZM17 18.75C17.4142 18.75 17.75 18.4142 17.75 18C17.75 17.5858 17.4142 17.25 17 17.25V18.75ZM15 6H14.25C14.25 6.41421 14.5858 6.75 15 6.75V6ZM2.25 2V22H3.75V2H2.25ZM4 23.75H20V22.25H4V23.75ZM21.75 22V6H20.25V22H21.75ZM21.4801 5.42383L15.4801 0.423834L14.5199 1.57617L20.5199 6.57617L21.4801 5.42383ZM15 0.25H4V1.75H15V0.25ZM7 6.75H12V5.25H7V6.75ZM7 10.75H17V9.25H7V10.75ZM7 14.75H17V13.25H7V14.75ZM7 18.75H17V17.25H7V18.75ZM14.25 1V6H15.75V1H14.25ZM15 6.75H21V5.25H15V6.75ZM20 23.75C20.9665 23.75 21.75 22.9665 21.75 22H20.25C20.25 22.1381 20.1381 22.25 20 22.25V23.75ZM2.25 22C2.25 22.9665 3.0335 23.75 4 23.75V22.25C3.86193 22.25 3.75 22.1381 3.75 22H2.25ZM3.75 2C3.75 1.86193 3.86193 1.75 4 1.75V0.25C3.0335 0.25 2.25 1.0335 2.25 2H3.75Z" fill="#1388F7"/>
</svg>
