<svg width="60" height="72" viewBox="0 0 60 72" fill="none" xmlns="http://www.w3.org/2000/svg">
<path d="M9.32809 50.4355L29.2115 71.613C29.4427 71.8599 29.7662 72.0001 30.1047 72.0001C30.4433 72.0001 30.7668 71.8599 30.9986 71.613L50.8806 50.4355C53.9235 47.1944 56.1647 43.6372 57.5415 39.8632C58.947 36.0742 59.54 32.0322 59.2821 27.999C58.7979 20.6296 55.662 13.6849 50.4546 8.44799C45.0631 3.03941 37.7409 0 30.104 0C22.4679 0 15.1457 3.03941 9.75418 8.44799C4.54669 13.6849 1.41084 20.6296 0.925927 27.999C0.668083 32.0322 1.26106 36.0742 2.66655 39.8632C4.04399 43.6372 6.28525 47.1944 9.32809 50.4355ZM3.37168 28.1625C3.81693 21.384 6.70109 14.9953 11.49 10.1783C16.4219 5.23143 23.1197 2.45123 30.104 2.45123C37.0891 2.45123 43.7869 5.23143 48.718 10.1783C53.5076 14.9953 56.3911 21.384 56.8364 28.1625C57.071 31.8543 56.5272 35.5544 55.2387 39.0227C53.9761 42.4841 51.9086 45.7595 49.0935 48.7578L30.104 68.9846L11.1152 48.7578C8.30013 45.7595 6.23259 42.4841 4.96936 39.0234C3.68151 35.5551 3.13709 31.8543 3.37168 28.1625Z" fill="#002766"/>
<path d="M26.8204 33.9466C27.291 34.4178 28.0515 34.426 28.533 33.9664L39.7051 23.2957C40.1948 22.8279 40.2126 22.0523 39.7448 21.5626C39.2777 21.0729 38.5014 21.0551 38.0124 21.5229L27.7068 31.3661L22.2169 25.8762C21.7381 25.3974 20.9618 25.3974 20.4831 25.8762C20.0043 26.3549 20.0043 27.1312 20.4831 27.6099L26.8204 33.9466Z" fill="#1388F7"/>
</svg>
