<svg width="144" height="82" viewBox="0 0 144 82" fill="none" xmlns="http://www.w3.org/2000/svg">
<rect width="72" height="64" fill="#002766"/>
<path d="M23.5764 39.1402C22.4697 39.1402 21.4764 38.9068 20.5964 38.4402C19.7164 37.9735 19.0297 37.3268 18.5364 36.5002C18.0431 35.6602 17.7964 34.7135 17.7964 33.6602C17.7964 32.6068 18.0431 31.6668 18.5364 30.8402C19.0297 30.0135 19.7097 29.3668 20.5764 28.9002C21.4564 28.4335 22.4564 28.2002 23.5764 28.2002C24.6297 28.2002 25.5497 28.4135 26.3364 28.8402C27.1364 29.2668 27.7364 29.8802 28.1364 30.6802L26.2164 31.8002C25.9097 31.3068 25.5231 30.9402 25.0564 30.7002C24.6031 30.4468 24.1031 30.3202 23.5564 30.3202C22.6231 30.3202 21.8497 30.6268 21.2364 31.2402C20.6231 31.8402 20.3164 32.6468 20.3164 33.6602C20.3164 34.6735 20.6164 35.4868 21.2164 36.1002C21.8297 36.7002 22.6097 37.0002 23.5564 37.0002C24.1031 37.0002 24.6031 36.8802 25.0564 36.6402C25.5231 36.3868 25.9097 36.0135 26.2164 35.5202L28.1364 36.6402C27.7231 37.4402 27.1164 38.0602 26.3164 38.5002C25.5297 38.9268 24.6164 39.1402 23.5764 39.1402Z" fill="white"/>
<path d="M36.9198 28.2002C37.9598 28.2002 38.8865 28.4268 39.6998 28.8802C40.5265 29.3335 41.1732 29.9735 41.6398 30.8002C42.1065 31.6268 42.3398 32.5802 42.3398 33.6602C42.3398 34.7402 42.1065 35.7002 41.6398 36.5402C41.1732 37.3668 40.5265 38.0068 39.6998 38.4602C38.8865 38.9135 37.9598 39.1402 36.9198 39.1402C36.1865 39.1402 35.5132 39.0135 34.8998 38.7602C34.2998 38.5068 33.7932 38.1268 33.3798 37.6202V39.0002H30.9998V24.1602H33.4998V29.6202C33.9265 29.1535 34.4265 28.8002 34.9998 28.5602C35.5865 28.3202 36.2265 28.2002 36.9198 28.2002ZM36.6398 37.0002C37.5598 37.0002 38.3132 36.6935 38.8998 36.0802C39.4998 35.4668 39.7998 34.6602 39.7998 33.6602C39.7998 32.6602 39.4998 31.8535 38.8998 31.2402C38.3132 30.6268 37.5598 30.3202 36.6398 30.3202C36.0398 30.3202 35.4998 30.4602 35.0198 30.7402C34.5398 31.0068 34.1598 31.3935 33.8798 31.9002C33.5998 32.4068 33.4598 32.9935 33.4598 33.6602C33.4598 34.3268 33.5998 34.9135 33.8798 35.4202C34.1598 35.9268 34.5398 36.3202 35.0198 36.6002C35.4998 36.8668 36.0398 37.0002 36.6398 37.0002Z" fill="white"/>
<path d="M48.8108 39.1402C47.9441 39.1402 47.0974 39.0268 46.2708 38.8002C45.4441 38.5735 44.7841 38.2868 44.2908 37.9402L45.2508 36.0402C45.7308 36.3602 46.3041 36.6202 46.9708 36.8202C47.6508 37.0068 48.3174 37.1002 48.9708 37.1002C50.4641 37.1002 51.2108 36.7068 51.2108 35.9202C51.2108 35.5468 51.0174 35.2868 50.6308 35.1402C50.2574 34.9935 49.6508 34.8535 48.8108 34.7202C47.9308 34.5868 47.2108 34.4335 46.6508 34.2602C46.1041 34.0868 45.6241 33.7868 45.2108 33.3602C44.8108 32.9202 44.6108 32.3135 44.6108 31.5402C44.6108 30.5268 45.0308 29.7202 45.8708 29.1202C46.7241 28.5068 47.8708 28.2002 49.3108 28.2002C50.0441 28.2002 50.7774 28.2868 51.5108 28.4602C52.2441 28.6202 52.8441 28.8402 53.3108 29.1202L52.3508 31.0202C51.4441 30.4868 50.4241 30.2202 49.2908 30.2202C48.5574 30.2202 47.9974 30.3335 47.6108 30.5602C47.2374 30.7735 47.0508 31.0602 47.0508 31.4202C47.0508 31.8202 47.2508 32.1068 47.6508 32.2802C48.0641 32.4402 48.6974 32.5935 49.5508 32.7402C50.4041 32.8735 51.1041 33.0268 51.6508 33.2002C52.1974 33.3735 52.6641 33.6668 53.0508 34.0802C53.4508 34.4935 53.6508 35.0802 53.6508 35.8402C53.6508 36.8402 53.2174 37.6402 52.3508 38.2402C51.4841 38.8402 50.3041 39.1402 48.8108 39.1402Z" fill="white"/>
<rect x="72" width="72" height="64" fill="#1388F7"/>
<path d="M91.0877 28.3202V37.3802C91.0877 41.1402 89.1677 43.0202 85.3277 43.0202C84.301 43.0202 83.3277 42.8869 82.4077 42.6202C81.4877 42.3669 80.7277 41.9935 80.1277 41.5002L81.2477 39.6202C81.7143 40.0069 82.301 40.3135 83.0077 40.5402C83.7277 40.7802 84.4543 40.9002 85.1877 40.9002C86.361 40.9002 87.221 40.6335 87.7677 40.1002C88.3143 39.5669 88.5877 38.7535 88.5877 37.6602V37.1002C88.161 37.5669 87.641 37.9202 87.0277 38.1602C86.4143 38.4002 85.741 38.5202 85.0077 38.5202C83.9943 38.5202 83.0743 38.3069 82.2477 37.8802C81.4343 37.4402 80.7877 36.8269 80.3077 36.0402C79.841 35.2535 79.6077 34.3535 79.6077 33.3402C79.6077 32.3269 79.841 31.4335 80.3077 30.6602C80.7877 29.8735 81.4343 29.2669 82.2477 28.8402C83.0743 28.4135 83.9943 28.2002 85.0077 28.2002C85.781 28.2002 86.481 28.3269 87.1077 28.5802C87.7477 28.8335 88.281 29.2202 88.7077 29.7402V28.3202H91.0877ZM85.3877 36.4002C86.3343 36.4002 87.1077 36.1202 87.7077 35.5602C88.321 34.9869 88.6277 34.2469 88.6277 33.3402C88.6277 32.4469 88.321 31.7202 87.7077 31.1602C87.1077 30.6002 86.3343 30.3202 85.3877 30.3202C84.4277 30.3202 83.641 30.6002 83.0277 31.1602C82.4277 31.7202 82.1277 32.4469 82.1277 33.3402C82.1277 34.2469 82.4277 34.9869 83.0277 35.5602C83.641 36.1202 84.4277 36.4002 85.3877 36.4002Z" fill="white"/>
<path d="M95.9544 29.8802C96.6744 28.7602 97.9411 28.2002 99.7544 28.2002V30.5802C99.5411 30.5402 99.3477 30.5202 99.1744 30.5202C98.2011 30.5202 97.4411 30.8069 96.8944 31.3802C96.3477 31.9402 96.0744 32.7535 96.0744 33.8202V39.0002H93.5744V28.3202H95.9544V29.8802Z" fill="white"/>
<path d="M105.778 39.1402C104.698 39.1402 103.724 38.9069 102.858 38.4402C101.991 37.9735 101.311 37.3269 100.818 36.5002C100.338 35.6602 100.098 34.7135 100.098 33.6602C100.098 32.6069 100.338 31.6669 100.818 30.8402C101.311 30.0135 101.991 29.3669 102.858 28.9002C103.724 28.4335 104.698 28.2002 105.778 28.2002C106.871 28.2002 107.851 28.4335 108.718 28.9002C109.584 29.3669 110.258 30.0135 110.738 30.8402C111.231 31.6669 111.478 32.6069 111.478 33.6602C111.478 34.7135 111.231 35.6602 110.738 36.5002C110.258 37.3269 109.584 37.9735 108.718 38.4402C107.851 38.9069 106.871 39.1402 105.778 39.1402ZM105.778 37.0002C106.698 37.0002 107.458 36.6935 108.058 36.0802C108.658 35.4669 108.958 34.6602 108.958 33.6602C108.958 32.6602 108.658 31.8535 108.058 31.2402C107.458 30.6269 106.698 30.3202 105.778 30.3202C104.858 30.3202 104.098 30.6269 103.498 31.2402C102.911 31.8535 102.618 32.6602 102.618 33.6602C102.618 34.6602 102.911 35.4669 103.498 36.0802C104.098 36.6935 104.858 37.0002 105.778 37.0002Z" fill="white"/>
<path d="M123.408 28.3202V39.0002H121.028V37.6402C120.628 38.1202 120.128 38.4935 119.528 38.7602C118.928 39.0135 118.281 39.1402 117.588 39.1402C116.161 39.1402 115.035 38.7469 114.208 37.9602C113.395 37.1602 112.988 35.9802 112.988 34.4202V28.3202H115.488V34.0802C115.488 35.0402 115.701 35.7602 116.128 36.2402C116.568 36.7069 117.188 36.9402 117.988 36.9402C118.881 36.9402 119.588 36.6669 120.108 36.1202C120.641 35.5602 120.908 34.7602 120.908 33.7202V28.3202H123.408Z" fill="white"/>
<path d="M131.801 28.2002C132.841 28.2002 133.768 28.4269 134.581 28.8802C135.408 29.3335 136.055 29.9735 136.521 30.8002C136.988 31.6269 137.221 32.5802 137.221 33.6602C137.221 34.7402 136.988 35.7002 136.521 36.5402C136.055 37.3669 135.408 38.0069 134.581 38.4602C133.768 38.9135 132.841 39.1402 131.801 39.1402C130.361 39.1402 129.221 38.6602 128.381 37.7002V42.8802H125.881V28.3202H128.261V29.7202C128.675 29.2135 129.181 28.8335 129.781 28.5802C130.395 28.3269 131.068 28.2002 131.801 28.2002ZM131.521 37.0002C132.441 37.0002 133.195 36.6935 133.781 36.0802C134.381 35.4669 134.681 34.6602 134.681 33.6602C134.681 32.6602 134.381 31.8535 133.781 31.2402C133.195 30.6269 132.441 30.3202 131.521 30.3202C130.921 30.3202 130.381 30.4602 129.901 30.7402C129.421 31.0069 129.041 31.3935 128.761 31.9002C128.481 32.4069 128.341 32.9935 128.341 33.6602C128.341 34.3269 128.481 34.9135 128.761 35.4202C129.041 35.9269 129.421 36.3202 129.901 36.6002C130.381 36.8669 130.921 37.0002 131.521 37.0002Z" fill="white"/>
<path d="M7.58395 77.9921V80.4761H6.50395V79.0001H1.18795V80.4761H0.0959473V77.9921H0.431947C0.839947 77.9681 1.11995 77.6801 1.27195 77.1281C1.42395 76.5761 1.52795 75.7961 1.58395 74.7881L1.67995 72.6401H6.61195V77.9921H7.58395ZM2.63995 74.8721C2.60795 75.6721 2.53995 76.3361 2.43595 76.8641C2.33995 77.3841 2.15995 77.7601 1.89595 77.9921H5.45995V73.6481H2.69995L2.63995 74.8721Z" fill="#002766"/>
<path d="M13.4167 72.5801C14.0327 72.5801 14.5847 72.7161 15.0727 72.9881C15.5607 73.2601 15.9407 73.6401 16.2127 74.1281C16.4927 74.6161 16.6327 75.1801 16.6327 75.8201C16.6327 76.4601 16.4927 77.0281 16.2127 77.5241C15.9407 78.0121 15.5607 78.3921 15.0727 78.6641C14.5847 78.9361 14.0327 79.0721 13.4167 79.0721C12.9607 79.0721 12.5407 78.9841 12.1567 78.8081C11.7807 78.6321 11.4607 78.3761 11.1967 78.0401V81.3281H10.0447V72.6401H11.1487V73.6481C11.4047 73.2961 11.7287 73.0321 12.1207 72.8561C12.5127 72.6721 12.9447 72.5801 13.4167 72.5801ZM13.3207 78.0641C13.7287 78.0641 14.0927 77.9721 14.4127 77.7881C14.7407 77.5961 14.9967 77.3321 15.1807 76.9961C15.3727 76.6521 15.4687 76.2601 15.4687 75.8201C15.4687 75.3801 15.3727 74.9921 15.1807 74.6561C14.9967 74.3121 14.7407 74.0481 14.4127 73.8641C14.0927 73.6801 13.7287 73.5881 13.3207 73.5881C12.9207 73.5881 12.5567 73.6841 12.2287 73.8761C11.9087 74.0601 11.6527 74.3201 11.4607 74.6561C11.2767 74.9921 11.1847 75.3801 11.1847 75.8201C11.1847 76.2601 11.2767 76.6521 11.4607 76.9961C11.6447 77.3321 11.9007 77.5961 12.2287 77.7881C12.5567 77.9721 12.9207 78.0641 13.3207 78.0641Z" fill="#002766"/>
<path d="M24.7666 72.6401L21.6826 79.6361C21.4106 80.2841 21.0906 80.7401 20.7226 81.0041C20.3626 81.2681 19.9266 81.4001 19.4146 81.4001C19.1026 81.4001 18.7986 81.3481 18.5026 81.2441C18.2146 81.1481 17.9746 81.0041 17.7826 80.8121L18.2746 79.9481C18.6026 80.2601 18.9826 80.4161 19.4146 80.4161C19.6946 80.4161 19.9266 80.3401 20.1106 80.1881C20.3026 80.0441 20.4746 79.7921 20.6266 79.4321L20.8306 78.9881L18.0226 72.6401H19.2226L21.4426 77.7281L23.6386 72.6401H24.7666Z" fill="#002766"/>
<path d="M32.3268 76.3121H31.0908V79.0001H29.9388V76.3121H28.7028L26.9508 79.0001H25.5828L27.7668 75.7121L25.7508 72.6401H26.9748L28.6908 75.3281H29.9388V72.6401H31.0908V75.3281H32.3388L34.0548 72.6401H35.2908L33.2748 75.7241L35.4588 79.0001H34.0908L32.3268 76.3121Z" fill="#002766"/>
<path d="M37.6864 72.6401H38.8384V77.2721L42.7384 72.6401H43.7824V79.0001H42.6304V74.3681L38.7424 79.0001H37.6864V72.6401Z" fill="#002766"/>
<path d="M54.3104 72.6401V79.0001H53.2664V74.3561L50.8904 78.2801H50.3864L48.0344 74.3441V79.0001H46.9784V72.6401H48.1664L50.6624 76.9361L53.2304 72.6401H54.3104Z" fill="#002766"/>
<path d="M85.7388 77.9922V80.5242H84.6468V79.0002H78.9468V72.6402H80.0988V77.9922H83.5788V72.6402H84.7308V77.9922H85.7388Z" fill="#002766"/>
<path d="M88.1919 72.6402H89.3439V77.2722L93.2439 72.6402H94.2879V79.0002H93.1359V74.3682L89.2479 79.0002H88.1919V72.6402Z" fill="#002766"/>
<path d="M105.512 75.8082C105.512 76.7922 105.184 77.5682 104.528 78.1362C103.872 78.7042 102.948 79.0202 101.756 79.0842V81.3282H100.628V79.0842C99.436 79.0202 98.512 78.7082 97.856 78.1482C97.208 77.5802 96.884 76.8002 96.884 75.8082C96.884 74.8242 97.208 74.0562 97.856 73.5042C98.504 72.9522 99.428 72.6442 100.628 72.5802V70.0962H101.756V72.5802C102.948 72.6442 103.872 72.9562 104.528 73.5162C105.184 74.0682 105.512 74.8322 105.512 75.8082ZM98.024 75.8082C98.024 76.4882 98.24 77.0202 98.672 77.4042C99.112 77.7882 99.764 78.0082 100.628 78.0642V73.6002C99.756 73.6562 99.104 73.8722 98.672 74.2482C98.24 74.6242 98.024 75.1442 98.024 75.8082ZM101.756 78.0762C103.5 77.9402 104.372 77.1842 104.372 75.8082C104.372 75.1362 104.152 74.6162 103.712 74.2482C103.272 73.8722 102.62 73.6562 101.756 73.6002V78.0762Z" fill="#002766"/>
<path d="M111.472 72.5802C112.088 72.5802 112.64 72.7162 113.128 72.9882C113.616 73.2602 113.996 73.6402 114.268 74.1282C114.548 74.6162 114.688 75.1802 114.688 75.8202C114.688 76.4602 114.548 77.0282 114.268 77.5242C113.996 78.0122 113.616 78.3922 113.128 78.6642C112.64 78.9362 112.088 79.0722 111.472 79.0722C111.016 79.0722 110.596 78.9842 110.212 78.8082C109.836 78.6322 109.516 78.3762 109.252 78.0402V81.3282H108.1V72.6402H109.204V73.6482C109.46 73.2962 109.784 73.0322 110.176 72.8562C110.568 72.6722 111 72.5802 111.472 72.5802ZM111.376 78.0642C111.784 78.0642 112.148 77.9722 112.468 77.7882C112.796 77.5962 113.052 77.3322 113.236 76.9962C113.428 76.6522 113.524 76.2602 113.524 75.8202C113.524 75.3802 113.428 74.9922 113.236 74.6562C113.052 74.3122 112.796 74.0482 112.468 73.8642C112.148 73.6802 111.784 73.5882 111.376 73.5882C110.976 73.5882 110.612 73.6842 110.284 73.8762C109.964 74.0602 109.708 74.3202 109.516 74.6562C109.332 74.9922 109.24 75.3802 109.24 75.8202C109.24 76.2602 109.332 76.6522 109.516 76.9962C109.7 77.3322 109.956 77.5962 110.284 77.7882C110.612 77.9722 110.976 78.0642 111.376 78.0642Z" fill="#002766"/>
<path d="M119.531 72.5802C120.411 72.5802 121.083 72.7962 121.547 73.2282C122.019 73.6602 122.255 74.3042 122.255 75.1602V79.0002H121.163V78.1602C120.971 78.4562 120.695 78.6842 120.335 78.8442C119.983 78.9962 119.563 79.0722 119.075 79.0722C118.363 79.0722 117.791 78.9002 117.359 78.5562C116.935 78.2122 116.723 77.7602 116.723 77.2002C116.723 76.6402 116.927 76.1922 117.335 75.8562C117.743 75.5122 118.391 75.3402 119.279 75.3402H121.103V75.1122C121.103 74.6162 120.959 74.2362 120.671 73.9722C120.383 73.7082 119.959 73.5762 119.399 73.5762C119.023 73.5762 118.655 73.6402 118.295 73.7682C117.935 73.8882 117.631 74.0522 117.383 74.2602L116.903 73.3962C117.231 73.1322 117.623 72.9322 118.079 72.7962C118.535 72.6522 119.019 72.5802 119.531 72.5802ZM119.267 78.1842C119.707 78.1842 120.087 78.0882 120.407 77.8962C120.727 77.6962 120.959 77.4162 121.103 77.0562V76.1682H119.327C118.351 76.1682 117.863 76.4962 117.863 77.1522C117.863 77.4722 117.987 77.7242 118.235 77.9082C118.483 78.0922 118.827 78.1842 119.267 78.1842Z" fill="#002766"/>
<path d="M132.622 72.6402V79.0002H131.578V74.3562L129.202 78.2802H128.698L126.346 74.3442V79.0002H125.29V72.6402H126.478L128.974 76.9362L131.542 72.6402H132.622Z" fill="#002766"/>
<path d="M135.824 72.6402H136.976V77.2722L140.876 72.6402H141.92V79.0002H140.768V74.3682L136.88 79.0002H135.824V72.6402Z" fill="#002766"/>
<path fill-rule="evenodd" clip-rule="evenodd" d="M69.2766 70C68.5528 70 68.0862 70.0862 67.5513 70.348C67.3533 70.445 67.1675 70.5617 66.995 70.6979C66.8291 70.5693 66.6507 70.458 66.4609 70.3641C65.9157 70.0944 65.4251 70 64.7273 70C62.8582 70 61.5 71.5486 61.5 73.5599C61.5 75.0789 62.3469 76.5461 63.9244 77.9649C64.7524 78.7097 65.8097 79.4467 66.5668 79.8387L67 80.0631L67.4332 79.8387C68.1903 79.4467 69.2476 78.7097 70.0756 77.9649C71.6531 76.5461 72.5 75.0789 72.5 73.5599C72.5 71.5699 71.129 70.0077 69.2766 70ZM71.5 73.56C71.5 74.75 70.7931 75.9747 69.4069 77.2214C68.6511 77.9012 67.6795 78.5805 67 78.9369C66.3205 78.5805 65.3489 77.9012 64.5931 77.2214C63.2069 75.9747 62.5 74.75 62.5 73.56C62.5 72.0739 63.4418 71 64.7273 71C65.2822 71 65.6241 71.0658 66.0176 71.2604C66.25 71.3754 66.4554 71.5272 66.6333 71.7169L67.0012 72.1094L67.3657 71.7138C67.5476 71.5165 67.756 71.3612 67.991 71.2462C68.3729 71.0593 68.6935 71 69.2746 71C70.5441 71.0053 71.5 72.0945 71.5 73.56Z" fill="#FF3334"/>
</svg>
