<svg width="72" height="72" viewBox="0 0 72 72" fill="none" xmlns="http://www.w3.org/2000/svg">
<path d="M5.68129 39.7127C6.51876 39.7115 7.33129 39.4275 7.98724 38.9069C8.64318 38.3862 9.10411 37.6593 9.29535 36.8439H27.5625V35.1564H9.29535C9.13653 34.4769 8.78936 33.856 8.29368 33.3648C7.79801 32.8736 7.1739 32.5321 6.49297 32.3795C5.81205 32.2269 5.10189 32.2693 4.44399 32.502C3.78609 32.7346 3.20709 33.148 2.77343 33.6947C2.33977 34.2414 2.06903 34.8993 1.99226 35.5929C1.91549 36.2864 2.0358 36.9876 2.3394 37.6159C2.643 38.2442 3.11757 38.7742 3.70868 39.1451C4.29979 39.516 4.98347 39.7127 5.68129 39.7127ZM5.68129 33.9763C6.08184 33.9763 6.4734 34.0951 6.80644 34.3177C7.13947 34.5402 7.39902 34.8566 7.55225 35.2266C7.70549 35.5967 7.74552 36.004 7.6673 36.3968C7.58907 36.7896 7.3961 37.1505 7.11278 37.4336C6.82947 37.7168 6.46854 37.9095 6.07566 37.9875C5.68277 38.0656 5.27558 38.0253 4.90558 37.8719C4.53557 37.7184 4.21939 37.4587 3.99702 37.1255C3.77464 36.7924 3.65607 36.4008 3.65629 36.0002C3.65674 35.4633 3.87023 34.9485 4.24989 34.5688C4.62956 34.1891 5.14436 33.9756 5.68129 33.9752V33.9763Z" fill="#002766"/>
<path d="M66.3188 32.2875C65.4813 32.2887 64.6687 32.5726 64.0128 33.0933C63.3569 33.614 62.8959 34.3409 62.7047 35.1562H44.4375V36.8437H62.7047C62.8635 37.5232 63.2107 38.1442 63.7064 38.6354C64.202 39.1266 64.8261 39.468 65.5071 39.6207C66.188 39.7733 66.8981 39.7308 67.5561 39.4982C68.214 39.2656 68.793 38.8522 69.2266 38.3055C69.6603 37.7588 69.931 37.1009 70.0078 36.4073C70.0846 35.7137 69.9642 35.0126 69.6606 34.3842C69.357 33.7559 68.8825 33.2259 68.2914 32.8551C67.7003 32.4842 67.0166 32.2875 66.3188 32.2875ZM66.3188 38.0239C65.9182 38.0239 65.5266 37.9051 65.1936 37.6825C64.8606 37.4599 64.601 37.1436 64.4478 36.7735C64.2946 36.4034 64.2545 35.9962 64.3327 35.6034C64.411 35.2105 64.6039 34.8497 64.8873 34.5666C65.1706 34.2834 65.5315 34.0906 65.9244 34.0126C66.3173 33.9346 66.7245 33.9749 67.0945 34.1283C67.4645 34.2818 67.7807 34.5415 68.003 34.8746C68.2254 35.2078 68.344 35.5994 68.3438 36C68.3433 36.5369 68.1298 37.0517 67.7502 37.4314C67.3705 37.811 66.8557 38.0245 66.3188 38.025V38.0239Z" fill="#002766"/>
<path d="M36.8434 27.5626V9.29538C37.7306 9.08831 38.5107 8.56222 39.0352 7.81726C39.5597 7.07229 39.792 6.16047 39.6878 5.25537C39.5835 4.35027 39.1501 3.51509 38.4701 2.90882C37.79 2.30255 36.9107 1.96753 35.9996 1.96753C35.0885 1.96753 34.2093 2.30255 33.5292 2.90882C32.8491 3.51509 32.4157 4.35027 32.3115 5.25537C32.2073 6.16047 32.4395 7.07229 32.964 7.81726C33.4885 8.56222 34.2686 9.08831 35.1559 9.29538V27.5626H36.8434ZM33.9746 5.68132C33.9744 5.28075 34.0929 4.88912 34.3153 4.55594C34.5376 4.22276 34.8538 3.96302 35.2238 3.80956C35.5938 3.6561 36.001 3.61581 36.3939 3.6938C36.7868 3.7718 37.1477 3.96456 37.4311 4.24771C37.7144 4.53086 37.9074 4.89168 37.9856 5.28453C38.0639 5.67737 38.0238 6.0846 37.8706 6.45469C37.7174 6.82478 37.4578 7.14112 37.1248 7.36369C36.7917 7.58625 36.4002 7.70505 35.9996 7.70505C35.4629 7.7046 34.9483 7.49129 34.5687 7.11189C34.189 6.7325 33.9754 6.21802 33.9746 5.68132Z" fill="#002766"/>
<path d="M35.9997 70.0313C36.9111 70.032 37.7909 69.6974 38.4714 69.0913C39.1519 68.4851 39.5857 67.6497 39.6899 66.7444C39.7942 65.839 39.5617 64.9269 39.0368 64.1819C38.5118 63.4369 37.7312 62.9111 36.8435 62.7047V44.4375H35.156V62.7047C34.2683 62.9111 33.4876 63.4369 32.9627 64.1819C32.4378 64.9269 32.2053 65.839 32.3095 66.7444C32.4138 67.6497 32.8475 68.4851 33.5281 69.0913C34.2086 69.6974 35.0884 70.032 35.9997 70.0313ZM35.9997 64.295C36.4003 64.295 36.7919 64.4138 37.1249 64.6364C37.4579 64.859 37.7175 65.1753 37.8707 65.5454C38.0239 65.9155 38.064 66.3227 37.9857 66.7155C37.9075 67.1084 37.7145 67.4692 37.4312 67.7524C37.1478 68.0355 36.7869 68.2283 36.394 68.3063C36.0011 68.3843 35.5939 68.344 35.2239 68.1905C34.8539 68.0371 34.5377 67.7773 34.3154 67.4441C34.093 67.111 33.9745 66.7193 33.9747 66.3188C33.9755 65.7821 34.1892 65.2676 34.5688 64.8882C34.9484 64.5088 35.463 64.2955 35.9997 64.295Z" fill="#002766"/>
<path d="M54.2874 16.5199L41.3301 29.4775L42.5233 30.6708L55.4812 17.7129C56.255 18.1939 57.1786 18.3735 58.0763 18.2175C58.9739 18.0616 59.7829 17.581 60.3492 16.8673C60.9154 16.1535 61.1995 15.2565 61.1473 14.3469C61.095 13.4373 60.7101 12.5787 60.0658 11.9345C59.4216 11.2903 58.5629 10.9055 57.6533 10.8534C56.7437 10.8012 55.8467 11.0854 55.133 11.6518C54.4194 12.2181 53.9389 13.0272 53.7831 13.9248C53.6272 14.8225 53.8069 15.7461 54.288 16.5199H54.2874ZM56.0078 13.1294C56.291 12.8461 56.6518 12.6531 57.0446 12.5749C57.4375 12.4967 57.8447 12.5367 58.2148 12.6899C58.5849 12.8432 58.9012 13.1027 59.1237 13.4357C59.3463 13.7688 59.4651 14.1603 59.4651 14.5609C59.4651 14.9614 59.3463 15.353 59.1237 15.686C58.9012 16.0191 58.5849 16.2786 58.2148 16.4319C57.8447 16.5851 57.4375 16.6251 57.0446 16.5469C56.6518 16.4687 56.291 16.2757 56.0078 15.9924C55.8192 15.8048 55.6695 15.5817 55.5673 15.336C55.4652 15.0904 55.4126 14.8269 55.4126 14.5609C55.4126 14.2948 55.4652 14.0314 55.5673 13.7857C55.6695 13.5401 55.8192 13.317 56.0078 13.1294Z" fill="#002766"/>
<path d="M29.4778 41.3297L16.5199 54.2876C15.746 53.8067 14.8224 53.6271 13.9248 53.783C13.0271 53.939 12.2181 54.4195 11.6519 55.1333C11.0856 55.847 10.8015 56.744 10.8538 57.6536C10.906 58.5632 11.2909 59.4218 11.9352 60.066C12.5795 60.7102 13.4381 61.095 14.3477 61.1472C15.2573 61.1993 16.1543 60.9151 16.868 60.3488C17.5816 59.7824 18.0621 58.9734 18.218 58.0757C18.3738 57.1781 18.1941 56.2544 17.7131 55.4807L30.6704 42.5225L29.4778 41.3297ZM15.9927 58.8706C15.7096 59.1534 15.349 59.3459 14.9566 59.4238C14.5641 59.5017 14.1574 59.4615 13.7878 59.3083C13.4181 59.1551 13.1022 58.8958 12.88 58.5631C12.6577 58.2303 12.5391 57.8392 12.5391 57.4391C12.5391 57.039 12.6577 56.6478 12.88 56.3151C13.1022 55.9824 13.4181 55.7231 13.7878 55.5698C14.1574 55.4166 14.5641 55.3765 14.9566 55.4544C15.349 55.5323 15.7096 55.7248 15.9927 56.0076C16.3717 56.3876 16.5846 56.9024 16.5846 57.4391C16.5846 57.9758 16.3717 58.4906 15.9927 58.8706Z" fill="#002766"/>
<path d="M55.4802 54.287L42.5223 41.3297L41.3291 42.5231L54.287 55.4807C53.8456 56.1925 53.6576 57.0325 53.7532 57.8646C53.8489 58.6966 54.2228 59.472 54.8142 60.065C55.3077 60.5589 55.9304 60.9036 56.6109 61.0597C57.2914 61.2157 58.0021 61.1766 58.6614 60.947C59.3207 60.7174 59.9019 60.3066 60.3383 59.7616C60.7747 59.2167 61.0486 58.5597 61.1285 57.8661C61.2085 57.1726 61.0912 56.4705 60.7903 55.8406C60.4893 55.2106 60.0168 54.6783 59.427 54.3047C58.8372 53.9312 58.154 53.7315 57.4559 53.7286C56.7578 53.7256 56.0729 53.9197 55.4801 54.2883L55.4802 54.287ZM58.8705 58.8706C58.4905 59.2496 57.9757 59.4625 57.439 59.4625C56.9022 59.4625 56.3874 59.2496 56.0074 58.8706C55.7241 58.5874 55.5311 58.2266 55.4529 57.8338C55.3747 57.4409 55.4147 57.0337 55.5679 56.6636C55.7212 56.2935 55.9807 55.9772 56.3138 55.7546C56.6468 55.5321 57.0383 55.4133 57.4389 55.4133C57.8395 55.4133 58.231 55.5321 58.564 55.7546C58.8971 55.9772 59.1566 56.2935 59.3099 56.6636C59.4631 57.0337 59.5031 57.4409 59.4249 57.8338C59.3467 58.2266 59.1537 58.5874 58.8704 58.8706H58.8705Z" fill="#002766"/>
<path d="M14.5615 18.2711C15.2537 18.2714 15.9321 18.0781 16.5202 17.7131L29.4781 30.6704L30.6713 29.4771L17.7134 16.5194C18.1545 15.8078 18.3424 14.968 18.2467 14.1362C18.151 13.3044 17.7774 12.5293 17.1862 11.9363C16.7548 11.5039 16.2233 11.1847 15.6389 11.0068C15.0545 10.829 14.4353 10.7982 13.8361 10.917C13.2369 11.0358 12.6763 11.3006 12.204 11.688C11.7317 12.0753 11.3622 12.5732 11.1284 13.1375C10.8946 13.7019 10.8037 14.3152 10.8636 14.923C10.9236 15.5309 11.1326 16.1146 11.4722 16.6224C11.8118 17.1302 12.2714 17.5463 12.8103 17.8339C13.3492 18.1215 13.9508 18.2716 14.5616 18.2711H14.5615ZM13.1299 13.1295C13.4131 12.8462 13.7739 12.6532 14.1667 12.575C14.5596 12.4968 14.9668 12.5368 15.3369 12.6901C15.707 12.8433 16.0233 13.1028 16.2458 13.4359C16.4684 13.7689 16.5872 14.1605 16.5872 14.561C16.5872 14.9616 16.4684 15.3531 16.2458 15.6862C16.0233 16.0192 15.707 16.2788 15.3369 16.432C14.9668 16.5852 14.5596 16.6253 14.1667 16.547C13.7739 16.4688 13.4131 16.2758 13.1299 15.9925C12.9412 15.8049 12.7915 15.5819 12.6893 15.3362C12.5871 15.0905 12.5345 14.8271 12.5345 14.561C12.5345 14.295 12.5871 14.0315 12.6893 13.7858C12.7915 13.5402 12.9412 13.3171 13.1299 13.1295Z" fill="#002766"/>
<path d="M28.3453 36.5968C28.4237 36.5184 28.4858 36.4254 28.5283 36.323C28.5707 36.2207 28.5925 36.1109 28.5925 36.0001C28.5925 35.8893 28.5707 35.7796 28.5283 35.6772C28.4858 35.5748 28.4237 35.4818 28.3453 35.4034L25.5988 32.6569C25.4398 32.5022 25.2263 32.4163 25.0046 32.4179C24.7828 32.4194 24.5705 32.5082 24.4137 32.665C24.2569 32.8219 24.1681 33.0341 24.1666 33.2559C24.1651 33.4777 24.251 33.6912 24.4057 33.8501L26.5556 36.0001L24.4057 38.1501C24.3256 38.2281 24.2618 38.3212 24.218 38.424C24.1741 38.5268 24.1512 38.6373 24.1504 38.7491C24.1496 38.8608 24.1711 38.9716 24.2135 39.075C24.2559 39.1784 24.3185 39.2724 24.3975 39.3514C24.4765 39.4305 24.5705 39.493 24.6739 39.5354C24.7773 39.5779 24.8881 39.5993 24.9998 39.5986C25.1116 39.5978 25.2221 39.5749 25.3249 39.531C25.4277 39.4872 25.5208 39.4234 25.5988 39.3433L28.3453 36.5968Z" fill="#1388F7"/>
<path d="M43.6544 35.4032C43.576 35.4815 43.5139 35.5745 43.4715 35.6769C43.4291 35.7793 43.4072 35.889 43.4072 35.9998C43.4072 36.1106 43.4291 36.2204 43.4715 36.3227C43.5139 36.4251 43.576 36.5182 43.6544 36.5965L46.401 39.343C46.4789 39.4231 46.572 39.4869 46.6748 39.5308C46.7776 39.5746 46.8881 39.5975 46.9999 39.5983C47.1117 39.599 47.2225 39.5776 47.3259 39.5351C47.4293 39.4927 47.5232 39.4302 47.6022 39.3511C47.6813 39.2721 47.7438 39.1781 47.7862 39.0747C47.8286 38.9713 47.8501 38.8605 47.8493 38.7488C47.8485 38.637 47.8256 38.5265 47.7818 38.4237C47.7379 38.3209 47.6741 38.2278 47.594 38.1498L45.4441 35.9998L47.594 33.8498C47.6741 33.7719 47.7379 33.6788 47.7818 33.576C47.8256 33.4732 47.8485 33.3627 47.8493 33.2509C47.8501 33.1391 47.8286 33.0283 47.7862 32.9249C47.7438 32.8215 47.6813 32.7276 47.6022 32.6485C47.5232 32.5695 47.4293 32.5069 47.3259 32.4645C47.2225 32.4221 47.1117 32.4006 46.9999 32.4014C46.8881 32.4021 46.7776 32.4251 46.6748 32.4689C46.572 32.5127 46.4789 32.5765 46.401 32.6566L43.6544 35.4032Z" fill="#1388F7"/>
<path d="M38.1505 24.4057L36.0005 26.5557L33.8505 24.4057C33.6918 24.2496 33.4778 24.1625 33.2553 24.1635C33.0327 24.1644 32.8195 24.2532 32.6621 24.4107C32.5047 24.5681 32.4159 24.7813 32.415 25.0039C32.4142 25.2264 32.5013 25.4404 32.6574 25.599L35.4039 28.3456C35.5622 28.5037 35.7767 28.5926 36.0005 28.5926C36.2242 28.5926 36.4388 28.5037 36.597 28.3456L39.3436 25.599C39.4997 25.4404 39.5868 25.2264 39.5859 25.0039C39.585 24.7813 39.4962 24.5681 39.3389 24.4107C39.1815 24.2532 38.9683 24.1644 38.7457 24.1635C38.5231 24.1625 38.3092 24.2496 38.1505 24.4057Z" fill="#1388F7"/>
<path d="M33.8504 47.5943L36.0004 45.4443L38.1504 47.5943C38.3091 47.7504 38.5231 47.8374 38.7456 47.8365C38.9682 47.8355 39.1814 47.7467 39.3388 47.5893C39.4962 47.4319 39.585 47.2187 39.5859 46.9961C39.5867 46.7735 39.4996 46.5596 39.3435 46.4009L36.597 43.6544C36.4387 43.4962 36.2242 43.4073 36.0004 43.4073C35.7767 43.4073 35.5621 43.4962 35.4039 43.6544L32.6574 46.4009C32.5779 46.479 32.5148 46.5721 32.4715 46.6747C32.4283 46.7774 32.4057 46.8875 32.4053 46.9989C32.4048 47.1103 32.4264 47.2207 32.4688 47.3237C32.5112 47.4267 32.5736 47.5202 32.6523 47.599C32.7311 47.6778 32.8246 47.7402 32.9276 47.7826C33.0306 47.825 33.141 47.8466 33.2524 47.8462C33.3637 47.8458 33.4739 47.8233 33.5766 47.78C33.6792 47.7368 33.7723 47.6737 33.8504 47.5943Z" fill="#1388F7"/>
<path d="M41.8343 31.078H45.7186C45.9424 31.078 46.157 30.9891 46.3152 30.8308C46.4734 30.6726 46.5623 30.458 46.5623 30.2342C46.5623 30.0104 46.4734 29.7958 46.3152 29.6376C46.157 29.4794 45.9424 29.3905 45.7186 29.3905H42.6094V26.2812C42.6094 26.0575 42.5205 25.8429 42.3622 25.6846C42.204 25.5264 41.9894 25.4375 41.7656 25.4375C41.5418 25.4375 41.3272 25.5264 41.169 25.6846C41.0108 25.8429 40.9219 26.0575 40.9219 26.2812V30.1655C40.9347 30.4033 41.0349 30.628 41.2033 30.7964C41.3717 30.9649 41.5964 31.0651 41.8343 31.078Z" fill="#1388F7"/>
<path d="M30.1656 40.9219H26.2813C26.0575 40.9219 25.8429 41.0108 25.6846 41.169C25.5264 41.3272 25.4375 41.5418 25.4375 41.7656C25.4375 41.9894 25.5264 42.204 25.6846 42.3622C25.8429 42.5205 26.0575 42.6094 26.2813 42.6094H29.3905V45.7186C29.3905 45.9424 29.4794 46.157 29.6376 46.3152C29.7958 46.4734 30.0104 46.5623 30.2342 46.5623C30.458 46.5623 30.6726 46.4734 30.8308 46.3152C30.9891 46.157 31.078 45.9424 31.078 45.7186V41.8344C31.0652 41.5966 30.9649 41.3718 30.7965 41.2034C30.6281 41.035 30.4034 40.9347 30.1656 40.9219Z" fill="#1388F7"/>
<path d="M41.7656 46.5623C41.9894 46.5623 42.204 46.4734 42.3622 46.3152C42.5205 46.157 42.6094 45.9424 42.6094 45.7186V42.6094H45.7186C45.9424 42.6094 46.157 42.5205 46.3152 42.3622C46.4734 42.204 46.5623 41.9894 46.5623 41.7656C46.5623 41.5418 46.4734 41.3272 46.3152 41.169C46.157 41.0108 45.9424 40.9219 45.7186 40.9219H41.8343C41.5964 40.9347 41.3717 41.035 41.2033 41.2034C41.0349 41.3718 40.9347 41.5966 40.9219 41.8344V45.7186C40.9219 45.9424 41.0108 46.157 41.169 46.3152C41.3272 46.4734 41.5418 46.5623 41.7656 46.5623Z" fill="#1388F7"/>
<path d="M30.2342 25.4375C30.0104 25.4375 29.7958 25.5264 29.6376 25.6846C29.4794 25.8429 29.3905 26.0575 29.3905 26.2812V29.3905H26.2813C26.0575 29.3905 25.8429 29.4794 25.6846 29.6376C25.5264 29.7958 25.4375 30.0104 25.4375 30.2342C25.4375 30.458 25.5264 30.6726 25.6846 30.8308C25.8429 30.9891 26.0575 31.078 26.2813 31.078H30.1656C30.4034 31.0651 30.6281 30.9649 30.7965 30.7964C30.9649 30.628 31.0652 30.4033 31.078 30.1655V26.2812C31.078 26.0575 30.9891 25.8429 30.8308 25.6846C30.6726 25.5264 30.458 25.4375 30.2342 25.4375Z" fill="#1388F7"/>
</svg>
