<svg width="72" height="72" viewBox="0 0 72 72" fill="none" xmlns="http://www.w3.org/2000/svg">
<g clip-path="url(#clip0)">
<path d="M42.1017 65.8982C22.2505 65.8982 6.1017 49.7494 6.1017 29.8982C6.09375 21.8413 8.80138 14.0164 13.7892 7.68823C5.08475 14.5042 -0.000794398 24.9446 9.30761e-08 35.9999C9.30761e-08 55.8511 16.1488 71.9999 36 71.9999C47.0554 71.9999 57.4966 66.9152 64.3117 58.2099C57.9836 63.1978 50.1586 65.9062 42.1017 65.8982Z" fill="#D4E1F4"/>
<path d="M68.4423 4.75192C67.8988 4.18307 66.9971 4.16241 66.4282 4.70584L55.755 14.9008L50.1141 9.25908C49.558 8.70293 48.6562 8.70293 48.1001 9.25908C47.5448 9.81522 47.5448 10.717 48.1001 11.2731L54.7254 17.8984C55.2728 18.4458 56.1562 18.4553 56.7156 17.9206L68.3954 6.76517C68.9642 6.22173 68.9849 5.31999 68.4423 4.75192Z" fill="#1388F7"/>
<path d="M36.0001 22.2291C39.3608 22.2331 42.0843 24.9566 42.0883 28.3173C42.0883 29.1038 42.7255 29.741 43.512 29.741C44.2986 29.741 44.9358 29.1038 44.9358 28.3173C44.9302 23.9341 41.7498 20.2 37.4238 19.4961V16.678C37.4238 15.8915 36.7867 15.2543 36.0001 15.2543C35.2136 15.2543 34.5764 15.8915 34.5764 16.678V19.4961C29.9794 20.2405 26.7244 24.3893 27.097 29.0315C27.4688 33.673 31.3436 37.2506 36.0001 37.2522C39.3481 37.2522 42.0684 39.9558 42.0875 43.3046C42.1074 46.6526 39.4188 49.388 36.0708 49.4269C36.047 49.4254 36.0239 49.423 36.0001 49.423C35.9763 49.423 35.9532 49.4254 35.9294 49.4269C32.5965 49.3848 29.9159 46.6732 29.9119 43.3403C29.9119 42.5538 29.2747 41.9166 28.4882 41.9166C27.7016 41.9166 27.0645 42.5538 27.0645 43.3403C27.07 47.7236 30.2496 51.4577 34.5764 52.1616V55.3221C34.5764 56.1086 35.2136 56.7458 36.0001 56.7458C36.7867 56.7458 37.4238 56.1086 37.4238 55.3221V52.1616C42.0216 51.4195 45.2782 47.2691 44.9056 42.6269C44.5337 37.9847 40.6574 34.4063 36.0001 34.4063C33.8168 34.4182 31.7933 33.2606 30.6985 31.3721C29.6029 29.4828 29.6029 27.1526 30.6985 25.2633C31.7933 23.3748 33.8168 22.2172 36.0001 22.2299V22.2291Z" fill="#1388F7"/>
<path d="M67.3665 21.3662C66.6412 21.6697 66.2995 22.5039 66.6022 23.2292C68.2945 27.274 69.1613 31.6159 69.1525 35.9999C69.1525 54.2804 54.2805 69.1524 36 69.1524C17.7195 69.1524 2.84746 54.2804 2.84746 35.9999C2.84746 17.7194 17.7195 2.84736 36 2.84736C39.715 2.84259 43.4047 3.46389 46.9131 4.68581C47.3938 4.85663 47.9301 4.75652 48.317 4.42363C48.7039 4.09153 48.8835 3.5767 48.7873 3.07538C48.6912 2.57406 48.3337 2.16251 47.8506 1.99725C44.0403 0.670454 40.0344 -0.00486396 36 -9.70092e-05C16.1488 -9.70092e-05 0 16.1487 0 35.9999C0 55.8511 16.1488 71.9999 36 71.9999C55.8512 71.9999 72 55.8511 72 35.9999C72.0087 31.2385 71.0673 26.5232 69.2296 22.1305C68.9261 21.4051 68.0919 21.0635 67.3665 21.3662Z" fill="#002766"/>
</g>
<defs>
<clipPath id="clip0">
<rect width="72" height="72" fill="white"/>
</clipPath>
</defs>
</svg>
