<svg width="72" height="72" viewBox="0 0 72 72" fill="none" xmlns="http://www.w3.org/2000/svg">
<g clip-path="url(#clip0)">
<path d="M25.8694 45.2562C23.0543 42.2578 20.9868 38.9824 19.7235 35.5217C18.4357 32.0535 17.8913 28.3534 18.1259 24.6608C18.5711 17.8823 21.4553 11.4936 26.2442 6.67667C27.6428 5.27119 29.194 4.02779 30.8696 2.96906C25.7935 3.99086 21.1352 6.50022 17.4898 10.1784C12.7009 14.9954 9.81671 21.384 9.37146 28.1625C9.13687 31.8544 9.68129 35.5545 10.9691 39.0228C12.2324 42.4842 14.2999 45.7595 17.115 48.7579L36.1038 68.9846L42.1252 62.5714L25.8694 45.2562Z" fill="#D4E1F4"/>
<path d="M36.1039 48.5541C24.9126 48.5541 15.8074 39.219 15.8074 27.7453C15.8074 16.2716 24.9126 6.93585 36.1039 6.93585C47.2958 6.93585 56.4004 16.2702 56.4004 27.7446C56.4004 39.2183 47.2958 48.5541 36.1039 48.5541ZM36.1039 9.38708C26.2641 9.38708 18.2586 17.6224 18.2586 27.7446C18.2586 37.8669 26.2641 46.1028 36.1039 46.1028C45.9444 46.1028 53.9492 37.8669 53.9492 27.7446C53.9492 17.6224 45.9444 9.38708 36.1039 9.38708Z" fill="#1388F7"/>
<path d="M15.3278 50.4355L35.2112 71.613C35.4424 71.8599 35.7659 72.0001 36.1045 72.0001C36.443 72.0001 36.7665 71.8599 36.9984 71.613L56.8804 50.4355C59.9232 47.1944 62.1645 43.6372 63.5413 39.8632C64.9468 36.0742 65.5397 32.0322 65.2819 27.999C64.7977 20.6296 61.6618 13.6849 56.4543 8.44799C51.0628 3.03941 43.7406 0 36.1038 0C28.4676 0 21.1454 3.03941 15.7539 8.44799C10.5464 13.6849 7.41059 20.6296 6.92568 27.999C6.66784 32.0322 7.26081 36.0742 8.6663 39.8632C10.0437 43.6372 12.285 47.1944 15.3278 50.4355ZM9.37144 28.1625C9.81668 21.384 12.7008 14.9953 17.4898 10.1783C22.4216 5.23143 29.1194 2.45123 36.1038 2.45123C43.0888 2.45123 49.7866 5.23143 54.7178 10.1783C59.5074 14.9953 62.3909 21.384 62.8361 28.1625C63.0707 31.8543 62.527 35.5544 61.2384 39.0227C59.9759 42.4841 57.9084 45.7595 55.0933 48.7578L36.1038 68.9846L17.115 48.7578C14.2999 45.7595 12.2323 42.4841 10.9691 39.0234C9.68126 35.5551 9.13685 31.8543 9.37144 28.1625Z" fill="#002766"/>
<path d="M32.82 33.9465C33.2905 34.4178 34.051 34.426 34.5325 33.9664L45.7046 23.2956C46.1943 22.8278 46.2121 22.0522 45.7443 21.5625C45.2772 21.0728 44.5009 21.055 44.0119 21.5228L33.7063 31.3661L28.2164 25.8761C27.7376 25.3973 26.9614 25.3973 26.4826 25.8761C26.0038 26.3549 26.0038 27.1311 26.4826 27.6099L32.82 33.9465Z" fill="#1388F7"/>
</g>
<defs>
<clipPath id="clip0">
<rect width="72" height="72" fill="white"/>
</clipPath>
</defs>
</svg>
