<svg width="32" height="32" viewBox="0 0 32 32" fill="none" xmlns="http://www.w3.org/2000/svg">
<path fill-rule="evenodd" clip-rule="evenodd" d="M16 32C24.8366 32 32 24.8366 32 16C32 7.16344 24.8366 0 16 0C7.16344 0 0 7.16344 0 16C0 24.8366 7.16344 32 16 32ZM24.5228 20.5539C25.1592 20.8718 25.5047 21.1129 25.559 21.2765C25.5864 21.3407 25.6002 21.436 25.5999 21.5636C25.5999 21.8092 25.5546 22.1295 25.4634 22.5249C25.3725 22.9204 25.2774 23.2318 25.177 23.4589C24.9861 23.9137 24.4318 24.3956 23.5138 24.9045C22.6593 25.3681 21.8137 25.6 20.9775 25.6C20.7322 25.6 20.4935 25.5839 20.2616 25.5525C20.0298 25.5204 19.7686 25.4636 19.4774 25.3817C19.1867 25.2998 18.9706 25.2338 18.8298 25.1837C18.689 25.1337 18.4367 25.0405 18.073 24.9042C17.7095 24.7675 17.4869 24.6858 17.405 24.6587C16.5142 24.3403 15.7186 23.9631 15.0186 23.5268C13.8549 22.8087 12.6527 21.8291 11.4118 20.5883C10.171 19.3473 9.19133 18.1448 8.47348 16.9813C8.03718 16.2812 7.65991 15.4858 7.34177 14.5949C7.3145 14.5131 7.23259 14.2905 7.09637 13.9268C6.95996 13.5631 6.86678 13.3108 6.81687 13.17C6.76701 13.0293 6.70105 12.8133 6.61928 12.5224C6.53737 12.2314 6.48053 11.97 6.44873 11.7382C6.41692 11.5062 6.40101 11.2676 6.40101 11.0224C6.40101 10.1861 6.6328 9.34048 7.09642 8.48612C7.60556 7.5681 8.08733 7.01359 8.54187 6.82278C8.76917 6.72263 9.08043 6.6273 9.47599 6.53641C9.87141 6.44537 10.1918 6.4 10.4374 6.4C10.5645 6.4 10.66 6.41376 10.7237 6.44103C10.8874 6.49538 11.1282 6.84098 11.4462 7.47721C11.5464 7.64992 11.6826 7.89546 11.8553 8.21345C12.0281 8.53159 12.187 8.82036 12.3326 9.07942C12.4783 9.33852 12.619 9.58168 12.7552 9.80878C12.7826 9.84532 12.8621 9.95885 12.994 10.1498C13.1259 10.3407 13.2236 10.5019 13.2872 10.634C13.3508 10.7657 13.3826 10.8954 13.3826 11.0226C13.3826 11.2044 13.2531 11.4315 12.994 11.7043C12.7348 11.9769 12.4532 12.227 12.1486 12.4541C11.8441 12.6812 11.5623 12.9222 11.3032 13.1766C11.0441 13.4312 10.9145 13.6404 10.9145 13.8039C10.9145 13.8858 10.9373 13.988 10.9827 14.1107C11.028 14.2334 11.0667 14.3267 11.0985 14.3902C11.1303 14.4541 11.194 14.563 11.2895 14.7176C11.3849 14.8721 11.4373 14.9585 11.4463 14.9767C12.1372 16.2222 12.9282 17.2902 13.8189 18.1813C14.7099 19.0719 15.778 19.8629 17.0234 20.5539C17.0415 20.563 17.1277 20.6153 17.2826 20.7108C17.4373 20.8066 17.5461 20.87 17.6096 20.902C17.6736 20.9334 17.7668 20.9723 17.8894 21.0178C18.012 21.0629 18.1143 21.0858 18.1963 21.0858C18.3598 21.0858 18.569 20.9563 18.8237 20.6971C19.0779 20.438 19.3189 20.1564 19.5461 19.8517C19.7733 19.5469 20.0233 19.2653 20.296 19.0061C20.5686 18.7471 20.7956 18.6175 20.9774 18.6175C21.1047 18.6175 21.2343 18.6494 21.3661 18.7128C21.4982 18.7766 21.6593 18.8743 21.8504 19.0061C22.0413 19.1382 22.1549 19.2176 22.1912 19.2449C22.4183 19.381 22.6614 19.5219 22.9208 19.6674C23.1797 19.8128 23.4686 19.972 23.7867 20.1448C24.1046 20.3175 24.3503 20.4537 24.5228 20.5539Z" fill="white"/>
</svg>
