<svg width="32" height="32" viewBox="0 0 32 32" fill="none" xmlns="http://www.w3.org/2000/svg">
<path fill-rule="evenodd" clip-rule="evenodd" d="M20.6007 1.87026C22.0168 1.46566 23.4928 2.28564 23.8974 3.70173C23.9655 3.93998 24 4.18654 24 4.43432V6.66669H26.6667C28.1394 6.66669 29.3333 7.86059 29.3333 9.33335V25.3334C29.3333 26.8061 28.1394 28 26.6667 28H5.33332C3.86056 28 2.66666 26.8061 2.66666 25.3334H2.70226C2.67859 25.19 2.66666 25.0447 2.66666 24.899V9.00575C2.66666 7.81513 3.45593 6.76877 4.60073 6.44169L20.6007 1.87026ZM13.52 25.3334H26.6667V14.6667H24V20.3276C24 21.5182 23.2107 22.5646 22.0659 22.8917L13.52 25.3334ZM26.6667 9.33335V12H24V9.33335H26.6667ZM5.33332 9.00571V24.899L21.3333 20.3276V4.43429L5.33332 9.00571ZM18.6667 12C18.6667 12.7364 18.0697 13.3334 17.3333 13.3334C16.5969 13.3334 16 12.7364 16 12C16 11.2636 16.5969 10.6667 17.3333 10.6667C18.0697 10.6667 18.6667 11.2636 18.6667 12Z" fill="#1388F7"/>
</svg>
