<svg width="32" height="32" viewBox="0 0 32 32" fill="none" xmlns="http://www.w3.org/2000/svg">
<path fill-rule="evenodd" clip-rule="evenodd" d="M5.62911 26.3709C4.39683 25.1387 4.0433 23.259 4.42976 20.7926C2.41251 19.3219 1.33334 17.7428 1.33334 16C1.33334 14.2573 2.41251 12.6782 4.42976 11.2075C4.0433 8.74113 4.39683 6.86142 5.62911 5.62914C6.86139 4.39686 8.7411 4.04333 11.2075 4.42979C12.6782 2.41254 14.2573 1.33337 16 1.33337C17.7427 1.33337 19.3219 2.41254 20.7926 4.42979C23.2589 4.04333 25.1386 4.39686 26.3709 5.62914C27.6032 6.86142 27.9567 8.74113 27.5703 11.2075C29.5875 12.6782 30.6667 14.2573 30.6667 16C30.6667 17.7428 29.5875 19.3219 27.5703 20.7926C27.9567 23.259 27.6032 25.1387 26.3709 26.3709C25.1386 27.6032 23.2589 27.9567 20.7926 27.5703C19.3219 29.5875 17.7427 30.6667 16 30.6667C14.2573 30.6667 12.6782 29.5875 11.2075 27.5703C8.7411 27.9567 6.86139 27.6032 5.62911 26.3709ZM11.5368 24.7974C12.078 24.6814 12.6346 24.912 12.9353 25.3767C14.1097 27.1911 15.1569 28 16 28C16.8432 28 17.8903 27.1911 19.0647 25.3767C19.3654 24.912 19.922 24.6814 20.4632 24.7974C22.5766 25.25 23.8891 25.0815 24.4853 24.4853C25.0815 23.8891 25.2499 22.5766 24.7973 20.4633C24.6814 19.922 24.912 19.3655 25.3766 19.0647C27.1911 17.8904 28 16.8432 28 16C28 15.1569 27.1911 14.1097 25.3766 12.9354C24.912 12.6346 24.6814 12.0781 24.7973 11.5368C25.2499 9.42344 25.0815 8.11096 24.4853 7.51476C23.8891 6.91856 22.5766 6.75012 20.4632 7.20273C19.922 7.31864 19.3654 7.0881 19.0647 6.62343C17.8903 4.809 16.8432 4.00004 16 4.00004C15.1569 4.00004 14.1097 4.809 12.9353 6.62343C12.6346 7.0881 12.078 7.31864 11.5368 7.20273C9.42341 6.75012 8.11093 6.91856 7.51473 7.51476C6.91853 8.11096 6.75009 9.42344 7.2027 11.5368C7.31861 12.0781 7.08807 12.6346 6.6234 12.9354C4.80897 14.1097 4.00001 15.1569 4.00001 16C4.00001 16.8432 4.80897 17.8904 6.6234 19.0647C7.08807 19.3655 7.31861 19.922 7.2027 20.4633C6.75009 22.5766 6.91853 23.8891 7.51473 24.4853C8.11093 25.0815 9.42341 25.25 11.5368 24.7974ZM20.3906 11.0572L14.6667 16.7811L11.6095 13.7239L9.72389 15.6095L14.6667 20.5523L22.2762 12.9429L20.3906 11.0572Z" fill="white"/>
</svg>
