<svg width="32" height="32" viewBox="0 0 32 32" fill="none" xmlns="http://www.w3.org/2000/svg">
<path fill-rule="evenodd" clip-rule="evenodd" d="M16 30.6667C7.89983 30.6667 1.33334 24.1002 1.33334 16C1.33334 7.89986 7.89983 1.33337 16 1.33337C24.1002 1.33337 30.6667 7.89986 30.6667 16C30.6667 24.1002 24.1002 30.6667 16 30.6667ZM16 28C22.6274 28 28 22.6275 28 16C28 9.37262 22.6274 4.00004 16 4.00004C9.37259 4.00004 4.00001 9.37262 4.00001 16C4.00001 22.6275 9.37259 28 16 28ZM22.5474 20.5979L20.3662 19.0638C19.3724 20.4768 17.7593 21.3334 16 21.3334C14.2406 21.3334 12.6276 20.4768 11.6338 19.0638L9.45257 20.5979C10.9406 22.7136 13.3632 24 16 24C18.6367 24 21.0594 22.7136 22.5474 20.5979ZM18.6667 14.6667V12H21.3333V14.6667H18.6667ZM10.6667 12V14.6667H13.3333V12H10.6667Z" fill="#1388F7"/>
</svg>
