<svg width="32" height="32" viewBox="0 0 32 32" fill="none" xmlns="http://www.w3.org/2000/svg">
<path fill-rule="evenodd" clip-rule="evenodd" d="M22.071 2.66665C20.1408 2.66662 18.8965 2.89658 17.4702 3.59472C16.9421 3.8532 16.4467 4.16448 15.9866 4.52764C15.5443 4.18484 15.0686 3.88785 14.5624 3.63747C13.1084 2.91833 11.8004 2.66663 9.9394 2.66663C4.95526 2.66663 1.33334 6.79632 1.33334 12.1598C1.33334 16.2103 3.59179 20.123 7.79846 23.9065C10.0065 25.8924 12.8258 27.8577 14.8448 28.9033L16 29.5015L17.1552 28.9033C19.1742 27.8577 21.9935 25.8924 24.2016 23.9065C28.4082 20.123 30.6667 16.2103 30.6667 12.1598C30.6667 6.85309 27.0106 2.6871 22.071 2.66665ZM28 12.1598C28 15.3332 26.1149 18.599 22.4183 21.9238C20.4029 23.7364 17.812 25.5479 16 26.4982C14.1881 25.5479 11.5971 23.7364 9.58171 21.9238C5.88511 18.599 4.00001 15.3332 4.00001 12.1598C4.00001 8.19692 6.51153 5.33329 9.9394 5.33329C11.4191 5.33329 12.3308 5.50874 13.3802 6.02775C14 6.33432 14.5478 6.73912 15.0221 7.24499L16.0031 8.29156L16.9753 7.23669C17.4601 6.71056 18.016 6.29654 18.6426 5.98986C19.6612 5.49128 20.516 5.33329 22.0655 5.3333C25.451 5.34733 28 8.25191 28 12.1598Z" fill="#1388F7"/>
</svg>
