<svg width="72" height="72" viewBox="0 0 72 72" fill="none" xmlns="http://www.w3.org/2000/svg">
<path d="M51.5497 16.82L48.782 16.5528C48.4733 15.3996 48.0081 14.294 47.3993 13.267L49.1587 11.1424C49.2921 10.9813 49.361 10.7764 49.3518 10.5674C49.3427 10.3584 49.2562 10.1602 49.1092 10.0114L45.9465 6.8081C45.7982 6.6578 45.599 6.56858 45.3881 6.55803C45.1772 6.54749 44.97 6.61639 44.8075 6.75115L42.6784 8.51529C41.6518 7.90846 40.5483 7.44216 39.3976 7.12887L39.1305 4.38991C39.1091 4.1842 39.0106 3.9942 38.8549 3.85811C38.6991 3.72201 38.4976 3.64991 38.2909 3.65627H33.75C33.5432 3.6499 33.3417 3.722 33.186 3.85809C33.0302 3.99418 32.9316 4.18417 32.9102 4.38991L32.643 7.14293C31.49 7.44909 30.3844 7.91188 29.3572 8.51838L27.2326 6.75537C27.071 6.62111 26.8651 6.55198 26.6552 6.5615C26.4453 6.57102 26.2465 6.6585 26.0977 6.80683L22.8946 10.0091C22.7461 10.1577 22.6584 10.3563 22.6485 10.566C22.6387 10.7758 22.7074 10.9818 22.8413 11.1436L24.6049 13.2726C23.9981 14.2993 23.5318 15.4027 23.2185 16.5534L20.4502 16.8206C20.2415 16.8407 20.0478 16.9378 19.9068 17.093C19.7658 17.2482 19.6876 17.4503 19.6875 17.66V22.2013C19.6875 22.4111 19.7656 22.6134 19.9066 22.7687C20.0476 22.9239 20.2414 23.0211 20.4502 23.0413L23.218 23.3085C23.5267 24.4618 23.9919 25.5673 24.6007 26.5943L22.8413 28.7189C22.7073 28.8807 22.6385 29.0867 22.6484 29.2965C22.6582 29.5064 22.746 29.705 22.8946 29.8536L26.0977 33.0567C26.2463 33.2053 26.445 33.2931 26.6549 33.303C26.8647 33.3129 27.0708 33.244 27.2326 33.11L29.3621 31.3466C30.3888 31.9534 31.4923 32.4197 32.643 32.733L32.9102 35.5101C32.9301 35.7197 33.0269 35.9145 33.182 36.0569C33.3371 36.1994 33.5394 36.2793 33.75 36.2813H38.2913C38.502 36.2793 38.7045 36.1994 38.8596 36.0568C39.0147 35.9143 39.1115 35.7193 39.1312 35.5095L39.3983 32.7374C40.5518 32.4279 41.6574 31.9619 42.6843 31.3524L44.8089 33.1102C44.9708 33.2441 45.1768 33.3128 45.3867 33.3028C45.5965 33.2928 45.7951 33.2049 45.9436 33.0563L49.1468 29.8529C49.2953 29.7043 49.3832 29.5057 49.393 29.2958C49.4029 29.0859 49.3341 28.8799 49.2 28.718L47.4356 26.589C48.0426 25.562 48.5089 24.4582 48.8222 23.3072L51.5503 23.0411C51.759 23.0209 51.9526 22.9236 52.0935 22.7684C52.2344 22.6131 52.3125 22.411 52.3125 22.2013V17.66C52.3125 17.4502 52.2344 17.248 52.0934 17.0927C51.9524 16.9374 51.7585 16.8402 51.5497 16.82ZM50.625 21.4359L48.062 21.6859C47.8841 21.7033 47.7164 21.7766 47.5829 21.8954C47.4494 22.0142 47.3571 22.1722 47.3192 22.3469C47.0137 23.7201 46.4621 25.0267 45.6913 26.2035C45.5941 26.3542 45.5474 26.532 45.5581 26.711C45.5687 26.89 45.6361 27.061 45.7505 27.1991L47.4099 29.2025L45.2929 31.3193L43.2894 29.6599C43.1497 29.5442 42.9763 29.4766 42.7951 29.4672C42.6138 29.4578 42.4344 29.5071 42.2834 29.6078C41.1131 30.382 39.8088 30.9317 38.4373 31.2286C38.2619 31.2685 38.1036 31.3628 37.9849 31.4979C37.8663 31.6331 37.7933 31.8023 37.7764 31.9814L37.5247 34.5938H34.516L34.2651 31.9824C34.2481 31.8038 34.175 31.6352 34.0563 31.5008C33.9375 31.3664 33.7793 31.273 33.6042 31.2341C32.2308 30.9277 30.9242 30.3754 29.7474 29.604C29.5968 29.5066 29.4191 29.4598 29.2402 29.4702C29.0612 29.4807 28.8901 29.5478 28.7519 29.662L26.7484 31.3204L24.6316 29.2033L26.291 27.1998C26.4068 27.0601 26.4744 26.8866 26.4838 26.7054C26.4933 26.5241 26.444 26.3446 26.3433 26.1935C25.5689 25.0232 25.0192 23.719 24.7223 22.3474C24.6844 22.1727 24.5919 22.0145 24.4582 21.8957C24.3245 21.7769 24.1566 21.7036 23.9785 21.6865L21.375 21.4351V18.4257L23.9775 18.175C24.1556 18.1578 24.3235 18.0846 24.4572 17.9658C24.5909 17.847 24.6834 17.6888 24.7213 17.514C25.0269 16.1408 25.5784 14.8342 26.3492 13.6574C26.4464 13.5067 26.4931 13.3289 26.4824 13.1499C26.4718 12.9709 26.4044 12.7999 26.29 12.6618L24.6306 10.6584L26.7474 8.54144L28.7509 10.2008C28.8907 10.3166 29.0641 10.3842 29.2454 10.3936C29.4266 10.403 29.6061 10.3537 29.7571 10.253C30.9274 9.47867 32.2317 8.92902 33.6032 8.63215C33.7758 8.60055 33.9336 8.51382 34.0528 8.38496C34.1719 8.25611 34.2461 8.09208 34.2641 7.91749L34.516 5.34377H37.5245L37.7754 7.91721C37.793 8.09351 37.8667 8.25952 37.9856 8.3908C38.1046 8.52209 38.2626 8.61171 38.4363 8.64649C39.8092 8.94936 41.1158 9.49841 42.293 10.2671C42.4441 10.3638 42.622 10.4098 42.8011 10.3985C42.9801 10.3872 43.1509 10.3192 43.2886 10.2042L45.2881 8.54651L47.3715 10.6559L45.7093 12.6625C45.5936 12.8022 45.526 12.9756 45.5165 13.1568C45.5071 13.338 45.5564 13.5175 45.657 13.6685C46.4313 14.8386 46.9811 16.1427 47.2781 17.514C47.316 17.6888 47.4085 17.847 47.5422 17.9657C47.6758 18.0845 47.8438 18.1578 48.0218 18.175L50.625 18.4263V21.4359Z" fill="#1388F7"/>
<path d="M36.0205 10.2451C34.1049 10.2451 32.2323 10.8131 30.6395 11.8774C29.0467 12.9417 27.8053 14.4543 27.0722 16.2241C26.3392 17.9939 26.1474 19.9414 26.5211 21.8202C26.8948 23.699 27.8172 25.4248 29.1718 26.7794C30.5263 28.1339 32.2521 29.0564 34.131 29.4301C36.0098 29.8038 37.9572 29.612 39.727 28.8789C41.4968 28.1458 43.0095 26.9044 44.0737 25.3116C45.138 23.7189 45.706 21.8463 45.706 19.9306C45.7031 17.3628 44.6818 14.9009 42.866 13.0851C41.0502 11.2694 38.5884 10.248 36.0205 10.2451ZM36.0205 27.9287C34.4386 27.9287 32.8923 27.4596 31.577 26.5808C30.2618 25.7019 29.2366 24.4528 28.6313 22.9914C28.0259 21.5299 27.8675 19.9218 28.1761 18.3703C28.4848 16.8188 29.2465 15.3937 30.365 14.2752C31.4836 13.1566 32.9087 12.3949 34.4602 12.0863C36.0116 11.7777 37.6198 11.936 39.0812 12.5414C40.5427 13.1468 41.7918 14.1719 42.6706 15.4872C43.5495 16.8024 44.0185 18.3488 44.0185 19.9306C44.016 22.051 43.1725 24.0838 41.6731 25.5831C40.1738 27.0824 38.1409 27.9257 36.0205 27.9281V27.9287Z" fill="#1388F7"/>
<path d="M39.0747 17.0267L34.9523 21.0516L32.9263 19.0737C32.8472 18.9954 32.7534 18.9336 32.6503 18.8918C32.5472 18.8499 32.4369 18.8289 32.3256 18.8299C32.2144 18.8308 32.1044 18.8538 32.0021 18.8974C31.8997 18.9411 31.807 19.0045 31.7293 19.0841C31.6516 19.1638 31.5904 19.2579 31.5492 19.3613C31.508 19.4647 31.4877 19.5751 31.4894 19.6864C31.491 19.7976 31.5147 19.9074 31.559 20.0095C31.6033 20.1116 31.6673 20.2039 31.7474 20.2811L34.3631 22.8345C34.5207 22.9884 34.7322 23.0746 34.9525 23.0746C35.1728 23.0746 35.3843 22.9884 35.5419 22.8345L40.2538 18.2341C40.334 18.1569 40.398 18.0646 40.4423 17.9626C40.4866 17.8605 40.5103 17.7507 40.5119 17.6394C40.5136 17.5282 40.4933 17.4177 40.4521 17.3144C40.4109 17.211 40.3497 17.1168 40.272 17.0372C40.1943 16.9576 40.1016 16.8942 39.9992 16.8505C39.8969 16.8069 39.7869 16.7839 39.6757 16.7829C39.5644 16.782 39.4541 16.803 39.351 16.8448C39.2479 16.8867 39.1541 16.9485 39.075 17.0267H39.0747Z" fill="#1388F7"/>
<path d="M59.4195 43.5734L59.1508 43.7184C57.8749 42.2035 55.6925 41.623 54.0266 42.4668C54.0202 42.47 54.0139 42.4733 54.0077 42.4766L53.3099 42.8525C52.4264 42.1154 51.3381 41.6669 50.1917 41.5675C49.0453 41.4681 47.8961 41.7226 46.8988 42.2966L42.9646 44.4375H37.725C36.5965 44.4355 35.4829 44.1799 34.4665 43.6895L33.7439 43.3395C31.6769 42.3337 29.3719 41.9196 27.084 42.143C24.7962 42.3663 22.6148 43.2185 20.7814 44.6051C20.7626 44.6189 20.7447 44.6335 20.7277 44.6489L18.9831 46.2019C18.3447 46.7693 17.5924 47.1938 16.7767 47.4469L15.8021 44.2212C15.7509 44.045 15.6454 43.8894 15.5005 43.7768C15.3557 43.6641 15.1789 43.6 14.9955 43.5938H6.55802C6.43678 43.6003 6.31816 43.6315 6.20944 43.6856C6.10071 43.7396 6.00417 43.8153 5.92574 43.9079C5.84731 44.0006 5.78864 44.1083 5.75334 44.2245C5.71804 44.3407 5.70685 44.4628 5.72046 44.5835L8.53296 67.624C8.55891 67.8263 8.65886 68.0118 8.81354 68.1447C8.96821 68.2776 9.16664 68.3485 9.37052 68.3437H22.0268C22.1565 68.3504 22.2859 68.3255 22.4039 68.2712C22.5218 68.2169 22.6249 68.1349 22.7042 68.032C22.7836 67.9292 22.8368 67.8087 22.8594 67.6808C22.8819 67.5529 22.8732 67.4214 22.8338 67.2976L21.1834 61.8917L26.3227 58.6463C27.0028 58.2717 27.7997 58.1696 28.5522 58.3604C28.5696 58.3647 28.5874 58.3695 28.6051 58.3726L39.1379 60.3132C42.0128 60.8276 44.9768 60.4092 47.597 59.1192C47.6328 59.1015 47.6673 59.0813 47.7003 59.0587L65.9192 46.5494C66.0965 46.4277 66.2206 46.2429 66.2662 46.0327C66.3118 45.8225 66.2754 45.6029 66.1645 45.4186C65.494 44.3019 64.4186 43.4868 63.1621 43.143C61.9057 42.7993 60.5651 42.9535 59.4195 43.5734ZM54.7979 43.9681C55.709 43.5123 56.8495 43.8683 57.6043 44.5527L50.7686 48.2406L50.4233 48.4234C50.2109 47.8419 49.9104 47.2965 49.5323 46.8062L54.7979 43.9681ZM47.7146 43.7731C47.7214 43.7694 47.7287 43.7657 47.7347 43.7618C48.3292 43.4181 49.0032 43.236 49.6898 43.2335C50.3765 43.2311 51.0518 43.4083 51.6487 43.7477L48.2605 45.5733C47.6337 45.1215 46.9258 44.7944 46.1755 44.6098L47.7146 43.7731ZM10.1175 66.6562L7.5109 45.2813H14.3706L20.8874 66.6562H10.1175ZM46.796 57.6326C44.5142 58.7424 41.9392 59.0997 39.4414 58.6533L28.9355 56.7187C27.7659 56.4305 26.5305 56.5981 25.48 57.1876C25.4667 57.1949 25.4537 57.2026 25.4409 57.2108L20.6727 60.2252L17.2696 49.0618C18.3182 48.7373 19.285 48.1919 20.1051 47.4624L21.8234 45.9325C23.4086 44.7415 25.2916 44.011 27.2652 43.8215C29.2388 43.6319 31.2264 43.9905 33.0093 44.858L33.7317 45.2086C34.9774 45.8096 36.3423 46.1228 37.7254 46.125H44.7329C45.7364 46.1262 46.709 46.4725 47.4874 47.1058C48.2658 47.7391 48.8026 48.6208 49.0079 49.6031L44.0032 49.3761C42.1534 49.2928 40.2998 49.3783 38.4654 49.6315C38.3542 49.645 38.2468 49.6805 38.1495 49.7359C38.0522 49.7913 37.9669 49.8655 37.8985 49.9543C37.8302 50.043 37.7802 50.1445 37.7515 50.2527C37.7228 50.361 37.7159 50.4738 37.7312 50.5848C37.7466 50.6957 37.7839 50.8025 37.8409 50.8989C37.898 50.9953 37.9736 51.0793 38.0635 51.1461C38.1534 51.213 38.2557 51.2613 38.3644 51.2882C38.4731 51.3151 38.5861 51.32 38.6967 51.3028C40.4292 51.0634 42.1799 50.9826 43.927 51.0614L49.9036 51.3318C49.9164 51.3318 49.929 51.3318 49.9418 51.3318C50.1656 51.3318 50.3802 51.2429 50.5384 51.0847C50.6967 50.9264 50.7856 50.7118 50.7856 50.488C50.7856 50.3724 50.7816 50.2576 50.7752 50.1435L51.5615 49.7288L60.2197 45.0578C60.8633 44.7095 61.6027 44.5798 62.3264 44.6884C63.0501 44.7969 63.719 45.1377 64.2321 45.6594L46.796 57.6326Z" fill="#002766"/>
<path d="M12.5039 63.5232C12.5039 64.0239 12.6524 64.5133 12.9305 64.9295C13.2086 65.3458 13.604 65.6702 14.0665 65.8618C14.529 66.0534 15.038 66.1035 15.529 66.0059C16.02 65.9082 16.471 65.6671 16.825 65.3131C17.179 64.9591 17.4201 64.5081 17.5178 64.0171C17.6154 63.5261 17.5653 63.0171 17.3737 62.5546C17.1821 62.0921 16.8577 61.6967 16.4414 61.4186C16.0252 61.1405 15.5358 60.992 15.0352 60.992C14.3641 60.9928 13.7207 61.2597 13.2462 61.7342C12.7716 62.2088 12.5047 62.8522 12.5039 63.5232ZM15.0352 62.6795C15.202 62.6795 15.3652 62.729 15.5039 62.8217C15.6427 62.9144 15.7508 63.0462 15.8147 63.2004C15.8785 63.3545 15.8953 63.5242 15.8627 63.6879C15.8301 63.8515 15.7498 64.0019 15.6318 64.1199C15.5138 64.2379 15.3634 64.3182 15.1998 64.3508C15.0361 64.3833 14.8664 64.3666 14.7123 64.3028C14.5581 64.2389 14.4263 64.1308 14.3336 63.992C14.2409 63.8533 14.1914 63.6901 14.1914 63.5232C14.1916 63.2995 14.2806 63.0851 14.4388 62.9269C14.597 62.7687 14.8114 62.6797 15.0352 62.6795Z" fill="#002766"/>
</svg>
