<svg width="72" height="72" viewBox="0 0 72 72" fill="none" xmlns="http://www.w3.org/2000/svg">
<path d="M23.1605 44.0515L22.6406 44.3981V43.8375L23.1605 44.0515Z" fill="#D4E1F4"/>
<path d="M13.2183 44.4047L12.6777 44.0443L13.2183 43.8218V44.4047Z" fill="#D4E1F4"/>
<path d="M54.0702 15.1352C53.4589 15.1352 52.8613 15.3165 52.3531 15.6561C51.8448 15.9957 51.4487 16.4784 51.2148 17.0431C50.9808 17.6079 50.9196 18.2293 51.0389 18.8288C51.1581 19.4283 51.4525 19.979 51.8847 20.4113C52.317 20.8435 52.8677 21.1379 53.4672 21.2571C54.0667 21.3764 54.6882 21.3152 55.2529 21.0812C55.8176 20.8473 56.3003 20.4512 56.6399 19.9429C56.9796 19.4347 57.1608 18.8371 57.1608 18.2259C57.16 17.4064 56.8341 16.6208 56.2547 16.0413C55.6752 15.4619 54.8896 15.136 54.0702 15.1352ZM54.0702 19.629C53.7926 19.629 53.5213 19.5467 53.2906 19.3925C53.0599 19.2384 52.88 19.0192 52.7738 18.7628C52.6676 18.5064 52.6398 18.2243 52.694 17.9521C52.7481 17.6799 52.8817 17.4299 53.078 17.2337C53.2742 17.0374 53.5242 16.9038 53.7964 16.8497C54.0686 16.7955 54.3507 16.8233 54.6071 16.9295C54.8635 17.0357 55.0827 17.2156 55.2368 17.4463C55.391 17.677 55.4733 17.9483 55.4733 18.2259C55.4729 18.5979 55.3249 18.9545 55.0619 19.2176C54.7988 19.4806 54.4422 19.6286 54.0702 19.629Z" fill="#1388F7"/>
<path d="M46.2069 15.1352C45.5956 15.1352 44.998 15.3165 44.4898 15.6561C43.9815 15.9957 43.5854 16.4784 43.3515 17.0431C43.1175 17.6079 43.0563 18.2293 43.1756 18.8288C43.2949 19.4283 43.5892 19.979 44.0214 20.4113C44.4537 20.8435 45.0044 21.1379 45.6039 21.2571C46.2034 21.3764 46.8249 21.3152 47.3896 21.0812C47.9544 20.8473 48.4371 20.4512 48.7767 19.9429C49.1163 19.4347 49.2975 18.8371 49.2975 18.2259C49.2967 17.4064 48.9708 16.6208 48.3914 16.0413C47.812 15.4619 47.0263 15.136 46.2069 15.1352ZM46.2069 19.629C45.9294 19.629 45.6581 19.5467 45.4273 19.3925C45.1966 19.2384 45.0167 19.0192 44.9105 18.7628C44.8043 18.5064 44.7765 18.2243 44.8307 17.9521C44.8848 17.6799 45.0185 17.4299 45.2147 17.2337C45.4109 17.0374 45.6609 16.9038 45.9331 16.8497C46.2053 16.7955 46.4874 16.8233 46.7438 16.9295C47.0002 17.0357 47.2194 17.2156 47.3736 17.4463C47.5277 17.677 47.61 17.9483 47.61 18.2259C47.6096 18.5979 47.4617 18.9545 47.1986 19.2176C46.9355 19.4806 46.5789 19.6286 46.2069 19.629Z" fill="#1388F7"/>
<path d="M61.9334 15.1352C61.3222 15.1352 60.7246 15.3165 60.2164 15.6561C59.7081 15.9957 59.312 16.4784 59.078 17.0431C58.8441 17.6079 58.7829 18.2293 58.9022 18.8288C59.0214 19.4283 59.3158 19.979 59.748 20.4113C60.1802 20.8435 60.7309 21.1379 61.3305 21.2571C61.93 21.3764 62.5514 21.3152 63.1162 21.0812C63.6809 20.8473 64.1636 20.4512 64.5032 19.9429C64.8428 19.4347 65.0241 18.8371 65.0241 18.2259C65.0233 17.4064 64.6974 16.6208 64.118 16.0413C63.5385 15.4619 62.7529 15.136 61.9334 15.1352ZM61.9334 19.629C61.6559 19.629 61.3846 19.5467 61.1539 19.3925C60.9231 19.2384 60.7433 19.0192 60.6371 18.7628C60.5309 18.5064 60.5031 18.2243 60.5572 17.9521C60.6114 17.6799 60.745 17.4299 60.9413 17.2337C61.1375 17.0374 61.3875 16.9038 61.6597 16.8497C61.9319 16.7955 62.214 16.8233 62.4704 16.9295C62.7268 17.0357 62.9459 17.2156 63.1001 17.4463C63.2543 17.677 63.3366 17.9483 63.3366 18.2259C63.3362 18.5979 63.1882 18.9545 62.9252 19.2176C62.6621 19.4806 62.3054 19.6286 61.9334 19.629Z" fill="#1388F7"/>
<path d="M65.4643 8.69807C62.4046 6.26765 58.3581 4.92932 54.0703 4.92932C49.7825 4.92932 45.736 6.26779 42.6763 8.69807C39.5045 11.2175 37.7578 14.6012 37.7578 18.2258C37.7578 21.7991 39.4557 25.1385 42.5431 27.6467L42.3121 33.5545C42.3065 33.6965 42.3369 33.8376 42.4004 33.9646C42.4639 34.0917 42.5585 34.2007 42.6753 34.2815C42.7922 34.3623 42.9276 34.4123 43.0689 34.4268C43.2102 34.4414 43.3529 34.42 43.4838 34.3647L50.8253 31.25C51.8938 31.4199 52.9743 31.5035 54.0562 31.5H54.0703C58.3578 31.5 62.4043 30.1728 65.4643 27.7424C68.6361 25.2229 70.3828 21.8448 70.3828 18.2202C70.3828 14.5956 68.6361 11.2175 65.4643 8.69807ZM64.4147 26.4209C61.652 28.6154 57.9783 29.8125 54.0703 29.8125H54.0562C52.9881 29.8158 51.9218 29.7264 50.8691 29.5453C50.7085 29.519 50.5438 29.5397 50.3947 29.6048L44.0501 32.2895L44.2463 27.2812C44.2515 27.1465 44.2244 27.0126 44.1671 26.8905C44.1099 26.7685 44.0241 26.662 43.9172 26.5799L43.8927 26.5615C43.8365 26.5186 43.7809 26.4759 43.7259 26.4323C40.9656 24.2394 39.4453 21.3249 39.4453 18.2258C39.4453 15.1267 40.9655 12.2121 43.7259 10.0195C46.4864 7.8269 50.1621 6.6164 54.0703 6.6164C57.9786 6.6164 61.6523 7.82479 64.4147 10.0195C67.1771 12.2143 68.6953 15.1208 68.6953 18.2204C68.6953 21.3199 67.175 24.2283 64.4147 26.4209Z" fill="#1388F7"/>
<path d="M17.3509 66.7348C17.4296 66.8393 17.5316 66.9241 17.6487 66.9825C17.7659 67.0409 17.895 67.0713 18.0259 67.0713C18.1568 67.0713 18.2859 67.0409 18.403 66.9825C18.5201 66.9241 18.6221 66.8393 18.7009 66.7348L22.0303 62.2969H33.3984C33.8645 62.2969 34.1719 61.9162 34.1719 61.4504V52.9468C34.1719 52.9234 34.206 52.9001 34.2041 52.8764C34.1057 51.7018 33.7082 50.5719 33.0494 49.5944C32.3907 48.6169 31.4927 47.8243 30.441 47.2921C30.4137 47.2774 30.3855 47.2644 30.3566 47.2531L25.7344 45.5836V43.875C25.7349 43.7225 25.694 43.5728 25.616 43.4417C25.538 43.3107 25.4259 43.2033 25.2915 43.1311C25.2668 43.1182 25.2414 43.1065 25.2155 43.0963L25.242 43.0949L22.6406 42.0125V41.7436C24.7538 40.8584 26.5733 39.3934 27.8889 37.5177C29.2046 35.6421 29.9626 33.4325 30.0755 31.1443C30.9225 30.8196 31.6211 30.1955 32.0388 29.3903C32.4564 28.585 32.5642 27.6545 32.3416 26.775C32.2271 26.2984 31.997 25.8572 31.6716 25.4904C31.3462 25.1237 30.9356 24.8427 30.476 24.6721L30.6939 21.4891C30.8147 19.7351 30.5735 17.9751 29.9853 16.3183C29.3971 14.6615 28.4745 13.1433 27.2748 11.8582C26.0751 10.573 24.6239 9.54827 23.0115 8.84765C21.399 8.14702 19.6597 7.78547 17.9016 7.78546C16.1435 7.78544 14.4042 8.14698 12.7918 8.84761C11.1793 9.54823 9.7282 10.573 8.52857 11.8582C7.32893 13.1434 6.40642 14.6615 5.81835 16.3183C5.23029 17.9751 4.98923 19.7352 5.11017 21.4891L5.32969 24.669C4.86856 24.8388 4.45652 25.1199 4.13022 25.4873C3.80393 25.8547 3.57348 26.2971 3.45938 26.775C3.38835 27.0659 3.35252 27.3641 3.35264 27.6635C3.34517 28.4162 3.56799 29.1533 3.99123 29.7758C4.41447 30.3983 5.0179 30.8766 5.72062 31.1465C5.84029 33.4449 6.60791 35.6624 7.93476 37.5429C9.2616 39.4234 11.0935 40.89 13.2188 41.7733V41.9969L10.6116 43.083L10.6312 43.0942C10.6071 43.105 10.5836 43.1173 10.5609 43.1309C10.4274 43.2034 10.3161 43.3111 10.2393 43.4422C10.1625 43.5734 10.123 43.723 10.125 43.875V45.5838L5.49464 47.2534C5.46312 47.2646 5.43228 47.2776 5.40225 47.2924C4.3439 47.8221 3.43805 48.6128 2.77025 49.5899C2.10246 50.567 1.69477 51.6983 1.58569 52.8767C1.58372 52.9001 1.54688 52.9234 1.54688 52.947V61.4506C1.54688 61.9165 1.99491 62.2972 2.46094 62.2972H14.0214L17.3509 66.7348ZM9.98438 60.6094V52.9468C9.98438 52.9234 9.98578 52.9001 9.98438 52.8764C9.83055 51.0968 8.99493 49.4454 7.65211 48.2673L10.6502 47.1856L13.7721 51.3473C13.9015 51.5199 14.0921 51.6364 14.3048 51.6728C14.5174 51.7092 14.7359 51.6628 14.9154 51.543L15.6403 51.0611L13.8656 60.6094H9.98438ZM11.8125 45.4512L16.4109 48.519L14.6468 49.6969L11.8125 45.9156V45.4512ZM14.9062 42.3282C15.8855 42.5639 16.889 42.6841 17.8962 42.6862C18.9267 42.6848 19.9531 42.5585 20.9531 42.3099V45.5232L17.9248 47.505L14.9062 45.5298V42.3282ZM25.2091 47.1862L28.2281 48.2756C26.8866 49.452 26.0496 51.0998 25.8909 52.877C25.8889 52.9004 25.875 52.9237 25.875 52.9473V60.6094H22.1861L20.4424 51.2095L20.9451 51.544C21.1247 51.6636 21.3433 51.7098 21.5559 51.6732C21.7685 51.6366 21.959 51.5199 22.0883 51.3471L25.2091 47.1862ZM24.0469 45.9156L21.214 49.6969L19.4466 48.5195L24.0469 45.4512V45.9156ZM18.0259 64.8209L15.4398 61.3727L17.5985 49.7539L17.9297 49.5331L18.4835 49.9024L20.612 61.3727L18.0259 64.8209ZM32.4844 52.9833V60.6094H27.5625V52.9833C27.6327 52.174 27.892 51.3925 28.3196 50.7019C28.7472 50.0112 29.3311 49.4306 30.0243 49.007C30.7171 49.4309 31.3006 50.0115 31.7279 50.7022C32.1552 51.3928 32.4143 52.1742 32.4844 52.9833ZM23.1609 44.0515L22.6406 44.3982V43.8375L23.1609 44.0515ZM9.76191 13.0097C11.3314 11.3282 13.3831 10.1741 15.6352 9.7059C17.8872 9.23775 20.2289 9.47857 22.3385 10.3953C24.4481 11.3119 26.222 12.8595 27.4164 14.8252C28.6108 16.791 29.1671 19.0784 29.0088 21.3731L28.7463 25.1808C28.7448 25.202 28.7412 25.2231 28.7356 25.2436L27.3188 19.4035C27.3079 19.3585 27.2933 19.3145 27.2752 19.272C26.8624 18.3106 26.1876 17.4846 25.3278 16.8885C24.468 16.2923 23.4579 15.95 22.4128 15.9005L21.3071 15.8517C21.1663 15.8455 21.0263 15.8746 20.8997 15.9365C20.7731 15.9983 20.6639 16.0908 20.5823 16.2057C19.5415 17.6675 18.1304 18.8261 16.4939 19.5623C14.8574 20.2986 13.0544 20.586 11.2701 20.3952L9.41105 20.1953C9.23722 20.1766 9.0614 20.1929 8.89398 20.2433C8.72656 20.2936 8.57094 20.3771 8.43633 20.4886C8.30171 20.6002 8.19082 20.7376 8.11023 20.8927C8.02964 21.0479 7.98097 21.2176 7.96711 21.3919L7.64761 25.3885C7.46733 25.3231 7.27341 25.2497 7.08511 25.1749C7.07539 25.167 7.06739 25.1571 7.06161 25.146C7.05583 25.1349 7.05239 25.1227 7.0515 25.1102L6.79359 21.3731C6.6818 19.8494 6.88794 18.3192 7.39893 16.8795C7.90992 15.4397 8.7146 14.1219 9.76191 13.0097ZM7.45312 30.5196V30.5023C7.44957 30.3024 7.37631 30.1101 7.24601 29.9584C7.1157 29.8068 6.93653 29.7055 6.73945 29.6719C6.46466 29.6224 6.20282 29.5175 5.96989 29.3636C5.73696 29.2096 5.53782 29.0098 5.38461 28.7764C5.23141 28.5429 5.12734 28.2808 5.07876 28.0058C5.03017 27.7309 5.03808 27.4489 5.10202 27.1771C5.14537 26.9836 5.23319 26.8029 5.3585 26.6492C5.48381 26.4956 5.64318 26.3732 5.82398 26.2919C5.96737 26.4537 6.13932 26.5877 6.33122 26.6873C6.35456 26.6992 6.37791 26.7102 6.40223 26.7199C8.24892 27.4602 8.50922 27.3866 8.84334 27.1793C8.95866 27.1077 9.05561 27.0101 9.12643 26.8943C9.19724 26.7784 9.23996 26.6476 9.25116 26.5124L9.61875 21.9149L11.0901 22.0731C13.0941 22.287 15.1194 21.9843 16.9733 21.1938C18.8272 20.4034 20.4478 19.1515 21.6809 17.5574L22.3388 17.5863C23.055 17.6203 23.7478 17.8518 24.3404 18.2553C24.9331 18.6588 25.4025 19.2185 25.6965 19.8723L27.449 27.0965C27.4837 27.2397 27.5554 27.3713 27.6568 27.4782C27.7582 27.5852 27.8858 27.6637 28.027 27.7059C28.1681 27.7482 28.3179 27.7528 28.4614 27.7192C28.6048 27.6856 28.737 27.615 28.8447 27.5144L29.798 26.6246C29.893 26.5358 29.9792 26.4379 30.0554 26.3325C30.2164 26.4191 30.357 26.5392 30.4676 26.6848C30.5782 26.8303 30.6564 26.9979 30.6967 27.1762C30.7356 27.3357 30.7552 27.4992 30.7551 27.6634C30.7591 28.1407 30.594 28.6041 30.2892 28.9714C29.9843 29.3387 29.5593 29.5863 29.0894 29.6704C28.8955 29.7056 28.7204 29.8084 28.5953 29.9607C28.4702 30.1129 28.4032 30.3046 28.4062 30.5016V30.5199C28.4062 33.2984 27.3025 35.9632 25.3377 37.9279C23.373 39.8927 20.7082 40.9964 17.9297 40.9964C15.1511 40.9964 12.4864 39.8927 10.5216 37.9279C8.5569 35.9632 7.45312 33.2984 7.45312 30.5199V30.5196ZM13.2188 44.4048L12.6782 44.0438L13.2188 43.8219V44.4048ZM3.23438 52.9829C3.51562 51.3362 4.35839 49.8451 5.76464 48.9967C6.46903 49.417 7.06504 49.9966 7.50482 50.6889C7.9446 51.3813 8.21588 52.1671 8.29688 52.9833V60.6094H3.23438V52.9829Z" fill="#002766"/>
</svg>
