<svg width="72" height="72" viewBox="0 0 72 72" fill="none" xmlns="http://www.w3.org/2000/svg">
<path d="M62.8946 27.7835C62.8179 27.6665 62.7132 27.5703 62.59 27.5038C62.4668 27.4373 62.329 27.4025 62.189 27.4025C62.049 27.4025 61.9113 27.4373 61.7881 27.5038C61.6649 27.5703 61.5602 27.6665 61.4835 27.7835L53.9222 39.3125C53.8387 39.4418 53.7913 39.591 53.7848 39.7447C53.7784 39.8984 53.8131 40.051 53.8855 40.1868C53.9572 40.3221 54.0639 40.4356 54.1945 40.5154C54.3251 40.5952 54.4748 40.6385 54.6278 40.6406H61.0779C60.1946 47.0746 56.9755 52.959 52.0337 57.1728C47.3674 61.174 41.5054 63.4632 35.951 63.4632C32.3285 63.4632 28.5408 62.484 24.9977 60.6366C21.3182 58.7148 18.1269 55.977 15.6678 52.6325C15.6037 52.5401 15.5216 52.4613 15.4265 52.401C15.3315 52.3407 15.2253 52.3001 15.1143 52.2814C15.0033 52.2628 14.8896 52.2666 14.7801 52.2925C14.6705 52.3185 14.5673 52.3661 14.4764 52.4326C14.3856 52.499 14.3089 52.583 14.251 52.6796C14.1931 52.7761 14.1551 52.8833 14.1393 52.9947C14.1234 53.1062 14.13 53.2197 14.1587 53.3285C14.1874 53.4374 14.2376 53.5394 14.3063 53.6286C16.9185 57.1812 20.3087 60.0894 24.2175 62.1305C28.0004 64.1029 32.058 65.1454 35.951 65.1454C41.9024 65.1454 48.1646 62.7132 53.132 58.4539C58.4331 53.9078 61.8687 47.5643 62.7797 40.6406H69.7502C69.9031 40.6379 70.0525 40.5944 70.1829 40.5146C70.3133 40.4348 70.42 40.3216 70.4919 40.1867C70.5639 40.0518 70.5985 39.9001 70.5921 39.7474C70.5858 39.5946 70.5388 39.4464 70.4559 39.3179L62.8946 27.7835ZM56.1902 38.9531L62.189 29.8064L68.1879 38.9531H56.1902Z" fill="#002766"/>
<path d="M18.1146 31.8132C18.0429 31.6779 17.9362 31.5644 17.8056 31.4846C17.675 31.4048 17.5253 31.3615 17.3723 31.3594H10.9222C11.8055 24.9254 15.0246 19.041 19.9664 14.8272C24.6327 10.826 30.4947 8.5368 36.0491 8.5368C39.6716 8.5368 43.4593 9.51597 47.0024 11.3634C50.6819 13.2852 53.8732 16.023 56.3323 19.3675C56.3965 19.46 56.4785 19.5387 56.5736 19.599C56.6686 19.6593 56.7748 19.6999 56.8858 19.7186C56.9969 19.7372 57.1105 19.7334 57.22 19.7075C57.3296 19.6815 57.4328 19.6339 57.5237 19.5674C57.6145 19.501 57.6912 19.417 57.7491 19.3204C57.807 19.2239 57.845 19.1167 57.8608 19.0053C57.8767 18.8938 57.8701 18.7803 57.8414 18.6715C57.8127 18.5626 57.7625 18.4606 57.6938 18.3714C55.0816 14.8188 51.6914 11.9106 47.7826 9.8695C43.9998 7.8971 39.9422 6.85464 36.0491 6.85464C30.0977 6.85464 23.8355 9.28746 18.8681 13.5461C13.567 18.0922 10.1314 24.4357 9.22038 31.3594H2.24988C2.09702 31.3621 1.94766 31.4056 1.81726 31.4854C1.68686 31.5652 1.58016 31.6784 1.50819 31.8133C1.43623 31.9482 1.40163 32.0999 1.40796 32.2526C1.4143 32.4054 1.46134 32.5536 1.54422 32.6821L9.10549 44.2134C9.18208 44.3306 9.28662 44.4268 9.40969 44.4935C9.53277 44.5603 9.67051 44.5953 9.8105 44.5955C9.95049 44.5957 10.0883 44.5611 10.2116 44.4947C10.3349 44.4284 10.4397 44.3324 10.5167 44.2155L18.0779 32.6814C18.1613 32.5533 18.2088 32.4051 18.2152 32.2523C18.2217 32.0996 18.1869 31.9479 18.1146 31.8132ZM9.81114 42.1936L3.81222 33.0469H15.8099L9.81114 42.1936Z" fill="#002766"/>
<path d="M36.3569 16.4531C36.3375 16.444 36.3176 16.4357 36.2973 16.4279C36.289 16.4248 36.2805 16.4216 36.2721 16.4187C36.2506 16.4113 36.2286 16.4046 36.2064 16.3995C36.1988 16.3977 36.1914 16.3954 36.1839 16.3938C36.1599 16.3884 36.1355 16.3845 36.1108 16.3812C36.1049 16.3804 36.099 16.3791 36.0929 16.3784C36.0622 16.3751 36.0313 16.3733 36.0004 16.3732C35.9697 16.3733 35.939 16.3751 35.9084 16.3784C35.9025 16.3784 35.8966 16.3804 35.8907 16.3811C35.8661 16.3843 35.8416 16.3883 35.8176 16.3936C35.81 16.3953 35.8025 16.3976 35.7948 16.3995C35.7727 16.405 35.7508 16.4112 35.7293 16.4185C35.721 16.4213 35.7127 16.4246 35.7044 16.4277C35.6837 16.4354 35.6635 16.4439 35.6438 16.4531C35.6391 16.4554 35.6341 16.4569 35.6297 16.4592L20.6986 23.7839C20.5597 23.8547 20.4438 23.9636 20.3645 24.0977C20.2851 24.2319 20.2455 24.3859 20.2504 24.5417V38.5551C20.2504 42.1858 22.5775 46.6332 25.5801 48.6801L35.538 55.4799C35.6758 55.5755 35.8396 55.6267 36.0073 55.6266C36.176 55.6267 36.3407 55.5755 36.4796 55.4799L46.4235 48.6801C49.4256 46.6332 51.7511 42.1858 51.7511 38.5551V24.5629C51.756 24.4073 51.7165 24.2535 51.6374 24.1194C51.5582 23.9853 51.4426 23.8765 51.3039 23.8055L36.3601 16.4597C36.3551 16.4572 36.3621 16.4556 36.3569 16.4531ZM35.1566 18.5698V34.875H21.9379V25.0679L35.1566 18.5698ZM21.9379 38.5551V36.5625H35.1566V53.1862L26.53 47.286C24.0274 45.5796 21.9379 41.5814 21.9379 38.5551ZM45.4706 47.286L36.8441 53.1862V36.5625H50.0629V38.5551C50.0629 41.6337 48.0164 45.5502 45.4706 47.286ZM50.0629 34.875H36.8441V18.5715L50.0629 25.088V34.875Z" fill="#1388F7"/>
</svg>
