<svg width="72" height="72" viewBox="0 0 72 72" fill="none" xmlns="http://www.w3.org/2000/svg">
<g clip-path="url(#clip0)">
<path d="M35.8215 54.0656C35.9475 54.2393 36.1307 54.3629 36.339 54.4148V52.5554L36.0233 52.7846C35.6132 53.0825 35.5231 53.6561 35.8215 54.0656Z" fill="#D4E1F4"/>
<path d="M44.4357 4.4506H33.517C32.5028 1.77164 29.9373 0 27.0733 0C24.2093 0 21.6437 1.77164 20.6302 4.4506H9.71137C6.05169 4.45478 3.08621 7.42026 3.08203 11.0793V57.7754C3.08621 61.4345 6.05169 64.4 9.71137 64.4042H37.0937C37.6846 64.4042 38.1634 63.9255 38.1634 63.3345C38.1634 62.7442 37.6846 62.2648 37.0937 62.2648H9.71137C7.23298 62.2625 5.22436 60.2538 5.22138 57.7754V11.0793C5.22436 8.60095 7.23298 6.59293 9.71137 6.58995H15.4722V8.59618C15.4764 12.2559 18.4419 15.2213 22.101 15.2255H32.045C35.7041 15.2213 38.6695 12.2559 38.6737 8.59618V6.58995H44.4345C46.9135 6.59233 48.9222 8.60095 48.9251 11.0793V40.6852C48.9251 41.2761 49.4039 41.7548 49.9948 41.7548C50.5858 41.7548 51.0645 41.2761 51.0645 40.6852V11.0793C51.0603 7.42026 48.0948 4.45478 44.4357 4.4506ZM36.535 8.59618C36.5326 11.0746 34.524 13.0832 32.0456 13.0862H22.1015C19.6232 13.0832 17.6145 11.0746 17.6116 8.59618V6.58995H21.43C21.932 6.58995 22.3672 6.24015 22.4746 5.74949C22.9342 3.6579 24.8683 2.13934 27.0733 2.13934C29.2783 2.13934 31.2123 3.6579 31.6719 5.74949C31.7793 6.24015 32.2145 6.58995 32.7165 6.58995H36.535V8.59618Z" fill="#002766"/>
<path d="M35.5812 30.1132L24.426 41.0039L18.5667 35.2836C18.2945 35.0109 17.8964 34.9058 17.5251 35.0085C17.1538 35.1111 16.8661 35.406 16.7724 35.7797C16.6787 36.1534 16.7933 36.5485 17.0726 36.8147L23.6787 43.2644C24.0941 43.6703 24.7573 43.6703 25.1734 43.2644L37.0753 31.6443C37.3546 31.3786 37.4692 30.9829 37.3755 30.6092C37.2818 30.2355 36.9941 29.9413 36.6228 29.8386C36.2509 29.7359 35.8534 29.841 35.5812 30.1132Z" fill="#002766"/>
<path d="M68.5522 52.7852L63.6527 49.2175V43.0072C63.6527 42.501 63.242 42.0903 62.7358 42.0903C62.2291 42.0903 61.819 42.501 61.819 43.0072V47.8822L50.5349 39.6668C50.2132 39.4328 49.7774 39.4328 49.4557 39.6668L31.4384 52.7852C31.1674 52.9757 31.0205 53.2974 31.0534 53.6269C31.0868 53.9564 31.2945 54.2423 31.5984 54.3748C31.9016 54.5079 32.2526 54.4667 32.5176 54.2674L36.3379 51.4864V71.0831C36.3379 71.5893 36.7479 71.9999 37.2547 71.9999H62.7358C63.242 71.9999 63.6527 71.5893 63.6527 71.0831V51.4858L67.473 54.2668C67.7374 54.4662 68.0884 54.5073 68.3916 54.3742C68.6954 54.2417 68.9032 53.9558 68.9366 53.6263C68.97 53.2968 68.8226 52.9751 68.5516 52.7846L68.5522 52.7852ZM61.819 70.1662H38.1722V50.1516L49.9953 41.5429L61.819 50.1505V70.1662Z" fill="#1388F7"/>
<path d="M49.0787 50.9408V51.8111C47.119 52.2773 45.8183 54.1366 46.0523 56.1381C46.2863 58.139 47.9809 59.648 49.9955 59.6492C51.1589 59.6695 52.0931 60.615 52.0985 61.7784C52.1038 62.9411 51.1792 63.8962 50.0164 63.9272C50.0093 63.9272 50.0027 63.9261 49.9955 63.9261C49.9884 63.9261 49.9818 63.9267 49.9746 63.9272C48.8023 63.9147 47.858 62.9614 47.8562 61.7885C47.8562 61.2823 47.4455 60.8716 46.9393 60.8716C46.4331 60.8716 46.0225 61.2823 46.0225 61.7885C46.0248 63.6288 47.2891 65.2267 49.0787 65.6535V66.6635C49.0787 67.1697 49.4893 67.5804 49.9955 67.5804C50.5017 67.5804 50.9124 67.1697 50.9124 66.6635V65.6535C52.8721 65.1873 54.1721 63.3279 53.9382 61.3271C53.7042 59.3262 52.0101 57.8172 49.9955 57.8154C48.8142 57.8154 47.8562 56.858 47.8562 55.6761C47.8562 54.4948 48.8142 53.5367 49.9955 53.5367C51.1768 53.5367 52.1349 54.4948 52.1349 55.6761C52.1349 56.1829 52.5455 56.5929 53.0517 56.5929C53.5579 56.5929 53.9686 56.1829 53.9686 55.6761C53.9662 53.8364 52.7025 52.2379 50.9124 51.8111V50.9408C50.9124 50.4346 50.5017 50.0239 49.9955 50.0239C49.4893 50.0239 49.0787 50.4346 49.0787 50.9408Z" fill="#1388F7"/>
</g>
<defs>
<clipPath id="clip0">
<rect width="72" height="72" fill="white"/>
</clipPath>
</defs>
</svg>
