<svg width="72" height="72" viewBox="0 0 72 72" fill="none" xmlns="http://www.w3.org/2000/svg">
<path d="M13.0455 23.2618C12.9146 26.5548 13.4918 29.8376 14.7381 32.8885C15.9845 35.9394 17.8711 38.6873 20.2704 40.9467C21.8268 42.4438 23.0045 44.2899 23.706 46.3324C24.4075 48.3748 24.6127 50.555 24.3045 52.6925L24.0672 54.5064C24.0241 54.6844 24.02 54.8695 24.0552 55.0492C24.0904 55.2289 24.1641 55.3989 24.2712 55.5474C24.5099 55.8552 24.8572 56.0602 25.2421 56.1204V65.3811C25.2496 66.8217 25.827 68.2008 26.8481 69.217C27.8692 70.2333 29.251 70.804 30.6917 70.8047H41.3107C42.7511 70.8039 44.1326 70.233 45.1532 69.2167C46.1739 68.2005 46.7507 66.8215 46.7577 65.3811V56.0858C47.0383 56.027 47.292 55.8781 47.48 55.6616C47.6161 55.5183 47.7224 55.3495 47.7926 55.1648C47.8629 54.9801 47.8957 54.7833 47.8893 54.5858C47.8893 54.577 47.8858 54.5681 47.8853 54.5591L47.7208 51.4608C47.7208 51.4593 47.7208 51.4577 47.7199 51.4559C47.487 47.4186 48.9539 43.5887 51.7435 40.95C52.0652 40.6473 52.382 40.3312 52.6852 40.0109C55.2307 37.3156 57.0858 34.0441 58.0921 30.4759C59.0983 26.9078 59.2257 23.149 58.4634 19.5209C57.7011 15.8928 56.0718 12.5032 53.7146 9.64175C51.3575 6.78027 48.3426 4.53199 44.9276 3.08905C41.5126 1.6461 37.799 1.05138 34.1042 1.3557C30.4094 1.66002 26.8432 2.85434 23.7104 4.8366C20.5775 6.81886 17.9711 9.53012 16.1139 12.7387C14.2567 15.9473 13.2039 19.5578 13.0455 23.2618ZM27.1405 56.0918H44.8592V61.3125H27.1405V56.0918ZM41.3107 68.9062H30.6917C29.7544 68.9062 28.8551 68.5356 28.1899 67.8753C27.5247 67.2149 27.1475 66.3184 27.1405 65.3811V63.2109H44.8592V65.3811C44.8529 66.3181 44.4762 67.2146 43.8114 67.8749C43.1467 68.5353 42.2478 68.906 41.3107 68.9062ZM34.6767 3.12978C38.9039 2.8706 43.1113 3.88888 46.7522 6.0523C50.3931 8.21573 53.2991 11.4243 55.0925 15.2609C56.8859 19.0976 57.4839 23.385 56.8087 27.566C56.1335 31.7469 54.2163 35.6282 51.3063 38.7052C51.0281 38.9992 50.7368 39.289 50.4403 39.5684C47.2419 42.5939 45.5593 46.9468 45.8238 51.5444L45.9641 54.1933H26.0185L26.1859 52.9277C26.5343 50.4931 26.2978 48.0106 25.496 45.6855C24.6942 43.3605 23.3501 41.2599 21.5751 39.5576C19.3723 37.4856 17.6403 34.9646 16.4961 32.1653C15.3519 29.366 14.8223 26.3536 14.943 23.3319C15.3305 12.7038 24.0022 3.8311 34.6767 3.12978Z" fill="#002766"/>
<path d="M36 37.8984C38.9819 37.897 41.8806 36.9155 44.25 35.1051C46.6193 33.2948 48.328 30.7558 49.1129 27.8791C49.8978 25.0024 49.7155 21.9475 48.594 19.1846C47.4724 16.4217 45.4739 14.104 42.906 12.5883C40.3381 11.0726 37.3433 10.4429 34.3824 10.7962C31.4216 11.1495 28.6589 12.4661 26.5197 14.5434C24.3805 16.6207 22.9834 19.3436 22.5434 22.2928C22.1034 25.242 22.645 28.2541 24.0847 30.8653C25.2615 32.995 26.9874 34.7706 29.0829 36.0074C31.1783 37.2443 33.5668 37.8972 36 37.8984ZM24.293 24.2929C24.2946 21.4445 25.3351 18.6944 27.2195 16.5584C29.104 14.4225 31.7029 13.0472 34.5289 12.6906C37.3549 12.334 40.214 13.0205 42.5699 14.6215C44.9259 16.2224 46.617 18.6277 47.3261 21.3865C48.0352 24.1453 47.7135 27.068 46.4215 29.6065C45.1295 32.1451 42.9559 34.1252 40.3082 35.1755C37.6605 36.2258 34.7205 36.2742 32.0397 35.3116C29.3588 34.3491 27.1211 32.4416 25.7463 29.947C24.7927 28.215 24.2928 26.27 24.293 24.2929Z" fill="#1388F7"/>
<path d="M33.7278 28.5037C33.9052 28.6768 34.1431 28.7737 34.391 28.7737C34.6388 28.7737 34.8767 28.6768 35.0541 28.5037L42.2885 21.4406C42.3786 21.3537 42.4507 21.2499 42.5005 21.1351C42.5504 21.0202 42.577 20.8967 42.5789 20.7716C42.5808 20.6464 42.5579 20.5221 42.5116 20.4058C42.4653 20.2896 42.3964 20.1836 42.309 20.094C42.2215 20.0045 42.1172 19.9331 42.0021 19.884C41.887 19.8349 41.7632 19.8091 41.6381 19.808C41.5129 19.8069 41.3888 19.8305 41.2728 19.8776C41.1568 19.9247 41.0513 19.9942 40.9623 20.0822L34.391 26.498L31.0386 23.2249C30.9496 23.1369 30.844 23.0674 30.7281 23.0203C30.6121 22.9733 30.4879 22.9496 30.3628 22.9507C30.2376 22.9518 30.1139 22.9776 29.9988 23.0267C29.8836 23.0758 29.7794 23.1472 29.6919 23.2367C29.6045 23.3263 29.5356 23.4323 29.4893 23.5485C29.443 23.6648 29.4201 23.7891 29.422 23.9143C29.4239 24.0394 29.4505 24.163 29.5003 24.2778C29.5502 24.3926 29.6222 24.4964 29.7123 24.5833L33.7278 28.5037Z" fill="#1388F7"/>
</svg>
