<svg width="72" height="72" viewBox="0 0 72 72" fill="none" xmlns="http://www.w3.org/2000/svg">
<path d="M32.564 12.9836C32.0757 12.9327 31.583 12.8983 31.0859 12.8804V13.1889C31.573 13.1037 32.0657 13.0352 32.564 12.9836Z" fill="#D4E1F4"/>
<path d="M31.0859 55.423V55.7348C31.5922 55.7176 32.0912 55.6833 32.5829 55.6319C32.0785 55.5797 31.5795 55.51 31.0859 55.423Z" fill="#D4E1F4"/>
<path d="M49.5678 47.9804C48.2037 47.702 46.7853 47.9052 45.5542 48.5553C44.3231 49.2055 43.3555 50.2624 42.8163 51.5459C42.2771 52.8295 42.1997 54.2603 42.5972 55.5946C42.9946 56.9289 43.8425 58.0841 44.9962 58.8633C46.1499 59.6425 47.5381 59.9976 48.9243 59.8681C50.3105 59.7385 51.6089 59.1324 52.5982 58.1528C53.5876 57.1733 54.2067 55.881 54.35 54.4962C54.4934 53.1114 54.1522 51.7197 53.3845 50.5583C52.9504 49.8975 52.3895 49.3295 51.7344 48.887C51.0792 48.4445 50.3428 48.1363 49.5678 47.9804ZM50.6972 57.4063C49.9991 57.8678 49.1798 58.1118 48.343 58.1077C47.5062 58.1035 46.6894 57.8512 45.9959 57.3829C45.3024 56.9145 44.7635 56.251 44.4471 55.4762C44.1307 54.7015 44.0512 53.8504 44.2185 53.0305C44.3859 52.2105 44.7926 51.4587 45.3873 50.8699C45.982 50.2811 46.7379 49.8819 47.5595 49.7228C48.381 49.5637 49.2313 49.6517 50.0028 49.9758C50.7744 50.2999 51.4324 50.8455 51.8939 51.5437C52.5112 52.4802 52.732 53.6234 52.5076 54.7224C52.2833 55.8215 51.6322 56.7867 50.6972 57.4063Z" fill="#1388F7"/>
<path d="M36.9184 55.675C36.8886 55.5616 36.8368 55.4552 36.7658 55.3619C36.6949 55.2686 36.6063 55.1902 36.505 55.1311C36.4037 55.0721 36.2918 55.0336 36.1756 55.0178C36.0595 55.0021 35.9414 55.0094 35.828 55.0393C34.279 55.4495 32.6885 55.6829 31.0869 55.7348V52.4184C31.0869 52.1815 30.9927 51.9543 30.8252 51.7867C30.6576 51.6192 30.4304 51.5251 30.1935 51.5251C29.9565 51.5251 29.7293 51.6192 29.5618 51.7867C29.3942 51.9543 29.3001 52.1815 29.3001 52.4184V55.7228C18.2817 55.1952 9.45063 46.2739 8.921 35.4044H12.0833C12.3202 35.4044 12.5475 35.3103 12.715 35.1427C12.8825 34.9752 12.9767 34.748 12.9767 34.511C12.9767 34.2741 12.8825 34.0469 12.715 33.8793C12.5475 33.7118 12.3202 33.6177 12.0833 33.6177H8.90954C9.29086 22.4504 18.1328 13.4239 29.3001 12.8912V16.2038C29.3001 16.4408 29.3942 16.668 29.5618 16.8356C29.7293 17.0031 29.9565 17.0972 30.1935 17.0972C30.4304 17.0972 30.6576 17.0031 30.8252 16.8356C30.9927 16.668 31.0869 16.4408 31.0869 16.2038V12.8805C42.2541 13.2673 51.3787 22.3015 51.7634 33.6177H48.2976C48.0606 33.6177 47.8334 33.7118 47.6659 33.8793C47.4983 34.0469 47.4042 34.2741 47.4042 34.511C47.4042 34.748 47.4983 34.9752 47.6659 35.1427C47.8334 35.3103 48.0606 35.4044 48.2976 35.4044H51.752C51.6941 36.5101 51.5544 37.61 51.334 38.695C51.3104 38.8091 51.3097 38.9267 51.3319 39.0411C51.3541 39.1554 51.3988 39.2642 51.4634 39.3612C51.5279 39.4581 51.6111 39.5413 51.7081 39.6059C51.805 39.6704 51.9138 39.7151 52.0282 39.7373C52.2611 39.784 52.503 39.7364 52.7008 39.605C52.8987 39.4736 53.0364 39.2692 53.0839 39.0365C53.4038 37.4816 53.5648 35.8982 53.5644 34.3108C53.5694 29.8058 52.2568 25.3977 49.7883 21.6292L52.4272 18.9894C52.8119 18.6047 53.028 18.083 53.028 17.5389C53.028 16.9949 52.8119 16.4731 52.4272 16.0884L50.6668 14.3267C50.4764 14.1362 50.2503 13.9851 50.0015 13.882C49.7526 13.7789 49.4859 13.7259 49.2166 13.7259C48.9472 13.7259 48.6805 13.7789 48.4317 13.882C48.1828 13.9851 47.9567 14.1362 47.7663 14.3267L45.4091 16.6644C42.0383 13.7482 37.8878 11.8822 33.4692 11.2966V8.15625H35.0356C35.3008 8.15877 35.5639 8.10819 35.8093 8.0075C36.0547 7.90681 36.2775 7.75804 36.4645 7.56996C36.6515 7.38187 36.799 7.15827 36.8983 6.91232C36.9976 6.66636 37.0467 6.40302 37.0427 6.1378V3.64691C37.0472 3.38045 36.9986 3.11577 36.8997 2.86829C36.8008 2.62081 36.6537 2.39548 36.4669 2.20542C36.2801 2.01536 36.0574 1.86437 35.8116 1.76125C35.5659 1.65813 35.3021 1.60494 35.0356 1.60478H25.6372C25.3714 1.60519 25.1082 1.65865 24.8633 1.76201C24.6183 1.86537 24.3964 2.01656 24.2106 2.20673C24.0248 2.3969 23.8788 2.62222 23.7812 2.86952C23.6836 3.11681 23.6362 3.3811 23.642 3.64691V6.1378C23.6367 6.40237 23.6845 6.66532 23.7826 6.91109C23.8807 7.15686 24.027 7.38046 24.2131 7.56866C24.3991 7.75685 24.621 7.90582 24.8656 8.00675C25.1102 8.10768 25.3726 8.15852 25.6372 8.15625H27.2155V11.2966C15.8994 12.8481 7.13379 22.575 7.13379 34.3072C7.13379 47.0121 17.3748 57.3655 30.041 57.5313C30.0915 57.5503 30.1436 57.5647 30.1968 57.5741C30.2435 57.5741 30.2827 57.5901 30.3275 57.5901H30.3364C32.3445 57.5819 34.3432 57.3144 36.2828 56.7942C36.5137 56.7273 36.7094 56.5729 36.8281 56.3638C36.9469 56.1547 36.9793 55.9076 36.9184 55.675ZM49.029 15.5899C49.0785 15.5405 49.1457 15.5127 49.2157 15.5127C49.2858 15.5127 49.3529 15.5405 49.4025 15.5899L51.1641 17.3515C51.2136 17.4011 51.2414 17.4683 51.2414 17.5384C51.2414 17.6085 51.2136 17.6757 51.1641 17.7253L48.7386 20.1508C48.1224 19.3509 47.4551 18.5918 46.7408 17.878L49.029 15.5899ZM35.4049 6.10535C35.4048 6.17541 35.377 6.2426 35.3274 6.29213C35.2779 6.34166 35.2106 6.36949 35.1406 6.36949H25.6931C25.623 6.36949 25.5558 6.34166 25.5062 6.29213C25.4567 6.2426 25.4288 6.17541 25.4288 6.10535V3.65569C25.4288 3.58562 25.4567 3.51844 25.5062 3.4689C25.5558 3.41937 25.623 3.39155 25.6931 3.39155H35.1406C35.2106 3.39155 35.2779 3.41937 35.3274 3.4689C35.377 3.51844 35.4048 3.58562 35.4049 3.65569V6.10535ZM29.0023 8.15625H31.6824V11.1217C31.2358 11.0946 30.7821 11.0793 30.3172 11.0793C30.295 11.0793 30.2828 11.0793 30.2606 11.0793C30.2343 11.077 30.2125 11.0752 30.1862 11.0752C30.1612 11.0754 30.1363 11.0776 30.1117 11.0816C29.7309 11.0857 29.3013 11.0988 29.0035 11.1209L29.0023 8.15625Z" fill="#002766"/>
<path d="M30.3416 22.6006C30.1047 22.6006 29.8774 22.6947 29.7099 22.8622C29.5424 23.0298 29.4482 23.257 29.4482 23.4939V34.6192C29.4482 35.1125 29.8056 35.5533 30.2983 35.5533H38.6388C38.8757 35.5533 39.1029 35.4591 39.2705 35.2916C39.438 35.1241 39.5322 34.8968 39.5322 34.6599C39.5322 34.4229 39.438 34.1957 39.2705 34.0282C39.1029 33.8606 38.8757 33.7665 38.6388 33.7665H31.235V23.4939C31.235 23.257 31.1409 23.0298 30.9733 22.8622C30.8058 22.6947 30.5786 22.6006 30.3416 22.6006Z" fill="#002766"/>
<path d="M64.2584 53.8955L61.6378 53.0989C61.5756 51.9228 61.359 50.76 60.9934 49.6405L63.1356 47.9079C63.3083 47.7683 63.4228 47.5693 63.4568 47.3498C63.4908 47.1302 63.4418 46.9059 63.3193 46.7206L60.8088 42.9224C60.6863 42.7372 60.4992 42.6042 60.284 42.5494C60.0689 42.4946 59.841 42.5219 59.6448 42.6259L57.2115 43.9175C56.3273 43.1377 55.3422 42.4802 54.2827 41.9629L54.5761 39.2467C54.6 39.0255 54.5405 38.8034 54.4093 38.6237C54.2781 38.444 54.0846 38.3198 53.8666 38.2753L49.4166 37.367C49.1987 37.3226 48.972 37.361 48.7809 37.4748C48.5898 37.5886 48.448 37.7696 48.3833 37.9824L47.5868 40.603C46.4107 40.6649 45.2479 40.8815 44.1284 41.2473L42.3957 39.1051C42.256 38.9324 42.057 38.8179 41.8375 38.784C41.618 38.7501 41.3937 38.7992 41.2084 38.9217L37.4103 41.4321C37.225 41.5546 37.0919 41.7417 37.0371 41.957C36.9823 42.1723 37.0097 42.4003 37.1139 42.5965L38.4054 45.0296C37.6256 45.9138 36.9681 46.8988 36.4507 47.9582L33.7345 47.6651C33.5133 47.6408 33.2911 47.7002 33.1114 47.8314C32.9317 47.9627 32.8075 48.1563 32.7633 48.3744L31.855 52.8243C31.8105 53.0423 31.8489 53.269 31.9627 53.4602C32.0765 53.6513 32.2575 53.7931 32.4704 53.8578L35.091 54.6543C35.153 55.8304 35.3697 56.9932 35.7354 58.1127L33.5932 59.8453C33.4205 59.985 33.306 60.184 33.2721 60.4035C33.2382 60.623 33.2873 60.8473 33.4098 61.0326L35.9202 64.8308C36.0426 65.0161 36.2298 65.1491 36.445 65.2039C36.6603 65.2588 36.8882 65.2314 37.0844 65.1273L39.5177 63.8357C40.4019 64.6156 41.387 65.2731 42.4465 65.7903L42.153 68.5065C42.1291 68.7277 42.1885 68.9498 42.3198 69.1295C42.451 69.3091 42.6445 69.4334 42.8625 69.4779L47.3124 70.3861C47.5304 70.431 47.7573 70.3928 47.9485 70.2789C48.1397 70.165 48.2815 69.9838 48.3459 69.7708L49.1424 67.1502C50.3187 67.0883 51.4817 66.8715 52.6014 66.5056L54.3116 68.6149C54.4514 68.7873 54.6503 68.9015 54.8696 68.9353C55.089 68.9691 55.313 68.9201 55.4982 68.7977L59.2964 66.2872C59.4817 66.1647 59.6147 65.9776 59.6695 65.7623C59.7244 65.5471 59.697 65.3191 59.5929 65.1229L58.3013 62.6898C59.081 61.8055 59.7382 60.8204 60.2553 59.761L62.9715 60.0543C63.1918 60.0786 63.4132 60.02 63.5926 59.8898C63.7719 59.7597 63.8964 59.5673 63.9415 59.3503L64.8723 54.9344C64.9184 54.7158 64.8809 54.4879 64.7672 54.2956C64.6536 54.1033 64.4721 53.9606 64.2584 53.8955ZM62.3603 58.1912L59.8055 57.9153C59.6144 57.8946 59.4218 57.9361 59.2562 58.0336C59.0906 58.1311 58.9608 58.2794 58.8862 58.4565C58.3377 59.7456 57.5541 60.9213 56.5753 61.9236C56.4429 62.0591 56.357 62.2332 56.3301 62.4207C56.3031 62.6082 56.3364 62.7994 56.4252 62.9668L57.6347 65.2434L55.1895 66.8597L53.5907 64.8878C53.4714 64.7407 53.3085 64.6353 53.1254 64.5868C52.9424 64.5383 52.7487 64.5493 52.5722 64.618C51.2601 65.1196 49.8681 65.3796 48.4634 65.3853C48.2735 65.3874 48.0893 65.45 47.9374 65.5639C47.7854 65.6778 47.6738 65.8372 47.6186 66.0188L46.8727 68.4727L44.0166 67.8897L44.2921 65.34C44.3127 65.149 44.2712 64.9563 44.1737 64.7907C44.0762 64.6251 43.9279 64.4954 43.7508 64.4207C42.4617 63.8723 41.2859 63.0886 40.2837 62.1097C40.1482 61.9773 39.9741 61.8915 39.7866 61.8645C39.5991 61.8376 39.4079 61.8709 39.2406 61.9598L36.9632 63.1685L35.3477 60.7242L37.3521 59.1027C37.4994 58.9836 37.605 58.8207 37.6537 58.6376C37.7023 58.4545 37.6915 58.2607 37.6228 58.0841C37.1213 56.7721 36.8614 55.3801 36.8555 53.9755C36.8534 53.7856 36.7909 53.6013 36.6769 53.4494C36.563 53.2975 36.4037 53.1858 36.222 53.1306L33.7683 52.3846L34.3512 49.5285L36.901 49.804C37.092 49.8245 37.2846 49.7829 37.4502 49.6854C37.6158 49.5879 37.7455 49.4396 37.8202 49.2626C38.3687 47.9735 39.1524 46.7979 40.1311 45.7957C40.2635 45.6601 40.3495 45.486 40.3764 45.2985C40.4034 45.1109 40.3701 44.9197 40.2812 44.7523L39.0725 42.4751L41.5168 40.8597L43.1381 42.8642C43.2572 43.0115 43.4201 43.1171 43.6032 43.1657C43.7863 43.2144 43.9802 43.2036 44.1567 43.1349C45.4687 42.6333 46.8607 42.3733 48.2654 42.3676C48.4553 42.3655 48.6396 42.303 48.7915 42.189C48.9435 42.0751 49.0551 41.9157 49.1104 41.734L49.8562 39.2802L52.7122 39.8632L52.4367 42.4129C52.4161 42.6039 52.4576 42.7966 52.5551 42.9622C52.6527 43.1278 52.801 43.2575 52.9781 43.3322C54.2672 43.8806 55.443 44.6643 56.4452 45.6432C56.5807 45.7755 56.7548 45.8614 56.9423 45.8884C57.1298 45.9153 57.321 45.882 57.4883 45.7931L59.7656 44.5844L61.3813 47.0287L59.3768 48.6503C59.2295 48.7694 59.1239 48.9323 59.0752 49.1154C59.0265 49.2985 59.0373 49.4923 59.106 49.6689C59.6076 50.9813 59.8675 52.3735 59.8734 53.7785C59.8755 53.9683 59.9381 54.1525 60.052 54.3044C60.1658 54.4563 60.3252 54.5679 60.5068 54.6232L62.9555 55.3676L62.3603 58.1912Z" fill="#1388F7"/>
</svg>
