<svg width="72" height="72" viewBox="0 0 72 72" fill="none" xmlns="http://www.w3.org/2000/svg">
<path d="M53.0713 42.2967C53.2054 42.3145 53.3399 42.33 53.4735 42.3502C53.4818 42.3149 53.4889 42.2799 53.4971 42.2438C53.3548 42.26 53.2129 42.2776 53.0713 42.2967Z" fill="#D4E1F4"/>
<path d="M30.1135 62.5627C34.2876 62.5815 38.4025 61.5747 42.0964 59.6308L41.3111 58.137C37.8592 59.9531 34.0139 60.8933 30.1135 60.8752C16.843 60.8752 6.04689 50.0789 6.04689 36.8086C6.04689 30.446 8.53806 24.3969 13.0742 19.7807C17.3814 15.4746 23.163 12.9645 29.25 12.7578V36.8086C29.2531 37.0381 29.3446 37.2575 29.5055 37.4212C29.6663 37.5849 29.8841 37.6803 30.1135 37.6875H54.1638C54.0892 39.709 53.762 41.7132 53.1899 43.6535L54.8071 44.1256C55.5109 41.7579 55.8675 39.3006 55.8658 36.8305C55.8656 36.7204 55.8435 36.6115 55.8008 36.51C55.7581 36.4084 55.6958 36.3164 55.6173 36.2392C55.5388 36.1619 55.4458 36.101 55.3436 36.06C55.2415 36.0189 55.1322 35.9985 55.0221 36H30.9375V11.8997C30.9386 11.7894 30.9178 11.68 30.8764 11.5778C30.835 11.4756 30.7738 11.3826 30.6963 11.3042C30.6188 11.2257 30.5265 11.1634 30.4248 11.1208C30.323 11.0782 30.2139 11.0562 30.1036 11.0559C26.7186 11.0444 23.365 11.7045 20.237 12.9982C17.109 14.2919 14.2688 16.1934 11.8809 18.5926C7.02733 23.5316 4.35742 30.0009 4.35742 36.8086C4.357 51.0095 15.9126 62.5627 30.1135 62.5627Z" fill="#002766"/>
<path d="M57.572 9.49556C52.6332 4.64189 46.1735 1.96875 39.3655 1.96875C39.2552 1.96895 39.1461 1.99098 39.0443 2.03357C38.9426 2.07616 38.8503 2.13847 38.7727 2.21691C38.6952 2.29534 38.6339 2.38835 38.5925 2.49057C38.5511 2.5928 38.5303 2.70221 38.5314 2.8125V27.7221C38.5296 27.8309 38.5497 27.9389 38.5905 28.0398C38.6313 28.1406 38.692 28.2323 38.7689 28.3092C38.8459 28.3861 38.9375 28.4468 39.0383 28.4877C39.1392 28.5285 39.2472 28.5486 39.356 28.5469H64.2657C64.376 28.5479 64.4854 28.5271 64.5877 28.4857C64.6899 28.4443 64.7829 28.383 64.8613 28.3055C64.9398 28.2279 65.0021 28.1356 65.0447 28.0339C65.0873 27.9322 65.1093 27.823 65.1095 27.7127C65.1095 20.9046 62.4363 14.4401 57.5827 9.50175C57.5792 9.49767 57.5758 9.49908 57.572 9.49556ZM60.5217 16.273L49.9261 26.8594H41.3146L56.9268 11.2518C58.3296 12.7693 59.5373 14.4561 60.522 16.273H60.5217ZM40.2189 16.9955L50.7032 6.50166C52.5261 7.47841 54.2198 8.67929 55.7447 10.0763L40.2189 25.607V16.9955ZM49.1099 5.71823L40.2189 14.6093V3.67031C43.2864 3.77676 46.3049 4.47202 49.1099 5.71823ZM52.3126 26.8594L61.3118 17.8604C62.5838 20.6969 63.2956 23.7527 63.4079 26.8594H52.3126Z" fill="#002766"/>
<path d="M54.1402 43.0312C54.0869 43.0312 54.0336 43.0312 53.9818 43.0328C50.4224 43.0885 47.0303 44.5532 44.5491 47.1058C42.0679 49.6584 40.7 53.0906 40.7452 56.6501C40.7905 60.2096 42.2451 63.606 44.7904 66.0947C47.3357 68.5834 50.7639 69.9615 54.3235 69.9267C57.8831 69.892 61.2838 68.4473 63.78 65.9094C66.2762 63.3714 67.6643 59.9473 67.6401 56.3876C67.6158 52.8279 66.1811 49.423 63.6506 46.9193C61.12 44.4157 57.7 43.0175 54.1402 43.0312ZM54.5481 68.3367C51.4351 68.4336 48.4099 67.2972 46.1306 65.1747C43.8514 63.0523 42.5026 60.1156 42.3776 57.0037C42.2527 53.8918 43.3618 50.8564 45.4636 48.5581C47.5654 46.2599 50.4898 44.8846 53.6005 44.7317L53.6164 44.7308C53.6474 44.7289 53.6793 44.7276 53.7113 44.7265H53.7333C56.8627 44.6211 59.9059 45.7625 62.1941 47.8998C64.4823 50.0372 65.8283 52.9956 65.9363 56.1249C66.0443 59.2542 64.9054 62.2983 62.77 64.5883C60.6346 66.8783 57.6773 68.2268 54.5481 68.3374V68.3367Z" fill="#1388F7"/>
<path d="M49.7006 58.9845L48.2542 57.0654L46.7889 58.9845H45.7773L47.7531 56.4226L45.8719 53.9741H46.8834L48.2636 55.7797L49.6344 53.9741H50.627L48.7363 56.4226L50.731 58.9845H49.7006Z" fill="#1388F7"/>
<path d="M55.252 52.0793V60.4793H53.692V53.3873H51.916V52.0793H55.252Z" fill="#1388F7"/>
<path d="M60.4223 60.5993C59.7503 60.5993 59.1503 60.4313 58.6223 60.0953C58.0943 59.7513 57.6783 59.2553 57.3743 58.6073C57.0703 57.9513 56.9183 57.1753 56.9183 56.2793C56.9183 55.3833 57.0703 54.6113 57.3743 53.9633C57.6783 53.3073 58.0943 52.8113 58.6223 52.4753C59.1503 52.1313 59.7503 51.9593 60.4223 51.9593C61.0943 51.9593 61.6943 52.1313 62.2223 52.4753C62.7583 52.8113 63.1783 53.3073 63.4823 53.9633C63.7863 54.6113 63.9383 55.3833 63.9383 56.2793C63.9383 57.1753 63.7863 57.9513 63.4823 58.6073C63.1783 59.2553 62.7583 59.7513 62.2223 60.0953C61.6943 60.4313 61.0943 60.5993 60.4223 60.5993ZM60.4223 59.2433C61.0223 59.2433 61.4943 58.9953 61.8383 58.4993C62.1903 58.0033 62.3663 57.2633 62.3663 56.2793C62.3663 55.2953 62.1903 54.5553 61.8383 54.0593C61.4943 53.5633 61.0223 53.3153 60.4223 53.3153C59.8303 53.3153 59.3583 53.5633 59.0063 54.0593C58.6623 54.5553 58.4903 55.2953 58.4903 56.2793C58.4903 57.2633 58.6623 58.0033 59.0063 58.4993C59.3583 58.9953 59.8303 59.2433 60.4223 59.2433Z" fill="#1388F7"/>
</svg>
