<svg width="72" height="72" viewBox="0 0 72 72" fill="none" xmlns="http://www.w3.org/2000/svg">
<path d="M39.0356 47.0085C39.5142 47.0085 39.9926 46.9831 40.4662 46.9386V46.3418C39.5172 46.6419 38.5389 46.84 37.5479 46.9329C38.0379 46.982 38.534 47.0085 39.0356 47.0085Z" fill="#D4E1F4"/>
<path d="M48.7355 25.6058C49.6377 25.6058 50.4344 25.5681 51.0927 25.5188C50.8941 25.3578 50.6618 25.2436 50.413 25.1849C50.3187 25.2351 50.2171 25.2703 50.1119 25.2891C49.1631 25.4403 48.2061 25.5348 47.2461 25.572C47.7674 25.5955 48.2656 25.6058 48.7355 25.6058Z" fill="#D4E1F4"/>
<path d="M17.2325 70.5441H55.6872C55.9642 70.5337 56.2259 70.414 56.415 70.2113C56.6041 70.0086 56.7052 69.7393 56.6964 69.4622V59.9848C56.6964 59.9561 56.7113 59.9272 56.7094 59.8983C56.5862 58.4566 56.0962 57.0705 55.2861 55.8716C54.4759 54.6728 53.3726 53.7011 52.0809 53.049C52.0622 53.0396 52.0473 53.0308 52.0281 53.0227L49.4146 51.9059C48.9881 51.3828 48.4576 50.9537 47.8569 50.646C47.7503 50.5892 47.4697 50.44 43.5195 49.3587L43.1081 48.9392C42.9292 48.7593 42.7878 48.5457 42.6922 48.3107C42.5966 48.0758 42.5487 47.8242 42.5512 47.5705V45.5127C45.0464 44.2936 47.1501 42.3998 48.6239 40.046C50.0976 37.6922 50.8825 34.9726 50.8895 32.1955V31.2398C52.5273 30.5709 53.7947 28.8963 53.7947 26.974C53.8042 26.6077 53.7696 26.2416 53.6917 25.8835C53.3592 24.5258 52.2295 23.5139 51.0383 23.1751V18.8768H48.9538V23.3478C46.4225 23.6168 38.7941 24.0074 32.6793 20.0168L31.5224 21.7625C36.408 24.9508 41.9881 25.6058 45.757 25.6058C47.2146 25.6179 48.6708 25.512 50.1113 25.2892C50.2165 25.2704 50.3181 25.2352 50.4124 25.185C50.7073 25.248 50.9781 25.3938 51.193 25.6052C51.408 25.8167 51.5582 26.0851 51.626 26.3789C51.6734 26.5736 51.6971 26.7733 51.6968 26.9737C51.7008 27.5579 51.4978 28.1245 51.1238 28.5733C50.7498 29.022 50.2289 29.3237 49.6536 29.425C49.4135 29.468 49.1965 29.5948 49.0411 29.7828C48.8857 29.9708 48.802 30.2078 48.8049 30.4516V32.1951C48.8049 35.5715 47.4636 38.8096 45.0762 41.197C42.6887 43.5845 39.4506 44.9258 36.0742 44.9258C32.6978 44.9258 29.4597 43.5845 27.0722 41.197C24.6848 38.8096 23.3435 35.5715 23.3435 32.1951V30.4516C23.3409 30.2052 23.252 29.9676 23.0922 29.78C22.9324 29.5924 22.7119 29.4668 22.469 29.425C22.1335 29.3649 21.8138 29.2369 21.5295 29.0489C21.2451 28.8609 21.0022 28.6169 20.8155 28.3317C20.6288 28.0465 20.5023 27.7262 20.4437 27.3904C20.3851 27.0546 20.3957 26.7104 20.4748 26.3789C20.5276 26.1443 20.6339 25.9252 20.7855 25.7386C20.937 25.552 21.1297 25.403 21.3484 25.3032C21.5246 25.5 21.7351 25.6631 21.9698 25.7843L23.6315 26.6377C23.8257 26.7373 24.0416 26.7875 24.2599 26.7838C24.4782 26.78 24.6922 26.7224 24.8829 26.6162C25.0736 26.5099 25.2352 26.3582 25.3532 26.1745C25.4712 25.9908 25.5421 25.7808 25.5595 25.5632C25.5595 25.5567 25.5604 25.55 25.5609 25.5434L25.7634 22.2187C25.7805 21.9379 25.8576 21.664 25.9894 21.4154C26.1211 21.1668 26.3046 20.9493 26.5274 20.7775L25.2544 19.1268C24.796 19.4803 24.4186 19.9278 24.1475 20.4392C23.8764 20.9506 23.7179 21.5142 23.6827 22.092L23.5511 24.2532L22.9358 23.9298C22.9233 23.9233 22.913 23.9134 22.9061 23.9011C22.8992 23.8889 22.8959 23.8749 22.8968 23.8609V18.8768H20.8122V23.2821C20.2319 23.4805 19.7117 23.8233 19.3005 24.2783C18.8892 24.7333 18.6006 25.2855 18.4618 25.8829C18.3761 26.2401 18.3336 26.6063 18.3352 26.9736C18.3239 27.8991 18.5987 28.8056 19.122 29.5691C19.6453 30.3327 20.3916 30.916 21.2589 31.2393V32.1951C21.2597 35.125 22.1285 37.989 23.7558 40.4254C25.3831 42.8618 27.6958 44.7614 30.402 45.8844L30.3991 47.4739C30.3976 47.9885 30.1927 48.4817 29.8292 48.8459L29.3911 49.2825C26.9939 50.055 25.6538 50.5108 25.419 50.6343C24.8987 50.9003 24.4287 51.255 24.0301 51.6823L20.8883 53.0233C20.869 53.0315 20.8499 53.0403 20.8312 53.0496C19.5388 53.7012 18.4345 54.6725 17.6233 55.8712C16.8121 57.0698 16.3209 58.456 16.1964 59.898C16.1939 59.9269 16.1964 59.9558 16.1964 59.9845V69.4619C16.1936 69.7419 16.3004 70.0118 16.494 70.214C16.6876 70.4163 16.9527 70.5347 17.2325 70.5441ZM34.1385 68.4596L32.1671 56.9702C35.03 57.7351 38.045 57.7226 40.9014 56.934L39.1229 68.4596H34.1385ZM54.6119 60.0299V68.4596H41.9154C44.1042 65.0349 49.0774 57.1583 49.7974 55.8559C50.0262 55.4458 50.171 54.9942 50.2233 54.5276L51.1674 54.9327C53.111 55.9163 54.463 57.8608 54.6119 60.0299ZM46.9139 52.5064C47.5224 52.834 47.9539 53.2992 48.1002 53.7869C48.1518 53.9596 48.1672 54.141 48.1453 54.3198C48.1234 54.4987 48.0647 54.671 47.973 54.8261C47.4303 55.8078 44.2043 60.9193 41.806 64.7015L43.8292 51.6074C45.2812 52.0111 46.6298 52.3992 46.9139 52.5064ZM36.0575 47.0086C37.5527 47.0137 39.0398 46.7888 40.4667 46.3418V47.57C40.4634 48.0976 40.565 48.6205 40.7655 49.1085C40.9659 49.5965 41.2613 50.0399 41.6345 50.4128L41.8727 50.6558L41.2594 54.6092C38.1935 55.7008 34.847 55.7141 31.7726 54.647L31.0681 50.5523L31.3007 50.3196C32.0539 49.5621 32.4771 48.5376 32.478 47.4694L32.481 46.5715C33.6512 46.8621 34.8524 47.0088 36.0581 47.0086H36.0575ZM25.1501 53.7875C25.299 53.2928 25.7388 52.8225 26.3613 52.4933C26.5979 52.394 27.8031 51.9907 29.1247 51.5596L31.3558 64.5378C28.9617 60.7745 25.8107 55.7966 25.2757 54.8297C25.1839 54.6741 25.1254 54.5011 25.1039 54.3217C25.0824 54.1423 25.0983 53.9605 25.1507 53.7875H25.1501ZM18.281 60.0299C18.4299 57.8608 19.7953 55.9114 21.7388 54.9276L23.0202 54.3801C23.0552 54.8985 23.203 55.403 23.4534 55.8583C24.1737 57.1613 29.1611 65.0349 31.3579 68.4596H18.281V60.0299Z" fill="#002766"/>
<path d="M15.0868 12.8018L20.515 14.8965V18.7595C20.5186 18.9812 20.5918 19.1961 20.7241 19.374C20.8564 19.5519 21.0413 19.6837 21.2526 19.7509L21.6269 19.87C26.2309 21.345 31.0374 22.0899 35.8719 22.0778C40.8366 22.0905 45.771 21.304 50.4857 19.7485C50.692 19.6786 50.8709 19.5453 50.997 19.3678C51.1231 19.1902 51.1898 18.9773 51.1878 18.7595V14.9885L53.5701 14.0777V20.6879C53.1243 20.9055 52.7493 21.2449 52.4882 21.6667C52.2272 22.0886 52.0909 22.5756 52.095 23.0717C52.0924 23.4223 52.1591 23.7699 52.2915 24.0946C52.4238 24.4193 52.6191 24.7145 52.8661 24.9634C53.1131 25.2122 53.4069 25.4097 53.7306 25.5445C54.0542 25.6793 54.4014 25.7487 54.752 25.7487C55.1026 25.7487 55.4497 25.6793 55.7734 25.5445C56.097 25.4097 56.3908 25.2122 56.6378 24.9634C56.8848 24.7145 57.0801 24.4193 57.2125 24.0946C57.3448 23.7699 57.4116 23.4223 57.409 23.0717C57.4122 22.5244 57.2451 21.9896 56.9307 21.5416C56.6164 21.0936 56.1704 20.7544 55.6547 20.5713V13.2753L56.8918 12.8009C58.1238 12.327 58.3098 11.5509 58.3098 11.1306C58.3098 10.7103 58.127 9.93437 56.8953 9.46028L38.187 2.26245C36.9401 1.78285 35.0601 1.78285 33.8128 2.26245L15.1042 9.46058C13.8724 9.93466 13.6797 10.7106 13.6797 11.1309C13.6797 11.5512 13.8549 12.3273 15.0868 12.8018ZM54.7568 23.6506C54.6421 23.6518 54.5295 23.6189 54.4335 23.556C54.3375 23.4932 54.2624 23.4032 54.2176 23.2975C54.1729 23.1918 54.1605 23.0752 54.1822 22.9626C54.2038 22.8499 54.2585 22.7461 54.3392 22.6646C54.4199 22.583 54.523 22.5272 54.6355 22.5044C54.748 22.4816 54.8647 22.4927 54.9708 22.5363C55.077 22.5799 55.1677 22.6541 55.2316 22.7495C55.2955 22.8448 55.3296 22.9569 55.3296 23.0717C55.3303 23.2244 55.2703 23.3711 55.1629 23.4796C55.0555 23.5881 54.9095 23.6496 54.7568 23.6506ZM22.5995 15.6985L33.6221 19.9395C29.8806 19.7626 26.1768 19.1111 22.5995 18.0006V15.6985ZM49.1032 18.0019C45.6143 19.0896 42.0031 19.7361 38.3536 19.9265L49.1032 15.7906V18.0019ZM34.5616 4.20808C35.3146 3.91833 36.6859 3.91848 37.4389 4.20808L55.4324 11.1309L54.673 11.423C54.6556 11.4221 54.6383 11.4204 54.6207 11.4204C54.4835 11.4202 54.3476 11.4472 54.2208 11.4999C54.0941 11.5526 53.979 11.6298 53.8823 11.7272L37.4387 18.0539C36.6858 18.3436 35.3144 18.3435 34.5615 18.0539L16.568 11.1302L34.5616 4.20808Z" fill="#1388F7"/>
</svg>
