<svg width="72" height="72" viewBox="0 0 72 72" fill="none" xmlns="http://www.w3.org/2000/svg">
<path d="M15.3814 47.205V44.5862C15.384 42.4088 16.9698 40.5565 19.1211 40.2187C17.8454 40.0198 16.5464 40.3889 15.5654 41.2289C14.585 42.0684 14.0201 43.2951 14.0195 44.5862V47.205C14.0201 48.4961 14.585 49.7223 15.5654 50.5623C16.5464 51.4023 17.8454 51.7715 19.1211 51.5725C16.9698 51.2347 15.384 49.3824 15.3814 47.205Z" fill="#D4E1F4"/>
<path d="M32.1607 44.5005V41.5087C32.1644 38.9197 34.0806 36.7322 36.6462 36.388C35.17 36.1891 33.68 36.638 32.5591 37.6195C31.4383 38.601 30.7967 40.0187 30.7988 41.5087V44.5005C30.7962 45.9901 31.4377 47.4083 32.5586 48.3898C33.6794 49.3712 35.17 49.8202 36.6462 49.6207C34.0806 49.2771 32.1639 47.0891 32.1607 44.5005Z" fill="#D4E1F4"/>
<path d="M28.0219 56.1895L28.0251 56.1847C28.2299 55.8777 28.4623 55.5905 28.7198 55.3266C29.4177 54.6101 30.2865 54.0829 31.2445 53.7946C31.1764 53.7211 31.1083 53.6461 31.0424 53.569C29.6438 53.6961 28.3368 54.3196 27.358 55.3266C27.1005 55.5905 26.868 55.8777 26.6632 56.1847L26.66 56.1895C26.0153 57.1582 25.6722 58.2955 25.6748 59.459V68.3652H27.0367V59.459C27.034 58.2955 27.3771 57.1582 28.0219 56.1895Z" fill="#D4E1F4"/>
<path d="M53.4671 40.166C53.2394 40.166 53.0117 40.1836 52.7861 40.2187C54.9374 40.557 56.5232 42.4094 56.5259 44.5867V47.205C56.5227 49.3824 54.9369 51.2347 52.7861 51.5725C54.0623 51.7715 55.3609 51.4023 56.3418 50.5623C57.3228 49.7223 57.8872 48.4961 57.8877 47.205V44.5862C57.8845 42.1466 55.9072 40.1692 53.4671 40.166Z" fill="#D4E1F4"/>
<path d="M57.9997 55.2702C57.9146 55.3676 57.8258 55.4612 57.7354 55.5511C59.7058 56.3017 61.0091 58.1897 61.0117 60.2984V65.3739H62.3736V60.2984C62.3709 57.7673 60.5064 55.6235 57.9997 55.2702Z" fill="#D4E1F4"/>
<path d="M14.3214 55.5021C14.2416 55.4202 14.1639 55.3362 14.0889 55.2489C11.5088 55.5319 9.55014 57.7029 9.53418 60.2984V65.3739H10.896V60.2984C10.9093 58.1365 12.2807 56.2166 14.3214 55.5021Z" fill="#D4E1F4"/>
<path d="M35.9699 2H35.9204C21.4301 2.00958 9.64863 13.806 9.65821 28.2973C9.65874 28.7075 9.96356 29.0532 10.3705 29.1059C10.7775 29.1586 11.16 28.9011 11.2653 28.5048C11.4462 27.8169 12.0898 25.8529 12.8942 24.981C13.9565 23.957 15.3731 23.3835 16.8483 23.3803H16.876C18.3394 23.3771 19.7454 23.9501 20.7902 24.9752C21.8169 26.0375 22.393 27.4557 22.3973 28.933C22.3973 29.3841 22.7627 29.7501 23.2144 29.7501C23.6655 29.7501 24.0315 29.3841 24.0315 28.933C24.0086 27.4531 24.5868 26.0269 25.6337 24.9805C26.6807 23.9341 28.1074 23.3569 29.5873 23.3803H29.615C31.0784 23.3766 32.485 23.9495 33.5297 24.9746C34.5564 26.037 35.1326 27.4552 35.1368 28.9325V32.726C35.1368 33.1776 35.5023 33.5431 35.9539 33.5431C36.405 33.5431 36.771 33.1776 36.771 32.726V28.9325C36.7482 27.4526 37.3264 26.0263 38.3733 24.98C39.4208 23.9336 40.847 23.3569 42.3269 23.3803H42.3546C43.818 23.3771 45.224 23.9501 46.2683 24.9757C47.2955 26.0375 47.8711 27.4557 47.8753 28.933C47.8753 29.3847 48.2413 29.7501 48.6924 29.7501C49.1435 29.7501 49.5095 29.3847 49.5095 28.933C49.4867 27.4531 50.0649 26.0269 51.1118 24.9805C52.1593 23.9341 53.5855 23.3569 55.0659 23.3809H55.0931C56.5565 23.3771 57.962 23.9501 59.0062 24.9752C59.8106 25.8407 60.4585 27.8143 60.6404 28.5043C60.7458 28.9011 61.1283 29.158 61.5352 29.1054C61.9422 29.0527 62.247 28.7069 62.2475 28.2963V28.2627C62.2401 13.7772 50.4533 2 35.9699 2ZM60.1872 23.8437C60.1798 23.8362 60.1723 23.8283 60.1649 23.8208C58.8158 22.4888 56.9949 21.7429 55.0984 21.7467H55.0633C53.1631 21.7483 51.3384 22.4872 49.9734 23.8086C49.9617 23.8203 49.95 23.832 49.9388 23.8437C49.4457 24.3639 49.0265 24.9491 48.6935 25.5837C48.36 24.9496 47.9413 24.3639 47.4482 23.8437C47.4412 23.8362 47.4338 23.8283 47.4258 23.8208C46.0767 22.4882 44.2558 21.7424 42.3594 21.7467H42.3237C40.4241 21.7477 38.5989 22.4872 37.2338 23.8086C37.2221 23.8197 37.2104 23.8314 37.1993 23.8431C36.7061 24.3634 36.2869 24.9486 35.9539 25.5832C35.6204 24.9486 35.2012 24.3629 34.7086 23.8431C34.7011 23.8352 34.6937 23.8277 34.6862 23.8203C33.3366 22.4872 31.5157 21.7419 29.6192 21.7456H29.5841C27.6845 21.7472 25.8593 22.4866 24.4943 23.808C24.4826 23.8192 24.4709 23.8309 24.4597 23.8426C23.9666 24.3629 23.5479 24.9486 23.2144 25.5827C22.8813 24.9486 22.4622 24.3629 21.969 23.8426C21.9621 23.8352 21.9547 23.8272 21.9467 23.8197C20.5976 22.4872 18.7761 21.7413 16.8797 21.7456H16.8451C14.9454 21.7467 13.1203 22.4861 11.7552 23.8075C11.7435 23.8192 11.7318 23.8309 11.7201 23.8426C11.7089 23.8554 11.6972 23.8676 11.6855 23.8804C13.7639 12.3888 23.8384 3.64165 35.9209 3.63421H35.9539H35.9699C48.0562 3.63421 58.1418 12.3824 60.2223 23.8814L60.1872 23.8437Z" fill="#1388F7"/>
<path d="M29.166 41.5087V44.5005C29.166 48.2562 32.211 51.3012 35.9667 51.3012C39.7224 51.3012 42.7674 48.2562 42.7674 44.5005V41.5087C42.7674 37.7525 39.7224 34.7081 35.9667 34.7081C32.211 34.7081 29.166 37.7525 29.166 41.5087ZM35.9667 36.3423C38.8186 36.3455 41.13 38.6569 41.1332 41.5087V44.5005C41.1332 47.3535 38.8202 49.667 35.9667 49.667C33.1132 49.667 30.8002 47.3535 30.8002 44.5005V41.5087C30.8034 38.6563 33.1148 36.3455 35.9667 36.3423Z" fill="#002766"/>
<path d="M47.4132 44.5862V47.2051C47.4025 49.375 48.5542 51.3842 50.4321 52.4721C52.3094 53.5599 54.6256 53.5599 56.5029 52.4721C58.3807 51.3842 59.5324 49.375 59.5218 47.2051V44.5862C59.5324 42.4163 58.3807 40.407 56.5029 39.3192C54.6256 38.2313 52.3094 38.2313 50.4321 39.3192C48.5542 40.407 47.4025 42.4163 47.4132 44.5862ZM53.467 40.1661C55.9071 40.1693 57.8844 42.1466 57.8876 44.5867V47.2051C57.8961 48.7903 57.0556 50.2586 55.6842 51.0538C54.3133 51.8486 52.6211 51.8486 51.2497 51.0538C49.8788 50.2586 49.0378 48.7903 49.0468 47.2051V44.5862C49.0495 42.146 51.0268 40.1687 53.467 40.1661Z" fill="#002766"/>
<path d="M56.8622 54.0855C56.0307 55.1021 54.7764 55.6777 53.464 55.6453C52.1511 55.6134 50.9265 54.9771 50.1456 53.9217C49.986 53.7089 49.7338 53.5855 49.4684 53.5903C48.2784 53.6163 47.1171 53.9621 46.1069 54.5909C44.7791 53.0131 42.8619 52.0486 40.8037 51.9231C40.3733 51.897 40.1605 52.1588 39.9339 52.4348C38.9615 53.6238 37.4943 54.2967 35.9585 54.2595C34.4233 54.2217 32.9907 53.4775 32.0773 52.2428C31.9193 52.0279 31.6661 51.9039 31.3996 51.9114C29.4323 51.9571 27.5614 52.7732 26.1895 54.184C26.0586 54.3185 25.9346 54.4579 25.8144 54.6005C24.8675 54.01 23.7876 53.6664 22.6731 53.5999C22.2502 53.5791 22.039 53.8366 21.8348 54.0855C21.0033 55.1021 19.7494 55.6777 18.4366 55.6453C17.1237 55.6134 15.8996 54.9771 15.1187 53.9217C14.9585 53.7089 14.7069 53.586 14.4409 53.5903C10.8023 53.6828 7.90092 56.6587 7.90039 60.2984V66.191C7.90039 66.6421 8.26585 67.0081 8.71749 67.0081H24.0408V69.1828C24.0408 69.6344 24.4063 69.9999 24.8579 69.9999H47.074C47.5256 69.9999 47.8911 69.6344 47.8911 69.1828V67.0081H63.191C63.6421 67.0081 64.0081 66.6421 64.0081 66.191V60.2984C64.0033 56.7507 61.2424 53.818 57.7011 53.5999C57.2761 53.5791 57.0665 53.8366 56.8622 54.0855ZM9.5346 65.3739V60.2984C9.55056 57.7029 11.5093 55.532 14.0893 55.249C15.2048 56.5358 16.8231 57.2768 18.5259 57.2811C20.2293 57.2848 21.8507 56.5517 22.9726 55.2702C23.6552 55.3655 24.3105 55.5995 24.8989 55.9575C24.3329 57.038 24.0387 58.2397 24.0408 59.4589V65.3739H9.5346ZM46.2569 68.3657H25.675V59.4595C25.6724 58.2961 26.0155 57.1582 26.6602 56.19L26.6634 56.1852C26.8682 55.8783 27.1007 55.591 27.3582 55.3272C28.337 54.3196 29.6441 53.6961 31.0426 53.5695C32.2959 55.0415 34.1307 55.8916 36.0644 55.8958C37.9976 55.9006 39.836 55.0585 41.0963 53.5924C44.0455 53.9754 46.2537 56.4858 46.2564 59.46L46.2569 68.3657ZM58.0001 55.2702C60.5067 55.6235 62.3713 57.7673 62.3739 60.2984V65.3739H47.8911V59.4589C47.8922 58.2354 47.5937 57.03 47.0224 55.948C47.6592 55.5618 48.3747 55.3229 49.1157 55.249C50.1966 56.5044 51.759 57.2422 53.4156 57.2789C53.4667 57.2805 53.5177 57.2805 53.5688 57.2805C55.2679 57.2848 56.8845 56.5512 58.0001 55.2702Z" fill="#002766"/>
<path d="M24.4945 47.2051V44.5862C24.5051 42.4163 23.3534 40.407 21.4755 39.3192C19.5982 38.2313 17.282 38.2313 15.4047 39.3192C13.5269 40.407 12.3752 42.4163 12.3858 44.5862V47.2051C12.3752 49.375 13.5269 51.3842 15.4047 52.4721C17.282 53.5599 19.5982 53.5599 21.4755 52.4721C23.3534 51.3842 24.5051 49.375 24.4945 47.2051ZM14.02 47.2051V44.5862C14.011 43.0015 14.8515 41.5327 16.2229 40.7379C17.5943 39.9426 19.286 39.9426 20.6574 40.7379C22.0288 41.5327 22.8693 43.0015 22.8603 44.5862V47.2051C22.8693 48.7898 22.0288 50.2586 20.6574 51.0533C19.286 51.8486 17.5943 51.8486 16.2229 51.0533C14.8515 50.2586 14.011 48.7898 14.02 47.2051Z" fill="#002766"/>
</svg>
