<svg width="72" height="72" viewBox="0 0 72 72" fill="none" xmlns="http://www.w3.org/2000/svg">
<g clip-path="url(#clip0)">
<path d="M66.6405 6.48795C66.1273 5.9507 65.2756 5.93119 64.7384 6.44443L54.6582 16.073L49.3307 10.7447C48.8054 10.2195 47.9538 10.2195 47.4285 10.7447C46.904 11.2699 46.904 12.1216 47.4285 12.6468L53.6857 18.904C54.2027 19.421 55.0371 19.43 55.5653 18.9251L66.5963 8.38934C67.1335 7.8761 67.153 7.02445 66.6405 6.48795Z" fill="#1388F7"/>
<path d="M36.0008 22.9941C39.1748 22.9979 41.747 25.5701 41.7507 28.7441C41.7507 29.487 42.3525 30.0887 43.0954 30.0887C43.8382 30.0887 44.44 29.487 44.44 28.7441C44.4347 24.6044 41.4311 21.0777 37.3454 20.4129V17.7514C37.3454 17.0086 36.7436 16.4068 36.0008 16.4068C35.2579 16.4068 34.6561 17.0086 34.6561 17.7514V20.4129C30.3146 21.116 27.2404 25.0344 27.5923 29.4187C27.9435 33.8022 31.6029 37.1811 36.0008 37.1826C39.1628 37.1826 41.732 39.736 41.75 42.8988C41.7687 46.0608 39.2295 48.6442 36.0675 48.681C36.045 48.6795 36.0233 48.6772 36.0008 48.6772C35.9783 48.6772 35.9565 48.6795 35.934 48.681C32.7862 48.6412 30.2545 46.0803 30.2508 42.9325C30.2508 42.1897 29.649 41.5879 28.9062 41.5879C28.1633 41.5879 27.5615 42.1897 27.5615 42.9325C27.5668 47.0722 30.5697 50.5989 34.6561 51.2637V54.2486C34.6561 54.9915 35.2579 55.5932 36.0008 55.5932C36.7436 55.5932 37.3454 54.9915 37.3454 54.2486V51.2637C41.6877 50.5629 44.7634 46.643 44.4115 42.2587C44.0603 37.8744 40.3993 34.4948 36.0008 34.4948C33.9388 34.5061 32.0276 33.4128 30.9936 31.6292C29.9589 29.8449 29.9589 27.6441 30.9936 25.8597C32.0276 24.0762 33.9388 22.9829 36.0008 22.9949V22.9941Z" fill="#1388F7"/>
<path d="M65.6239 22.1791C64.9389 22.4658 64.6162 23.2537 64.9021 23.9387C66.5003 27.7588 67.319 31.8595 67.3107 35.9999C67.3107 53.2648 53.2649 67.3106 36 67.3106C18.7351 67.3106 4.68927 53.2648 4.68927 35.9999C4.68927 18.735 18.7351 4.68917 36 4.68917C39.5086 4.68466 42.9933 5.27144 46.3068 6.42548C46.7608 6.58681 47.2673 6.49227 47.6327 6.17787C47.9981 5.86422 48.1677 5.37799 48.0769 4.90452C47.9861 4.43105 47.6485 4.04236 47.1923 3.88629C43.5936 2.6332 39.8103 1.9954 36 1.9999C17.2517 1.9999 2 17.2516 2 35.9999C2 54.7482 17.2517 69.9999 36 69.9999C54.7483 69.9999 70 54.7482 70 35.9999C70.0082 31.503 69.1191 27.0497 67.3835 22.901C67.0969 22.2159 66.309 21.8933 65.6239 22.1791Z" fill="#002766"/>
</g>
<defs>
<clipPath id="clip0">
<rect width="68" height="68" fill="white" transform="translate(2 2)"/>
</clipPath>
</defs>
</svg>
