<svg width="72" height="72" viewBox="0 0 72 72" fill="none" xmlns="http://www.w3.org/2000/svg">
<path d="M61.1854 41.9344L60.8519 42.1144C59.5044 40.4792 57.1699 39.8455 55.3912 40.747C55.3849 40.75 55.3786 40.7534 55.3724 40.7567L54.5849 41.1806C53.6457 40.3854 52.4841 39.8993 51.2585 39.7885C50.0329 39.6778 48.8029 39.9479 47.7365 40.5619L43.4959 42.8681H37.8532C36.6314 42.8665 35.4255 42.5902 34.3249 42.0597L33.5487 41.6842C31.3387 40.6089 28.8743 40.1662 26.4282 40.4051C23.9822 40.644 21.6499 41.5552 19.6898 43.0377C19.6714 43.0518 19.6534 43.0659 19.6362 43.0818L17.7621 44.7501C17.0538 45.3792 16.2167 45.8458 15.3092 46.1174L14.2448 42.6235C14.1921 42.4505 14.0852 42.2991 13.9399 42.1915C13.7946 42.0839 13.6185 42.0258 13.4377 42.0258H4.37404C4.25461 42.0258 4.13655 42.0511 4.02766 42.1002C3.91876 42.1492 3.82151 42.2208 3.74234 42.3102C3.66317 42.3996 3.60388 42.5048 3.56839 42.6188C3.5329 42.7328 3.52202 42.8531 3.53647 42.9716L6.55766 67.7441C6.5826 67.9487 6.68155 68.1371 6.83585 68.2737C6.99015 68.4104 7.18913 68.4858 7.39522 68.4858H20.99C21.1219 68.4858 21.2519 68.4549 21.3696 68.3956C21.4874 68.3362 21.5896 68.2501 21.6681 68.1442C21.7465 68.0382 21.7991 67.9153 21.8215 67.7854C21.8439 67.6554 21.8355 67.5221 21.7971 67.396L20.0111 61.5355L25.5734 58.0199C26.3177 57.6081 27.1908 57.4951 28.0154 57.7039C28.0328 57.7083 28.0504 57.7122 28.0681 57.7153L39.3826 59.7988C42.4575 60.349 45.6277 59.9014 48.43 58.5214C48.4658 58.5037 48.5003 58.4835 48.5332 58.4609L68.1032 45.0239C68.2805 44.9022 68.4046 44.7174 68.4502 44.5072C68.4957 44.297 68.4594 44.0774 68.3484 43.8932C67.6364 42.7072 66.4942 41.8416 65.1599 41.4768C63.8256 41.1119 62.4019 41.2758 61.1854 41.9344ZM56.1627 42.2477C57.1914 41.7326 58.4864 42.1549 59.3136 42.9442L51.8925 46.9478L51.4566 47.1775C51.2216 46.5102 50.8781 45.8864 50.4401 45.3309L56.1627 42.2477ZM48.5531 42.0389C48.5597 42.0351 48.5671 42.0314 48.573 42.0275C49.2377 41.6433 49.9933 41.4444 50.7609 41.4517C51.5286 41.4589 52.2803 41.6719 52.9376 42.0685L49.1645 44.1C48.4452 43.575 47.6244 43.2056 46.7545 43.0154L48.5531 42.0389ZM8.14166 66.7983L5.32705 43.7133H12.8124L19.8507 66.7983H8.14166ZM47.6269 57.0346C45.163 58.2339 42.3821 58.6204 39.6846 58.1382L28.3979 56.0597C27.1564 55.7533 25.8448 55.931 24.7296 56.5569C24.7166 56.564 24.7035 56.5719 24.6907 56.5801L19.4995 59.8618L15.8011 47.7328C16.9415 47.3891 17.9933 46.8009 18.8832 46.0091L20.7308 44.3638C22.4427 43.0768 24.4765 42.2873 26.6084 42.0823C28.7402 41.8772 30.8873 42.2645 32.8131 43.2016L33.5892 43.577C34.919 44.218 36.3759 44.5518 37.8522 44.5538H45.3792C46.4853 44.5554 47.5564 44.9421 48.4084 45.6476C49.2603 46.353 49.8401 47.3332 50.0479 48.4196L44.5924 48.1728C42.6091 48.0837 40.6218 48.1755 38.6552 48.4472C38.4352 48.4798 38.2371 48.5979 38.1038 48.7759C37.9705 48.9539 37.9128 49.1773 37.9433 49.3975C37.9738 49.6178 38.09 49.8171 38.2666 49.9521C38.4433 50.0871 38.6661 50.147 38.8867 50.1186C40.7513 49.8609 42.6356 49.7739 44.516 49.8587L50.9364 50.1491C50.9492 50.1491 50.962 50.15 50.9746 50.15C51.1984 50.15 51.413 50.0611 51.5713 49.9029C51.7295 49.7446 51.8184 49.53 51.8184 49.3062C51.8184 49.1697 51.8126 49.0344 51.8043 48.8998L52.6848 48.4358L61.987 43.4188C62.7014 43.032 63.5236 42.892 64.3257 43.0205C65.1279 43.1491 65.8652 43.5391 66.4229 44.1298L47.6269 57.0346Z" fill="#002766"/>
<path d="M10.8252 63.3077C10.8252 63.8331 10.981 64.3467 11.2729 64.7835C11.5648 65.2204 11.9796 65.5608 12.465 65.7619C12.9504 65.963 13.4845 66.0156 13.9998 65.9131C14.5151 65.8106 14.9885 65.5576 15.36 65.1861C15.7315 64.8146 15.9845 64.3412 16.087 63.8259C16.1895 63.3107 16.1369 62.7765 15.9358 62.2911C15.7347 61.8058 15.3943 61.3909 14.9574 61.099C14.5206 60.8071 14.007 60.6513 13.4816 60.6513C12.7773 60.6521 12.1021 60.9322 11.6041 61.4302C11.1061 61.9282 10.826 62.6034 10.8252 63.3077ZM13.4816 62.3388C13.6732 62.3388 13.8606 62.3956 14.0199 62.5021C14.1792 62.6086 14.3034 62.7599 14.3768 62.9369C14.4501 63.114 14.4693 63.3088 14.4319 63.4967C14.3945 63.6847 14.3022 63.8573 14.1667 63.9928C14.0312 64.1283 13.8586 64.2206 13.6706 64.258C13.4827 64.2954 13.2879 64.2762 13.1108 64.2029C12.9338 64.1295 12.7824 64.0053 12.676 63.846C12.5695 63.6867 12.5127 63.4993 12.5127 63.3077C12.5131 63.0509 12.6154 62.8047 12.797 62.6232C12.9786 62.4416 13.2248 62.3395 13.4816 62.3391V62.3388Z" fill="#002766"/>
<path d="M36.0111 3.51422C34.3131 3.51631 32.6853 4.19173 31.4847 5.39234C30.284 6.59296 29.6086 8.22076 29.6064 9.9187V12.6991C29.6144 14.3925 30.2926 16.0139 31.4929 17.2085C32.6931 18.4031 34.3176 19.0738 36.011 19.0738C37.7044 19.0738 39.3289 18.4031 40.5291 17.2085C41.7294 16.0139 42.4076 14.3925 42.4156 12.6991V9.9187C42.4134 8.22078 41.738 6.59301 40.5374 5.39239C39.3368 4.19178 37.709 3.51634 36.0111 3.51422ZM40.7281 12.6991C40.7212 13.9457 40.2213 15.1389 39.3374 16.018C38.4535 16.8971 37.2576 17.3905 36.011 17.3905C34.7644 17.3905 33.5685 16.8971 32.6846 16.018C31.8007 15.1389 31.3008 13.9457 31.2939 12.6991V9.9187C31.3008 8.67212 31.8007 7.47892 32.6846 6.59985C33.5685 5.72079 34.7644 5.22734 36.011 5.22734C37.2576 5.22734 38.4535 5.72079 39.3374 6.59985C40.2213 7.47892 40.7212 8.67212 40.7281 9.9187V12.6991Z" fill="#1388F7"/>
<path d="M46.5654 12.7789V15.2127C46.5654 16.7273 47.1671 18.18 48.2382 19.251C49.3092 20.322 50.7618 20.9237 52.2765 20.9237C53.7912 20.9237 55.2438 20.322 56.3148 19.251C57.3859 18.18 57.9876 16.7273 57.9876 15.2127V12.7789C57.9876 11.2642 57.3859 9.81157 56.3148 8.74054C55.2438 7.66951 53.7912 7.06781 52.2765 7.06781C50.7618 7.06781 49.3092 7.66951 48.2382 8.74054C47.1671 9.81157 46.5654 11.2642 46.5654 12.7789ZM56.3001 12.7789V15.2127C56.3001 16.2798 55.8761 17.3032 55.1216 18.0578C54.367 18.8123 53.3436 19.2362 52.2765 19.2362C51.2094 19.2362 50.186 18.8123 49.4314 18.0578C48.6768 17.3032 48.2529 16.2798 48.2529 15.2127V12.7789C48.2529 11.7118 48.6768 10.6883 49.4314 9.93378C50.186 9.17922 51.2094 8.75531 52.2765 8.75531C53.3436 8.75531 54.367 9.17922 55.1216 9.93378C55.8761 10.6883 56.3001 11.7118 56.3001 12.7789Z" fill="#1388F7"/>
<path d="M56.2348 21.0731C55.7848 21.0401 55.5535 21.325 55.3659 21.5538C54.9926 22.0099 54.5201 22.3747 53.9845 22.6205C53.4488 22.8664 52.8641 22.9867 52.2749 22.9723C51.6857 22.9579 51.1076 22.8092 50.5846 22.5375C50.0615 22.2658 49.6074 21.8783 49.2569 21.4046C49.1763 21.2955 49.0707 21.2075 48.9489 21.148C48.8271 21.0884 48.6928 21.0591 48.5572 21.0624C47.4612 21.087 46.3909 21.3993 45.4535 21.9679C44.8347 21.2483 44.0777 20.6602 43.2274 20.2385C42.3772 19.8168 41.4509 19.57 40.5035 19.5127C40.0676 19.495 39.8471 19.7597 39.6335 20.019C39.1955 20.5543 38.6411 20.9825 38.0125 21.271C37.3839 21.5595 36.6978 21.7007 36.0064 21.6838C35.3149 21.6669 34.6365 21.4924 34.0228 21.1735C33.409 20.8547 32.8762 20.3999 32.4648 19.8439C32.3844 19.7347 32.2788 19.6466 32.157 19.5871C32.0352 19.5275 31.9008 19.4983 31.7652 19.5019C29.9149 19.5447 28.1553 20.3123 26.8651 21.6394C26.7585 21.7484 26.6574 21.8613 26.5589 21.9759C25.6876 21.4455 24.7002 21.1355 23.6821 21.0728C23.2336 21.0398 23.0006 21.3247 22.8132 21.5535C22.4399 22.0096 21.9674 22.3744 21.4318 22.6203C20.8961 22.8661 20.3114 22.9864 19.7223 22.972C19.1331 22.9576 18.5549 22.8089 18.0319 22.5372C17.5089 22.2655 17.0548 21.8781 16.7043 21.4043C16.6236 21.2954 16.5179 21.2075 16.3962 21.1479C16.2744 21.0884 16.1402 21.059 16.0047 21.0621C14.3566 21.1041 12.7901 21.7882 11.6392 22.9686C10.4882 24.149 9.84399 25.7324 9.84375 27.381V32.8575C9.84375 33.0813 9.93265 33.2959 10.0909 33.4541C10.2491 33.6124 10.4637 33.7012 10.6875 33.7012H24.8439V35.6379C24.8439 35.8617 24.9328 36.0763 25.0911 36.2346C25.2493 36.3928 25.4639 36.4817 25.6877 36.4817H46.3345C46.5583 36.4817 46.7729 36.3928 46.9312 36.2346C47.0894 36.0763 47.1783 35.8617 47.1783 35.6379V33.7012H61.3125C61.5363 33.7012 61.7509 33.6124 61.9091 33.4541C62.0674 33.2959 62.1562 33.0813 62.1562 32.8575V27.381C62.1553 25.774 61.5427 24.2277 60.4429 23.0561C59.3431 21.8845 57.8385 21.1755 56.2348 21.0731ZM11.5312 32.0137V27.381C11.5384 26.2442 11.9603 25.1491 12.7178 24.3014C13.4753 23.4537 14.5162 22.9117 15.6451 22.7772C16.1653 23.3675 16.8048 23.8406 17.5214 24.1653C18.2381 24.4901 19.0154 24.659 19.8022 24.661C20.5889 24.663 21.3672 24.498 22.0854 24.177C22.8037 23.8559 23.4456 23.386 23.9688 22.7984C24.5498 22.8853 25.1087 23.0825 25.6155 23.3795C25.1068 24.3771 24.8424 25.4812 24.8439 26.6009V32.0137H11.5312ZM45.4908 34.7942H26.5314V26.6009C26.5398 25.2618 27.0408 23.9726 27.939 22.9792C28.8371 21.9858 30.0695 21.3578 31.401 21.215C31.9844 21.8904 32.706 22.4326 33.5171 22.8049C34.3282 23.1772 35.2098 23.371 36.1022 23.3731C36.9946 23.3753 37.8771 23.1857 38.69 22.8172C39.5028 22.4487 40.227 21.91 40.8136 21.2374C42.1092 21.4166 43.2962 22.0582 44.1558 23.0439C45.0154 24.0297 45.4896 25.293 45.4908 26.6009V34.7942ZM60.4688 32.0137H47.1783V26.6009C47.1792 25.4773 46.9118 24.3697 46.3985 23.3702C46.9499 23.0487 47.5626 22.8465 48.197 22.7766C48.7172 23.3671 49.3568 23.8404 50.0735 24.1653C50.7902 24.4901 51.5677 24.6592 52.3546 24.6612C53.1415 24.6633 53.9198 24.4983 54.6382 24.1772C55.3566 23.8561 55.9987 23.3861 56.522 22.7984C57.6192 22.964 58.6207 23.5173 59.3448 24.3581C60.069 25.1989 60.4677 26.2714 60.4688 27.381V32.0137Z" fill="#1388F7"/>
<path d="M19.7238 20.9237C21.2379 20.922 22.6895 20.3197 23.7602 19.2491C24.8308 18.1784 25.4331 16.7268 25.4348 15.2127V12.7789C25.4348 12.0289 25.2871 11.2862 25.0001 10.5933C24.7131 9.90045 24.2924 9.27086 23.7621 8.74054C23.2318 8.21022 22.6022 7.78955 21.9093 7.50254C21.2164 7.21553 20.4737 7.06781 19.7238 7.06781C18.9738 7.06781 18.2311 7.21553 17.5382 7.50254C16.8453 7.78955 16.2157 8.21022 15.6854 8.74054C15.1551 9.27086 14.7344 9.90045 14.4474 10.5933C14.1604 11.2862 14.0127 12.0289 14.0127 12.7789V15.2127C14.0144 16.7268 14.6167 18.1784 15.6873 19.2491C16.758 20.3198 18.2096 20.922 19.7238 20.9237ZM15.7002 12.7789C15.7002 11.7118 16.1241 10.6883 16.8787 9.93378C17.6332 9.17922 18.6566 8.75531 19.7238 8.75531C20.7909 8.75531 21.8143 9.17922 22.5688 9.93378C23.3234 10.6883 23.7473 11.7118 23.7473 12.7789V15.2127C23.7473 15.7411 23.6432 16.2643 23.441 16.7524C23.2388 17.2406 22.9425 17.6841 22.5688 18.0578C22.1952 18.4314 21.7517 18.7278 21.2635 18.93C20.7753 19.1322 20.2521 19.2362 19.7238 19.2362C19.1954 19.2362 18.6722 19.1322 18.184 18.93C17.6958 18.7278 17.2523 18.4314 16.8787 18.0578C16.505 17.6841 16.2087 17.2406 16.0065 16.7524C15.8043 16.2643 15.7002 15.7411 15.7002 15.2127V12.7789Z" fill="#1388F7"/>
</svg>
