<svg width="72" height="72" viewBox="0 0 72 72" fill="none" xmlns="http://www.w3.org/2000/svg">
<g clip-path="url(#clip0)">
<path d="M10.722 56.2521C11.9664 57.4909 13.6519 58.1844 15.4081 58.1799H15.441L39.0924 58.0629L39.0841 56.3518L15.4326 56.4688H15.4081C12.6844 56.4682 10.4731 54.267 10.4602 51.5438L10.2542 8.78096C10.2408 6.04774 12.446 3.82084 15.1797 3.80803L34.9706 3.71278L35.0091 11.7481C35.0308 15.4115 38.0046 18.3714 41.668 18.3759H41.7009L49.7362 18.3375L49.8471 37.7585L51.5582 37.749L51.444 17.688L51.4429 17.4429C51.4418 17.2157 51.3504 16.9979 51.1889 16.838L36.4545 2.27572C36.3136 2.13758 36.1297 2.0518 35.9337 2.03342L35.6273 2.0039C35.5989 2.00056 35.5705 1.99944 35.5421 2L15.1708 2.09803C11.4935 2.11586 8.52578 5.11142 8.54304 8.78875L8.74858 51.5527C8.75248 53.3195 9.46321 55.0117 10.722 56.2521ZM41.6931 16.6648H41.6691C38.9471 16.6614 36.7374 14.4618 36.7213 11.7398L36.6884 4.91146L48.5465 16.6325L41.6931 16.6648Z" fill="#002766"/>
<path d="M29.2149 33.5865C28.742 33.5865 28.3594 33.9698 28.3594 34.4421C28.3594 34.915 28.742 35.2977 29.2149 35.2977H32.1164C32.5887 35.2977 32.9719 34.915 32.9719 34.4421C32.9719 33.9698 32.5887 33.5865 32.1164 33.5865H29.2149Z" fill="#002766"/>
<path d="M42.9742 27.1866C42.9742 26.7142 42.591 26.331 42.1186 26.331H18.0294C17.557 26.331 17.1738 26.7142 17.1738 27.1866C17.1738 27.6589 17.557 28.0421 18.0294 28.0421H42.1186C42.591 28.0421 42.9742 27.6589 42.9742 27.1866Z" fill="#002766"/>
<path d="M18.0294 33.5865C17.557 33.5865 17.1738 33.9698 17.1738 34.4421C17.1738 34.915 17.557 35.2977 18.0294 35.2977H25.5383C26.0107 35.2977 26.3939 34.915 26.3939 34.4421C26.3939 33.9698 26.0107 33.5865 25.5383 33.5865H18.0294Z" fill="#002766"/>
<path d="M48.4597 69.2058L50.1184 69.9288C50.3357 70.0235 50.5819 70.024 50.7997 69.9299L52.6673 69.1228C59.3201 66.3283 63.6475 59.8169 63.6486 52.601V44.2169C63.6486 43.9006 63.4743 43.6098 63.1952 43.4611L50.9049 36.9113C50.6504 36.7754 50.3446 36.7776 50.0917 36.9163L38.1412 43.4655C37.8672 43.6154 37.6967 43.9034 37.6973 44.2158V52.7714C37.7045 59.9005 41.9283 66.3495 48.4597 69.2058ZM39.4084 44.7227L50.5083 38.6391L61.9381 44.7294V52.6004C61.9364 59.1296 58.0184 65.021 51.9983 67.5476L51.9922 67.5498L50.4616 68.211L49.1454 67.6373C43.2361 65.0533 39.4151 59.2193 39.4084 52.7703V44.7227Z" fill="#1388F7"/>
<path d="M48.1077 57.1116C48.4096 57.4653 48.9382 57.5132 49.2986 57.2202L56.8259 51.0959C57.1852 50.7957 57.2364 50.2627 56.9407 49.8995C56.6455 49.5363 56.113 49.4784 55.7465 49.7686L48.8664 55.3654L46.1766 52.2155C45.9794 51.9793 45.6703 51.8668 45.3673 51.922C45.0643 51.9771 44.8142 52.1905 44.7122 52.4812C44.6103 52.772 44.6727 53.095 44.8754 53.3267L48.1077 57.1116Z" fill="#1388F7"/>
</g>
<defs>
<clipPath id="clip0">
<rect width="68" height="68" fill="white" transform="translate(2 2)"/>
</clipPath>
</defs>
</svg>
