<svg width="72" height="72" viewBox="0 0 72 72" fill="none" xmlns="http://www.w3.org/2000/svg">
<path d="M61.1854 41.9344L60.8519 42.1144C59.5044 40.4792 57.1699 39.8455 55.3912 40.747C55.3849 40.75 55.3786 40.7534 55.3724 40.7567L54.5849 41.1806C53.6457 40.3854 52.4841 39.8993 51.2585 39.7885C50.0329 39.6778 48.8029 39.9479 47.7365 40.5619L43.4959 42.8681H37.8532C36.6314 42.8665 35.4255 42.5902 34.3249 42.0597L33.5487 41.6842C31.3387 40.6089 28.8743 40.1662 26.4282 40.4051C23.9822 40.644 21.6499 41.5552 19.6898 43.0377C19.6714 43.0518 19.6534 43.0659 19.6362 43.0818L17.7621 44.7501C17.0538 45.3792 16.2167 45.8458 15.3092 46.1174L14.2448 42.6235C14.1921 42.4505 14.0852 42.2991 13.9399 42.1915C13.7946 42.0839 13.6185 42.0258 13.4377 42.0258H4.37404C4.25461 42.0258 4.13655 42.0511 4.02766 42.1002C3.91876 42.1492 3.82151 42.2208 3.74234 42.3102C3.66317 42.3996 3.60388 42.5048 3.56839 42.6188C3.5329 42.7328 3.52202 42.8531 3.53647 42.9716L6.55766 67.7441C6.5826 67.9487 6.68155 68.1371 6.83585 68.2737C6.99015 68.4104 7.18913 68.4858 7.39522 68.4858H20.99C21.1219 68.4858 21.2519 68.4549 21.3696 68.3956C21.4874 68.3362 21.5896 68.2501 21.6681 68.1442C21.7465 68.0382 21.7991 67.9153 21.8215 67.7854C21.8439 67.6554 21.8355 67.5221 21.7971 67.396L20.0111 61.5355L25.5734 58.0199C26.3177 57.6081 27.1908 57.4951 28.0154 57.7039C28.0328 57.7083 28.0504 57.7122 28.0681 57.7153L39.3826 59.7988C42.4575 60.349 45.6277 59.9014 48.43 58.5214C48.4658 58.5037 48.5003 58.4835 48.5332 58.4609L68.1032 45.0239C68.2805 44.9022 68.4046 44.7174 68.4502 44.5072C68.4957 44.297 68.4594 44.0774 68.3484 43.8932C67.6364 42.7072 66.4942 41.8416 65.1599 41.4768C63.8256 41.1119 62.4019 41.2758 61.1854 41.9344ZM56.1627 42.2477C57.1914 41.7326 58.4864 42.1549 59.3136 42.9442L51.8925 46.9478L51.4566 47.1775C51.2216 46.5102 50.8781 45.8864 50.4401 45.3309L56.1627 42.2477ZM48.5531 42.0389C48.5597 42.0351 48.5671 42.0314 48.573 42.0275C49.2377 41.6433 49.9933 41.4444 50.7609 41.4517C51.5286 41.4589 52.2803 41.6719 52.9376 42.0685L49.1645 44.1C48.4452 43.575 47.6244 43.2056 46.7545 43.0154L48.5531 42.0389ZM8.14166 66.7983L5.32705 43.7133H12.8124L19.8507 66.7983H8.14166ZM47.6269 57.0346C45.163 58.2339 42.3821 58.6204 39.6846 58.1382L28.3979 56.0597C27.1564 55.7533 25.8448 55.931 24.7296 56.5569C24.7166 56.564 24.7035 56.5719 24.6907 56.5801L19.4995 59.8618L15.8011 47.7328C16.9415 47.3891 17.9933 46.8009 18.8832 46.0091L20.7308 44.3638C22.4427 43.0768 24.4765 42.2873 26.6084 42.0823C28.7402 41.8772 30.8873 42.2645 32.8131 43.2016L33.5892 43.577C34.919 44.218 36.3759 44.5518 37.8522 44.5538H45.3792C46.4853 44.5554 47.5564 44.9421 48.4084 45.6476C49.2603 46.353 49.8401 47.3332 50.0479 48.4196L44.5924 48.1728C42.6091 48.0837 40.6218 48.1755 38.6552 48.4472C38.4352 48.4798 38.2371 48.5979 38.1038 48.7759C37.9705 48.9539 37.9128 49.1773 37.9433 49.3975C37.9738 49.6178 38.09 49.8171 38.2666 49.9521C38.4433 50.0871 38.6661 50.147 38.8867 50.1186C40.7513 49.8609 42.6356 49.7739 44.516 49.8587L50.9364 50.1491C50.9492 50.1491 50.962 50.15 50.9746 50.15C51.1984 50.15 51.413 50.0611 51.5713 49.9029C51.7295 49.7446 51.8184 49.53 51.8184 49.3062C51.8184 49.1697 51.8126 49.0344 51.8043 48.8998L52.6848 48.4358L61.987 43.4188C62.7014 43.032 63.5236 42.892 64.3257 43.0205C65.1279 43.1491 65.8652 43.5391 66.4229 44.1298L47.6269 57.0346Z" fill="#002766"/>
<path d="M24.6597 35H47.3401C47.8719 35 48.3023 34.5389 48.3023 33.9706V18.5487H52.038C52.4546 18.5487 52.8236 18.2619 52.9527 17.8376C53.0817 17.4141 52.9408 16.9497 52.6043 16.687L36.5665 4.19703C36.2288 3.93432 35.7715 3.93432 35.4338 4.19703L19.396 16.687C19.059 16.9497 18.9186 17.4141 19.0471 17.8376C19.1761 18.2619 19.5457 18.5487 19.9623 18.5487H23.6974V33.9706C23.6974 34.5389 24.1284 35 24.6597 35ZM22.9187 16.4899L36.0002 6.30203L49.081 16.4899H47.3401C46.8088 16.4899 46.3778 16.951 46.3778 17.5193V32.9412H25.6219V17.5193C25.6219 16.951 25.1909 16.4899 24.6597 16.4899H22.9187Z" fill="#1388F7"/>
<path d="M10.8252 63.3077C10.8252 63.8331 10.981 64.3467 11.2729 64.7835C11.5648 65.2204 11.9796 65.5608 12.465 65.7619C12.9504 65.963 13.4845 66.0156 13.9998 65.9131C14.5151 65.8106 14.9885 65.5576 15.36 65.1861C15.7315 64.8146 15.9845 64.3412 16.087 63.8259C16.1895 63.3107 16.1369 62.7765 15.9358 62.2911C15.7347 61.8058 15.3943 61.3909 14.9574 61.099C14.5206 60.8071 14.007 60.6513 13.4816 60.6513C12.7773 60.6521 12.1021 60.9322 11.6041 61.4302C11.1061 61.9282 10.826 62.6034 10.8252 63.3077ZM13.4816 62.3388C13.6732 62.3388 13.8606 62.3956 14.0199 62.5021C14.1792 62.6086 14.3034 62.7599 14.3768 62.9369C14.4501 63.114 14.4693 63.3088 14.4319 63.4967C14.3945 63.6847 14.3022 63.8573 14.1667 63.9928C14.0312 64.1283 13.8586 64.2206 13.6706 64.258C13.4827 64.2954 13.2879 64.2762 13.1108 64.2029C12.9338 64.1295 12.7824 64.0053 12.676 63.846C12.5695 63.6867 12.5127 63.4993 12.5127 63.3077C12.5131 63.0509 12.6154 62.8047 12.797 62.6232C12.9786 62.4416 13.2248 62.3395 13.4816 62.3391V62.3388Z" fill="#002766"/>
</svg>
