<svg width="72" height="72" viewBox="0 0 72 72" fill="none" xmlns="http://www.w3.org/2000/svg">
<path d="M62.8949 27.7835C62.8181 27.6665 62.7134 27.5703 62.5902 27.5038C62.4671 27.4373 62.3293 27.4025 62.1893 27.4025C62.0493 27.4025 61.9115 27.4373 61.7883 27.5038C61.6651 27.5703 61.5605 27.6665 61.4837 27.7835L53.9226 39.3124C53.839 39.4417 53.7916 39.5909 53.7851 39.7447C53.7786 39.8984 53.8134 40.0511 53.8857 40.187C53.9574 40.3222 54.0642 40.4356 54.1948 40.5154C54.3254 40.5952 54.475 40.6385 54.6281 40.6406H61.0783C60.1949 47.0747 56.9757 52.9591 52.0338 57.1729C47.3676 61.174 41.5057 63.464 35.9512 63.464C32.3287 63.464 28.5412 62.4847 24.998 60.6375C21.3184 58.7156 18.1271 55.9778 15.6681 52.6334C15.604 52.5406 15.522 52.4616 15.4269 52.401C15.3318 52.3404 15.2255 52.2995 15.1143 52.2807C15.0031 52.2619 14.8893 52.2656 14.7796 52.2915C14.6699 52.3174 14.5664 52.3651 14.4754 52.4317C14.3844 52.4983 14.3077 52.5824 14.2498 52.6792C14.1918 52.7759 14.1539 52.8833 14.1381 52.9949C14.1224 53.1066 14.1292 53.2203 14.1582 53.3292C14.1871 53.4382 14.2376 53.5403 14.3067 53.6294C16.9189 57.182 20.309 60.0901 24.2178 62.1312C28.0006 64.1037 32.0582 65.1462 35.9512 65.1462C41.9025 65.1462 48.1648 62.7142 53.1322 58.4548C58.4335 53.9086 61.8692 47.5647 62.78 40.6406H69.7505C69.9034 40.6381 70.0529 40.5947 70.1835 40.515C70.314 40.4352 70.4208 40.3219 70.4928 40.187C70.5648 40.052 70.5994 39.9002 70.5929 39.7473C70.5864 39.5945 70.5391 39.4462 70.456 39.3177L62.8949 27.7835ZM56.1906 38.9531L62.1892 29.8066L68.1881 38.9531H56.1906Z" fill="#002766"/>
<path d="M9.81167 44.5975C9.95165 44.5975 10.0894 44.5627 10.2126 44.4961C10.3358 44.4296 10.4404 44.3335 10.5172 44.2164L18.0783 32.6876C18.1618 32.5583 18.2093 32.4091 18.2158 32.2553C18.2222 32.1015 18.1875 31.9488 18.1152 31.813C18.0434 31.6778 17.9367 31.5644 17.8061 31.4845C17.6755 31.4047 17.5258 31.3615 17.3728 31.3594H10.9226C11.806 24.9253 15.0252 19.0409 19.967 14.8271C24.6333 10.826 30.4952 8.53662 36.0496 8.53662C39.6721 8.53662 43.4597 9.51593 47.0029 11.3632C50.6824 13.285 53.8737 16.0228 56.3328 19.3673C56.3969 19.4601 56.4789 19.5391 56.574 19.5997C56.6691 19.6603 56.7754 19.7012 56.8865 19.72C56.9977 19.7388 57.1115 19.7351 57.2213 19.7092C57.331 19.6832 57.4344 19.6356 57.5254 19.569C57.6165 19.5024 57.6932 19.4182 57.7511 19.3215C57.809 19.2248 57.847 19.1174 57.8627 19.0057C57.8785 18.8941 57.8717 18.7804 57.8427 18.6714C57.8138 18.5624 57.7633 18.4604 57.6942 18.3712C55.082 14.8187 51.6918 11.9106 47.7831 9.86946C44.0003 7.89691 39.9427 6.85446 36.0496 6.85446C30.0984 6.85446 23.8361 9.28643 18.8686 13.5458C13.5675 18.0919 10.1318 24.4355 9.2209 31.3594H2.2504C2.09744 31.3618 1.94793 31.4052 1.8174 31.485C1.68686 31.5648 1.58005 31.678 1.50806 31.813C1.43607 31.948 1.40152 32.0998 1.40799 32.2526C1.41447 32.4055 1.46174 32.5538 1.54489 32.6822L9.10601 44.2135C9.18262 44.3309 9.28721 44.4275 9.41038 44.4945C9.53355 44.5616 9.67144 44.5969 9.81167 44.5975ZM15.8103 33.0469L9.81167 42.1934L3.81275 33.0469H15.8103Z" fill="#002766"/>
<path d="M36 52.3125C39.2263 52.3125 42.3802 51.3558 45.0627 49.5633C47.7453 47.7709 49.8361 45.2232 51.0708 42.2425C52.3054 39.2618 52.6285 35.9819 51.999 32.8176C51.3696 29.6533 49.816 26.7467 47.5347 24.4653C45.2533 22.184 42.3467 20.6304 39.1824 20.0009C36.0181 19.3715 32.7382 19.6946 29.7575 20.9292C26.7768 22.1639 24.2291 24.2547 22.4367 26.9373C20.6442 29.6198 19.6875 32.7737 19.6875 36C19.6924 40.3248 21.4126 44.4711 24.4707 47.5292C27.5289 50.5874 31.6752 52.3076 36 52.3125ZM36 21.375C38.8925 21.375 41.7201 22.2327 44.1252 23.8398C46.5303 25.4468 48.4048 27.7309 49.5117 30.4033C50.6187 33.0756 50.9083 36.0162 50.344 38.8532C49.7797 41.6902 48.3868 44.2961 46.3414 46.3414C44.2961 48.3868 41.6902 49.7797 38.8532 50.344C36.0162 50.9083 33.0756 50.6187 30.4033 49.5117C27.7309 48.4048 25.4468 46.5303 23.8398 44.1252C22.2327 41.7201 21.375 38.8925 21.375 36C21.3794 32.1226 22.9216 28.4052 25.6634 25.6634C28.4052 22.9217 32.1226 21.3794 36 21.375Z" fill="#1388F7"/>
<path d="M36.0252 42.1062C36.0167 42.1062 36.0084 42.1049 36 42.1049C35.9916 42.1049 35.9833 42.1059 35.9748 42.1062C35.271 42.099 34.5984 41.8145 34.1029 41.3146C33.6074 40.8146 33.329 40.1395 33.3281 39.4356C33.3281 39.2118 33.2392 38.9972 33.081 38.839C32.9228 38.6807 32.7082 38.5918 32.4844 38.5918C32.2606 38.5918 32.046 38.6807 31.8878 38.839C31.7295 38.9972 31.6406 39.2118 31.6406 39.4356C31.642 40.4449 31.993 41.4227 32.634 42.2024C33.2749 42.9821 34.1662 43.5156 35.1562 43.7123V45.0429C35.1562 45.2667 35.2451 45.4813 35.4034 45.6395C35.5616 45.7977 35.7762 45.8866 36 45.8866C36.2238 45.8866 36.4384 45.7977 36.5966 45.6395C36.7549 45.4813 36.8438 45.2667 36.8438 45.0429V43.7123C37.9058 43.5024 38.8517 42.9049 39.4975 42.0361C40.1433 41.1672 40.4427 40.0891 40.3374 39.0117C40.2322 37.9343 39.7298 36.9345 38.928 36.2071C38.1263 35.4797 37.0826 35.0765 36 35.0762C35.4716 35.0762 34.955 34.9195 34.5156 34.6259C34.0762 34.3323 33.7337 33.915 33.5315 33.4268C33.3293 32.9386 33.2764 32.4014 33.3795 31.8831C33.4826 31.3648 33.737 30.8887 34.1107 30.515C34.4844 30.1414 34.9605 29.8869 35.4787 29.7838C35.997 29.6807 36.5343 29.7336 37.0225 29.9359C37.5107 30.1381 37.928 30.4805 38.2216 30.9199C38.5152 31.3593 38.6719 31.8759 38.6719 32.4043C38.6719 32.6281 38.7608 32.8427 38.919 33.001C39.0772 33.1592 39.2918 33.2481 39.5156 33.2481C39.7394 33.2481 39.954 33.1592 40.1122 33.001C40.2705 32.8427 40.3594 32.6281 40.3594 32.4043C40.358 31.395 40.0069 30.4173 39.366 29.6376C38.725 28.8579 37.8337 28.3243 36.8438 28.1277V26.9578C36.8438 26.734 36.7549 26.5194 36.5966 26.3612C36.4384 26.2029 36.2238 26.114 36 26.114C35.7762 26.114 35.5616 26.2029 35.4034 26.3612C35.2451 26.5194 35.1562 26.734 35.1562 26.9578V28.1284C34.0942 28.3382 33.1483 28.9357 32.5025 29.8046C31.8567 30.6734 31.5573 31.7515 31.6626 32.8289C31.7678 33.9064 32.2702 34.9061 33.072 35.6336C33.8737 36.361 34.9174 36.7641 36 36.7644C36.6987 36.776 37.3651 37.0608 37.8563 37.5578C38.3474 38.0549 38.6244 38.7246 38.6277 39.4233C38.631 40.1221 38.3604 40.7944 37.8739 41.296C37.3874 41.7977 36.7237 42.0888 36.0252 42.1069V42.1062Z" fill="#1388F7"/>
</svg>
