<svg width="72" height="72" viewBox="0 0 72 72" fill="none" xmlns="http://www.w3.org/2000/svg">
<path d="M31.0866 70.2464C47.2607 70.2464 60.4193 57.0878 60.4193 40.9137C60.4383 34.5592 58.3753 28.3733 54.546 23.3022C54.3793 23.0828 54.1325 22.9384 53.8596 22.9005C53.5868 22.8626 53.31 22.9342 53.0898 23.0998C52.8696 23.2653 52.7239 23.5113 52.6846 23.784C52.6452 24.0566 52.7154 24.3338 52.8798 24.5548C56.4366 29.2654 58.3526 35.0112 58.3348 40.9137C58.3348 55.9385 46.1114 68.1619 31.0866 68.1619C16.0619 68.1619 3.83847 55.9385 3.83847 40.9137C3.83847 25.889 16.0619 13.6656 31.0866 13.6656C36.9893 13.6478 42.7352 15.5639 47.4458 19.1208C47.6667 19.287 47.9446 19.3585 48.2183 19.3198C48.4921 19.281 48.7392 19.1351 48.9053 18.9142C49.0714 18.6932 49.143 18.4153 49.1042 18.1416C49.0655 17.8679 48.9196 17.6208 48.6986 17.4547C43.6273 13.6252 37.4413 11.5621 31.0866 11.581C14.9125 11.581 1.75391 24.7396 1.75391 40.9137C1.75391 57.0878 14.9125 70.2464 31.0866 70.2464Z" fill="#002766"/>
<path d="M43.3065 25.8653C43.3871 25.7547 43.445 25.6292 43.4771 25.4961C43.5091 25.3631 43.5147 25.225 43.4934 25.0898C43.4721 24.9546 43.4243 24.8249 43.3529 24.7081C43.2815 24.5914 43.1878 24.4898 43.0771 24.4093C39.5965 21.8681 35.3959 20.5037 31.0864 20.5147C19.8384 20.5147 10.6875 29.6656 10.6875 40.9136C10.6875 52.1616 19.8384 61.3125 31.0864 61.3125C42.3344 61.3125 51.4853 52.1616 51.4853 40.9136C51.4961 36.6135 50.1376 32.4215 47.6068 28.945C47.5264 28.8342 47.425 28.7403 47.3083 28.6687C47.1917 28.5972 47.062 28.5493 46.9269 28.5278C46.7917 28.5063 46.6536 28.5116 46.5205 28.5435C46.3874 28.5754 46.2618 28.6332 46.1511 28.7136C46.0403 28.794 45.9464 28.8954 45.8748 29.0121C45.8033 29.1287 45.7554 29.2584 45.7339 29.3935C45.7124 29.5287 45.7177 29.6668 45.7496 29.7999C45.7815 29.933 45.8393 30.0586 45.9197 30.1693C48.6218 33.9001 49.8186 38.5122 49.2714 43.0861C48.7241 47.66 46.4731 51.8596 42.9671 54.8476C39.4611 57.8356 34.9577 59.3924 30.3549 59.2075C25.752 59.0227 21.388 57.1099 18.1328 53.8504C14.8777 50.591 12.9706 46.2244 12.7918 41.6214C12.6131 37.0183 14.1758 32.517 17.1683 29.0149C20.1609 25.5128 24.3635 23.2673 28.9381 22.7261C33.5127 22.1849 38.1233 23.3877 41.8505 26.0948C41.9611 26.1753 42.0866 26.2333 42.2197 26.2653C42.3527 26.2974 42.4908 26.3029 42.626 26.2816C42.7612 26.2603 42.8909 26.2126 43.0077 26.1412C43.1244 26.0697 43.226 25.976 43.3065 25.8653Z" fill="#002766"/>
<path d="M31.0863 37.489C31.3628 37.489 31.6279 37.3792 31.8233 37.1837C32.0188 36.9882 32.1286 36.7231 32.1286 36.4467C32.1286 36.1703 32.0188 35.9052 31.8233 35.7097C31.6279 35.5142 31.3628 35.4044 31.0863 35.4044C29.9967 35.4044 28.9316 35.7275 28.0256 36.3329C27.1196 36.9382 26.4135 37.7987 25.9965 38.8053C25.5795 39.812 25.4704 40.9197 25.683 41.9884C25.8956 43.0571 26.4203 44.0387 27.1908 44.8092C27.9612 45.5797 28.9429 46.1044 30.0116 46.3169C31.0802 46.5295 32.1879 46.4204 33.1946 46.0034C34.2013 45.5865 35.0617 44.8803 35.6671 43.9743C36.2724 43.0684 36.5955 42.0032 36.5955 40.9136C36.5955 40.6372 36.4857 40.3721 36.2902 40.1766C36.0948 39.9811 35.8297 39.8713 35.5532 39.8713C35.2768 39.8713 35.0117 39.9811 34.8162 40.1766C34.6208 40.3721 34.511 40.6372 34.511 40.9136C34.511 41.5909 34.3101 42.2531 33.9338 42.8162C33.5575 43.3794 33.0227 43.8184 32.3969 44.0776C31.7711 44.3368 31.0825 44.4046 30.4182 44.2724C29.7539 44.1403 29.1437 43.8141 28.6648 43.3352C28.1858 42.8562 27.8597 42.246 27.7275 41.5817C27.5954 40.9174 27.6632 40.2288 27.9224 39.6031C28.1816 38.9773 28.6205 38.4424 29.1837 38.0661C29.7469 37.6898 30.409 37.489 31.0863 37.489Z" fill="#002766"/>
<path d="M69.3065 12.2873L60.5759 11.4237L59.7123 2.69307C59.6928 2.49669 59.618 2.30988 59.4965 2.15437C59.375 1.99885 59.2119 1.88102 59.0261 1.81458C58.8402 1.74813 58.6394 1.73581 58.4468 1.77904C58.2543 1.82227 58.078 1.91927 57.9384 2.05877L46.3569 13.6403C46.2296 13.7676 46.1375 13.9256 46.0894 14.099C46.0414 14.2725 46.0391 14.4554 46.0827 14.63L48.0456 22.48L30.3492 40.1764C30.2524 40.2732 30.1757 40.3881 30.1233 40.5146C30.0709 40.641 30.0439 40.7766 30.0439 40.9135C30.0439 41.0503 30.0709 41.1859 30.1233 41.3123C30.1757 41.4388 30.2524 41.5537 30.3492 41.6505C30.446 41.7473 30.5609 41.8241 30.6874 41.8765C30.8139 41.9288 30.9494 41.9558 31.0863 41.9558C31.2232 41.9558 31.3587 41.9288 31.4852 41.8765C31.6116 41.8241 31.7265 41.7473 31.8233 41.6505L49.5197 23.9541L57.3702 25.9167C57.5448 25.9603 57.7277 25.958 57.9011 25.91C58.0746 25.862 58.2326 25.7698 58.3599 25.6426L69.941 14.0614C70.0805 13.9218 70.1776 13.7454 70.2208 13.5528C70.264 13.3603 70.2517 13.1594 70.1853 12.9735C70.1188 12.7876 70.0009 12.6245 69.8454 12.503C69.6898 12.3815 69.5029 12.3067 69.3065 12.2873ZM48.2481 14.697L57.8548 5.09032L58.5371 11.9886L49.7642 20.7614L48.2481 14.697ZM57.3027 23.7516L51.2383 22.2354L60.0112 13.4627L66.9094 14.1449L57.3027 23.7516Z" fill="#1388F7"/>
</svg>
