<svg width="72" height="72" viewBox="0 0 72 72" fill="none" xmlns="http://www.w3.org/2000/svg">
<path d="M28.0117 3.52283C12.6586 3.52283 0.167969 16.0134 0.167969 31.3666C0.167969 46.7197 12.6586 59.2103 28.0117 59.2103C32.4898 59.2095 36.9019 58.1314 40.8757 56.0668C41.0989 55.9504 41.2667 55.75 41.3421 55.5098C41.4176 55.2696 41.3946 55.0093 41.2781 54.7861C41.1616 54.5629 40.9612 54.3951 40.7211 54.3197C40.4809 54.2442 40.2205 54.2672 39.9973 54.3837C36.2949 56.3071 32.184 57.3114 28.0117 57.3119C13.7056 57.3119 2.06641 45.6729 2.06641 31.3666C2.06641 17.0603 13.7056 5.42126 28.0117 5.42126C41.0129 5.42126 52.0744 15.1281 53.7409 28.0006C53.7756 28.2483 53.9066 28.4722 54.1054 28.6239C54.3043 28.7755 54.5549 28.8425 54.8029 28.8104C55.0509 28.7783 55.2762 28.6496 55.4298 28.4524C55.5835 28.2551 55.6531 28.0052 55.6235 27.7569C53.8346 13.9411 41.9644 3.52283 28.0117 3.52283Z" fill="#002766"/>
<path d="M71.2619 34.7398L55.4612 26.9772C55.3329 26.9135 55.1917 26.8803 55.0484 26.8803C54.9052 26.8803 54.7639 26.9135 54.6357 26.9772L38.7812 34.7173C38.6175 34.7936 38.4781 34.9136 38.3781 35.064C38.2782 35.2144 38.2217 35.3894 38.2148 35.5699V50.379C38.2148 52.0048 38.6988 53.8215 39.5403 55.6329C40.6186 57.9533 42.2425 59.9556 43.9617 61.1267L54.5183 68.3126C54.6772 68.4198 54.8645 68.4771 55.0562 68.4771C55.2479 68.4771 55.4352 68.4198 55.5941 68.3126L66.1029 61.1267C69.2932 58.9542 71.7539 54.2333 71.7539 50.379V35.592C71.7616 35.4179 71.7194 35.2451 71.6322 35.0941C71.5451 34.9431 71.4166 34.8202 71.2619 34.7398ZM69.8555 50.379C69.8555 53.5606 67.6696 57.7639 65.0358 59.5578L55.0431 66.3793L45.0404 59.5576C43.5958 58.5737 42.1952 56.8523 41.2571 54.8329C40.5415 53.2929 40.1133 51.7112 40.1133 50.379V36.1622L54.9844 28.8864L69.8555 36.1836V50.379Z" fill="#1388F7"/>
<path d="M49.0314 46.5362C48.9426 46.4474 48.837 46.3771 48.7208 46.3294C48.6046 46.2817 48.48 46.2576 48.3544 46.2584C48.2288 46.2592 48.1046 46.2849 47.9889 46.334C47.8733 46.3832 47.7686 46.4548 47.6809 46.5447C47.5932 46.6346 47.5242 46.7411 47.4779 46.8579C47.4316 46.9747 47.409 47.0995 47.4113 47.2251C47.4136 47.3507 47.4408 47.4746 47.4914 47.5896C47.542 47.7046 47.6149 47.8084 47.7058 47.8951L52.4849 52.5567C52.6621 52.7296 52.9 52.8264 53.1476 52.8264C53.3953 52.8264 53.6332 52.7296 53.8104 52.5567L62.42 44.1596C62.51 44.0727 62.582 43.9689 62.6318 43.8542C62.6815 43.7394 62.7081 43.6159 62.71 43.4909C62.7119 43.3658 62.6891 43.2416 62.6428 43.1254C62.5965 43.0091 62.5278 42.9032 62.4404 42.8137C62.3531 42.7241 62.2489 42.6527 62.1339 42.6036C62.0188 42.5544 61.8952 42.5285 61.7701 42.5273C61.6451 42.5261 61.521 42.5496 61.405 42.5965C61.289 42.6434 61.1835 42.7128 61.0944 42.8006L53.1477 50.5513L49.0314 46.5362Z" fill="#1388F7"/>
<path d="M29 14C29 13.4477 28.5523 13 28 13C27.4477 13 27 13.4477 27 14H29ZM28 32L28.3162 32.9487C28.7246 32.8126 29 32.4304 29 32H28ZM15.6838 35.0513C15.1598 35.226 14.8767 35.7923 15.0513 36.3162C15.226 36.8402 15.7923 37.1233 16.3162 36.9487L15.6838 35.0513ZM27 14V32H29V14H27ZM27.6838 31.0513L15.6838 35.0513L16.3162 36.9487L28.3162 32.9487L27.6838 31.0513Z" fill="#002766"/>
<circle cx="28" cy="8.45102" r="1" fill="#002766"/>
<circle cx="28" cy="54" r="1" fill="#002766"/>
<circle cx="5" cy="31" r="1" fill="#002766"/>
<circle cx="39.2148" cy="11" r="1" fill="#002766"/>
<circle cx="48.0293" cy="19.9523" r="1" fill="#002766"/>
<circle r="1" transform="matrix(-1 0 0 1 16.9912 11)" fill="#002766"/>
<circle r="1" transform="matrix(-1 0 0 1 8.3584 19.9523)" fill="#002766"/>
<circle cx="8.3584" cy="42.5273" r="1" fill="#002766"/>
<circle cx="16.9912" cy="50.7922" r="1" fill="#002766"/>
</svg>
