<svg width="72" height="72" viewBox="0 0 72 72" fill="none" xmlns="http://www.w3.org/2000/svg">
<path d="M30.3756 45.18V46.1566L27.4133 47.2313C27.3848 47.2425 27.3571 47.2555 27.3302 47.2703C26.7054 47.5834 26.1538 48.0252 25.7117 48.5664C25.2696 49.1077 24.9468 49.7364 24.7646 50.4111L26.3959 50.8518C26.5148 50.414 26.7234 50.0057 27.0083 49.6526C27.2932 49.2995 27.6483 49.0094 28.0511 48.8007L30.8259 47.7996L32.8707 51.8906C32.9242 51.9977 32.9999 52.0922 33.0927 52.1679C33.1855 52.2435 33.2934 52.2985 33.4091 52.3292C33.5248 52.3599 33.6458 52.3656 33.7639 52.346C33.882 52.3264 33.9946 52.2818 34.0941 52.2153L35.1568 51.5064V57.9375H36.8443V51.5064L37.9076 52.2153C38.0071 52.2817 38.1197 52.3261 38.2377 52.3456C38.3557 52.3652 38.4765 52.3594 38.5921 52.3287C38.7077 52.298 38.8155 52.2431 38.9083 52.1675C39.001 52.092 39.0767 51.9976 39.1302 51.8906L41.1756 47.7996L43.9498 48.8007C44.3525 49.0095 44.7075 49.2996 44.9922 49.6527C45.277 50.0058 45.4853 50.4142 45.604 50.852L47.233 50.4111C47.05 49.7361 46.7264 49.1074 46.2835 48.5662C45.8407 48.0249 45.2885 47.5833 44.6631 47.2703C44.6389 47.2555 44.6137 47.2425 44.5877 47.2313L41.6256 46.1566V45.18C41.622 45.0142 41.5691 44.8532 41.4735 44.7177C41.3779 44.5822 41.2441 44.4782 41.0891 44.4192L41.0795 44.4375H41.0756L39.608 43.8151C40.9883 43.1654 42.1708 42.1602 43.0344 40.9027C43.8981 39.6452 44.4116 38.1806 44.5225 36.6591C45.1175 36.3851 45.5987 35.9126 45.8835 35.3227C46.1683 34.7327 46.239 34.0621 46.0834 33.4257C46.0056 33.0994 45.8575 32.7941 45.6495 32.5309C45.4414 32.2678 45.1784 32.0534 44.8788 31.9025L44.9632 31.3095C44.966 31.2891 44.9682 31.2682 44.9695 31.2476C45.0705 29.8171 44.8281 28.3833 44.2625 27.0655C43.697 25.7478 42.8246 24.5843 41.7182 23.6721C40.6117 22.7599 39.3032 22.1254 37.9018 21.8215C36.5004 21.5176 35.0466 21.5531 33.6617 21.925C33.0479 22.1072 32.4532 22.3489 31.8863 22.6465C31.7908 22.6929 31.6951 22.7396 31.5987 22.7857C31.4552 22.8544 31.334 22.9623 31.2491 23.097C31.1643 23.2316 31.1192 23.3875 31.1192 23.5467C31.1195 23.8172 31.0528 24.0836 30.925 24.322C30.7972 24.5604 30.6123 24.7635 30.3868 24.913L28.1844 26.3769C28.079 26.4468 27.9908 26.5394 27.926 26.648L27.7953 26.8677C27.7785 26.8959 27.7634 26.925 27.75 26.955C27.15 28.3023 26.8893 29.776 26.9906 31.2473C26.9921 31.2687 26.9944 31.2895 26.9975 31.3114L27.0833 31.8977C26.782 32.0478 26.5174 32.2623 26.3081 32.5259C26.0988 32.7895 25.95 33.0959 25.8721 33.4233C25.731 33.999 25.7756 34.6046 25.9995 35.1535C26.2234 35.7023 26.6151 36.1663 27.1186 36.4791C27.2199 36.5383 27.3261 36.5885 27.4361 36.6293C27.5433 38.1554 28.0566 39.6252 28.9229 40.8862C29.7892 42.1472 30.9769 43.1536 32.363 43.8012L30.928 44.3918L30.9309 44.3988C30.9295 44.3988 30.9122 44.3997 30.9108 44.4004C30.755 44.4636 30.6212 44.5712 30.5261 44.7098C30.4309 44.8484 30.3786 45.0119 30.3756 45.18ZM37.8287 46.9783L36.0675 48.7361L34.3131 46.9851V44.4257C34.8839 44.5436 35.4652 44.6031 36.0481 44.6034C36.6462 44.5966 37.2423 44.5339 37.8287 44.4161V46.9783ZM33.9528 50.281L32.7474 47.8699L34.6762 49.7988L33.9528 50.281ZM38.0484 50.281L37.325 49.7988L39.2539 47.8699L38.0484 50.281ZM32.762 24.0975C33.19 23.8749 33.638 23.6932 34.1 23.5547C35.2228 23.2552 36.4007 23.2274 37.5364 23.4736C38.672 23.7197 39.7327 24.2328 40.6307 24.9703C41.5287 25.7078 42.2381 26.6485 42.7004 27.7146C43.1626 28.7808 43.3643 29.9416 43.2888 31.1012L43.2017 31.7067C43.0822 30.9449 42.6949 30.2506 42.1093 29.7487C41.5238 29.2469 40.7785 28.9703 40.0073 28.9687H35.3844C35.3244 28.969 35.265 28.9574 35.2095 28.9347C35.1541 28.912 35.1036 28.8785 35.0611 28.8363C35.0186 28.794 34.9848 28.7438 34.9618 28.6884C34.9387 28.6331 34.9267 28.5738 34.9266 28.5138C34.9247 27.9242 34.6911 27.3589 34.2761 26.9401C33.8611 26.5212 33.298 26.2823 32.7084 26.2749L31.402 26.2626C31.7606 26.0096 32.0655 25.688 32.299 25.3163C32.5324 24.9447 32.6898 24.5304 32.762 24.0975ZM29.1707 27.9281L29.9441 27.9359C29.3699 28.7329 29.0266 29.6729 28.9523 30.6525C28.9308 30.8755 28.8414 31.0865 28.6961 31.2571L28.673 31.0996C28.5993 30.0185 28.7694 28.9347 29.1707 27.9281ZM29.1049 36.0281C29.1049 35.8296 29.0349 35.6375 28.9072 35.4855C28.7795 35.3335 28.6023 35.2314 28.4068 35.1972C28.2956 35.1574 28.0733 35.0671 27.9805 35.0259C27.7886 34.8979 27.6409 34.7139 27.5573 34.499C27.4737 34.2841 27.4583 34.0486 27.5133 33.8247C27.5456 33.692 27.6195 33.5732 27.7241 33.4855C27.8288 33.3978 27.9587 33.3459 28.0949 33.3373C28.2007 33.3275 28.3036 33.2979 28.3983 33.2498C28.9892 33.148 29.5296 32.8526 29.9344 32.4101C30.3391 31.9676 30.5853 31.4031 30.6342 30.8055C30.7398 29.6405 31.2281 28.7764 32.2533 27.9593L32.6925 27.9637C32.8378 27.965 32.9767 28.0234 33.0792 28.1264C33.1817 28.2294 33.2394 28.3686 33.24 28.5138C33.2407 29.0821 33.4669 29.6269 33.869 30.0286C34.271 30.4303 34.816 30.656 35.3844 30.6562H40.0073C40.4172 30.6573 40.81 30.8208 41.0996 31.111C41.3892 31.4011 41.552 31.7942 41.5523 32.2041C41.5523 32.5087 41.6388 32.8071 41.8018 33.0645C41.9648 33.3218 42.1976 33.5275 42.473 33.6577C42.7485 33.7878 43.0552 33.837 43.3576 33.7995C43.6599 33.762 43.9453 33.6393 44.1806 33.4458C44.3144 33.5329 44.409 33.6687 44.4443 33.8244C44.4656 33.9123 44.4764 34.0024 44.4763 34.0928C44.477 34.3561 44.3847 34.6112 44.2158 34.8131C44.0469 35.015 43.8122 35.1509 43.553 35.1969C43.3568 35.2344 43.1798 35.3392 43.0527 35.4933C42.9255 35.6473 42.8561 35.8409 42.8563 36.0406C42.8556 36.9436 42.677 37.8375 42.3307 38.6714C41.9845 39.5053 41.4774 40.2629 40.8384 40.9008C40.1993 41.5387 39.4409 42.0445 38.6064 42.3894C37.772 42.7342 36.8777 42.9113 35.9748 42.9105C35.0718 42.9098 34.1779 42.7311 33.344 42.3849C32.5101 42.0387 31.7525 41.5316 31.1146 40.8925C30.4767 40.2535 29.9709 39.4951 29.626 38.6606C29.2812 37.8261 29.1041 36.9319 29.1049 36.029V36.0281Z" fill="#002766"/>
<path d="M65.6875 31.4696C64.6327 31.4666 63.6104 31.834 62.7989 32.5078C61.9873 33.1816 61.4382 34.1189 61.2472 35.1562H54.7591C54.5481 30.7392 52.79 26.5371 49.7926 23.2858L54.3934 18.6919C55.3068 19.3278 56.4244 19.6003 57.5279 19.4561C58.6314 19.3119 59.6415 18.7615 60.3608 17.9123C61.0801 17.0631 61.457 15.9763 61.4177 14.8641C61.3784 13.7519 60.9259 12.6943 60.1484 11.898C59.371 11.1017 58.3246 10.6238 57.2137 10.5579C56.1027 10.4919 55.0071 10.8426 54.1409 11.5413C53.2747 12.24 52.7002 13.2366 52.5296 14.3364C52.359 15.4361 52.6046 16.5599 53.2184 17.4883L48.5934 22.1134C45.3259 19.1454 41.1141 17.4286 36.7028 17.2666V10.7719C37.8137 10.5973 38.8196 10.0146 39.5237 9.13779C40.2278 8.26094 40.5795 7.15297 40.51 6.03057C40.4405 4.90817 39.9548 3.85205 39.1479 3.06877C38.341 2.28548 37.2709 1.83135 36.1469 1.7952C35.023 1.75904 33.9259 2.14346 33.0704 2.87327C32.2148 3.60309 31.6622 4.6258 31.5207 5.74142C31.3793 6.85703 31.659 7.98531 32.3053 8.9056C32.9516 9.82589 33.9179 10.472 35.0153 10.7176V17.2777C30.6446 17.5048 26.4918 19.257 23.2795 22.2296L18.681 17.6311C19.3323 16.718 19.6197 15.5948 19.4869 14.4811C19.3541 13.3674 18.8106 12.3433 17.9629 11.609C17.1151 10.8747 16.0239 10.4829 14.9027 10.5104C13.7814 10.5379 12.7107 10.9825 11.8999 11.7575C11.0891 12.5324 10.5964 13.5819 10.5183 14.7008C10.4401 15.8196 10.7821 16.9274 11.4773 17.8075C12.1726 18.6877 13.1711 19.2768 14.2776 19.4599C15.3842 19.6429 16.5192 19.4067 17.4608 18.7973L22.0908 23.4119C19.1293 26.682 17.4108 30.8886 17.2354 35.2969H10.7765C10.603 34.1715 10.0108 33.1532 9.1185 32.4459C8.22619 31.7385 7.09962 31.3944 5.96435 31.4823C4.82909 31.5702 3.76894 32.0837 2.99617 32.92C2.22339 33.7563 1.79504 34.8536 1.79688 35.9923C1.79867 37.1881 2.27529 38.3342 3.12194 39.1787C3.96859 40.0232 5.11597 40.4969 6.31179 40.4956C7.33172 40.4855 8.3189 40.1342 9.11604 39.4979C9.91317 38.8615 10.4744 37.9767 10.7103 36.9844H17.2466C17.4739 41.3487 19.2179 45.4968 22.1774 48.7125L17.605 53.2925C16.6845 52.6416 15.5544 52.3575 14.4356 52.4956C13.3168 52.6338 12.2897 53.1843 11.5552 54.0395C10.8208 54.8948 10.4318 55.9932 10.4642 57.1201C10.4967 58.2469 10.9484 59.3211 11.7309 60.1327C12.5134 60.9442 13.5704 61.4346 14.6953 61.5081C15.8203 61.5816 16.9322 61.2328 17.8136 60.53C18.695 59.8271 19.2825 58.8208 19.4613 57.7077C19.6401 56.5947 19.3973 55.455 18.7803 54.5114L23.3731 49.9186C26.6091 52.8721 30.7791 54.596 35.1559 54.7899V61.2532C34.0517 61.4632 33.0655 62.0777 32.3902 62.9763C31.715 63.8749 31.3992 64.9932 31.5047 66.1123C31.6102 67.2314 32.1294 68.2709 32.9607 69.0275C33.792 69.7841 34.8756 70.2034 35.9997 70.2034C37.1238 70.2034 38.2074 69.7841 39.0387 69.0275C39.87 68.2709 40.3892 67.2314 40.4947 66.1123C40.6002 64.9932 40.2844 63.8749 39.6092 62.9763C38.9339 62.0777 37.9477 61.4632 36.8434 61.2532V54.7899C41.2578 54.5942 45.4604 52.8422 48.7066 49.8444L53.2825 54.4199C52.6448 55.3421 52.3739 56.469 52.5229 57.5803C52.6719 58.6916 53.23 59.7073 54.0881 60.429C54.9462 61.1507 56.0426 61.5264 57.163 61.4826C58.2834 61.4388 59.3471 60.9788 60.1463 60.1924C60.9455 59.406 61.4227 58.3498 61.4845 57.2303C61.5464 56.1107 61.1885 55.0084 60.4807 54.1387C59.773 53.2691 58.7664 52.6947 57.6576 52.5278C56.5489 52.3609 55.4178 52.6135 54.4854 53.2363L49.8972 48.6326C52.8421 45.3896 54.5617 41.2198 54.7591 36.8437H61.2588C61.4219 37.6841 61.8206 38.4608 62.4083 39.0831C62.9961 39.7055 63.7488 40.1479 64.5784 40.3587C65.4081 40.5695 66.2807 40.5401 67.0942 40.2738C67.9078 40.0075 68.6289 39.5154 69.1734 38.8548C69.7179 38.1943 70.0633 37.3925 70.1694 36.543C70.2755 35.6936 70.1378 34.8315 69.7725 34.0573C69.4072 33.2831 68.8292 32.6287 68.1061 32.1706C67.383 31.7124 66.5445 31.4693 65.6884 31.4696H65.6875ZM54.9929 13.0078C55.2555 12.7452 55.5672 12.537 55.9103 12.3948C56.2534 12.2527 56.6211 12.1796 56.9925 12.1796C57.3638 12.1796 57.7315 12.2528 58.0746 12.3949C58.4177 12.537 58.7294 12.7453 58.9919 13.0079C59.2545 13.2705 59.4628 13.5822 59.6049 13.9253C59.747 14.2684 59.8201 14.6361 59.8201 15.0074C59.8201 15.3787 59.747 15.7465 59.6049 16.0895C59.4628 16.4326 59.2545 16.7443 58.9919 17.0069C58.7293 17.2695 58.4176 17.4778 58.0745 17.6199C57.7314 17.762 57.3637 17.8351 56.9924 17.8351C56.621 17.8351 56.2533 17.7619 55.9102 17.6198C55.5672 17.4777 55.2554 17.2694 54.9929 17.0068C54.7303 16.7442 54.522 16.4325 54.3799 16.0894C54.2378 15.7464 54.1647 15.3786 54.1647 15.0073C54.1647 14.636 54.2378 14.2683 54.3799 13.9252C54.522 13.5821 54.7303 13.2704 54.9929 13.0078ZM33.1723 6.31209C33.1723 5.75289 33.3382 5.20625 33.6489 4.74131C33.9596 4.27636 34.4011 3.91399 34.9178 3.70001C35.4344 3.48603 36.0029 3.43006 36.5514 3.53917C37.0998 3.64828 37.6036 3.91758 37.999 4.313C38.3944 4.70843 38.6637 5.21222 38.7728 5.76068C38.8819 6.30914 38.8259 6.87763 38.6119 7.39427C38.3979 7.9109 38.0355 8.35247 37.5705 8.66314C37.1055 8.97382 36.5589 9.13964 35.9997 9.13964C35.2501 9.13878 34.5314 8.8406 34.0013 8.31051C33.4713 7.78043 33.1731 7.06173 33.1723 6.31209ZM13.0075 17.0069C12.6121 16.6115 12.3427 16.1076 12.2336 15.5592C12.1245 15.0107 12.1805 14.4421 12.3945 13.9255C12.6085 13.4088 12.9709 12.9672 13.4359 12.6565C13.9009 12.3458 14.4476 12.1799 15.0068 12.1799C15.5661 12.1799 16.1128 12.3458 16.5778 12.6565C17.0427 12.9672 17.4052 13.4088 17.6192 13.9255C17.8332 14.4421 17.8892 15.0107 17.78 15.5592C17.6709 16.1076 17.4016 16.6115 17.0062 17.0069C16.7449 17.2717 16.4336 17.4819 16.0904 17.6254C15.7471 17.7689 15.3788 17.8428 15.0068 17.8428C14.6348 17.8428 14.2665 17.7689 13.9233 17.6254C13.5801 17.4819 13.2688 17.2717 13.0075 17.0069ZM6.31179 38.8274C5.75259 38.8274 5.20595 38.6615 4.741 38.3508C4.27606 38.0401 3.91368 37.5985 3.6997 37.0819C3.48573 36.5653 3.42975 35.9968 3.53887 35.4483C3.64798 34.8999 3.91727 34.3961 4.3127 34.0007C4.70812 33.6053 5.21192 33.336 5.76038 33.2269C6.30884 33.1178 6.87733 33.1738 7.39396 33.3878C7.91059 33.6018 8.35217 33.9642 8.66284 34.4292C8.97351 34.8941 9.13933 35.4408 9.13933 36C9.13848 36.7496 8.8403 37.4683 8.31021 37.9984C7.78012 38.5284 7.06142 38.8266 6.31179 38.8274ZM17.0066 58.9922C16.6152 59.3846 16.1171 59.6534 15.5742 59.765C15.0314 59.8767 14.4676 59.8263 13.9531 59.6202C13.4386 59.4141 12.9961 59.0614 12.6804 58.6058C12.3647 58.1502 12.1899 57.6119 12.1777 57.0578C12.1655 56.5037 12.3164 55.9582 12.6116 55.4892C12.9069 55.0201 13.3335 54.6482 13.8384 54.4196C14.3433 54.191 14.9043 54.1158 15.4515 54.2035C15.9988 54.2911 16.5083 54.5376 16.9166 54.9124C16.9501 54.9674 16.9899 55.0185 17.0351 55.0644C17.0759 55.1052 17.1207 55.1417 17.1689 55.1734C17.6241 55.715 17.8599 56.4075 17.8298 57.1143C17.7998 57.8212 17.5061 58.4911 17.0066 58.9922ZM38.8271 65.6883C38.8277 66.2399 38.667 66.7795 38.3648 67.2409C38.0626 67.7022 37.632 68.0651 37.1261 68.2848C36.6203 68.5046 36.0612 68.5716 35.5177 68.4775C34.9742 68.3835 34.4702 68.1326 34.0675 67.7557C33.6648 67.3788 33.3812 66.8923 33.2515 66.3563C33.1219 65.8202 33.1518 65.2579 33.3377 64.7386C33.5236 64.2194 33.8572 63.7658 34.2977 63.4338C34.7381 63.1018 35.2659 62.9058 35.8163 62.8701C35.937 62.8976 36.0624 62.8976 36.1831 62.8701C36.8989 62.9169 37.5703 63.234 38.0612 63.7572C38.5521 64.2804 38.8258 64.9705 38.8271 65.6879V65.6883ZM58.9919 54.9931C59.5222 55.5234 59.8201 56.2426 59.8201 56.9926C59.8202 57.7425 59.5222 58.4618 58.9919 58.9921C58.4617 59.5224 57.7424 59.8204 56.9925 59.8204C56.2425 59.8204 55.5232 59.5225 54.9929 58.9922C54.4626 58.4619 54.1647 57.7426 54.1647 56.9927C54.1647 56.2427 54.4626 55.5235 54.9929 54.9932C55.5232 54.4628 56.2424 54.1649 56.9924 54.1649C57.7423 54.1649 58.4616 54.4628 58.9919 54.9931ZM35.9997 53.1222C32.6194 53.1222 29.3149 52.1198 26.5043 50.2418C23.6936 48.3638 21.503 45.6945 20.2094 42.5715C18.9158 39.4485 18.5773 36.012 19.2368 32.6966C19.8963 29.3812 21.5241 26.3358 23.9143 23.9456C26.3046 21.5553 29.35 19.9275 32.6653 19.2681C35.9807 18.6086 39.4172 18.9471 42.5402 20.2407C45.6633 21.5342 48.3326 23.7249 50.2106 26.5355C52.0886 29.3462 53.091 32.6506 53.091 36.0309C53.0858 40.5622 51.2835 44.9065 48.0794 48.1106C44.8753 51.3147 40.531 53.1171 35.9997 53.1222ZM65.6875 38.8274C65.1283 38.8274 64.5816 38.6615 64.1167 38.3508C63.6517 38.0401 63.2894 37.5985 63.0754 37.0819C62.8614 36.5653 62.8054 35.9968 62.9145 35.4483C63.0236 34.8999 63.2929 34.3961 63.6884 34.0007C64.0838 33.6053 64.5876 33.336 65.1361 33.2269C65.6845 33.1178 66.253 33.1738 66.7696 33.3878C67.2863 33.6018 67.7278 33.9642 68.0385 34.4292C68.3492 34.8941 68.515 35.4408 68.515 36C68.5142 36.7496 68.216 37.4683 67.6859 37.9984C67.1558 38.5285 66.4371 38.8266 65.6875 38.8274Z" fill="#1388F7"/>
</svg>
