<svg width="72" height="72" viewBox="0 0 72 72" fill="none" xmlns="http://www.w3.org/2000/svg">
<path d="M13.9763 36.0661C13.972 36.0661 13.9677 36.0661 13.9633 36.0661C13.959 36.0661 13.9547 36.0661 13.9504 36.0661C13.7157 36.0627 13.4918 35.9671 13.327 35.7999C13.1623 35.6327 13.0699 35.4074 13.07 35.1727C13.07 34.9358 12.9758 34.7086 12.8083 34.541C12.6408 34.3735 12.4135 34.2793 12.1766 34.2793C11.9396 34.2793 11.7124 34.3735 11.5449 34.541C11.3773 34.7086 11.2832 34.9358 11.2832 35.1727C11.284 35.7265 11.4561 36.2665 11.7761 36.7185C12.096 37.1706 12.548 37.5125 13.07 37.6974V38.0235C13.07 38.2605 13.1641 38.4877 13.3316 38.6552C13.4992 38.8228 13.7264 38.9169 13.9633 38.9169C14.2003 38.9169 14.4275 38.8228 14.5951 38.6552C14.7626 38.4877 14.8567 38.2605 14.8567 38.0235V37.6974C15.4528 37.4871 15.9553 37.0727 16.2753 36.5276C16.5953 35.9824 16.7121 35.3417 16.6051 34.7187C16.4982 34.0957 16.1743 33.5306 15.6909 33.1234C15.2074 32.7162 14.5955 32.4931 13.9633 32.4936C13.7867 32.4936 13.6139 32.4412 13.467 32.3431C13.3201 32.2449 13.2056 32.1054 13.138 31.9421C13.0704 31.7789 13.0527 31.5992 13.0871 31.4259C13.1216 31.2527 13.2067 31.0935 13.3316 30.9685C13.4566 30.8436 13.6158 30.7585 13.7891 30.724C13.9624 30.6896 14.142 30.7072 14.3052 30.7749C14.4685 30.8425 14.608 30.957 14.7062 31.1039C14.8043 31.2508 14.8567 31.4235 14.8567 31.6002C14.8567 31.8372 14.9509 32.0644 15.1184 32.232C15.2859 32.3995 15.5132 32.4936 15.7501 32.4936C15.9871 32.4936 16.2143 32.3995 16.3818 32.232C16.5494 32.0644 16.6435 31.8372 16.6435 31.6002C16.6425 31.0466 16.4703 30.5068 16.1504 30.055C15.8305 29.6031 15.3786 29.2613 14.8567 29.0764V28.8316C14.8567 28.5947 14.7626 28.3675 14.5951 28.1999C14.4275 28.0324 14.2003 27.9383 13.9633 27.9383C13.7264 27.9383 13.4992 28.0324 13.3316 28.1999C13.1641 28.3675 13.07 28.5947 13.07 28.8316V29.0763C12.4739 29.2867 11.9716 29.7011 11.6516 30.2463C11.3317 30.7914 11.2149 31.4321 11.3218 32.0551C11.4288 32.678 11.7526 33.2431 12.236 33.6503C12.7194 34.0575 13.3313 34.2807 13.9633 34.2802C14.2003 34.2785 14.4282 34.371 14.597 34.5373C14.7657 34.7037 14.8615 34.9302 14.8632 35.1671C14.8649 35.4041 14.7724 35.632 14.6061 35.8008C14.4398 35.9695 14.2132 36.0653 13.9763 36.067V36.0661Z" fill="#1388F7"/>
<path d="M69.9487 33.0221H69.8306L69.8886 33.0112L58.8246 9.84386C58.7506 9.69425 58.6354 9.56893 58.4926 9.48273C58.3497 9.39652 58.1851 9.35304 58.0183 9.35742C57.7794 9.37393 57.5545 9.47614 57.385 9.64524H42.3093C42.0957 9.07351 41.7116 8.58122 41.209 8.235C40.7064 7.88879 40.1095 7.70537 39.4992 7.70957H32.501C31.8907 7.70537 31.2939 7.88879 30.7912 8.235C30.2886 8.58122 29.9045 9.07351 29.6909 9.64524H14.6152C14.4453 9.47733 14.2204 9.37658 13.982 9.36159C13.814 9.35981 13.6491 9.40583 13.5063 9.49428C13.3635 9.58273 13.2489 9.70997 13.1757 9.86114L2.11115 33.0157L2.16922 33.0221H2.05159C1.81295 33.026 1.58545 33.1237 1.41827 33.294C1.25109 33.4643 1.15766 33.6936 1.15821 33.9323C1.15821 40.525 6.91099 45.8971 13.982 45.8971C21.0529 45.8971 26.8057 40.5208 26.8057 33.9281C26.8062 33.6899 26.7126 33.461 26.5454 33.2914C26.3781 33.1217 26.1506 33.0249 25.9123 33.0221H25.7943L25.8523 33.0289L15.5254 11.432H29.5082C29.6608 12.1108 30.0407 12.7171 30.585 13.1503C31.1293 13.5836 31.8053 13.8179 32.501 13.8144H35.1067V48.1265C29.6531 48.5211 25.3272 52.4865 25.1306 57.3688C23.7174 57.6179 22.4371 58.3565 21.5141 59.4552C20.5911 60.554 20.0844 61.9426 20.083 63.3776C20.0823 63.6166 20.1756 63.8462 20.3427 64.017C20.5098 64.1878 20.7375 64.286 20.9764 64.2905H51.0238C51.2628 64.286 51.4904 64.1878 51.6575 64.017C51.8247 63.8462 51.918 63.6166 51.9172 63.3776C51.9156 61.9437 51.4086 60.5564 50.4855 59.4592C49.5623 58.3621 48.2821 57.6254 46.8696 57.3787C46.6734 52.4962 42.3475 48.5208 36.8935 48.1265V13.8144H39.4992C40.1949 13.8179 40.8709 13.5836 41.4153 13.1503C41.9596 12.7171 42.3395 12.1108 42.492 11.432H56.4744L46.1479 33.0289L46.206 33.0221H46.0879C45.8493 33.026 45.6218 33.1237 45.4546 33.294C45.2874 33.4643 45.194 33.6936 45.1945 33.9323C45.1945 40.525 50.9473 45.8971 58.0183 45.8971C65.0892 45.8971 70.842 40.5208 70.842 33.9281C70.8425 33.6899 70.749 33.461 70.5817 33.2914C70.4144 33.1217 70.1869 33.0249 69.9487 33.0221ZM24.9768 34.8088C24.4844 40.0202 19.7413 44.0851 13.982 44.0851C8.22263 44.0851 3.47951 40.0202 2.98711 34.8088H6.5185V33.0221H4.07837L13.982 12.2773L23.8856 33.0221H21.4082V34.8088H24.9768ZM50.0374 62.5037H21.9627C22.1679 61.5402 22.6958 60.6755 23.4592 60.0528C24.2225 59.4301 25.1756 59.0866 26.1607 59.0791H45.8394C46.8245 59.0866 47.7776 59.4301 48.5409 60.0528C49.3043 60.6755 49.8322 61.5402 50.0374 62.5037ZM45.0778 57.2923H26.9225C27.1853 53.1232 31.1562 49.8906 36.0004 49.8906C40.8446 49.8906 44.8148 53.1232 45.0778 57.2923ZM39.4992 12.0276H32.501C32.1654 12.0276 31.8435 11.8942 31.6061 11.6569C31.3688 11.4195 31.2354 11.0976 31.2354 10.762C31.2354 10.4263 31.3688 10.1044 31.6061 9.86703C31.8435 9.62968 32.1654 9.49634 32.501 9.49634H39.4992C39.8349 9.49634 40.1568 9.62968 40.3941 9.86703C40.6315 10.1044 40.7648 10.4263 40.7648 10.762C40.7648 11.0976 40.6315 11.4195 40.3941 11.6569C40.1568 11.8942 39.8349 12.0276 39.4992 12.0276ZM58.0183 44.0851C52.2589 44.0851 47.5158 40.0202 47.0234 34.8088H54.91V33.0221H48.1147L58.0183 12.2773L67.9219 33.0221H61.1637V34.8088H69.0131C68.5207 40.0202 63.7776 44.0851 58.0183 44.0851Z" fill="#002766"/>
<path d="M13.9632 41.4737C15.6124 41.4737 17.2245 40.9847 18.5957 40.0685C19.9669 39.1523 21.0357 37.85 21.6668 36.3264C22.2979 34.8028 22.463 33.1263 22.1413 31.5088C21.8195 29.8913 21.0254 28.4056 19.8593 27.2395C18.6931 26.0734 17.2074 25.2792 15.5899 24.9575C13.9725 24.6358 12.2959 24.8009 10.7723 25.432C9.24872 26.0631 7.94646 27.1318 7.03025 28.503C6.11403 29.8743 5.625 31.4864 5.625 33.1355C5.62748 35.3462 6.50677 37.4656 8.06996 39.0288C9.63314 40.592 11.7526 41.4713 13.9632 41.4737ZM13.9632 26.584C15.259 26.584 16.5257 26.9683 17.603 27.6882C18.6804 28.408 19.5201 29.4312 20.016 30.6284C20.5119 31.8255 20.6416 33.1428 20.3888 34.4136C20.136 35.6845 19.5121 36.8519 18.5958 37.7681C17.6796 38.6843 16.5122 39.3083 15.2414 39.5611C13.9705 39.8139 12.6532 39.6841 11.4561 39.1883C10.259 38.6924 9.23577 37.8527 8.51589 36.7753C7.796 35.6979 7.41176 34.4313 7.41176 33.1355C7.4137 31.3985 8.10456 29.7333 9.33278 28.5051C10.561 27.2768 12.2263 26.586 13.9632 26.584Z" fill="#1388F7"/>
<path d="M53.7069 33.9381C54.0149 34.2353 54.2476 34.6018 54.3857 35.0069C54.5238 35.4121 54.5633 35.8444 54.501 36.2679L54.4454 36.6941C54.4246 36.8246 54.4301 36.9578 54.4615 37.0861C54.493 37.2144 54.5499 37.3351 54.6287 37.441C54.6639 37.49 54.7613 37.5339 54.7613 37.575V39.4779C54.754 40.0077 54.9569 40.5189 55.3255 40.8995C55.6941 41.2801 56.1984 41.4993 56.7282 41.5092H59.3437C59.8736 41.4994 60.3782 41.2804 60.7471 40.8998C61.116 40.5193 61.3194 40.0082 61.3127 39.4782V37.5372C61.4917 37.333 61.5961 37.0741 61.6087 36.8028C61.6087 36.7947 61.6148 36.7865 61.6144 36.7783L61.5776 36.0152C61.5776 36.0135 61.579 36.0121 61.579 36.0106C61.5511 35.6292 61.6069 35.2463 61.7426 34.8888C61.8783 34.5313 62.0905 34.2078 62.3644 33.9409C62.9919 33.3487 63.4919 32.6347 63.8338 31.8425C64.1757 31.0504 64.3524 30.1968 64.3529 29.334C64.3528 28.4706 64.1759 27.6163 63.8332 26.8237C63.4904 26.0312 62.9891 25.3172 62.36 24.7258C61.7309 24.1344 60.9873 23.678 60.1752 23.3847C59.3631 23.0915 58.4995 22.9676 57.6377 23.0208C54.4374 23.231 51.8393 25.893 51.7229 29.0781C51.6866 29.9829 51.8449 30.8851 52.1872 31.7235C52.5295 32.5619 53.0477 33.3171 53.7069 33.9381ZM59.3437 39.7224H56.7282C56.6132 39.7224 56.548 39.5933 56.548 39.4782V37.7868H59.526V39.4782C59.526 39.5933 59.4588 39.7224 59.3437 39.7224ZM53.5084 29.1463C53.5622 28.0295 54.0232 26.9711 54.8043 26.1711C55.5854 25.3711 56.6324 24.8849 57.7475 24.8044C58.366 24.7663 58.9858 24.8552 59.5686 25.0656C60.1515 25.2761 60.6851 25.6036 61.1365 26.0281C61.588 26.4526 61.9478 26.965 62.1937 27.5338C62.4397 28.1026 62.5666 28.7157 62.5666 29.3354C62.566 29.9492 62.439 30.5564 62.1934 31.119C61.9478 31.6817 61.5889 32.1876 61.1391 32.6054C60.6898 33.0456 60.3379 33.5752 60.1062 34.1599C59.8745 34.7447 59.7681 35.3715 59.794 36H56.3114C56.3309 35.3693 56.2185 34.7415 55.9814 34.1567C55.7444 33.572 55.3879 33.0431 54.9349 32.6039C54.4615 32.1648 54.0888 31.6284 53.8426 31.0315C53.5963 30.4346 53.4823 29.7914 53.5084 29.1463Z" fill="#1388F7"/>
</svg>
