<svg width="72" height="72" viewBox="0 0 72 72" fill="none" xmlns="http://www.w3.org/2000/svg">
<path d="M29.1136 34.7513C29.0189 34.6564 28.9063 34.5814 28.7823 34.5304C28.6583 34.4794 28.5255 34.4536 28.3914 34.4543C28.2574 34.4551 28.1249 34.4825 28.0015 34.5349C27.8781 34.5873 27.7664 34.6636 27.6728 34.7595C27.5791 34.8554 27.5055 34.969 27.4561 35.0936C27.4067 35.2182 27.3825 35.3513 27.3849 35.4853C27.3874 35.6194 27.4164 35.7515 27.4704 35.8742C27.5243 35.9969 27.6021 36.1077 27.6991 36.2001L33.12 41.4926C33.3092 41.6773 33.563 41.7807 33.8274 41.7807C34.0917 41.7807 34.3455 41.6773 34.5347 41.4926L44.3011 31.9583C44.4893 31.7698 44.5957 31.5148 44.5972 31.2485C44.5988 30.9822 44.4953 30.726 44.3093 30.5354C44.1232 30.3448 43.8696 30.2352 43.6033 30.2304C43.337 30.2255 43.0795 30.3257 42.8866 30.5094L33.8273 39.3537L29.1136 34.7513Z" fill="#1388F7"/>
<path d="M68.1595 30.2858L61.9088 29.6832C61.2497 27.0122 60.1755 24.4612 58.7255 22.1232L62.707 17.3153C62.8671 17.122 62.9497 16.8761 62.9387 16.6253C62.9278 16.3745 62.824 16.1367 62.6476 15.9581L56.0922 9.3193C55.9143 9.13892 55.6751 9.03181 55.4221 9.01913C55.169 9.00645 54.9204 9.0891 54.7253 9.25078L49.9104 13.2382C47.5706 11.7955 45.0236 10.7199 42.358 10.0488L41.756 3.8194C41.731 3.57103 41.6135 3.34117 41.4268 3.17547C41.24 3.00978 40.9978 2.92037 40.7483 2.92502H31.3354C31.0858 2.92037 30.8436 3.00978 30.6569 3.17547C30.4702 3.34117 30.3526 3.57103 30.3276 3.8194L29.725 10.0596C27.0542 10.7168 24.5032 11.7891 22.165 13.2375L17.3577 9.25315C17.1636 9.09215 16.9165 9.00934 16.6646 9.02092C16.4128 9.0325 16.1743 9.13764 15.9958 9.31575L9.35654 15.9549C9.17837 16.1331 9.07308 16.3714 9.06125 16.6232C9.04942 16.8749 9.13191 17.122 9.29259 17.3162L13.28 22.1308C11.8373 24.4706 10.7617 27.0177 10.0906 29.6834L3.8396 30.2858C3.58916 30.3101 3.35673 30.4268 3.18761 30.6131C3.01849 30.7994 2.9248 31.042 2.9248 31.2936V40.7065C2.92482 40.9582 3.01858 41.2008 3.1878 41.3871C3.35702 41.5735 3.58957 41.6901 3.84011 41.7142L10.0908 42.3168C10.7499 44.9878 11.8241 47.5389 13.2741 49.8768L9.29259 54.6842C9.13181 54.8784 9.04927 55.1256 9.0611 55.3774C9.07293 55.6292 9.17828 55.8676 9.35654 56.0458L15.9958 62.6853C16.1741 62.8636 16.4125 62.969 16.6644 62.9808C16.9162 62.9927 17.1635 62.9101 17.3577 62.7493L22.1726 58.7619C24.5124 60.2045 27.0594 61.2801 29.725 61.9512L30.3276 68.1813C30.3526 68.4297 30.4702 68.6595 30.6569 68.8252C30.8436 68.9909 31.0858 69.0803 31.3354 69.0757H40.7483C40.9978 69.0803 41.24 68.9909 41.4268 68.8252C41.6135 68.6595 41.731 68.4297 41.756 68.1813L42.3586 61.9411C45.0294 61.284 47.5805 60.2116 49.9186 58.7632L54.726 62.7469C54.92 62.9079 55.1671 62.9907 55.419 62.9791C55.6709 62.9675 55.9094 62.8624 56.0878 62.6843L62.7271 56.0455C62.9053 55.8672 63.0106 55.629 63.0224 55.3772C63.0342 55.1255 62.9517 54.8784 62.7911 54.6842L58.8037 49.8696C60.2463 47.5294 61.3219 44.9821 61.993 42.3162L68.161 41.7144C68.4113 41.6899 68.6435 41.5731 68.8124 41.3868C68.9813 41.2005 69.0749 40.9579 69.0748 40.7065V31.2936C69.0748 31.0419 68.981 30.7992 68.8118 30.6129C68.6426 30.4266 68.41 30.31 68.1595 30.2858ZM67.0498 39.7878L61.0725 40.3706C60.8591 40.3914 60.6578 40.4794 60.4976 40.622C60.3374 40.7645 60.2266 40.9542 60.1812 41.1638C59.5291 44.0972 58.3516 46.8883 56.7054 49.4023C56.5888 49.5832 56.5327 49.7965 56.5455 50.0113C56.5583 50.2261 56.6392 50.4313 56.7765 50.5971L60.6427 55.2659L55.307 60.6016L50.6389 56.7353C50.4711 56.5964 50.263 56.5153 50.0455 56.504C49.8279 56.4927 49.6125 56.5519 49.4313 56.6727C46.9286 58.3286 44.1395 59.5042 41.2066 60.1394C40.9984 60.1803 40.8089 60.2871 40.666 60.444C40.5232 60.601 40.4347 60.7997 40.4135 61.0108L39.8286 67.05H32.2551L31.6709 61.0108C31.65 60.7984 31.5618 60.5983 31.4191 60.4396C31.2764 60.2809 31.0867 60.1721 30.8777 60.1289C27.945 59.4788 25.1542 58.3032 22.6402 56.6591C22.4591 56.5428 22.2457 56.4872 22.0309 56.5005C21.8161 56.5137 21.6111 56.595 21.4456 56.7326L16.7766 60.6002L11.4409 55.2652L15.3065 50.5969C15.4454 50.4292 15.5265 50.2211 15.5378 50.0037C15.5491 49.7862 15.49 49.5709 15.3693 49.3897C13.7131 46.887 12.5374 44.0978 11.9023 41.1648C11.8568 40.9551 11.7459 40.7653 11.5855 40.6227C11.4251 40.4802 11.2235 40.3922 11.01 40.3717L4.9498 39.7868V32.2133L11.0101 31.6292C11.2237 31.6086 11.4252 31.5207 11.5856 31.3782C11.746 31.2356 11.857 31.0458 11.9025 30.8361C12.5544 27.9031 13.7318 25.1123 15.3775 22.5986C15.4942 22.4177 15.5502 22.2044 15.5375 21.9896C15.5247 21.7747 15.4438 21.5696 15.3065 21.4038L11.4403 16.735L16.776 11.3993L21.4449 15.2655C21.6127 15.4045 21.8208 15.4856 22.0383 15.4968C22.2558 15.5081 22.4711 15.449 22.6524 15.3281C25.1551 13.6723 27.9441 12.4967 30.8771 11.8615C31.0853 11.8206 31.2748 11.7138 31.4176 11.5569C31.5604 11.3999 31.649 11.2012 31.6702 10.9901L32.2551 4.95002H39.8286L40.4128 10.9892C40.4336 11.2016 40.5218 11.4018 40.6645 11.5604C40.8072 11.7191 40.9969 11.828 41.2059 11.8711C44.1386 12.5213 46.9294 13.6968 49.4434 15.341C49.6245 15.4573 49.838 15.5129 50.0529 15.4996C50.2677 15.4864 50.4727 15.4051 50.6382 15.2674L55.3024 11.403L60.5625 16.7301L56.6929 21.4031C56.5541 21.5709 56.473 21.7789 56.4617 21.9964C56.4504 22.2139 56.5096 22.4292 56.6303 22.6104C58.2865 25.1131 59.4622 27.9022 60.0973 30.8353C60.1428 31.045 60.2538 31.2348 60.4141 31.3773C60.5745 31.5199 60.7761 31.6078 60.9897 31.6284L67.0498 32.2133V39.7878Z" fill="#002766"/>
<path d="M36.0417 16.6612C32.2169 16.6612 28.4779 17.7955 25.2977 19.9205C22.1175 22.0454 19.6388 25.0658 18.1752 28.5995C16.7115 32.1331 16.3285 36.0215 17.0747 39.7729C17.821 43.5242 19.6628 46.97 22.3674 49.6746C25.072 52.3791 28.5178 54.2209 32.2691 54.9671C36.0205 55.7133 39.9088 55.3303 43.4425 53.8666C46.9762 52.4029 49.9965 49.9242 52.1215 46.744C54.2464 43.5637 55.3806 39.8248 55.3806 36C55.3747 30.8728 53.3353 25.9573 49.7099 22.3318C46.0844 18.7064 41.1689 16.6671 36.0417 16.6612ZM36.0417 53.3137C32.6174 53.3137 29.27 52.2982 26.4228 50.3957C23.5755 48.4932 21.3564 45.7892 20.046 42.6255C18.7356 39.4618 18.3928 35.9806 19.0608 32.6221C19.7289 29.2636 21.3779 26.1786 23.7993 23.7572C26.2206 21.3359 29.3057 19.6869 32.6642 19.0189C36.0227 18.3508 39.5039 18.6937 42.6676 20.0042C45.8313 21.3146 48.5353 23.5337 50.4377 26.381C52.3402 29.2282 53.3556 32.5756 53.3556 36C53.3504 40.5903 51.5245 44.991 48.2787 48.2369C45.0328 51.4827 40.632 53.3085 36.0417 53.3137Z" fill="#002766"/>
</svg>
