<svg width="72" height="72" viewBox="0 0 72 72" fill="none" xmlns="http://www.w3.org/2000/svg">
<path d="M34.0188 47.7844C35.3108 47.7844 36.5807 47.7432 37.8285 47.6609V47.2219C35.8672 47.5059 33.8918 47.6816 31.9111 47.748C32.6074 47.7722 33.31 47.7844 34.0188 47.7844Z" fill="#D4E1F4"/>
<path d="M45.0066 4.1871C40.9328 2.71279 35.5295 1.90096 29.7997 1.90096C24.0699 1.90096 18.6772 2.71279 14.6035 4.1871C10.2604 5.75901 7.875 7.95782 7.875 10.3781V53.8719C7.875 56.2939 10.258 58.493 14.6005 60.0643C18.6733 61.5381 24.0684 62.3496 29.7997 62.3496C33.6568 62.3496 37.4392 61.974 40.7417 61.2636L40.3858 59.6137C37.1978 60.2996 33.5355 60.6621 29.7959 60.6621C24.2553 60.6621 19.0683 59.8861 15.175 58.4775C11.603 57.1849 9.5625 55.5062 9.5625 53.8719V42.6736C10.6875 43.7424 12.396 44.7019 14.6005 45.5002C18.6733 46.9738 24.0684 47.7855 29.7997 47.7855C32.8457 47.7962 35.8872 47.5516 38.8924 47.0542L38.6089 45.3905C35.6961 45.872 32.7482 46.1087 29.7959 46.098C24.2553 46.098 19.0683 45.322 15.175 43.9134C11.603 42.6202 9.5625 40.9416 9.5625 39.3072V28.2094C10.6875 29.2781 12.396 30.2376 14.6005 31.0359C18.6733 32.5097 24.0682 33.3212 29.7997 33.3212C35.5312 33.3212 40.9372 32.5097 45.0094 31.0359C47.2141 30.2376 48.9375 29.2781 50.0625 28.2094V38.3906H51.75V10.3781C51.75 7.95782 49.3497 5.75901 45.0066 4.1871ZM44.4331 29.4486C40.5399 30.8573 35.3402 31.633 29.7997 31.633C24.2592 31.633 19.07 30.8573 15.1768 29.4486C11.6048 28.1561 9.5625 26.4773 9.5625 24.8429V13.7438C10.6875 14.8126 12.3962 15.7719 14.6014 16.5704C18.6751 18.0447 24.0699 18.8567 29.7997 18.8567C35.5295 18.8567 40.935 18.0447 45.0087 16.5704C47.2139 15.7724 48.9375 14.8126 50.0625 13.7438V24.8429C50.0625 26.4773 48.0053 28.1561 44.4331 29.4486ZM44.4234 14.9833C40.529 16.3925 35.334 17.1688 29.7949 17.1688C24.2558 17.1688 19.0609 16.3925 15.1665 14.9833C11.5944 13.6904 9.54548 12.012 9.54548 10.3781C9.54548 8.7442 11.5944 7.0664 15.167 5.77349C19.0614 4.36401 24.2565 3.5879 29.7953 3.5879C35.3341 3.5879 40.5294 4.36457 44.4234 5.77406C47.9953 7.06696 50.0449 8.74518 50.0449 10.3787C50.0449 12.0122 47.9964 13.6904 44.4234 14.9833Z" fill="#002766"/>
<path d="M35.6705 24.0732C33.7188 24.278 31.7576 24.3797 29.7951 24.3777C27.3401 24.3826 24.8877 24.2213 22.4545 23.895C22.3443 23.8791 22.232 23.8852 22.1242 23.9128C22.0164 23.9405 21.9151 23.9893 21.8262 24.0563C21.7373 24.1233 21.6625 24.2072 21.6062 24.3032C21.5499 24.3992 21.5131 24.5055 21.498 24.6158C21.4829 24.7261 21.4898 24.8382 21.5183 24.9459C21.5468 25.0535 21.5963 25.1544 21.6639 25.2428C21.7316 25.3312 21.816 25.4054 21.9125 25.461C22.0089 25.5166 22.1154 25.5526 22.2258 25.5669C24.7349 25.9036 27.2639 26.0701 29.7955 26.0653C31.8177 26.0672 33.8386 25.9623 35.8497 25.751C35.9612 25.7409 36.0695 25.7087 36.1684 25.6563C36.2673 25.6039 36.3548 25.5324 36.4258 25.4459C36.4968 25.3593 36.5499 25.2596 36.582 25.1523C36.614 25.0451 36.6244 24.9326 36.6126 24.8213C36.6007 24.71 36.5668 24.6022 36.5129 24.5041C36.459 24.406 36.3861 24.3196 36.2984 24.25C36.2108 24.1804 36.1102 24.1289 36.0025 24.0985C35.8947 24.0682 35.7821 24.0595 35.671 24.0732H35.6705Z" fill="#002766"/>
<path d="M42.034 21.0248C41.5355 21.0248 41.0482 21.1726 40.6337 21.4496C40.2193 21.7265 39.8963 22.1201 39.7055 22.5807C39.5148 23.0412 39.4649 23.548 39.5621 24.0368C39.6594 24.5257 39.8994 24.9748 40.2519 25.3273C40.6044 25.6797 41.0535 25.9197 41.5424 26.017C42.0313 26.1142 42.538 26.0643 42.9985 25.8735C43.459 25.6827 43.8526 25.3597 44.1296 24.9452C44.4065 24.5307 44.5543 24.0434 44.5542 23.545C44.5535 22.8768 44.2877 22.2362 43.8152 21.7637C43.3427 21.2913 42.7021 21.0255 42.034 21.0248ZM42.034 24.3777C41.8692 24.3777 41.7082 24.3289 41.5713 24.2374C41.4343 24.1459 41.3276 24.0158 41.2646 23.8637C41.2015 23.7115 41.185 23.544 41.2172 23.3825C41.2493 23.221 41.3286 23.0726 41.4451 22.9561C41.5616 22.8396 41.7099 22.7603 41.8715 22.7282C42.033 22.6961 42.2005 22.7125 42.3526 22.7756C42.5048 22.8386 42.6349 22.9453 42.7264 23.0823C42.8179 23.2192 42.8667 23.3803 42.8667 23.545C42.8665 23.7658 42.7787 23.9775 42.6226 24.1336C42.4664 24.2897 42.2548 24.3775 42.034 24.3777Z" fill="#002766"/>
<path d="M35.6705 38.3233C33.7188 38.5282 31.7576 38.63 29.7951 38.628C27.3401 38.6329 24.8876 38.4716 22.4545 38.1453C22.3443 38.1294 22.232 38.1354 22.1242 38.1631C22.0164 38.1908 21.9151 38.2395 21.8262 38.3065C21.7373 38.3735 21.6625 38.4575 21.6062 38.5535C21.5499 38.6495 21.5131 38.7557 21.498 38.866C21.4829 38.9763 21.4898 39.0885 21.5183 39.1961C21.5468 39.3038 21.5963 39.4047 21.6639 39.4931C21.7316 39.5815 21.816 39.6557 21.9125 39.7113C22.0089 39.7669 22.1154 39.8029 22.2258 39.8172C24.7349 40.1539 27.2639 40.3204 29.7955 40.3155C31.8177 40.3175 33.8386 40.2125 35.8497 40.0012C35.9606 39.9904 36.0683 39.9578 36.1665 39.9051C36.2648 39.8525 36.3516 39.7809 36.422 39.6945C36.4924 39.6081 36.545 39.5086 36.5768 39.4018C36.6085 39.295 36.6188 39.1829 36.607 39.0721C36.5952 38.9613 36.5615 38.8539 36.508 38.7561C36.4544 38.6584 36.3821 38.5722 36.295 38.5026C36.208 38.433 36.1081 38.3813 36.0009 38.3505C35.8938 38.3197 35.7817 38.3105 35.671 38.3233H35.6705Z" fill="#002766"/>
<path d="M42.034 35.2749C41.5355 35.2749 41.0482 35.4227 40.6338 35.6997C40.2193 35.9766 39.8963 36.3702 39.7055 36.8308C39.5148 37.2913 39.4649 37.798 39.5621 38.2869C39.6593 38.7758 39.8994 39.2249 40.2518 39.5773C40.6043 39.9298 41.0534 40.1698 41.5423 40.2671C42.0312 40.3643 42.5379 40.3144 42.9984 40.1237C43.459 39.9329 43.8526 39.6099 44.1295 39.1954C44.4064 38.781 44.5542 38.2937 44.5542 37.7952C44.5535 37.127 44.2877 36.4864 43.8152 36.0139C43.3428 35.5414 42.7022 35.2757 42.034 35.2749ZM42.034 38.628C41.8693 38.628 41.7082 38.5792 41.5713 38.4877C41.4343 38.3961 41.3276 38.2661 41.2646 38.1139C41.2015 37.9617 41.185 37.7943 41.2172 37.6328C41.2493 37.4712 41.3286 37.3228 41.4451 37.2064C41.5616 37.0899 41.7099 37.0106 41.8715 36.9784C42.033 36.9463 42.2005 36.9628 42.3527 37.0258C42.5048 37.0889 42.6349 37.1956 42.7264 37.3326C42.8179 37.4695 42.8667 37.6305 42.8667 37.7952C42.8665 38.016 42.7787 38.2277 42.6226 38.3838C42.4665 38.54 42.2548 38.6278 42.034 38.628Z" fill="#002766"/>
<path d="M35.6705 52.5734C33.7188 52.7783 31.7576 52.8801 29.7951 52.8781C27.3401 52.883 24.8877 52.7217 22.4545 52.3955C22.3443 52.3796 22.232 52.3856 22.1242 52.4133C22.0164 52.441 21.9151 52.4897 21.8262 52.5567C21.7373 52.6237 21.6625 52.7077 21.6062 52.8037C21.5499 52.8997 21.5131 53.0059 21.498 53.1162C21.4829 53.2265 21.4898 53.3387 21.5183 53.4464C21.5468 53.554 21.5963 53.6549 21.6639 53.7433C21.7316 53.8317 21.816 53.9059 21.9125 53.9615C22.0089 54.0171 22.1154 54.0531 22.2258 54.0674C24.7349 54.4041 27.2639 54.5705 29.7955 54.5656C31.8177 54.5676 33.8386 54.4627 35.8497 54.2513C35.9606 54.2405 36.0683 54.2078 36.1665 54.1552C36.2648 54.1026 36.3516 54.031 36.422 53.9446C36.4924 53.8582 36.545 53.7587 36.5768 53.6519C36.6085 53.545 36.6188 53.433 36.607 53.3222C36.5952 53.2113 36.5615 53.1039 36.508 53.0062C36.4544 52.9084 36.3821 52.8223 36.295 52.7527C36.208 52.683 36.1081 52.6313 36.0009 52.6006C35.8938 52.5698 35.7817 52.5606 35.671 52.5734H35.6705Z" fill="#002766"/>
<path d="M63.6867 44.2209L51.2156 37.5733C51.0924 37.5073 50.9547 37.4731 50.8149 37.474C50.6751 37.4748 50.5378 37.5105 50.4153 37.5779L38.2759 44.2256C38.142 44.2978 38.03 44.4045 37.9512 44.5346C37.8725 44.6647 37.83 44.8135 37.8281 44.9655V52.6359C37.8338 56.1733 38.8695 59.6325 40.8088 62.5909C42.7481 65.5493 45.5071 67.8788 48.7486 69.2949L50.4374 70.0287C50.544 70.0749 50.659 70.0988 50.7751 70.099C50.8913 70.0992 51.0063 70.0757 51.1131 70.0298L53.0011 69.2111C56.2986 67.8252 59.1134 65.4964 61.0923 62.5168C63.0712 59.5372 64.1261 56.0395 64.1246 52.4627V44.9655C64.1263 44.8133 64.0865 44.6635 64.0093 44.5323C63.9321 44.401 63.8206 44.2934 63.6867 44.2209ZM62.4375 52.4632C62.4386 55.7087 61.481 58.8823 59.6849 61.5855C57.8889 64.2887 55.3344 66.4012 52.342 67.6579C52.3401 67.6587 52.342 67.6596 52.3403 67.6606L50.7794 68.3356L49.4235 67.7488C46.4828 66.4639 43.98 64.3506 42.2205 61.6668C40.461 58.983 39.5212 55.845 39.5156 52.6359V45.4653L50.8095 39.2766L62.4375 45.4719V52.4632Z" fill="#1388F7"/>
<path d="M46.8281 48.8647V51.3883C46.3776 51.5439 45.9867 51.8358 45.7096 52.2235C45.4324 52.6112 45.2827 53.0755 45.2812 53.5521V60.5834C45.2812 61.8241 46.2393 62.8594 47.4801 62.8594H54.5113C55.1159 62.8548 55.6947 62.6143 56.1246 62.1892C56.5544 61.764 56.8013 61.1878 56.8125 60.5834V53.5521C56.8092 53.0558 56.642 52.5745 56.3368 52.1832C56.0316 51.7918 55.6055 51.5124 55.125 51.3883V48.8647C55.125 47.7644 54.6879 46.7092 53.91 45.9313C53.132 45.1533 52.0768 44.7162 50.9766 44.7162C49.8763 44.7162 48.8212 45.1533 48.0432 45.9313C47.2652 46.7092 46.8281 47.7644 46.8281 48.8647ZM55.125 60.6094C55.125 60.7586 55.0657 60.9016 54.9602 61.0071C54.8548 61.1126 54.7117 61.1719 54.5625 61.1719H47.5312C47.3821 61.1719 47.239 61.1126 47.1335 61.0071C47.028 60.9016 46.9688 60.7586 46.9688 60.6094V53.5781C46.9688 53.4289 47.028 53.2859 47.1335 53.1804C47.239 53.0749 47.3821 53.0156 47.5312 53.0156H54.5625C54.7117 53.0156 54.8548 53.0749 54.9602 53.1804C55.0657 53.2859 55.125 53.4289 55.125 53.5781V60.6094ZM50.9766 46.4271C51.6252 46.427 52.2477 46.6831 52.7085 47.1396C53.1694 47.5961 53.4313 48.216 53.4375 48.8647V51.3281H48.5156V48.8647C48.5218 48.216 48.7838 47.5961 49.2446 47.1396C49.7055 46.6831 50.3279 46.427 50.9766 46.4271Z" fill="#1388F7"/>
</svg>
