<svg width="72" height="72" viewBox="0 0 72 72" fill="none" xmlns="http://www.w3.org/2000/svg">
<path d="M31.4786 50.8791C31.5873 50.9237 31.7037 50.9465 31.8211 50.9465C31.9623 50.9467 32.1014 50.9126 32.2265 50.8471C32.3516 50.7817 32.459 50.6868 32.5393 50.5707L35.5784 46.0243V44.6295L31.418 50.8532L31.4786 50.8791Z" fill="#D4E1F4"/>
<path d="M63.257 31.4823L68.8641 30.6906C69.0407 30.6657 69.2048 30.5855 69.333 30.4616C69.4611 30.3376 69.5467 30.1763 69.5775 30.0007C69.6082 29.8251 69.5826 29.6442 69.5042 29.4841C69.4258 29.324 69.2987 29.1928 69.1412 29.1094L47.0834 17.4253L46.2935 18.9159L66.0529 29.3826L61.8325 29.9793L44.5865 21.2698L43.8257 22.7762L60.0184 30.9535L36.4024 41.21L12.7873 30.9535L28.4678 23.0344L27.707 21.528L10.6739 30.1302L5.38391 29.3832L26.1099 18.4043L25.32 16.9137L2.29565 29.1094C2.13808 29.1928 2.01099 29.324 1.93261 29.4841C1.85422 29.6442 1.82857 29.8251 1.85934 30.0007C1.89011 30.1763 1.97571 30.3376 2.10386 30.4616C2.23202 30.5855 2.39614 30.6657 2.57268 30.6906L9.43011 31.6588L2.79473 41.5848C2.72576 41.688 2.6804 41.8051 2.66188 41.9278C2.64336 42.0505 2.65213 42.1757 2.68757 42.2947C2.71798 42.4122 2.77451 42.5214 2.85296 42.6141C2.9314 42.7068 3.02975 42.7806 3.14066 42.83L9.98404 45.7528V54.7255C9.989 54.8766 10.0333 55.0238 10.1127 55.1525C10.192 55.2812 10.3036 55.387 10.4364 55.4593L35.9739 69.9414C36.1032 70.0134 36.2487 70.0512 36.3966 70.0512C36.5436 70.0512 36.688 70.0134 36.8161 69.9414L62.3157 55.4593C62.4424 55.3843 62.5466 55.2766 62.6175 55.1475C62.6883 55.0184 62.7232 54.8727 62.7184 54.7255V45.7528L69.6128 42.83C69.7287 42.7819 69.8327 42.709 69.9176 42.6166C70.0024 42.5241 70.0661 42.4142 70.1042 42.2947C70.1407 42.1762 70.1507 42.0512 70.1333 41.9285C70.1159 41.8058 70.0716 41.6884 70.0036 41.5848L63.257 31.4823ZM11.1706 32.0913L34.9925 42.4373L28.7076 51.8646L4.76362 41.6761L11.1706 32.0913ZM11.6715 46.4708L28.6654 53.6916C28.7741 53.7361 28.8905 53.759 29.0081 53.759C29.1493 53.7592 29.2884 53.7251 29.4135 53.6596C29.5386 53.5942 29.6459 53.4993 29.7262 53.3832L35.5778 44.6295V67.7586L11.6715 54.2341V46.4708ZM61.0309 54.2341L37.2653 67.7586V44.6295L43.0917 53.3832C43.1677 53.4987 43.2713 53.5935 43.393 53.6591C43.5148 53.7247 43.6509 53.759 43.7892 53.759C43.8934 53.7589 43.9963 53.7359 44.0907 53.6916L61.0309 46.4708V54.2341ZM44.098 51.8646L37.8137 42.4373L61.6356 32.0913L68.0426 41.6761L44.098 51.8646Z" fill="#002766"/>
<path d="M27.6532 23.0344C28.4143 23.767 28.9901 24.6703 29.3328 25.6696C29.6754 26.6689 29.7752 27.7355 29.6238 28.781L29.5037 29.7027C29.4737 29.8402 29.4726 29.9825 29.5004 30.1204C29.5283 30.2584 29.5845 30.3891 29.6655 30.5042C29.7809 30.6517 29.9267 30.7726 30.093 30.8586V35.3617C30.0984 36.2011 30.4345 37.0046 31.0283 37.5979C31.6222 38.1913 32.426 38.5266 33.2654 38.5312H38.7346C39.5738 38.5266 40.3773 38.1913 40.9709 37.598C41.5645 37.0048 41.9003 36.2016 41.9055 35.3624V30.8153C42.0125 30.7688 42.1053 30.6949 42.1745 30.6011C42.2765 30.4935 42.356 30.3667 42.4084 30.2281C42.4609 30.0895 42.4853 29.9419 42.4803 29.7938C42.4803 29.7859 42.477 29.7779 42.4766 29.77L42.3912 28.1742C42.3912 28.1727 42.3903 28.1712 42.3903 28.1698C42.2764 26.1952 42.9914 24.324 44.3513 23.0377C44.522 22.8771 44.6899 22.7094 44.8509 22.5394C46.5333 20.76 47.6416 18.5159 48.0318 16.0984C48.4221 13.681 48.0762 11.2021 47.0391 8.98377C46.002 6.76548 44.3218 4.91039 42.2166 3.65956C40.1114 2.40874 37.6787 1.82 35.2346 1.96986C29.0593 2.37556 24.0462 7.50936 23.8221 13.6547C23.7527 15.4012 24.0588 17.1422 24.7197 18.7603C25.3806 20.3784 26.3809 21.8359 27.6532 23.0344ZM38.7344 36.8437H33.2654C32.8735 36.8396 32.4987 36.6823 32.2213 36.4055C31.9438 36.1287 31.7856 35.7543 31.7805 35.3624V30.9375H40.218V35.3624C40.2133 35.7542 40.0554 36.1285 39.7782 36.4053C39.5009 36.6822 39.1263 36.8395 38.7346 36.8437H38.7344ZM35.9993 21.3547C35.7768 21.3547 35.5593 21.2888 35.3743 21.1651C35.1893 21.0415 35.0451 20.8658 34.9599 20.6603C34.8748 20.4547 34.8525 20.2285 34.8959 20.0103C34.9393 19.792 35.0465 19.5916 35.2038 19.4342C35.3611 19.2769 35.5616 19.1698 35.7798 19.1264C35.998 19.0829 36.2242 19.1052 36.4298 19.1904C36.6354 19.2755 36.8111 19.4197 36.9347 19.6047C37.0583 19.7897 37.1243 20.0072 37.1243 20.2297C37.1239 20.528 37.0053 20.814 36.7944 21.0249C36.5835 21.2358 36.2975 21.3544 35.9993 21.3547ZM25.5087 13.7188C25.7019 8.42427 30.0227 4.00302 35.3383 3.65385C37.4446 3.52439 39.5412 4.03152 41.3555 5.10931C43.1697 6.18711 44.6179 7.78573 45.5116 9.6974C46.4053 11.6091 46.7034 13.7454 46.367 15.8287C46.0306 17.9119 45.0753 19.8459 43.6252 21.3791C43.4866 21.5255 43.3419 21.6699 43.1931 21.8098C41.4699 23.4399 40.5634 25.7846 40.7049 28.2562L40.7575 29.2496H36.843V22.9126C37.484 22.711 38.0317 22.2866 38.3868 21.7161C38.742 21.1457 38.8812 20.467 38.7792 19.8028C38.6772 19.1386 38.3408 18.5329 37.8309 18.0953C37.321 17.6577 36.6712 17.4171 35.9993 17.4171C35.3273 17.4171 34.6776 17.6577 34.1677 18.0953C33.6577 18.5329 33.3213 19.1386 33.2194 19.8028C33.1174 20.467 33.2566 21.1457 33.6117 21.7161C33.9669 22.2866 34.5145 22.711 35.1555 22.9126V29.25H31.2625L31.2959 29.0004C31.4833 27.6901 31.3558 26.354 30.9241 25.1028C30.4924 23.8516 29.7688 22.7213 28.8133 21.8053C27.7158 20.7726 26.8527 19.5163 26.2826 18.1213C25.7125 16.7263 25.4485 15.2252 25.5087 13.7194V13.7188Z" fill="#1388F7"/>
</svg>
