<svg width="72" height="72" viewBox="0 0 72 72" fill="none" xmlns="http://www.w3.org/2000/svg">
<g clip-path="url(#clip0)">
<path d="M16.3629 21.1994H31.6247C32.1367 21.1994 32.5521 20.784 32.5521 20.2721C32.5521 19.7595 32.1367 19.3447 31.6247 19.3447H16.3629C15.8509 19.3447 15.4355 19.7595 15.4355 20.2721C15.4355 20.784 15.8509 21.1994 16.3629 21.1994Z" fill="#002766"/>
<path d="M34.7108 27.3606C34.7108 26.8486 34.2961 26.4332 33.7835 26.4332H24.233C23.7204 26.4332 23.3057 26.8486 23.3057 27.3606C23.3057 27.8731 23.7204 28.2879 24.233 28.2879H33.7835C34.2961 28.2879 34.7108 27.8731 34.7108 27.3606Z" fill="#002766"/>
<path d="M16.3629 28.2879H20.5166C21.0286 28.2879 21.4439 27.8731 21.4439 27.3606C21.4439 26.8486 21.0286 26.4332 20.5166 26.4332H16.3629C15.8509 26.4332 15.4355 26.8486 15.4355 27.3606C15.4355 27.8731 15.8509 28.2879 16.3629 28.2879Z" fill="#002766"/>
<path d="M53.4867 6.31384C53.3829 6.31384 53.2803 6.31686 53.1776 6.32169V6.31384H16.1378C12.2444 6.32592 9.07958 9.45931 9.02826 13.3528L8.71553 48.882H0.927338C0.41537 48.882 0 49.2974 0 49.8094V55.5545C0 60.8191 4.09152 65.1255 9.20093 65.3435V65.3544H38.8582V65.3381C39.0363 65.3483 39.2162 65.3544 39.3968 65.3544C44.6945 65.3544 49.0046 60.958 49.0046 55.5551C49.0046 55.0432 48.5892 54.6278 48.0773 54.6278C47.5653 54.6278 47.1499 55.0432 47.1499 55.5551C47.1499 59.9364 43.6724 63.4997 39.3919 63.4997C35.1175 63.4997 31.6394 59.9352 31.6394 55.5551V49.8094C31.6394 49.2974 31.224 48.882 30.712 48.882H10.5702L10.8835 13.3703C10.9216 10.4929 13.2604 8.17757 16.1385 8.16852H49.0125C47.8195 9.35486 47.1493 10.968 47.1505 12.6507V26.7696C47.1505 27.2816 47.5659 27.697 48.0779 27.697C48.5898 27.697 49.0052 27.2816 49.0052 26.7696V23.6242H58.8968C59.4088 23.6242 59.8242 23.2088 59.8242 22.6968V12.6507C59.8205 9.152 56.9848 6.31747 53.4867 6.31384ZM33.779 63.4997H9.60724C5.3328 63.4997 1.85468 59.9352 1.85468 55.5551V50.7367H29.7847V55.5545C29.7768 58.6873 31.2602 61.6372 33.779 63.4997ZM57.9689 21.7695H49.0046V12.6507C49.0046 10.1753 51.0114 8.16852 53.4867 8.16852C55.9621 8.16852 57.9689 10.1753 57.9689 12.6507V21.7695Z" fill="#002766"/>
<path d="M40.4677 21.1994C40.9797 21.1994 41.3951 20.784 41.3951 20.2721C41.3951 19.7595 40.9797 19.3447 40.4677 19.3447H35.3004C34.7884 19.3447 34.373 19.7595 34.373 20.2721C34.373 20.784 34.7884 21.1994 35.3004 21.1994H40.4677Z" fill="#002766"/>
<path d="M29.6098 34.161H21.1412C20.6286 34.161 20.2139 34.5764 20.2139 35.0883C20.2139 35.6009 20.6286 36.0157 21.1412 36.0157H29.6098C30.1224 36.0157 30.5371 35.6009 30.5371 35.0883C30.5371 34.5764 30.1224 34.161 29.6098 34.161Z" fill="#002766"/>
<path d="M16.3629 36.0157H17.4255C17.9374 36.0157 18.3528 35.6009 18.3528 35.0883C18.3528 34.5764 17.9374 34.161 17.4255 34.161H16.3629C15.8509 34.161 15.4355 34.5764 15.4355 35.0883C15.4355 35.6009 15.8509 36.0157 16.3629 36.0157Z" fill="#002766"/>
<path d="M29.6105 41.8889H28.8697C28.3572 41.8889 27.9424 42.3042 27.9424 42.8162C27.9424 43.3288 28.3572 43.7435 28.8697 43.7435H29.6105C30.1231 43.7435 30.5378 43.3288 30.5378 42.8162C30.5378 42.3042 30.1231 41.8889 29.6105 41.8889Z" fill="#002766"/>
<path d="M16.3629 43.7435H25.1533C25.6652 43.7435 26.0806 43.3288 26.0806 42.8162C26.0806 42.3042 25.6652 41.8889 25.1533 41.8889H16.3629C15.8509 41.8889 15.4355 42.3042 15.4355 42.8162C15.4355 43.3288 15.8509 43.7435 16.3629 43.7435Z" fill="#002766"/>
<path d="M70.8911 59.396L65.9845 54.4894C65.5625 54.0668 64.8773 54.0668 64.4547 54.4894L63.307 55.6371L59.1031 51.4333C64.413 45.3072 64.0906 36.1208 58.3654 30.3817C52.4325 24.4457 42.8463 24.3322 36.7746 30.1257C30.7022 35.9191 30.3665 45.5004 36.0175 51.7056C41.6679 57.9102 51.2389 58.4686 57.5733 52.9632L61.7771 57.167L60.6294 58.3147C60.2074 58.7373 60.2074 59.4226 60.6294 59.8446L65.5353 64.7511C67.0145 66.2297 69.4119 66.2297 70.8905 64.7511C72.3696 63.272 72.3696 60.8745 70.8911 59.396ZM40.7556 52.7833C39.7685 52.2061 38.8593 51.5046 38.0509 50.6956C33.1111 45.7437 32.8642 37.807 37.487 32.5581C42.1092 27.3086 50.0133 26.5498 55.5502 30.8242C61.0864 35.0986 62.3537 42.9369 58.4457 48.7382C54.5371 54.5389 46.7966 56.3091 40.7556 52.7833ZM69.3606 63.2206C68.7273 63.8546 67.6997 63.8546 67.0658 63.2206L62.9248 59.0796L65.2196 56.7848L69.3606 60.9271C69.9945 61.5604 69.9945 62.5879 69.3606 63.2219V63.2206Z" fill="#1388F7"/>
<path fill-rule="evenodd" clip-rule="evenodd" d="M47.6104 51.0355C53.1332 51.0355 57.6104 46.5583 57.6104 41.0355C57.6104 35.5126 53.1332 31.0355 47.6104 31.0355C42.0875 31.0355 37.6104 35.5126 37.6104 41.0355C37.6104 46.5583 42.0875 51.0355 47.6104 51.0355ZM47.6104 49.0355C52.0286 49.0355 55.6104 45.4537 55.6104 41.0355C55.6104 36.6172 52.0286 33.0355 47.6104 33.0355C43.1921 33.0355 39.6104 36.6172 39.6104 41.0355C39.6104 45.4537 43.1921 49.0355 47.6104 49.0355Z" fill="#1388F7"/>
<path d="M48.5127 37.0683C48.5127 36.516 48.065 36.0683 47.5127 36.0683C46.9604 36.0683 46.5127 36.516 46.5127 37.0683V41.0289C46.5127 41.5812 46.9604 42.0289 47.5127 42.0289H53.0222C53.5744 42.0289 54.0222 41.5812 54.0222 41.0289C54.0222 40.4766 53.5744 40.0289 53.0222 40.0289H48.5127V37.0683Z" fill="#1388F7"/>
</g>
<defs>
<clipPath id="clip0">
<rect width="72" height="72" fill="white"/>
</clipPath>
</defs>
</svg>
