<svg width="72" height="72" viewBox="0 0 72 72" fill="none" xmlns="http://www.w3.org/2000/svg">
<g clip-path="url(#clip0)">
<path d="M56.9554 15.0032V36.8235L55.2968 36.648V15.0032C55.2968 14.6976 55.049 14.4503 54.744 14.4503H50.0977C49.6399 14.4503 49.2685 14.0789 49.2685 13.6211C49.2685 13.1627 49.6399 12.7918 50.0977 12.7918H54.744C55.9647 12.7929 56.9538 13.7825 56.9554 15.0032Z" fill="#002766"/>
<path d="M17.2563 60.5903H39.2369L39.5311 62.2488H17.2563C16.0356 62.2478 15.0465 61.2581 15.0449 60.0375V15.0032C15.0465 13.7825 16.0356 12.7929 17.2563 12.7918H21.9026C22.3604 12.7918 22.7319 13.1627 22.7319 13.6211C22.7319 14.0789 22.3604 14.4503 21.9026 14.4503H17.2563C16.9513 14.4503 16.7035 14.6976 16.7035 15.0032V60.0375C16.7035 60.343 16.9513 60.5903 17.2563 60.5903Z" fill="#002766"/>
<path d="M50.0974 24.6915H30.5734C30.115 24.6915 29.7441 25.063 29.7441 25.5208C29.7441 25.9786 30.115 26.3501 30.5734 26.3501H50.0974C50.5552 26.3501 50.9267 25.9786 50.9267 25.5208C50.9267 25.063 50.5552 24.6915 50.0974 24.6915Z" fill="#002766"/>
<path d="M50.0974 32.2537H30.5734C30.115 32.2537 29.7441 32.6246 29.7441 33.083C29.7441 33.5408 30.115 33.9123 30.5734 33.9123H50.0974C50.5552 33.9123 50.9267 33.5408 50.9267 33.083C50.9267 32.6246 50.5552 32.2537 50.0974 32.2537Z" fill="#002766"/>
<path d="M42.0974 39.8154H30.5734C30.115 39.8154 29.7441 40.1868 29.7441 40.6446C29.7441 41.103 30.115 41.4739 30.5734 41.4739H42.0974C42.5552 41.4739 42.9267 41.103 42.9267 40.6446C42.9267 40.1868 42.5552 39.8154 42.0974 39.8154Z" fill="#002766"/>
<path d="M37.0974 47.3776H30.5734C30.115 47.3776 29.7441 47.7491 29.7441 48.2069C29.7441 48.6647 30.115 49.0362 30.5734 49.0362H37.0974C37.5552 49.0362 37.9267 48.6647 37.9267 48.2069C37.9267 47.7491 37.5552 47.3776 37.0974 47.3776Z" fill="#002766"/>
<path d="M23.2846 23.3094C22.0634 23.3094 21.0732 24.2995 21.0732 25.5208C21.0732 26.742 22.0634 27.7322 23.2846 27.7322C24.5059 27.7322 25.496 26.742 25.496 25.5208C25.4944 24.3001 24.5053 23.311 23.2846 23.3094ZM23.2846 26.0736C22.9791 26.0736 22.7318 25.8264 22.7318 25.5208C22.7318 25.2152 22.9791 24.9679 23.2846 24.9679C23.5902 24.9679 23.8375 25.2152 23.8375 25.5208C23.8375 25.8264 23.5902 26.0736 23.2846 26.0736Z" fill="#002766"/>
<path d="M23.2846 30.8716C22.0634 30.8716 21.0732 31.8617 21.0732 33.083C21.0732 34.3042 22.0634 35.2944 23.2846 35.2944C24.5059 35.2944 25.496 34.3042 25.496 33.083C25.4944 31.8623 24.5053 30.8727 23.2846 30.8716ZM23.2846 33.6358C22.9791 33.6358 22.7318 33.388 22.7318 33.083C22.7318 32.7774 22.9791 32.5301 23.2846 32.5301C23.5902 32.5301 23.8375 32.7774 23.8375 33.083C23.8375 33.388 23.5902 33.6358 23.2846 33.6358Z" fill="#002766"/>
<path d="M23.2846 38.4333C22.0634 38.4333 21.0732 39.4234 21.0732 40.6447C21.0732 41.8659 22.0634 42.8561 23.2846 42.8561C24.5059 42.8561 25.496 41.8659 25.496 40.6447C25.4944 39.424 24.5053 38.4349 23.2846 38.4333ZM23.2846 41.1975C22.9791 41.1975 22.7318 40.9503 22.7318 40.6447C22.7318 40.3396 22.9791 40.0918 23.2846 40.0918C23.5902 40.0918 23.8375 40.3396 23.8375 40.6447C23.8375 40.9503 23.5902 41.1975 23.2846 41.1975Z" fill="#002766"/>
<path d="M23.2846 45.9955C22.0634 45.9955 21.0732 46.9856 21.0732 48.2069C21.0732 49.4281 22.0634 50.4183 23.2846 50.4183C24.5059 50.4183 25.496 49.4281 25.496 48.2069C25.4944 46.9862 24.5053 45.9971 23.2846 45.9955ZM23.2846 48.7597C22.9791 48.7597 22.7318 48.5119 22.7318 48.2069C22.7318 47.9013 22.9791 47.654 23.2846 47.654C23.5902 47.654 23.8375 47.9013 23.8375 48.2069C23.8375 48.5119 23.5902 48.7597 23.2846 48.7597Z" fill="#002766"/>
<path fill-rule="evenodd" clip-rule="evenodd" d="M59.772 5.17889H41.2431C40.2826 3.15323 38.2413 1.86182 35.9997 1.86182C33.758 1.86182 31.7162 3.15323 30.7563 5.17889H12.2273C10.2437 5.18105 8.63595 6.78884 8.63379 8.77239V66.2683C8.63595 68.2519 10.2437 69.8597 12.2273 69.8618H53L48 68.2033H12.2273C11.1588 68.2022 10.2934 67.3363 10.2923 66.2683V8.77239C10.2934 7.70395 11.1588 6.83851 12.2273 6.83743H30.2547C30.2153 7.11223 30.1953 7.38919 30.1948 7.6667V9.32523H21.9021C21.4443 9.32523 21.0728 9.69668 21.0728 10.1545V16.7887C21.0728 17.2465 21.4443 17.6179 21.9021 17.6179H50.0972C50.555 17.6179 50.9265 17.2465 50.9265 16.7887V10.1545C50.9265 9.69668 50.555 9.32523 50.0972 9.32523H41.8045V7.6667C41.804 7.38919 41.784 7.11223 41.7446 6.83743H59.772C60.8399 6.83851 61.7059 7.70395 61.707 8.77239V39.5L63.3655 40.5V8.77239C63.3634 6.78884 61.7556 5.18105 59.772 5.17889ZM40.146 7.6667C40.1433 5.37757 38.2888 3.52305 35.9997 3.52035C33.7105 3.52305 31.856 5.37757 31.8533 7.6667V10.1545C31.8533 10.6123 31.4819 10.9838 31.024 10.9838H22.7314V15.9594H49.268V10.9838H40.9753C40.5174 10.9838 40.146 10.6123 40.146 10.1545V7.6667Z" fill="#002766"/>
<path d="M49.819 56.9823C50.1423 57.3605 50.7078 57.4118 51.0937 57.0981L59.6301 50.1537C59.8871 49.9486 60.0142 49.6205 59.9629 49.2954C59.9116 48.9703 59.6897 48.6977 59.3819 48.5814C59.0735 48.4651 58.727 48.5223 58.4735 48.7329L50.632 55.1118L47.5476 51.5C47.2189 51.1153 46.6409 51.0699 46.2562 51.3986C45.8708 51.7273 45.8255 52.3053 46.1542 52.69L49.819 56.9823Z" fill="#1388F7"/>
<path d="M52.9514 69.8641C60.1958 69.857 66.6331 65.2407 68.9647 58.3811C71.2964 51.5215 69.0053 43.9389 63.2659 39.5178C57.5259 35.0972 49.6099 34.8174 43.5728 38.8229C37.5357 42.8283 34.7155 50.2307 36.5575 57.2371C38.5271 64.6765 45.2555 69.8594 52.9514 69.8641ZM52.9514 37.7969C61.3112 37.7897 68.0927 44.5635 68.0951 52.9233C68.0974 61.283 61.3201 68.0609 52.9597 68.0586C44.5999 68.0562 37.8262 61.2747 37.834 52.9143C37.8429 44.5694 44.6059 37.8064 52.9514 37.7969Z" fill="#1388F7"/>
</g>
<defs>
<clipPath id="clip0">
<rect width="68" height="68" fill="white" transform="translate(2 2)"/>
</clipPath>
</defs>
</svg>
