<svg width="72" height="72" viewBox="0 0 72 72" fill="none" xmlns="http://www.w3.org/2000/svg">
<path d="M20.8828 62.6112C27.9739 67.8014 34.9573 69.8794 35.2511 69.9652C35.4063 70.0106 35.5711 70.0117 35.7264 69.9674C36.0302 69.8817 43.2525 67.8059 50.5886 62.6201C54.9178 59.5595 58.3714 56.0498 60.853 52.1876C63.9529 47.3976 65.5864 41.806 65.5522 36.1006V19.4508C65.5522 19.1072 65.347 18.7961 65.0314 18.6599L64.8425 18.5791C54.7816 14.2499 45.27 8.74242 36.5067 2.17209C36.2007 1.94282 35.7797 1.94282 35.4736 2.17209C26.7104 8.74242 17.1988 14.2499 7.13782 18.5786L6.94947 18.6599C6.63332 18.7955 6.42815 19.1066 6.42871 19.4508V36.1006C6.42871 41.9181 7.95456 47.3264 10.9648 52.1752C13.3623 56.0386 16.6993 59.5488 20.8828 62.6112ZM8.15075 20.0175C18.0166 15.7421 27.3578 10.3462 35.9904 3.93561C44.6225 10.3462 53.9637 15.7421 63.8301 20.0175V36.1006C63.8626 41.4663 62.3295 46.7249 59.4191 51.2324C57.0642 54.9046 53.772 58.2528 49.6351 61.1846C43.2648 65.6982 36.8055 67.8334 35.4971 68.2381C34.2179 67.8278 27.9952 65.6937 21.8581 61.1913C17.8642 58.2612 14.6863 54.9136 12.4127 51.243C9.58467 46.6767 8.15075 41.5823 8.15075 36.1006V20.0175Z" fill="#002766"/>
<path d="M23.1415 58.602C29.1541 63.0024 35.0786 64.7654 35.3281 64.8383C35.4834 64.8837 35.6482 64.8848 35.804 64.8405C36.0619 64.7676 42.1877 63.0069 48.4071 58.6099C52.081 56.0128 55.0111 53.034 57.1176 49.7558C59.7523 45.6856 61.1397 40.9348 61.1111 36.0866V22.0114C61.1111 21.6673 60.9059 21.3561 60.5898 21.2205L60.4306 21.1521C51.9364 17.4972 43.9058 12.8468 36.5069 7.29952C36.2009 7.06969 35.7799 7.06969 35.4738 7.29952C28.075 12.8468 20.0444 17.4967 11.5502 21.1521L11.3905 21.2205C11.0743 21.3561 10.8697 21.6673 10.8691 22.0114V36.0854C10.8691 41.0279 12.1663 45.6234 14.7241 49.7435C16.7595 53.0228 19.592 56.0033 23.1415 58.602ZM12.5912 22.5782C20.8802 18.9788 28.7308 14.4444 35.9907 9.06249C43.2499 14.4439 51.1006 18.9788 59.3896 22.5782V36.0854C59.4171 40.5935 58.1295 45.0124 55.6843 48.8006C55.1557 49.623 54.5805 50.415 53.9634 51.1729V51.0647C53.9634 50.5894 53.5777 50.2037 53.1023 50.2037C52.6264 50.2037 52.2413 50.5894 52.2413 51.0647V52.8199C52.2413 52.9039 52.2537 52.9875 52.2778 53.0682C50.799 54.5828 49.184 55.9573 47.453 57.1749C43.8066 59.7265 39.8042 61.7266 35.5742 63.1106C31.4793 61.7199 27.617 59.7215 24.1174 57.181C22.5058 56.0066 21.0018 54.691 19.6229 53.2509C19.6997 53.1198 19.7395 52.9712 19.7395 52.8193V51.0642C19.7395 50.5888 19.3543 50.2032 18.8784 50.2032C18.4031 50.2032 18.0174 50.5888 18.0174 51.0642V51.4134C17.3498 50.5838 16.7337 49.7143 16.1715 48.8102C13.7958 44.9731 12.5912 40.6916 12.5912 36.0849V22.5782Z" fill="#002766"/>
<path d="M35.9909 53.6809C36.4663 53.6809 36.8519 53.2952 36.8519 52.8198V51.0647C36.8519 50.5894 36.4663 50.2037 35.9909 50.2037C35.515 50.2037 35.1299 50.5894 35.1299 51.0647V52.8198C35.1299 53.2952 35.515 53.6809 35.9909 53.6809Z" fill="#002766"/>
<path d="M41.694 53.6809C42.1694 53.6809 42.5551 53.2952 42.5551 52.8198V51.0647C42.5551 50.5894 42.1694 50.2037 41.694 50.2037C41.2187 50.2037 40.833 50.5894 40.833 51.0647V52.8198C40.833 53.2952 41.2187 53.6809 41.694 53.6809Z" fill="#002766"/>
<path d="M47.3991 53.6809C47.8745 53.6809 48.2602 53.2952 48.2602 52.8198V51.0647C48.2602 50.5894 47.8745 50.2037 47.3991 50.2037C46.9232 50.2037 46.5381 50.5894 46.5381 51.0647V52.8198C46.5381 53.2952 46.9232 53.6809 47.3991 53.6809Z" fill="#002766"/>
<path d="M30.2858 53.6809C30.7612 53.6809 31.1469 53.2952 31.1469 52.8198V51.0647C31.1469 50.5894 30.7612 50.2037 30.2858 50.2037C29.8105 50.2037 29.4248 50.5894 29.4248 51.0647V52.8198C29.4248 53.2952 29.8105 53.6809 30.2858 53.6809Z" fill="#002766"/>
<path d="M24.5817 53.6809C25.0571 53.6809 25.4427 53.2952 25.4427 52.8198V51.0647C25.4427 50.5894 25.0571 50.2037 24.5817 50.2037C24.1058 50.2037 23.7207 50.5894 23.7207 51.0647V52.8198C23.7207 53.2952 24.1058 53.6809 24.5817 53.6809Z" fill="#002766"/>
<path d="M45.6054 26.4161C45.0921 25.8788 44.2405 25.8593 43.7032 26.3725L33.623 36.0011L28.2955 30.6728C27.7703 30.1476 26.9186 30.1476 26.3934 30.6728C25.8689 31.1981 25.8689 32.0497 26.3934 32.5749L32.6506 38.8321C33.1675 39.3491 34.0019 39.3581 34.5302 38.8532L45.5611 28.3174C46.0984 27.8042 46.1179 26.9526 45.6054 26.4161Z" fill="#1388F7"/>
</svg>
