<svg width="72" height="72" viewBox="0 0 72 72" fill="none" xmlns="http://www.w3.org/2000/svg">
<path d="M49.6007 25.3842C49.452 25.1827 49.2458 25.0307 49.0092 24.9483C49.0021 24.9559 48.9945 24.9624 48.9873 24.9701C49.162 25.1479 49.3706 25.2887 49.6007 25.3842Z" fill="#D4E1F4"/>
<path d="M51.2578 35.1562H60.6797C60.9035 35.1562 61.1181 35.0674 61.2763 34.9091C61.4345 34.7509 61.5234 34.5363 61.5234 34.3125C61.5234 34.0887 61.4345 33.8741 61.2763 33.7159C61.1181 33.5576 60.9035 33.4688 60.6797 33.4688H51.2578C51.034 33.4688 50.8194 33.5576 50.6612 33.7159C50.503 33.8741 50.4141 34.0887 50.4141 34.3125C50.4141 34.5363 50.503 34.7509 50.6612 34.9091C50.8194 35.0674 51.034 35.1562 51.2578 35.1562Z" fill="#1388F7"/>
<path d="M12.5391 51.2922L8.32031 59.4484L9.81905 60.2236L14.0378 52.0674L12.5391 51.2922Z" fill="#1388F7"/>
<path d="M17.6484 50.2031H21.1641C21.3878 50.2031 21.6025 50.1142 21.7607 49.956C21.9189 49.7978 22.0078 49.5832 22.0078 49.3594C22.0078 49.1356 21.9189 48.921 21.7607 48.7628C21.6025 48.6045 21.3878 48.5156 21.1641 48.5156H17.6484C17.4247 48.5156 17.2101 48.6045 17.0518 48.7628C16.8936 48.921 16.8047 49.1356 16.8047 49.3594C16.8047 49.5832 16.8936 49.7978 17.0518 49.956C17.2101 50.1142 17.4247 50.2031 17.6484 50.2031Z" fill="#1388F7"/>
<path d="M65.6719 38.5312H63.9844V46.6875H65.6719V38.5312Z" fill="#1388F7"/>
<path d="M51.8204 17.7891C51.9312 17.7892 52.041 17.7674 52.1434 17.725C52.2458 17.6826 52.3388 17.6204 52.4171 17.542L57.9015 12.0576C58.0597 11.8994 58.1486 11.6847 58.1486 11.4609C58.1486 11.2372 58.0597 11.0225 57.9015 10.8643C57.7432 10.706 57.5286 10.6171 57.3048 10.6171C57.081 10.6171 56.8664 10.706 56.7081 10.8643L51.2237 16.3486C51.1057 16.4667 51.0253 16.617 50.9928 16.7807C50.9602 16.9444 50.9769 17.114 51.0408 17.2682C51.1047 17.4224 51.2128 17.5542 51.3516 17.6469C51.4904 17.7396 51.6535 17.7891 51.8204 17.7891Z" fill="#1388F7"/>
<path d="M20.1797 27.4219C20.1797 27.1981 20.0908 26.9835 19.9326 26.8253C19.7743 26.667 19.5597 26.5781 19.3359 26.5781H9.91406C9.69029 26.5781 9.47568 26.667 9.31744 26.8253C9.15921 26.9835 9.07031 27.1981 9.07031 27.4219C9.07031 27.6457 9.15921 27.8603 9.31744 28.0185C9.47568 28.1767 9.69029 28.2656 9.91406 28.2656H19.3359C19.5597 28.2656 19.7743 28.1767 19.9326 28.0185C20.0908 27.8603 20.1797 27.6457 20.1797 27.4219Z" fill="#1388F7"/>
<path d="M6.68479 25.2727C6.78113 25.3275 6.88731 25.3627 6.99727 25.3764C7.10723 25.3901 7.2188 25.382 7.32563 25.3526C7.43247 25.3232 7.53245 25.273 7.61989 25.2049C7.70733 25.1369 7.78051 25.0522 7.83524 24.9559L14.8665 12.5809C14.977 12.3863 15.0058 12.1558 14.9463 11.9401C14.8869 11.7243 14.7442 11.541 14.5497 11.4305C14.3551 11.3199 14.1246 11.2912 13.9088 11.3506C13.6931 11.41 13.5098 11.5527 13.3992 11.7473L6.36796 24.1223C6.31322 24.2186 6.27799 24.3248 6.26429 24.4348C6.25059 24.5447 6.25868 24.6563 6.2881 24.7631C6.31752 24.87 6.36769 24.9699 6.43576 25.0574C6.50382 25.1448 6.58844 25.218 6.68479 25.2727Z" fill="#1388F7"/>
<path d="M19.4877 11.3968L23.5658 14.9124C23.6494 14.9869 23.747 15.0439 23.8529 15.0803C23.9587 15.1166 24.0708 15.1315 24.1825 15.1242C24.2942 15.1168 24.4033 15.0872 24.5034 15.0373C24.6036 14.9873 24.6928 14.9179 24.7659 14.8331C24.839 14.7484 24.8945 14.6499 24.9291 14.5434C24.9638 14.437 24.9769 14.3247 24.9678 14.2132C24.9586 14.1016 24.9273 13.993 24.8758 13.8936C24.8242 13.7943 24.7534 13.7062 24.6675 13.6344L20.5894 10.1188C20.5057 10.0444 20.4082 9.98734 20.3023 9.95099C20.1964 9.91465 20.0844 9.89973 19.9727 9.90711C19.861 9.91449 19.7519 9.94402 19.6517 9.99399C19.5515 10.0439 19.4623 10.1133 19.3892 10.1981C19.3162 10.2829 19.2607 10.3814 19.226 10.4878C19.1914 10.5943 19.1782 10.7065 19.1874 10.8181C19.1966 10.9297 19.2278 11.0383 19.2794 11.1376C19.3309 11.237 19.4018 11.3251 19.4877 11.3968Z" fill="#1388F7"/>
<path d="M23.4141 58.7813H51.5391C52.005 58.7813 52.3125 58.3711 52.3125 57.9052V49.1191C52.3125 49.0957 52.3467 49.0722 52.3447 49.0487C52.2545 47.9679 51.889 46.9281 51.283 46.0286C50.6771 45.129 49.8508 44.3996 48.8831 43.9099C48.8535 43.8951 48.8647 43.8818 48.8336 43.8709L44.7188 42.3713V40.8717C44.7122 40.7012 44.6565 40.5362 44.5583 40.3967C44.4601 40.2572 44.3236 40.1491 44.1652 40.0855L44.1473 40.0781H44.127L41.7656 39.1274V38.9391C43.6818 38.1243 45.3325 36.791 46.5323 35.0893C47.7321 33.3875 48.4333 31.3848 48.557 29.3063C49.3321 28.9947 49.9693 28.4149 50.3525 27.6725C50.7356 26.9302 50.8391 26.0749 50.6441 25.2626C50.5424 24.8346 50.3408 24.4368 50.0559 24.1017C49.7709 23.7666 49.4106 23.5037 49.0046 23.3345L49.1483 22.336C49.1512 22.3155 49.1536 22.295 49.1552 22.2745C49.2868 20.4119 48.9713 18.5449 48.2349 16.829C47.4986 15.1131 46.3627 13.5982 44.922 12.4104C43.4813 11.2226 41.7775 10.3964 39.9528 10.0007C38.128 9.60499 36.235 9.65123 34.4318 10.1356C33.5869 10.3624 32.8383 10.7262 32.1144 11.079C31.9867 11.1412 31.8585 11.2032 31.7296 11.2652C31.5861 11.3339 31.4649 11.4419 31.3801 11.5765C31.2953 11.7112 31.2502 11.8671 31.2502 12.0263C31.2507 12.4333 31.1503 12.8342 30.9579 13.193C30.7656 13.5517 30.4873 13.8573 30.148 14.0822L27.2125 16.0334C27.1066 16.1033 27.0179 16.1962 26.953 16.3052L26.7787 16.598C26.7618 16.6262 26.7466 16.6554 26.7332 16.6855C25.9525 18.4398 25.6134 20.3588 25.7458 22.2745C25.7472 22.2958 25.7494 22.3166 25.7525 22.3384L25.8975 23.3296C25.4889 23.4978 25.1261 23.7607 24.8391 24.0967C24.552 24.4327 24.349 24.8321 24.2467 25.262C24.0728 25.9721 24.1278 26.7189 24.4039 27.3958C24.6801 28.0727 25.1631 28.645 25.784 29.0308C25.9619 29.1261 26.1466 29.2081 26.3367 29.2762C26.5669 33.6475 29.3906 37.3572 33.1875 38.9658V39.1132L30.7969 40.0811V40.0904C30.7969 40.0904 30.7751 40.0914 30.7734 40.0922C30.6171 40.1551 30.4827 40.2625 30.3869 40.4011C30.2911 40.5396 30.2381 40.7033 30.2344 40.8717V42.3713L26.1107 43.8712C26.085 43.8825 26.0601 43.8955 26.0362 43.9102C25.0629 44.3978 24.2301 45.1257 23.6166 46.0249C23.0031 46.9241 22.6291 47.965 22.53 49.049C22.528 49.0722 22.5 49.0957 22.5 49.1193V57.9052C22.5146 58.1393 22.6168 58.3593 22.7861 58.5216C22.9554 58.6839 23.1796 58.7766 23.4141 58.7813ZM50.625 49.1556V57.0938H38.25V48.7814L40.14 50.0179C40.285 50.1106 40.4535 50.1598 40.6256 50.1597C40.7015 50.1597 40.777 50.1503 40.8506 50.1316C40.9668 50.1009 41.0752 50.046 41.1687 49.9705C41.2622 49.895 41.3387 49.8005 41.3931 49.6934L44.2349 44.0156L48.1521 45.4416C48.8437 45.8024 49.4329 46.332 49.8652 46.9812C50.2975 47.6305 50.5589 48.3784 50.625 49.1556ZM36.1522 47.0744L34.6372 48.0843L32.1123 43.0345L36.1522 47.0744ZM34.875 43.3948V39.5156C35.717 39.7184 36.5801 39.8213 37.4462 39.8221C38.3333 39.8226 39.2171 39.715 40.0781 39.5016V43.3851L37.4721 46.011L34.875 43.3948ZM42.8408 43.0339L40.3159 48.0838L38.801 47.0738L42.8408 43.0339ZM42.294 41.17L41.7656 41.6983V40.953L42.294 41.17ZM31.0822 15.4886C31.5764 15.1611 31.9945 14.7314 32.3085 14.2285C32.6225 13.7256 32.8249 13.1612 32.9022 12.5734C33.5309 12.2425 34.1897 11.9722 34.8697 11.7662C36.4107 11.3552 38.0276 11.3172 39.5862 11.6554C41.1449 11.9937 42.6005 12.6985 43.8326 13.7114C45.0646 14.7243 46.0375 16.0162 46.6708 17.4801C47.304 18.9439 47.5794 20.5376 47.474 22.129L47.2728 23.5353L47.1538 23.6825C47.1315 23.7101 47.1011 23.7302 47.0669 23.7399C47.0328 23.7495 46.9964 23.7484 46.9629 23.7367C46.9294 23.7249 46.9003 23.7031 46.8797 23.6741C46.8591 23.6452 46.8479 23.6106 46.8477 23.5751C46.8465 22.507 46.4217 21.483 45.6664 20.7278C44.9111 19.9726 43.887 19.5479 42.8189 19.5469H36.6549C36.4185 19.5464 36.1919 19.4523 36.0248 19.285C35.8577 19.1177 35.7637 18.8911 35.7635 18.6546C35.7612 17.9422 35.4791 17.2593 34.9779 16.753C34.4767 16.2467 33.7966 15.9577 33.0843 15.9483L30.4307 15.9219L31.0822 15.4886ZM28.1822 17.5869L29.9731 17.6046C29.0329 18.7083 28.4678 20.0822 28.3594 21.528C28.3355 21.7978 28.2481 22.058 28.1044 22.2876C27.9607 22.5171 27.7647 22.7094 27.5325 22.8488L27.4272 22.1282C27.3248 20.5764 27.5833 19.022 28.1822 17.5869ZM27.9844 28.6853V28.6697C27.9862 28.4681 27.9152 28.2727 27.7844 28.1194C27.6537 27.966 27.472 27.865 27.2727 27.8349C27.116 27.7803 26.7623 27.6351 26.6421 27.5801C26.3329 27.3786 26.094 27.086 25.9584 26.7428C25.8227 26.3995 25.7971 26.0227 25.885 25.6642C25.9412 25.43 26.0709 25.22 26.255 25.0647C26.4392 24.9095 26.6681 24.8172 26.9085 24.8013C27.0276 24.7903 27.1431 24.7539 27.2471 24.6946C28.7044 24.5018 29.8977 23.2487 30.04 21.6802C30.1891 20.0356 30.9167 18.7763 32.3848 17.6285L33.0675 17.6352C33.3357 17.6389 33.5918 17.7479 33.7804 17.9385C33.969 18.1292 34.0752 18.3864 34.076 18.6546C34.0767 19.3384 34.3486 19.9941 34.8321 20.4777C35.3155 20.9613 35.9711 21.2334 36.6549 21.2344H42.8189C43.4395 21.2349 44.0346 21.4816 44.4736 21.9204C44.9125 22.3592 45.1594 22.9542 45.1602 23.5748C45.1603 23.9429 45.2696 24.3027 45.4743 24.6086C45.679 24.9146 45.9699 25.1529 46.3101 25.2934C46.6503 25.4339 47.0246 25.4703 47.3855 25.398C47.7464 25.3257 48.0778 25.1479 48.3376 24.8871C48.5043 24.952 48.6526 25.0567 48.7694 25.1922C48.8863 25.3276 48.9681 25.4896 49.0078 25.6641C49.0417 25.803 49.0587 25.9455 49.0586 26.0885C49.067 26.5022 48.9278 26.9053 48.6661 27.2258C48.4044 27.5463 48.0371 27.7632 47.6301 27.8376C47.4387 27.874 47.2668 27.9779 47.1455 28.1304C47.0242 28.2828 46.9617 28.4737 46.9692 28.6684V28.6848C46.9692 33.8953 42.6874 38.1348 37.4777 38.1348C32.268 38.1348 27.9844 33.8957 27.9844 28.6853ZM33.1875 41.7071L32.6427 41.1624L33.1875 40.9374V41.7071ZM24.1875 49.1555C24.4688 47.5805 25.3222 46.1628 26.7296 45.4407L30.6984 44.0156L33.5464 49.6939C33.6178 49.8344 33.7267 49.9524 33.8611 50.0347C33.9954 50.1171 34.15 50.1606 34.3076 50.1604C34.4636 50.1602 34.6155 50.1106 34.7415 50.0186L36.5625 48.7814V57.0938H24.1875V49.1555Z" fill="#002766"/>
<path d="M39.4111 54.6972C39.2025 54.6972 38.9986 54.7591 38.8252 54.875C38.6517 54.9908 38.5166 55.1556 38.4367 55.3483C38.3569 55.541 38.336 55.7531 38.3767 55.9577C38.4174 56.1622 38.5179 56.3502 38.6654 56.4977C38.8129 56.6452 39.0008 56.7456 39.2054 56.7863C39.41 56.827 39.622 56.8061 39.8148 56.7263C40.0075 56.6465 40.1722 56.5113 40.2881 56.3378C40.404 56.1644 40.4658 55.9605 40.4658 55.7519C40.4655 55.4723 40.3542 55.2042 40.1565 55.0065C39.9588 54.8088 39.6907 54.6976 39.4111 54.6972Z" fill="#002766"/>
<path d="M39.4111 50.3692C39.2025 50.3692 38.9986 50.4311 38.8252 50.5469C38.6517 50.6628 38.5166 50.8276 38.4367 51.0203C38.3569 51.213 38.336 51.4251 38.3767 51.6297C38.4174 51.8342 38.5179 52.0222 38.6654 52.1697C38.8129 52.3172 39.0008 52.4176 39.2054 52.4583C39.41 52.499 39.622 52.4781 39.8148 52.3983C40.0075 52.3185 40.1722 52.1833 40.2881 52.0099C40.404 51.8364 40.4658 51.6325 40.4658 51.4239C40.4655 51.1443 40.3543 50.8762 40.1565 50.6785C39.9588 50.4808 39.6908 50.3695 39.4111 50.3692Z" fill="#002766"/>
<path d="M64.8984 29.1797C63.8972 29.1797 62.9184 29.4766 62.0859 30.0329C61.2533 30.5891 60.6045 31.3798 60.2213 32.3049C59.8381 33.2299 59.7379 34.2478 59.9332 35.2298C60.1286 36.2119 60.6107 37.1139 61.3187 37.8219C62.0267 38.5299 62.9288 39.0121 63.9108 39.2074C64.8928 39.4028 65.9107 39.3025 66.8358 38.9193C67.7608 38.5362 68.5515 37.8873 69.1078 37.0548C69.664 36.2222 69.9609 35.2435 69.9609 34.2422C69.9595 32.9 69.4256 31.6132 68.4765 30.6641C67.5274 29.715 66.2406 29.1812 64.8984 29.1797ZM64.8984 37.6172C64.2309 37.6172 63.5784 37.4193 63.0234 37.0484C62.4684 36.6776 62.0358 36.1504 61.7803 35.5337C61.5249 34.917 61.4581 34.2384 61.5883 33.5838C61.7185 32.9291 62.04 32.3277 62.512 31.8557C62.984 31.3837 63.5853 31.0623 64.24 30.932C64.8947 30.8018 65.5733 30.8686 66.19 31.1241C66.8067 31.3795 67.3338 31.8121 67.7047 32.3671C68.0755 32.9222 68.2734 33.5747 68.2734 34.2422C68.2724 35.137 67.9165 35.9949 67.2838 36.6276C66.6511 37.2603 65.7932 37.6162 64.8984 37.6172Z" fill="#002766"/>
<path d="M64.8984 45.7734C64.1753 45.7734 63.4684 45.9879 62.8671 46.3896C62.2659 46.7914 61.7972 47.3624 61.5205 48.0305C61.2438 48.6986 61.1714 49.4337 61.3124 50.143C61.4535 50.8522 61.8017 51.5037 62.3131 52.015C62.8244 52.5264 63.4759 52.8746 64.1851 53.0157C64.8944 53.1568 65.6295 53.0843 66.2976 52.8076C66.9657 52.5309 67.5367 52.0622 67.9385 51.461C68.3403 50.8597 68.5547 50.1528 68.5547 49.4297C68.5536 48.4603 68.168 47.531 67.4826 46.8456C66.7971 46.1601 65.8678 45.7746 64.8984 45.7734ZM64.8984 51.3984C64.5091 51.3984 64.1284 51.283 63.8047 51.0666C63.4809 50.8503 63.2286 50.5428 63.0796 50.1831C62.9305 49.8233 62.8916 49.4275 62.9675 49.0456C63.0435 48.6637 63.231 48.3129 63.5063 48.0376C63.7817 47.7622 64.1325 47.5747 64.5144 47.4988C64.8963 47.4228 65.2921 47.4618 65.6518 47.6108C66.0116 47.7598 66.3191 48.0121 66.5354 48.3359C66.7517 48.6597 66.8672 49.0403 66.8672 49.4297C66.8666 49.9517 66.659 50.4521 66.2899 50.8212C65.9208 51.1903 65.4204 51.3979 64.8984 51.3984Z" fill="#002766"/>
<path d="M12.1641 63.4922C12.1641 62.4909 11.8672 61.5121 11.3109 60.6796C10.7546 59.8471 9.96395 59.1982 9.0389 58.815C8.11385 58.4319 7.09595 58.3316 6.11392 58.527C5.13189 58.7223 4.22984 59.2045 3.52184 59.9125C2.81383 60.6205 2.33168 61.5225 2.13634 62.5045C1.941 63.4866 2.04126 64.5045 2.42442 65.4295C2.80759 66.3546 3.45647 67.1452 4.28899 67.7015C5.12151 68.2578 6.1003 68.5547 7.10156 68.5547C8.44377 68.5532 9.73057 68.0194 10.6796 67.0703C11.6287 66.1212 12.1626 64.8344 12.1641 63.4922ZM3.72656 63.4922C3.72656 62.8247 3.92451 62.1722 4.29535 61.6171C4.6662 61.0621 5.19331 60.6295 5.81001 60.3741C6.42671 60.1187 7.10531 60.0518 7.75999 60.182C8.41468 60.3123 9.01605 60.6337 9.48805 61.1057C9.96005 61.5777 10.2815 62.1791 10.4117 62.8338C10.5419 63.4884 10.4751 64.167 10.2197 64.7837C9.96421 65.4004 9.53163 65.9276 8.97661 66.2984C8.4216 66.6693 7.76908 66.8672 7.10156 66.8672C6.20677 66.8662 5.34891 66.5103 4.71619 65.8776C4.08347 65.2449 3.72757 64.387 3.72656 63.4922Z" fill="#002766"/>
<path d="M14.8359 52.9453C15.5591 52.9453 16.266 52.7309 16.8672 52.3291C17.4685 51.9274 17.9371 51.3563 18.2139 50.6882C18.4906 50.0202 18.563 49.285 18.4219 48.5758C18.2809 47.8665 17.9326 47.215 17.4213 46.7037C16.91 46.1924 16.2585 45.8441 15.5492 45.7031C14.84 45.562 14.1048 45.6344 13.4368 45.9111C12.7687 46.1879 12.1976 46.6565 11.7959 47.2578C11.3941 47.859 11.1797 48.5659 11.1797 49.2891C11.1808 50.2584 11.5664 51.1877 12.2518 51.8732C12.9373 52.5586 13.8666 52.9442 14.8359 52.9453ZM14.8359 47.3203C15.2253 47.3203 15.606 47.4358 15.9297 47.6521C16.2535 47.8684 16.5058 48.1759 16.6548 48.5357C16.8038 48.8954 16.8428 49.2912 16.7669 49.6731C16.6909 50.055 16.5034 50.4058 16.2281 50.6812C15.9527 50.9565 15.6019 51.144 15.22 51.22C14.8381 51.2959 14.4423 51.257 14.0825 51.1079C13.7228 50.9589 13.4153 50.7066 13.199 50.3828C12.9827 50.0591 12.8672 49.6784 12.8672 49.2891C12.8677 48.7671 13.0753 48.2667 13.4444 47.8976C13.8135 47.5285 14.314 47.3209 14.8359 47.3203Z" fill="#002766"/>
<path d="M7.10156 31.0078C7.8247 31.0078 8.5316 30.7934 9.13286 30.3916C9.73413 29.9899 10.2028 29.4188 10.4795 28.7508C10.7562 28.0827 10.8286 27.3475 10.6876 26.6383C10.5465 25.929 10.1983 25.2775 9.68692 24.7662C9.17558 24.2549 8.5241 23.9066 7.81486 23.7656C7.10562 23.6245 6.37047 23.6969 5.70238 23.9736C5.03428 24.2504 4.46326 24.719 4.0615 25.3203C3.65975 25.9215 3.44531 26.6284 3.44531 27.3516C3.44643 28.3209 3.832 29.2503 4.51744 29.9357C5.20287 30.6211 6.13221 31.0067 7.10156 31.0078ZM7.10156 25.3828C7.49094 25.3828 7.87158 25.4983 8.19534 25.7146C8.5191 25.9309 8.77144 26.2384 8.92045 26.5982C9.06946 26.9579 9.10845 27.3538 9.03248 27.7357C8.95652 28.1176 8.76901 28.4683 8.49368 28.7437C8.21834 29.019 7.86754 29.2065 7.48564 29.2825C7.10374 29.3585 6.7079 29.3195 6.34815 29.1705C5.98841 29.0214 5.68093 28.7691 5.46461 28.4453C5.24828 28.1216 5.13281 27.7409 5.13281 27.3516C5.13337 26.8296 5.34097 26.3292 5.71006 25.9601C6.07915 25.591 6.57959 25.3834 7.10156 25.3828Z" fill="#002766"/>
<path d="M16.2422 13.5703C17.2435 13.5703 18.2222 13.2734 19.0548 12.7171C19.8873 12.1609 20.5362 11.3702 20.9193 10.4451C21.3025 9.5201 21.4028 8.5022 21.2074 7.52017C21.0121 6.53814 20.5299 5.63609 19.8219 4.92809C19.1139 4.22008 18.2119 3.73793 17.2298 3.54259C16.2478 3.34725 15.2299 3.44751 14.3049 3.83067C13.3798 4.21384 12.5891 4.86272 12.0329 5.69524C11.4766 6.52776 11.1797 7.50655 11.1797 8.50781C11.1812 9.85002 11.715 11.1368 12.6641 12.0859C13.6132 13.035 14.9 13.5688 16.2422 13.5703ZM16.2422 5.13281C16.9097 5.13281 17.5622 5.33076 18.1172 5.7016C18.6723 6.07245 19.1048 6.59956 19.3603 7.21626C19.6157 7.83296 19.6826 8.51156 19.5523 9.16624C19.4221 9.82093 19.1007 10.4223 18.6287 10.8943C18.1567 11.3663 17.5553 11.6877 16.9006 11.818C16.2459 11.9482 15.5673 11.8814 14.9506 11.6259C14.3339 11.3705 13.8068 10.9379 13.436 10.3829C13.0651 9.82785 12.8672 9.17533 12.8672 8.50781C12.8682 7.61302 13.2241 6.75516 13.8568 6.12244C14.4895 5.48972 15.3474 5.13382 16.2422 5.13281Z" fill="#002766"/>
<path d="M59.2734 13.0078C59.9966 13.0078 60.7035 12.7934 61.3047 12.3916C61.906 11.9899 62.3746 11.4188 62.6514 10.7507C62.9281 10.0827 63.0005 9.34751 62.8594 8.63826C62.7183 7.92902 62.3701 7.27754 61.8588 6.7662C61.3475 6.25487 60.696 5.90665 59.9867 5.76557C59.2775 5.62449 58.5423 5.6969 57.8742 5.97363C57.2062 6.25036 56.6351 6.71899 56.2334 7.32026C55.8316 7.92153 55.6172 8.62842 55.6172 9.35156C55.6183 10.3209 56.0039 11.2502 56.6893 11.9357C57.3747 12.6211 58.3041 13.0067 59.2734 13.0078ZM59.2734 7.38281C59.6628 7.38281 60.0435 7.49828 60.3672 7.71461C60.691 7.93094 60.9433 8.23841 61.0923 8.59815C61.2413 8.9579 61.2803 9.35375 61.2043 9.73565C61.1284 10.1175 60.9409 10.4683 60.6655 10.7437C60.3902 11.019 60.0394 11.2065 59.6575 11.2825C59.2756 11.3584 58.8798 11.3195 58.52 11.1704C58.1603 11.0214 57.8528 10.7691 57.6365 10.4453C57.4202 10.1216 57.3047 9.74094 57.3047 9.35156C57.3052 8.82959 57.5128 8.32915 57.8819 7.96006C58.251 7.59097 58.7515 7.38337 59.2734 7.38281Z" fill="#002766"/>
</svg>
