<svg width="72" height="72" viewBox="0 0 72 72" fill="none" xmlns="http://www.w3.org/2000/svg">
<path d="M62.8945 27.7835C62.8177 27.6665 62.713 27.5703 62.5899 27.5038C62.4667 27.4373 62.3289 27.4025 62.1889 27.4025C62.0489 27.4025 61.9111 27.4373 61.7879 27.5038C61.6648 27.5703 61.5601 27.6665 61.4833 27.7835L53.9222 39.3125C53.8387 39.4418 53.7912 39.591 53.7847 39.7447C53.7783 39.8984 53.813 40.051 53.8853 40.1868C53.957 40.3221 54.0638 40.4355 54.1944 40.5154C54.325 40.5952 54.4746 40.6385 54.6277 40.6406H61.0779C60.1945 47.0747 56.9753 52.959 52.0335 57.1728C47.3672 61.174 41.5053 63.4632 35.9509 63.4632C32.3284 63.4632 28.5408 62.484 24.9976 60.6366C21.3181 58.7148 18.1268 55.977 15.6678 52.6325C15.6037 52.5401 15.5216 52.4613 15.4265 52.401C15.3315 52.3407 15.2253 52.3001 15.1143 52.2814C15.0033 52.2628 14.8896 52.2666 14.7801 52.2925C14.6705 52.3185 14.5673 52.3661 14.4764 52.4326C14.3856 52.499 14.3089 52.583 14.251 52.6796C14.1931 52.7761 14.1551 52.8833 14.1393 52.9947C14.1234 53.1062 14.13 53.2197 14.1587 53.3285C14.1874 53.4374 14.2376 53.5394 14.3063 53.6286C16.9185 57.1812 20.3087 60.0893 24.2174 62.1305C28.0002 64.1029 32.0578 65.1454 35.9509 65.1454C41.9021 65.1454 48.1644 62.7132 53.1319 58.4539C58.4329 53.9078 61.8686 47.5643 62.7796 40.6406H69.7501C69.903 40.6381 70.0525 40.5947 70.183 40.515C70.3135 40.4352 70.4203 40.322 70.4923 40.187C70.5643 40.052 70.5989 39.9003 70.5924 39.7474C70.586 39.5946 70.5387 39.4463 70.4556 39.3179L62.8945 27.7835ZM56.1902 38.9531L62.1888 29.8064L68.1878 38.9531H56.1902Z" fill="#1388F7"/>
<path d="M18.1151 31.8132C18.0434 31.6779 17.9366 31.5644 17.806 31.4846C17.6754 31.4048 17.5258 31.3615 17.3727 31.3594H10.9225C11.806 24.9253 15.0252 19.041 19.967 14.8272C24.6332 10.826 30.4951 8.53677 36.0495 8.53677C39.672 8.53677 43.4596 9.51594 47.0028 11.3633C50.6823 13.2852 53.8736 16.023 56.3326 19.3674C56.3968 19.4599 56.4788 19.5386 56.5739 19.5989C56.6689 19.6592 56.7751 19.6999 56.8861 19.7185C56.9972 19.7372 57.1108 19.7334 57.2203 19.7074C57.3299 19.6815 57.4331 19.6339 57.524 19.5674C57.6148 19.5009 57.6915 19.417 57.7494 19.3204C57.8073 19.2239 57.8453 19.1167 57.8611 19.0053C57.877 18.8938 57.8704 18.7803 57.8417 18.6714C57.813 18.5626 57.7628 18.4606 57.6941 18.3714C55.0819 14.8188 51.6917 11.9107 47.783 9.86947C44.0002 7.89707 39.9426 6.85461 36.0495 6.85461C30.0983 6.85461 23.836 9.28743 18.8685 13.5461C13.5674 18.0921 10.1318 24.4356 9.22095 31.3594H2.25031C2.09737 31.3619 1.94789 31.4053 1.81737 31.485C1.68686 31.5648 1.58007 31.678 1.50808 31.813C1.43609 31.9479 1.40153 32.0997 1.40799 32.2525C1.41445 32.4054 1.46168 32.5537 1.5448 32.6821L9.10592 44.2133C9.18251 44.3305 9.28705 44.4268 9.41013 44.4935C9.53321 44.5602 9.67095 44.5953 9.81094 44.5955C9.95093 44.5957 10.0888 44.5611 10.212 44.4947C10.3353 44.4284 10.4402 44.3324 10.5171 44.2154L18.0782 32.6814C18.1617 32.5533 18.2091 32.4051 18.2156 32.2523C18.2221 32.0996 18.1873 31.9479 18.1151 31.8132ZM9.81158 42.1935L3.81266 33.0469H15.8102L9.81158 42.1935Z" fill="#1388F7"/>
<path d="M39.2344 52.2633L39.5156 49.3487C40.7359 49.0257 41.9053 48.5345 42.9902 47.8893L45.2322 49.7471C45.3939 49.8811 45.5998 49.9501 45.8097 49.9403C46.0196 49.9306 46.2182 49.8429 46.3669 49.6945L49.7157 46.3462C49.8643 46.1976 49.952 45.999 49.9619 45.7891C49.9717 45.5793 49.9029 45.3733 49.7689 45.2115L47.9081 42.9644C48.552 41.8797 49.0452 40.7122 49.3741 39.4944L52.2532 39.2131C52.4618 39.1929 52.6554 39.0958 52.7964 38.9407C52.9373 38.7855 53.0155 38.5835 53.0156 38.3739V33.6261C53.0157 33.4163 52.9375 33.2141 52.7965 33.0588C52.6555 32.9035 52.4617 32.8063 52.2529 32.7861L49.3328 32.5049C49.0087 31.2845 48.5165 30.1152 47.8703 29.0303L49.7265 26.7884C49.86 26.6272 49.9288 26.4223 49.9197 26.2133C49.9105 26.0043 49.824 25.8062 49.677 25.6573L46.3707 22.3086C46.2224 22.1583 46.0231 22.069 45.8122 22.0585C45.6014 22.0479 45.3942 22.1168 45.2316 22.2515L42.9844 24.1124C41.8999 23.4685 40.7327 22.9754 39.5151 22.6465L39.2338 19.7367C39.2133 19.529 39.1157 19.3365 38.9602 19.1972C38.8047 19.058 38.6027 18.982 38.394 18.9844H33.6473C33.4386 18.982 33.2366 19.058 33.0812 19.1972C32.9257 19.3365 32.8281 19.529 32.8075 19.7367L32.5263 22.6513C31.306 22.9743 30.1366 23.4655 29.0517 24.1107L26.8099 22.2529C26.6481 22.1188 26.4422 22.0499 26.2323 22.0597C26.0225 22.0694 25.8238 22.1571 25.6752 22.3055L22.3263 25.6538C22.1778 25.8023 22.09 26.001 22.0801 26.2108C22.0703 26.4207 22.1391 26.6267 22.273 26.7885L24.1339 29.0355C23.4901 30.1201 22.9969 31.2873 22.6679 32.5049L19.7474 32.7861C19.5386 32.8062 19.3447 32.9034 19.2036 33.0587C19.0625 33.214 18.9844 33.4163 18.9844 33.6261V38.3739C18.9844 38.5837 19.0625 38.7859 19.2035 38.9412C19.3445 39.0965 19.5383 39.1937 19.7471 39.2138L22.6672 39.4951C22.9913 40.7155 23.4835 41.8848 24.1297 42.9697L22.2735 45.2116C22.1394 45.3735 22.0706 45.5795 22.0805 45.7894C22.0903 45.9993 22.1782 46.1979 22.3268 46.3465L25.6756 49.6952C25.8241 49.8437 26.0228 49.9315 26.2326 49.9414C26.4425 49.9512 26.6485 49.8825 26.8103 49.7485L29.0573 47.8876C30.1418 48.5314 31.309 49.0246 32.5266 49.3535L32.8078 52.2633C32.8283 52.4709 32.9259 52.6634 33.0813 52.8026C33.2367 52.9419 33.4387 53.0179 33.6473 53.0156H38.395C38.6036 53.0179 38.8055 52.9419 38.9609 52.8026C39.1163 52.6633 39.2139 52.4709 39.2344 52.2633ZM37.8939 48.5831L37.6287 51.3281H34.4136L34.1481 48.5831C34.1308 48.4057 34.0574 48.2385 33.9385 48.1057C33.8197 47.9729 33.6616 47.8815 33.4872 47.8447C32.0471 47.5253 30.6768 46.9478 29.4425 46.1402C29.2917 46.0431 29.1138 45.9967 28.9348 46.0075C28.7558 46.0184 28.5849 46.0861 28.4469 46.2007L26.3256 47.9585L24.0623 45.6961L25.8188 43.5748C25.9345 43.435 26.0021 43.2616 26.0115 43.0803C26.0209 42.8991 25.9716 42.7196 25.8709 42.5686C25.0587 41.3411 24.4821 39.9732 24.1708 38.5346C24.1328 38.3598 24.0404 38.2016 23.9067 38.0828C23.773 37.9641 23.605 37.8908 23.427 37.8737L20.6719 37.6076V34.3924L23.4281 34.127C23.6062 34.1098 23.7743 34.0365 23.908 33.9176C24.0417 33.7986 24.1341 33.6403 24.1719 33.4654C24.4923 32.0252 25.0706 30.6549 25.8789 29.4207C25.9762 29.27 26.0229 29.0923 26.0123 28.9132C26.0016 28.7342 25.9343 28.5632 25.8199 28.4251L24.0623 26.3036L26.325 24.0412L28.4463 25.7979C28.5861 25.9137 28.7595 25.9813 28.9408 25.9907C29.122 26.0001 29.3015 25.9508 29.4525 25.8501C30.68 25.038 32.0481 24.4614 33.4866 24.1499C33.6606 24.1143 33.8187 24.024 33.9376 23.8921C34.0565 23.7601 34.1301 23.5936 34.1475 23.4169L34.4136 20.6719H37.6287L37.8944 23.4169C37.9116 23.5943 37.985 23.7615 38.1039 23.8943C38.2228 24.0271 38.3809 24.1185 38.5553 24.1553C39.9953 24.4747 41.3657 25.0522 42.6 25.8598C42.7508 25.9569 42.9286 26.0033 43.1077 25.9924C43.2867 25.9816 43.4576 25.9139 43.5956 25.7993L45.7131 24.045L47.9402 26.3002L46.1812 28.4252C46.0655 28.565 45.9979 28.7384 45.9885 28.9197C45.9791 29.1009 46.0284 29.2804 46.1291 29.4314C46.9413 30.6589 47.5179 32.0268 47.8292 33.4654C47.867 33.6403 47.9594 33.7986 48.0931 33.9176C48.2268 34.0365 48.3949 34.1098 48.573 34.127L51.3293 34.3924V37.6085L48.6152 37.8731C48.4373 37.8904 48.2696 37.9638 48.1361 38.0826C48.0026 38.2013 47.9103 38.3594 47.8724 38.5341C47.5521 39.9742 46.9737 41.3445 46.1654 42.5787C46.0681 42.7294 46.0215 42.9072 46.0321 43.0862C46.0427 43.2652 46.1102 43.4362 46.2246 43.5743L47.9813 45.6958L45.7172 47.9587L43.5959 46.2021C43.4561 46.0863 43.2826 46.0187 43.1013 46.0093C42.9201 45.9999 42.7406 46.0492 42.5895 46.1499C41.3618 46.9605 39.9938 47.5352 38.5556 47.8447C38.3811 47.8814 38.2229 47.9728 38.104 48.1056C37.9851 48.2384 37.9116 48.4057 37.8944 48.5831H37.8939Z" fill="#002766"/>
<path d="M46.1085 36C46.1085 34.0049 45.5169 32.0546 44.4085 30.3957C43.3001 28.7368 41.7247 27.4438 39.8814 26.6803C38.0382 25.9168 36.0099 25.717 34.0531 26.1062C32.0963 26.4955 30.2989 27.4562 28.8881 28.867C27.4774 30.2777 26.5166 32.0752 26.1274 34.0319C25.7382 35.9887 25.938 38.017 26.7015 39.8602C27.465 41.7035 28.758 43.2789 30.4169 44.3873C32.0757 45.4958 34.0261 46.0873 36.0212 46.0873C38.6956 46.0843 41.2596 45.0206 43.1507 43.1295C45.0418 41.2384 46.1055 38.6744 46.1085 36ZM36.0212 44.3998C34.3599 44.3998 32.7359 43.9072 31.3545 42.9842C29.9732 42.0612 28.8965 40.7493 28.2608 39.2145C27.625 37.6796 27.4587 35.9907 27.7828 34.3613C28.1069 32.7319 28.9069 31.2352 30.0816 30.0604C31.2564 28.8857 32.7531 28.0857 34.3825 27.7616C36.0119 27.4375 37.7008 27.6038 39.2357 28.2396C40.7705 28.8754 42.0824 29.952 43.0054 31.3333C43.9284 32.7147 44.421 34.3387 44.421 36C44.4185 38.227 43.5327 40.3621 41.958 41.9368C40.3832 43.5115 38.2482 44.3973 36.0212 44.3998Z" fill="#002766"/>
<path d="M36.0205 29.8125C34.7967 29.8125 33.6004 30.1754 32.5829 30.8553C31.5654 31.5352 30.7723 32.5015 30.304 33.6321C29.8357 34.7628 29.7132 36.0069 29.9519 37.2071C30.1906 38.4074 30.7799 39.5099 31.6453 40.3752C32.5106 41.2406 33.6131 41.8299 34.8134 42.0686C36.0136 42.3074 37.2577 42.1848 38.3884 41.7165C39.519 41.2482 40.4853 40.4551 41.1652 39.4376C41.8451 38.4201 42.208 37.2238 42.208 36C42.2062 34.3595 41.5537 32.7868 40.3937 31.6268C39.2337 30.4668 37.661 29.8143 36.0205 29.8125ZM36.0205 40.5C35.1305 40.5 34.2605 40.2361 33.5204 39.7416C32.7804 39.2472 32.2036 38.5443 31.8631 37.7221C31.5225 36.8998 31.4333 35.995 31.607 35.1221C31.7806 34.2492 32.2092 33.4474 32.8385 32.818C33.4679 32.1887 34.2697 31.7601 35.1426 31.5865C36.0155 31.4128 36.9203 31.5019 37.7426 31.8425C38.5649 32.1831 39.2677 32.7599 39.7621 33.4999C40.2566 34.24 40.5205 35.11 40.5205 36C40.5192 37.1931 40.0446 38.3369 39.201 39.1805C38.3574 40.0241 37.2136 40.4987 36.0205 40.5Z" fill="#002766"/>
</svg>
