<svg width="72" height="72" viewBox="0 0 72 72" fill="none" xmlns="http://www.w3.org/2000/svg">
<g clip-path="url(#clip0)">
<path d="M3.91797 59.7668H41.2148C41.494 59.7668 41.7618 59.6518 41.9592 59.447C42.1567 59.2422 42.2676 58.9644 42.2676 58.6747C42.2676 58.3851 42.1567 58.1073 41.9592 57.9025C41.7618 57.6977 41.494 57.5826 41.2148 57.5826H3.91797C3.3968 57.5755 2.89933 57.3556 2.53337 56.9706C2.16742 56.5855 1.96245 56.0664 1.96289 55.5257V18.231C1.96386 17.9666 2.01534 17.7051 2.11437 17.4615C2.21339 17.2178 2.35798 16.997 2.53979 16.8117C2.7216 16.6264 2.93701 16.4804 3.17356 16.382C3.41012 16.2836 3.66313 16.2349 3.91797 16.2386H57.0059C57.2607 16.2349 57.5137 16.2836 57.7503 16.382C57.9868 16.4804 58.2022 16.6264 58.384 16.8117C58.5658 16.997 58.7104 17.2178 58.8095 17.4615C58.9085 17.7051 58.96 17.9666 58.9609 18.231V27.169C58.9609 27.4586 59.0719 27.7364 59.2693 27.9412C59.4667 28.146 59.7345 28.2611 60.0137 28.2611C60.2929 28.2611 60.5606 28.146 60.7581 27.9412C60.9555 27.7364 61.0664 27.4586 61.0664 27.169V18.231C61.0651 17.6799 60.959 17.1345 60.754 16.626C60.5491 16.1175 60.2494 15.656 59.8722 15.268C59.4949 14.8799 59.0475 14.573 58.5556 14.3647C58.0638 14.1564 57.5371 14.051 57.0059 14.0543H3.91797C3.38672 14.051 2.86005 14.1564 2.36819 14.3647C1.87632 14.573 1.42893 14.8799 1.05167 15.268C0.674419 15.656 0.374727 16.1175 0.169789 16.626C-0.0351493 17.1345 -0.141301 17.6799 -0.142578 18.231V55.5257C-0.142445 56.6455 0.284527 57.7199 1.04521 58.5144C1.80589 59.3089 2.83856 59.7591 3.91797 59.7668Z" fill="#002766"/>
<path d="M54.75 26.7363C55.0292 26.7363 55.297 26.6212 55.4944 26.4164C55.6918 26.2116 55.8027 25.9338 55.8027 25.6442V23.0915C55.8027 21.0817 54.0295 19.515 51.8118 19.515H9.05501C6.83735 19.515 4.9707 21.3182 4.9707 23.6189V50.0773C4.98389 51.196 5.41867 52.265 6.182 53.0554C6.94533 53.8458 7.97657 54.2948 9.05501 54.3064H43.3495C43.6287 54.3064 43.8965 54.1913 44.0939 53.9865C44.2913 53.7817 44.4022 53.5039 44.4022 53.2143C44.4022 52.9246 44.2913 52.6469 44.0939 52.442C43.8965 52.2372 43.6287 52.1222 43.3495 52.1222H9.05501C8.53481 52.1112 8.03873 51.8925 7.67011 51.5116C7.30148 51.1307 7.08873 50.6169 7.07617 50.0773V23.6189C7.07617 22.5226 7.99837 21.6992 9.05501 21.6992H51.8118C52.8506 21.6992 53.6973 22.2997 53.6973 23.0915V25.6442C53.6973 25.9338 53.8082 26.2116 54.0056 26.4164C54.203 26.6212 54.4708 26.7363 54.75 26.7363Z" fill="#002766"/>
<path d="M39.1094 33.7123H10.084C9.80478 33.7123 9.53702 33.8274 9.33959 34.0322C9.14216 34.237 9.03125 34.5148 9.03125 34.8044C9.03125 35.0941 9.14216 35.3719 9.33959 35.5767C9.53702 35.7815 9.80478 35.8966 10.084 35.8966H39.1094C39.3886 35.8966 39.6563 35.7815 39.8538 35.5767C40.0512 35.3719 40.1621 35.0941 40.1621 34.8044C40.1621 34.5148 40.0512 34.237 39.8538 34.0322C39.6563 33.8274 39.3886 33.7123 39.1094 33.7123Z" fill="#002766"/>
<path d="M10.084 47.1297H39.1094C39.3886 47.1297 39.6563 47.0146 39.8538 46.8098C40.0512 46.605 40.1621 46.3272 40.1621 46.0376C40.1621 45.7479 40.0512 45.4701 39.8538 45.2653C39.6563 45.0605 39.3886 44.9455 39.1094 44.9455H10.084C9.80478 44.9455 9.53702 45.0605 9.33959 45.2653C9.14216 45.4701 9.03125 45.7479 9.03125 46.0376C9.03125 46.3272 9.14216 46.605 9.33959 46.8098C9.53702 47.0146 9.80478 47.1297 10.084 47.1297Z" fill="#002766"/>
<path d="M10.084 41.3571H30.0859C30.3651 41.3571 30.6329 41.2421 30.8303 41.0372C31.0278 40.8324 31.1387 40.5547 31.1387 40.265C31.1387 39.9754 31.0278 39.6976 30.8303 39.4928C30.6329 39.288 30.3651 39.1729 30.0859 39.1729H10.084C9.80478 39.1729 9.53702 39.288 9.33959 39.4928C9.14216 39.6976 9.03125 39.9754 9.03125 40.265C9.03125 40.5547 9.14216 40.8324 9.33959 41.0372C9.53702 41.2421 9.80478 41.3571 10.084 41.3571Z" fill="#002766"/>
<path d="M54.7484 48.3288C56.4923 48.3348 58.1987 47.8038 59.6515 46.8031C61.1043 45.8024 62.2382 44.377 62.9095 42.7073C63.5809 41.0376 63.7596 39.1988 63.4229 37.4237C63.0863 35.6487 62.2494 34.0171 61.0183 32.7358C59.7873 31.4544 58.2173 30.5809 56.5074 30.2257C54.7974 29.8706 53.0243 30.0498 51.4126 30.7408C49.8009 31.4317 48.4231 32.6033 47.4537 34.1071C46.4843 35.6109 45.9668 37.3793 45.9668 39.1884C45.9656 41.6077 46.8895 43.9288 48.5358 45.6423C50.1821 47.3559 52.4163 48.322 54.7484 48.3288ZM54.7484 32.2322C56.0759 32.2262 57.3752 32.629 58.4817 33.3897C59.5883 34.1504 60.4523 35.2347 60.9643 36.5053C61.4763 37.7758 61.6133 39.1754 61.3579 40.5268C61.1025 41.8782 60.4662 43.1205 59.5296 44.0964C58.593 45.0723 57.3983 45.7378 56.0967 46.0087C54.7952 46.2796 53.4455 46.1436 52.2185 45.618C50.9915 45.0924 49.9425 44.2009 49.2044 43.0563C48.4663 41.9117 48.0723 40.5656 48.0723 39.1884C48.0704 37.3482 48.7723 35.5824 50.0239 34.2783C51.2754 32.9742 52.9745 32.2383 54.7484 32.2322Z" fill="#1388F7"/>
<path d="M65.2418 48.0366C66.1246 47.5147 66.7951 46.6783 67.1286 45.6826C67.4622 44.6868 67.4363 43.5994 67.0558 42.6219C67.5567 42.2131 67.9616 41.6917 68.2401 41.097C68.5185 40.5022 68.6632 39.8497 68.6632 39.1885C68.6632 38.5273 68.5185 37.8748 68.2401 37.28C67.9616 36.6853 67.5567 36.1639 67.0558 35.7551C67.2937 35.1422 67.3944 34.4813 67.3501 33.8222C67.3059 33.1631 67.1179 32.5231 66.8004 31.9504C66.4829 31.3776 66.0441 30.8872 65.5172 30.5161C64.9903 30.145 64.389 29.9029 63.7588 29.8081C63.671 29.1543 63.441 28.5299 63.086 27.9821C62.731 27.4343 62.2604 26.9776 61.7099 26.6466C61.1595 26.3156 60.5436 26.119 59.9089 26.0717C59.2743 26.0244 58.6377 26.1276 58.0472 26.3735C57.6558 25.8531 57.1551 25.4321 56.5833 25.1426C56.0114 24.853 55.3835 24.7025 54.7472 24.7025C54.1109 24.7025 53.483 24.853 52.9111 25.1426C52.3393 25.4321 51.8386 25.8531 51.4472 26.3735C50.8566 26.1275 50.2198 26.0242 49.5851 26.0715C48.9503 26.1189 48.3343 26.3155 47.7837 26.6466C47.2332 26.9777 46.7625 27.4345 46.4075 27.9825C46.0525 28.5304 45.8224 29.155 45.7347 29.8088C45.1045 29.9035 44.5033 30.1455 43.9764 30.5165C43.4496 30.8875 43.0109 31.3778 42.6934 31.9505C42.376 32.5231 42.1881 33.1631 42.144 33.8221C42.1 34.4812 42.2008 35.1419 42.4389 35.7546C41.9382 36.1635 41.5334 36.6849 41.2551 37.2796C40.9768 37.8743 40.8322 38.5268 40.8322 39.1879C40.8322 39.849 40.9768 40.5014 41.2551 41.0961C41.5334 41.6908 41.9382 42.2123 42.4389 42.6211C42.0584 43.5987 42.0325 44.6862 42.3661 45.682C42.6996 46.6778 43.3701 47.5143 44.2529 48.0363L38.4465 63.5405C38.374 63.7339 38.3562 63.9448 38.3951 64.1484C38.434 64.352 38.528 64.5399 38.6661 64.69C38.8042 64.8402 38.9807 64.9464 39.1749 64.9963C39.3692 65.0461 39.5731 65.0375 39.7627 64.9715L45.7815 62.8752L49.0477 68.7587C49.14 68.925 49.2729 69.063 49.433 69.1591C49.5931 69.2551 49.7747 69.3057 49.9597 69.3057C49.9863 69.3057 50.0131 69.3046 50.04 69.3026C50.2379 69.287 50.4276 69.2136 50.5871 69.0909C50.7466 68.9682 50.8693 68.8012 50.9413 68.6093L54.7484 58.4453L58.556 68.6093C58.6279 68.8013 58.7507 68.9682 58.9102 69.0909C59.0697 69.2136 59.2594 69.287 59.4574 69.3026C59.4841 69.3046 59.5108 69.3057 59.5374 69.3057C59.7224 69.3057 59.904 69.2551 60.0641 69.159C60.2242 69.0629 60.3571 68.9248 60.4494 68.7586L63.715 62.8752L69.7341 64.9715C69.9238 65.0375 70.1276 65.0461 70.3219 64.9963C70.5161 64.9464 70.6926 64.8402 70.8307 64.69C70.9688 64.5399 71.0628 64.352 71.1017 64.1484C71.1406 63.9448 71.1228 63.7339 71.0503 63.5405L65.2418 48.0366ZM44.8886 41.9411C44.8461 41.7762 44.7668 41.624 44.6573 41.4967C44.5477 41.3693 44.411 41.2704 44.2579 41.2078C43.8684 41.0468 43.5345 40.7683 43.2992 40.4083C43.0639 40.0482 42.9381 39.6233 42.9381 39.1883C42.9381 38.7534 43.0639 38.3284 43.2992 37.9684C43.5345 37.6084 43.8684 37.3299 44.2579 37.1689C44.411 37.1063 44.5477 37.0073 44.6573 36.88C44.7668 36.7526 44.846 36.6004 44.8886 36.4355C44.9312 36.2707 44.9359 36.0978 44.9025 35.9307C44.869 35.7635 44.7982 35.6069 44.6958 35.4733C44.4333 35.1326 44.2762 34.7176 44.2451 34.2826C44.2139 33.8476 44.3103 33.4131 44.5214 33.0359C44.7275 32.6588 45.0393 32.3558 45.4153 32.1669C45.7914 31.9781 46.2139 31.9124 46.6269 31.9786C46.7899 32.0043 46.9564 31.9899 47.1131 31.9366C47.2697 31.8833 47.4121 31.7926 47.5288 31.6717C47.6455 31.5509 47.7332 31.4033 47.7848 31.2408C47.8364 31.0784 47.8506 30.9057 47.8261 30.7365C47.7615 30.3059 47.8241 29.865 48.0056 29.472C48.1871 29.0789 48.4791 28.7521 48.8432 28.5345C49.2036 28.3159 49.6196 28.2162 50.0359 28.2486C50.4523 28.281 50.8493 28.444 51.1742 28.716C51.3031 28.8229 51.4543 28.8969 51.6158 28.932C51.7773 28.9671 51.9444 28.9623 52.1038 28.9181C52.2632 28.8739 52.4103 28.7914 52.5333 28.6774C52.6563 28.5633 52.7518 28.4208 52.812 28.2615C52.9633 27.8567 53.2291 27.5089 53.5744 27.2636C53.9197 27.0183 54.3284 26.8871 54.7469 26.8871C55.1654 26.8871 55.5741 27.0183 55.9194 27.2636C56.2647 27.5089 56.5305 27.8567 56.6818 28.2615C56.742 28.421 56.8374 28.5635 56.9605 28.6776C57.0836 28.7918 57.2308 28.8743 57.3902 28.9185C57.5497 28.9628 57.7169 28.9675 57.8785 28.9323C58.04 28.8971 58.1913 28.823 58.3202 28.716C58.6451 28.4439 59.0421 28.2808 59.4585 28.2484C59.8749 28.2161 60.2909 28.316 60.6512 28.5348C61.015 28.7521 61.3068 29.0786 61.4882 29.4713C61.6697 29.8639 61.7322 30.3044 61.6677 30.7346C61.6432 30.9038 61.6573 31.0765 61.7089 31.239C61.7605 31.4014 61.8482 31.549 61.9649 31.6699C62.0815 31.7907 62.2239 31.8815 62.3806 31.9348C62.5372 31.9881 62.7038 32.0025 62.8668 31.9768C63.28 31.9107 63.7029 31.9765 64.0792 32.1656C64.4555 32.3547 64.7675 32.6582 64.9736 33.0356C65.1848 33.4127 65.2812 33.8473 65.2501 34.2823C65.2191 34.7173 65.062 35.1324 64.7996 35.4731C64.6973 35.6068 64.6265 35.7634 64.5931 35.9305C64.5596 36.0976 64.5643 36.2705 64.6069 36.4353C64.6495 36.6001 64.7287 36.7523 64.8382 36.8797C64.9478 37.007 65.0845 37.106 65.2376 37.1686C65.6271 37.3295 65.9611 37.608 66.1964 37.968C66.4318 38.3281 66.5576 38.753 66.5576 39.188C66.5576 39.623 66.4318 40.048 66.1964 40.408C65.9611 40.768 65.6271 41.0465 65.2376 41.2075C65.0845 41.2701 64.9478 41.3689 64.8383 41.4962C64.7287 41.6235 64.6495 41.7756 64.6069 41.9404C64.5642 42.1052 64.5594 42.278 64.5928 42.4451C64.6261 42.6122 64.6968 42.7688 64.799 42.9024C65.0614 43.2433 65.2185 43.6584 65.2497 44.0934C65.2809 44.5284 65.1848 44.9631 64.9739 45.3405C64.8328 45.598 64.6416 45.8222 64.4125 45.9989C64.1834 46.1756 63.9213 46.301 63.643 46.3669C63.389 46.4294 63.1257 46.4404 62.8677 46.3994C62.7046 46.3735 62.538 46.3878 62.3812 46.4411C62.2244 46.4943 62.0819 46.585 61.9651 46.7059C61.8484 46.8268 61.7606 46.9744 61.7089 47.137C61.6573 47.2995 61.6432 47.4723 61.6677 47.6416C61.7322 48.0718 61.6696 48.5122 61.4882 48.9049C61.3068 49.2975 61.0151 49.624 60.6514 49.8414C60.291 50.0602 59.875 50.16 59.4586 50.1276C59.0423 50.0953 58.6453 49.9323 58.3203 49.6603C58.1915 49.5532 58.0402 49.4791 57.8786 49.4439C57.7171 49.4087 57.5498 49.4135 57.3904 49.4577C57.2309 49.5019 57.0837 49.5844 56.9606 49.6986C56.8376 49.8127 56.7421 49.9553 56.682 50.1147C56.5316 50.5201 56.2661 50.8686 55.9206 51.1139C55.5751 51.3593 55.1659 51.4901 54.7472 51.4889C54.4856 51.4898 54.2263 51.4386 53.9834 51.338C53.718 51.228 53.4771 51.0626 53.2757 50.8522C53.0743 50.6418 52.9166 50.3908 52.8123 50.1147C52.7521 49.9553 52.6567 49.8127 52.5337 49.6986C52.4107 49.5844 52.2636 49.5019 52.1041 49.4576C51.9447 49.4133 51.7775 49.4086 51.6159 49.4437C51.4544 49.4788 51.3031 49.5528 51.1742 49.6598C50.8493 49.9317 50.4523 50.0948 50.036 50.1272C49.6196 50.1597 49.2036 50.06 48.8432 49.8415C48.4793 49.624 48.1874 49.2973 48.0058 48.9043C47.8243 48.5114 47.7616 48.0707 47.8261 47.6402C47.8505 47.4712 47.8363 47.2987 47.7848 47.1365C47.7333 46.9742 47.6458 46.8268 47.5293 46.706C47.4129 46.5852 47.2707 46.4945 47.1143 46.441C46.958 46.3876 46.7917 46.3729 46.6288 46.3983C46.2143 46.4608 45.7912 46.3926 45.4145 46.2025C45.0378 46.0124 44.7249 45.7092 44.5164 45.3323C44.308 44.9554 44.2135 44.5221 44.2454 44.0888C44.2773 43.6555 44.434 43.2422 44.6952 42.9024C44.7976 42.769 44.8684 42.6125 44.902 42.4456C44.9356 42.2786 44.931 42.1059 44.8886 41.9411ZM49.7744 65.6922L47.1753 61.0102C47.054 60.7916 46.8634 60.6234 46.636 60.534C46.4087 60.4447 46.1585 60.4397 45.928 60.52L41.2221 62.1582L45.9632 49.5017C46.1604 50.0435 46.4599 50.5389 46.8441 50.959C47.2283 51.379 47.6895 51.7153 48.2006 51.9481C48.7118 52.1808 49.2625 52.3053 49.8207 52.3144C50.3788 52.3234 50.9331 52.2167 51.4509 52.0006C51.8079 52.4744 52.2553 52.8666 52.7652 53.1525L53.6182 55.4303L49.7744 65.6922ZM63.5672 60.52C63.3366 60.4397 63.0865 60.4447 62.8591 60.5341C62.6317 60.6235 62.4412 60.7918 62.3198 61.0104L59.7211 65.6921L55.2094 53.6477C55.7649 53.5861 56.3027 53.4087 56.7905 53.1261C57.2783 52.8436 57.706 52.4616 58.048 52.0033C58.5657 52.2187 59.1197 52.3248 59.6775 52.3153C60.2353 52.3058 60.7856 52.1809 61.2963 51.948C61.807 51.7151 62.2678 51.3789 62.6516 50.9589C63.0354 50.539 63.3346 50.0438 63.5317 49.5024L68.2729 62.159L63.5672 60.52Z" fill="#1388F7"/>
</g>
<defs>
<clipPath id="clip0">
<rect width="72" height="72" fill="white"/>
</clipPath>
</defs>
</svg>
