<svg width="72" height="72" viewBox="0 0 72 72" fill="none" xmlns="http://www.w3.org/2000/svg">
<path d="M36.8996 4.00001C36.8996 3.50295 36.4967 3.10001 35.9996 3.10001C35.5026 3.10001 35.0996 3.50295 35.0996 4.00001V14C35.0996 14.4971 35.5026 14.9 35.9996 14.9C36.4967 14.9 36.8996 14.4971 36.8996 14V4.00001Z" fill="#1388F7"/>
<path d="M24.8534 7.7154C24.6962 7.24385 24.1866 6.98901 23.715 7.14619C23.2435 7.30337 22.9886 7.81306 23.1458 8.28461L25.1458 14.2846C25.303 14.7562 25.8127 15.011 26.2842 14.8538C26.7558 14.6966 27.0106 14.187 26.8534 13.7154L24.8534 7.7154Z" fill="#1388F7"/>
<path d="M48.8534 8.28461C49.0106 7.81306 48.7558 7.30337 48.2842 7.14619C47.8127 6.98901 47.303 7.24385 47.1458 7.7154L45.1458 13.7154C44.9886 14.187 45.2435 14.6966 45.715 14.8538C46.1866 15.011 46.6962 14.7562 46.8534 14.2846L48.8534 8.28461Z" fill="#1388F7"/>
<path d="M10.636 11.3636C10.2845 11.0121 9.71469 11.0121 9.36321 11.3636C9.01174 11.7151 9.01174 12.2849 9.36321 12.6364L15.3632 18.6364C15.7147 18.9879 16.2845 18.9879 16.636 18.6364C16.9875 18.2849 16.9875 17.7151 16.636 17.3636L10.636 11.3636Z" fill="#1388F7"/>
<path d="M62.636 12.6364C62.9875 12.2849 62.9875 11.7151 62.636 11.3636C62.2845 11.0121 61.7147 11.0121 61.3632 11.3636L55.3632 17.3636C55.0117 17.7151 55.0117 18.2849 55.3632 18.6364C55.7147 18.9879 56.2845 18.9879 56.636 18.6364L62.636 12.6364Z" fill="#1388F7"/>
<path fill-rule="evenodd" clip-rule="evenodd" d="M17.9996 23.1C17.709 23.1 17.4362 23.2404 17.2673 23.4769L7.26726 37.4769C7.01833 37.8254 7.04946 38.301 7.34167 38.6141L35.3417 68.6141C35.5119 68.7965 35.7502 68.9 35.9996 68.9C36.2491 68.9 36.4874 68.7965 36.6576 68.6141L64.6576 38.6141C64.9498 38.301 64.9809 37.8254 64.732 37.4769L54.732 23.4769C54.563 23.2404 54.2903 23.1 53.9996 23.1H17.9996ZM9.74849 37.1L17.9604 25.6033L25.3511 37.1H9.74849ZM34.0318 64.5725L26.33 38.9H10.0707L34.0318 64.5725ZM61.9285 38.9L37.9675 64.5725L45.6692 38.9H61.9285ZM28.2092 38.9H43.79L35.9996 64.8679L28.2092 38.9ZM62.2507 37.1H46.6481L54.0388 25.6033L62.2507 37.1ZM44.9996 36.3357L37.6481 24.9H52.3511L44.9996 36.3357ZM35.9996 25.6643L43.3511 37.1H28.6481L35.9996 25.6643ZM34.3511 24.9L26.9996 36.3357L19.6481 24.9H34.3511Z" fill="#002766"/>
</svg>
