<svg width="72" height="72" viewBox="0 0 72 72" fill="none" xmlns="http://www.w3.org/2000/svg">
<path d="M31.4799 48.6069C35.23 48.611 38.9549 47.9932 42.5029 46.7788C42.6091 46.7439 42.7072 46.6883 42.7916 46.6152C42.8761 46.5421 42.9452 46.453 42.9949 46.353C43.0447 46.253 43.074 46.1441 43.0814 46.0326C43.0887 45.9212 43.0738 45.8094 43.0376 45.7037C43.0014 45.598 42.9446 45.5006 42.8704 45.4171C42.7963 45.3336 42.7063 45.2656 42.6057 45.2171C42.505 45.1686 42.3958 45.1406 42.2842 45.1347C42.1727 45.1287 42.0611 45.145 41.9559 45.1826C34.5785 47.7084 26.5366 47.4818 19.313 44.5447C12.0894 41.6076 6.17127 36.158 2.64967 29.2007C5.34713 23.8702 9.4696 19.3919 14.5591 16.2634C19.6485 13.1349 25.5057 11.4786 31.4798 11.4786C37.454 11.4786 43.3111 13.1349 48.4006 16.2634C53.4901 19.3919 57.6125 23.8702 60.31 29.2007C59.7005 30.4027 59.0165 31.5655 58.2619 32.6823C58.1366 32.8677 58.0901 33.0953 58.1326 33.315C58.1752 33.5347 58.3032 33.7285 58.4886 33.8538C58.674 33.9791 58.9016 34.0256 59.1213 33.9831C59.3411 33.9406 59.5349 33.8125 59.6602 33.6271C60.5358 32.3311 61.321 30.9763 62.0104 29.5723C62.0672 29.4567 62.0967 29.3296 62.0967 29.2007C62.0967 29.0719 62.0672 28.9448 62.0104 28.8291C59.2116 23.1178 54.8669 18.3061 49.4699 14.9407C44.073 11.5753 37.8402 9.79126 31.48 9.79126C25.1197 9.79126 18.887 11.5753 13.4901 14.9407C8.09311 18.3061 3.74836 23.1178 0.949518 28.8291C0.892781 28.9448 0.863281 29.0719 0.863281 29.2007C0.863281 29.3296 0.892781 29.4567 0.949518 29.5723C3.71127 35.1986 7.97109 39.9544 13.2605 43.3166C18.706 46.779 25.0269 48.6144 31.4799 48.6069Z" fill="#002766"/>
<path d="M25.6909 23.0625C24.6767 24.0767 23.9431 25.3367 23.5619 26.7193C23.1806 28.1019 23.1647 29.5598 23.5157 30.9505C23.8667 32.3411 24.5726 33.6168 25.5644 34.6528C26.5562 35.6889 27.7999 36.4498 29.1738 36.8612C30.5478 37.2725 32.005 37.3202 33.403 36.9997C34.8009 36.6791 36.0917 36.0012 37.1492 35.0323C38.2066 34.0634 38.9945 32.8366 39.4358 31.4719C39.877 30.1072 39.9566 28.6514 39.6666 27.2468C39.6363 27.0996 39.5672 26.9631 39.4664 26.8515C39.3657 26.7399 39.237 26.6573 39.0936 26.6121C38.9502 26.567 38.7974 26.561 38.6509 26.5947C38.5044 26.6284 38.3695 26.7007 38.2603 26.804C37.711 27.3251 36.9784 27.6087 36.2214 27.5932C35.4643 27.5777 34.7439 27.2643 34.2164 26.7211C33.6889 26.1778 33.3969 25.4485 33.4037 24.6914C33.4104 23.9342 33.7154 23.2102 34.2525 22.6765C34.3076 22.6212 34.3711 22.564 34.441 22.5047C34.5557 22.4081 34.6427 22.2826 34.6928 22.1412C34.743 21.9998 34.7545 21.8476 34.7263 21.7003C34.6981 21.553 34.631 21.4158 34.5322 21.303C34.4333 21.1902 34.3061 21.1058 34.1638 21.0585C32.7052 20.5683 31.1385 20.4962 29.6411 20.8504C28.1437 21.2046 26.7753 21.9709 25.6909 23.0625ZM33.0596 27.9401C33.7107 28.5981 34.5475 29.0412 35.4576 29.21C36.3678 29.3788 37.3078 29.2652 38.1515 28.8844C38.1621 30.2311 37.7617 31.549 37.0036 32.6621C36.2455 33.7752 35.1658 34.6305 33.9088 35.1139C32.6518 35.5972 31.2773 35.6856 29.9687 35.3671C28.6602 35.0487 27.4799 34.3386 26.5856 33.3317C25.6912 32.3248 25.1253 31.069 24.9635 29.732C24.8016 28.395 25.0515 27.0405 25.6798 25.8493C26.3081 24.6581 27.2848 23.6869 28.4796 23.0654C29.6743 22.4439 31.0303 22.2017 32.3663 22.3712C31.8462 23.2444 31.632 24.266 31.7576 25.2746C31.8833 26.2832 32.3416 27.2211 33.06 27.94L33.0596 27.9401Z" fill="#002766"/>
<path d="M18.7275 29.2007C18.7275 31.7598 19.4863 34.2614 20.9081 36.3893C22.3298 38.5171 24.3506 40.1756 26.7149 41.1549C29.0792 42.1343 31.6808 42.3905 34.1908 41.8913C36.7007 41.392 39.0063 40.1597 40.8158 38.3502C42.6254 36.5406 43.8577 34.2351 44.357 31.7252C44.8563 29.2152 44.6 26.6136 43.6207 24.2493C42.6414 21.885 40.983 19.8642 38.8552 18.4424C36.7273 17.0206 34.2257 16.2618 31.6666 16.2618C28.2362 16.2657 24.9473 17.6301 22.5216 20.0558C20.0959 22.4814 18.7314 25.7703 18.7275 29.2007ZM42.9181 29.2007C42.9182 31.426 42.2583 33.6014 41.022 35.4518C39.7857 37.3021 38.0284 38.7442 35.9725 39.5959C33.9165 40.4475 31.6542 40.6703 29.4716 40.2362C27.289 39.8021 25.2842 38.7305 23.7106 37.1569C22.137 35.5834 21.0654 33.5785 20.6312 31.396C20.1971 29.2134 20.4199 26.951 21.2715 24.8951C22.1231 22.8391 23.5652 21.0819 25.4155 19.8455C27.2659 18.6092 29.4412 17.9493 31.6666 17.9493C34.6496 17.9526 37.5096 19.1391 39.6189 21.2484C41.7283 23.3577 42.9148 26.2176 42.9181 29.2007Z" fill="#002766"/>
<path d="M56.2305 32.3931C53.2823 32.3931 50.4003 33.2674 47.949 34.9053C45.4977 36.5432 43.5871 38.8712 42.4589 41.595C41.3307 44.3188 41.0355 47.3159 41.6106 50.2074C42.1858 53.099 43.6055 55.755 45.6902 57.8397C47.7748 59.9244 50.4309 61.344 53.3224 61.9192C56.2139 62.4944 59.2111 62.1992 61.9348 61.0709C64.6586 59.9427 66.9867 58.0322 68.6246 55.5808C70.2625 53.1295 71.1367 50.2476 71.1367 47.2994C71.1323 43.3474 69.5603 39.5585 66.7659 36.764C63.9714 33.9695 60.1825 32.3976 56.2305 32.3931ZM56.2305 60.5181C53.6161 60.5181 51.0603 59.7429 48.8865 58.2904C46.7127 56.8379 45.0184 54.7734 44.0179 52.358C43.0174 49.9426 42.7557 47.2847 43.2657 44.7205C43.7758 42.1563 45.0347 39.801 46.8834 37.9523C48.7321 36.1036 51.0874 34.8447 53.6516 34.3346C56.2158 33.8246 58.8737 34.0863 61.2891 35.0868C63.7045 36.0873 65.769 37.7816 67.2215 39.9554C68.674 42.1292 69.4492 44.685 69.4492 47.2994C69.4452 50.804 68.0512 54.1639 65.5731 56.642C63.095 59.1201 59.7351 60.5141 56.2305 60.5181Z" fill="#1388F7"/>
<path d="M61.266 43.164L54.6211 49.6516L51.1949 46.3067C51.1158 46.2285 51.022 46.1666 50.9189 46.1248C50.8158 46.083 50.7054 46.0619 50.5942 46.0629C50.4829 46.0639 50.373 46.0868 50.2706 46.1305C50.1683 46.1741 50.0756 46.2376 49.9978 46.3172C49.9201 46.3968 49.8589 46.491 49.8177 46.5943C49.7766 46.6977 49.7562 46.8082 49.7579 46.9194C49.7596 47.0307 49.7833 47.1405 49.8276 47.2425C49.8719 47.3446 49.9359 47.4369 50.016 47.5141L54.0315 51.4346C54.1892 51.5885 54.4007 51.6746 54.621 51.6746C54.8413 51.6746 55.0528 51.5885 55.2104 51.4346L62.4449 44.3714C62.525 44.2942 62.589 44.2019 62.6333 44.0998C62.6776 43.9978 62.7013 43.888 62.703 43.7767C62.7046 43.6655 62.6843 43.555 62.6431 43.4516C62.602 43.3483 62.5407 43.2541 62.463 43.1745C62.3853 43.0949 62.2926 43.0314 62.1903 42.9878C62.0879 42.9441 61.978 42.9212 61.8667 42.9202C61.7554 42.9192 61.6451 42.9403 61.542 42.9821C61.4389 43.0239 61.3451 43.0858 61.266 43.164Z" fill="#1388F7"/>
<path d="M27.148 67L25.312 64.564L23.452 67H22.168L24.676 63.748L22.288 60.64H23.572L25.324 62.932L27.064 60.64H28.324L25.924 63.748L28.456 67H27.148Z" fill="#1388F7"/>
<path d="M40.6004 68.72V70H30.7804V68.98L36.6004 63.28C37.3337 62.56 37.827 61.94 38.0804 61.42C38.347 60.8867 38.4804 60.3533 38.4804 59.82C38.4804 58.9933 38.1937 58.3533 37.6204 57.9C37.0604 57.4333 36.2537 57.2 35.2004 57.2C33.5604 57.2 32.287 57.72 31.3804 58.76L30.3604 57.88C30.907 57.24 31.6004 56.7467 32.4404 56.4C33.2937 56.0533 34.2537 55.88 35.3204 55.88C36.747 55.88 37.8737 56.22 38.7004 56.9C39.5404 57.5667 39.9604 58.4867 39.9604 59.66C39.9604 60.38 39.8004 61.0733 39.4804 61.74C39.1604 62.4067 38.5537 63.1733 37.6604 64.04L32.9004 68.72H40.6004Z" fill="#1388F7"/>
</svg>
