<svg width="72" height="72" viewBox="0 0 72 72" fill="none" xmlns="http://www.w3.org/2000/svg">
<path d="M28.0117 3.52283C12.6586 3.52283 0.167969 16.0134 0.167969 31.3666C0.167969 46.7197 12.6586 59.2103 28.0117 59.2103C32.4898 59.2095 36.9019 58.1314 40.8757 56.0668C41.0989 55.9504 41.2667 55.75 41.3421 55.5098C41.4176 55.2696 41.3946 55.0093 41.2781 54.7861C41.1616 54.5629 40.9612 54.3951 40.7211 54.3197C40.4809 54.2442 40.2205 54.2672 39.9973 54.3837C36.2949 56.3071 32.184 57.3114 28.0117 57.3119C13.7056 57.3119 2.06641 45.6729 2.06641 31.3666C2.06641 17.0603 13.7056 5.42126 28.0117 5.42126C41.0129 5.42126 52.0744 15.1281 53.7409 28.0006C53.7756 28.2483 53.9066 28.4722 54.1054 28.6239C54.3043 28.7755 54.5549 28.8425 54.8029 28.8104C55.0509 28.7783 55.2762 28.6496 55.4298 28.4524C55.5835 28.2551 55.6531 28.0052 55.6235 27.7569C53.8346 13.9411 41.9644 3.52283 28.0117 3.52283Z" fill="#002766"/>
<path d="M28.0115 19.5194C29.437 19.521 30.8037 20.088 31.8118 21.0961C32.8198 22.1041 33.3868 23.4708 33.3885 24.8964C33.3885 25.1481 33.4885 25.3896 33.6665 25.5676C33.8445 25.7456 34.0859 25.8456 34.3377 25.8456C34.5935 25.8471 34.8399 25.7487 35.0244 25.5715C35.209 25.3943 35.3171 25.1521 35.326 24.8964C35.3168 23.1402 34.6769 21.4458 33.5229 20.1221C32.3688 18.7983 30.7775 17.9334 29.039 17.6849V15.0941C29.039 14.8424 28.939 14.6009 28.761 14.4229C28.583 14.2449 28.3415 14.1449 28.0898 14.1449C27.838 14.1449 27.5966 14.2449 27.4186 14.4229C27.2406 14.6009 27.1405 14.8424 27.1405 15.0941V17.6849C25.3062 17.9151 23.6284 18.8354 22.4484 20.2586C21.2684 21.6817 20.6747 23.5009 20.7881 25.3462C20.9016 27.1915 21.7136 28.9242 23.059 30.1922C24.4045 31.4601 26.1823 32.168 28.0311 32.1718C29.4539 32.1704 30.8193 32.733 31.8281 33.7364C32.8368 34.7398 33.4067 36.1022 33.4129 37.525C33.419 38.9478 32.8609 40.3151 31.8608 41.3272C30.8607 42.3392 29.5002 42.9136 28.0774 42.9244C28.0572 42.923 28.0346 42.9213 28.0141 42.9213C27.9937 42.9213 27.9721 42.923 27.9518 42.9244C26.537 42.907 25.1859 42.3331 24.1909 41.3271C23.196 40.3211 22.6371 38.9638 22.6352 37.5488C22.6352 37.2971 22.5352 37.0556 22.3572 36.8776C22.1792 36.6996 21.9378 36.5996 21.686 36.5996C21.5634 36.6005 21.4423 36.626 21.3297 36.6745C21.2171 36.723 21.1153 36.7936 21.0305 36.8821C20.9456 36.9705 20.8794 37.0751 20.8356 37.1897C20.7919 37.3042 20.7715 37.4263 20.7757 37.5488C20.7732 39.3207 21.4191 41.0323 22.5916 42.3607C23.764 43.6892 25.3821 44.5427 27.1405 44.7604V47.6387C27.1405 47.8905 27.2406 48.1319 27.4186 48.3099C27.5966 48.4879 27.838 48.5879 28.0898 48.5879C28.3415 48.5879 28.583 48.4879 28.761 48.3099C28.939 48.1319 29.039 47.8905 29.039 47.6387V44.7604C30.8675 44.5092 32.5323 43.5727 33.6963 42.1403C34.8603 40.708 35.4366 38.8869 35.3085 37.0456C35.1804 35.2044 34.3575 33.4806 33.0063 32.2233C31.6552 30.9659 29.8768 30.2689 28.0311 30.2734C26.605 30.276 25.2363 29.712 24.2261 28.7054C23.2159 27.6989 22.6469 26.3323 22.6443 24.9062C22.6417 23.4801 23.2057 22.1114 24.2122 21.1012C25.2188 20.091 26.5854 19.522 28.0115 19.5194Z" fill="#002766"/>
<path d="M71.2619 34.7398L55.4612 26.9772C55.3329 26.9135 55.1917 26.8803 55.0484 26.8803C54.9052 26.8803 54.7639 26.9135 54.6357 26.9772L38.7812 34.7173C38.6175 34.7936 38.4781 34.9136 38.3781 35.064C38.2782 35.2144 38.2217 35.3894 38.2148 35.5699V50.379C38.2148 52.0048 38.6988 53.8215 39.5403 55.6329C40.6186 57.9533 42.2425 59.9556 43.9617 61.1267L54.5183 68.3126C54.6772 68.4198 54.8645 68.4771 55.0562 68.4771C55.2479 68.4771 55.4352 68.4198 55.5941 68.3126L66.1029 61.1267C69.2932 58.9542 71.7539 54.2333 71.7539 50.379V35.592C71.7616 35.4179 71.7194 35.2451 71.6322 35.0941C71.5451 34.9431 71.4166 34.8202 71.2619 34.7398ZM69.8555 50.379C69.8555 53.5606 67.6696 57.7639 65.0358 59.5578L55.0431 66.3793L45.0404 59.5576C43.5958 58.5737 42.1952 56.8523 41.2571 54.8329C40.5415 53.2929 40.1133 51.7112 40.1133 50.379V36.1622L54.9844 28.8864L69.8555 36.1836V50.379Z" fill="#1388F7"/>
<path d="M49.0314 46.5362C48.9426 46.4474 48.837 46.3771 48.7208 46.3294C48.6046 46.2817 48.48 46.2576 48.3544 46.2584C48.2288 46.2592 48.1046 46.2849 47.9889 46.334C47.8733 46.3832 47.7686 46.4548 47.6809 46.5447C47.5932 46.6346 47.5242 46.7411 47.4779 46.8579C47.4316 46.9747 47.409 47.0995 47.4113 47.2251C47.4136 47.3507 47.4408 47.4746 47.4914 47.5896C47.542 47.7046 47.6149 47.8084 47.7058 47.8951L52.4849 52.5567C52.6621 52.7296 52.9 52.8264 53.1476 52.8264C53.3953 52.8264 53.6332 52.7296 53.8104 52.5567L62.42 44.1596C62.51 44.0727 62.582 43.9689 62.6318 43.8542C62.6815 43.7394 62.7081 43.6159 62.71 43.4909C62.7119 43.3658 62.6891 43.2416 62.6428 43.1254C62.5965 43.0091 62.5278 42.9032 62.4404 42.8137C62.3531 42.7241 62.2489 42.6527 62.1339 42.6036C62.0188 42.5544 61.8952 42.5285 61.7701 42.5273C61.6451 42.5261 61.521 42.5496 61.405 42.5965C61.289 42.6434 61.1835 42.7128 61.0944 42.8006L53.1477 50.5513L49.0314 46.5362Z" fill="#1388F7"/>
</svg>
