<svg width="72" height="72" viewBox="0 0 72 72" fill="none" xmlns="http://www.w3.org/2000/svg">
<path d="M16.0809 51.3284C25.0308 56.9044 35.9071 58.4731 46.068 55.6555C56.2289 52.8372 64.7432 45.8888 69.5415 36.4998C69.7022 36.1856 69.7022 35.8143 69.5415 35.5002C63.103 22.9023 50.1481 14.9742 36 14.9742C21.8519 14.9742 8.89694 22.9023 2.45839 35.5002C2.29773 35.8143 2.29773 36.1856 2.45839 36.4998C5.57448 42.5835 10.2829 47.7089 16.0809 51.3284ZM17.2434 22.5324C25.5885 17.3334 35.7172 15.8311 45.2119 18.3845C54.7065 20.9379 62.716 27.3172 67.328 36C61.1722 47.5882 49.122 54.8322 36 54.8322C22.878 54.8322 10.8277 47.5882 4.67193 36C7.60808 30.4854 11.9438 25.8406 17.2434 22.5324Z" fill="#002766"/>
<path d="M36.0006 42.5806C37.9521 42.5799 39.8022 41.7131 41.0524 40.215C42.3027 38.7176 42.824 36.7419 42.4755 34.8218C42.4134 34.4819 42.1942 34.1906 41.8843 34.0371C41.5744 33.8836 41.2102 33.885 40.9011 34.0407C40.5976 34.1949 40.2613 34.2749 39.9207 34.2734C38.7097 34.2727 37.7279 33.2909 37.7271 32.0799C37.7257 31.7393 37.8057 31.403 37.9599 31.0988C38.1156 30.7903 38.117 30.4262 37.9635 30.1163C37.8093 29.8064 37.5186 29.5872 37.178 29.525C34.726 29.0802 32.2333 30.0584 30.7388 32.052C29.2436 34.0457 29.0029 36.7126 30.1176 38.9419C31.2315 41.1711 33.5086 42.5792 36.0006 42.5806ZM35.555 31.635C35.5407 31.7814 35.5336 31.9299 35.5336 32.0799C35.5357 34.5019 37.4986 36.4648 39.9207 36.467C40.0706 36.467 40.2184 36.4598 40.3655 36.4456C40.1306 38.7412 38.1584 40.4628 35.8521 40.3842C33.5457 40.3064 31.6942 38.4549 31.6163 36.1485C31.5378 33.8421 33.2594 31.87 35.555 31.635Z" fill="#002766"/>
<path d="M36.0001 48.0645C42.6607 48.0588 48.0589 42.6606 48.0646 36C48.0653 30.4097 44.2252 25.5507 38.7856 24.2611C33.346 22.9715 27.7329 25.5885 25.2237 30.584C24.3712 32.262 23.9299 34.1185 23.9356 36C23.9427 42.6599 29.3402 48.0574 36.0001 48.0645ZM27.1824 31.5708C29.1074 27.7364 33.2889 25.5842 37.5282 26.2476C41.7675 26.9102 45.0921 30.2369 45.7533 34.4762C46.4145 38.7155 44.2609 42.8963 40.4258 44.8192C39.0548 45.5154 37.5375 45.876 36.0001 45.871C30.5512 45.8645 26.1356 41.4489 26.1291 36C26.1249 34.4612 26.4855 32.9432 27.1824 31.5708Z" fill="#002766"/>
<path d="M19.744 2H3.09677C2.49126 2 2 2.49126 2 3.09677V19.744C2 20.3495 2.49126 20.8408 3.09677 20.8408C3.70228 20.8408 4.19355 20.3495 4.19355 19.744V4.19355H19.744C20.3495 4.19355 20.8408 3.70228 20.8408 3.09677C20.8408 2.49126 20.3495 2 19.744 2Z" fill="#1388F7"/>
<path d="M19.744 67.8064H4.19355V52.256C4.19355 51.6504 3.70228 51.1592 3.09677 51.1592C2.49126 51.1592 2 51.6504 2 52.256V68.9032C2 69.5087 2.49126 70 3.09677 70H19.744C20.3495 70 20.8408 69.5087 20.8408 68.9032C20.8408 68.2977 20.3495 67.8064 19.744 67.8064Z" fill="#1388F7"/>
<path d="M52.256 70H68.9032C69.5087 70 70 69.5087 70 68.9032V52.256C70 51.6504 69.5087 51.1592 68.9032 51.1592C68.2977 51.1592 67.8064 51.6504 67.8064 52.256V67.8064H52.256C51.6504 67.8064 51.1592 68.2977 51.1592 68.9032C51.1592 69.5087 51.6504 70 52.256 70Z" fill="#1388F7"/>
<path d="M52.256 4.19355H67.8064V19.744C67.8064 20.3495 68.2977 20.8408 68.9032 20.8408C69.5087 20.8408 70 20.3495 70 19.744V3.09677C70 2.49126 69.5087 2 68.9032 2H52.256C51.6504 2 51.1592 2.49126 51.1592 3.09677C51.1592 3.70228 51.6504 4.19355 52.256 4.19355Z" fill="#1388F7"/>
</svg>
