<svg width="72" height="72" viewBox="0 0 72 72" fill="none" xmlns="http://www.w3.org/2000/svg">
<path d="M56.593 18.3402H56.8205C58.0301 18.3389 59.1897 17.8578 60.045 17.0025C60.9003 16.1472 61.3814 14.9876 61.3828 13.778V11.6344C61.3814 10.4248 60.9003 9.26514 60.045 8.40984C59.1897 7.55454 58.0301 7.07343 56.8205 7.07205H56.593C55.3835 7.07358 54.224 7.55476 53.3688 8.41004C52.5137 9.26532 52.0326 10.4249 52.0312 11.6344V13.778C52.0327 14.9875 52.5137 16.147 53.3689 17.0023C54.2241 17.8575 55.3835 18.3387 56.593 18.3402ZM53.7188 11.6344C53.7196 10.8723 54.0227 10.1417 54.5615 9.60275C55.1004 9.06383 55.8309 8.76059 56.593 8.75955H56.8205C57.5827 8.76041 58.3134 9.06356 58.8524 9.60251C59.3913 10.1415 59.6945 10.8722 59.6953 11.6344V13.778C59.6945 14.5402 59.3913 15.2709 58.8524 15.8098C58.3135 16.3487 57.5828 16.6518 56.8207 16.6527H56.5931C55.831 16.6517 55.1005 16.3485 54.5616 15.8096C54.0228 15.2707 53.7196 14.5401 53.7188 13.778V11.6344Z" fill="#002766"/>
<path d="M70.5938 16.2903C70.5948 12.6516 69.1676 9.15803 66.6192 6.56088C64.0708 3.96373 60.6049 2.47057 56.9669 2.40257C53.3289 2.33458 49.8096 3.69719 47.1659 6.19729C44.5223 8.6974 42.9655 12.1352 42.8305 15.7713L23.7393 25.6553L24.5151 27.1538L42.8859 17.6429C43.2119 20.929 44.6966 23.9918 47.0742 26.2835C49.4518 28.5751 52.5672 29.946 55.8631 30.1508V41.8491C52.5583 42.0546 49.4353 43.4324 47.0556 45.7348C44.6759 48.0372 43.1958 51.113 42.8813 54.4092L25.0811 44.1323L24.2374 45.5938L42.8344 56.3307C42.9544 59.0122 43.8489 61.6014 45.4098 63.7851C46.9706 65.9688 49.1309 67.6533 51.6291 68.6349C54.1274 69.6164 56.8566 69.8529 59.4864 69.3157C62.1163 68.7785 64.5341 67.4906 66.4472 65.6079C68.3604 63.7253 69.687 61.3284 70.2664 58.7076C70.8458 56.0867 70.6532 53.3541 69.7119 50.8403C68.7706 48.3266 67.121 46.1396 64.9627 44.5439C62.8043 42.9482 60.2298 42.0122 57.5506 41.8491V30.1508C61.0795 29.9319 64.3924 28.3769 66.8154 25.802C69.2385 23.2272 70.5896 19.8259 70.5938 16.2903ZM62.9776 26.7509C61.0838 27.8887 58.9161 28.4897 56.7068 28.4897C54.4975 28.4897 52.3299 27.8887 50.4361 26.7509V23.2453C50.4414 22.41 50.7457 21.6043 51.294 20.9741C51.8422 20.344 52.5981 19.9311 53.4246 19.8104C53.85 20.273 54.3664 20.6427 54.9415 20.8961C55.5165 21.1496 56.1378 21.2814 56.7663 21.2832C57.3947 21.2851 58.0167 21.1569 58.5933 20.9068C59.1698 20.6567 59.6884 20.2901 60.1164 19.8299C60.9181 19.9735 61.6438 20.3941 62.1667 21.0184C62.6897 21.6427 62.9767 22.4309 62.9776 23.2453V26.7509ZM44.5079 16.2903C44.5067 14.2452 45.0196 12.2326 45.9995 10.4375C46.9795 8.64248 48.3949 7.12259 50.1158 6.01759C51.8367 4.91259 53.8077 4.25795 55.8478 4.11384C57.8878 3.96973 59.9313 4.34079 61.7904 5.1929C63.6495 6.04501 65.2646 7.35082 66.4872 8.99028C67.7097 10.6297 68.5005 12.5502 68.7868 14.5752C69.073 16.6002 68.8457 18.6646 68.1256 20.5787C67.4054 22.4928 66.2157 24.1952 64.6656 25.5293V23.2453C64.6648 21.9344 64.1651 20.673 63.2678 19.7173C62.3706 18.7615 61.1432 18.1832 59.835 18.0997C59.3895 18.0673 59.1561 18.3543 59.0013 18.5433C58.7247 18.8814 58.3747 19.1518 57.9778 19.3341C57.5808 19.5163 57.1476 19.6055 56.7109 19.5949C56.2743 19.5842 55.8459 19.474 55.4583 19.2727C55.0708 19.0714 54.7343 18.7842 54.4745 18.4331C54.3937 18.3244 54.288 18.2366 54.1663 18.1771C54.0446 18.1176 53.9104 18.0881 53.7749 18.0911C52.433 18.1328 51.1595 18.6932 50.2222 19.6544C49.2848 20.6156 48.7566 21.9027 48.7486 23.2453V25.529C47.4178 24.3856 46.3499 22.968 45.6179 21.3734C44.886 19.7788 44.5073 18.0448 44.5079 16.2903ZM50.4366 66.1699V62.6643C50.4419 61.8291 50.7462 61.0233 51.2945 60.3932C51.8428 59.7631 52.5987 59.3502 53.4252 59.2295C53.8506 59.6921 54.367 60.0618 54.9421 60.3152C55.5171 60.5687 56.1384 60.7004 56.7668 60.7023C57.3953 60.7041 58.0173 60.5759 58.5938 60.3258C59.1704 60.0757 59.6889 59.7091 60.117 59.2489C60.9186 59.3925 61.6443 59.8132 62.1673 60.4374C62.6903 61.0617 62.9773 61.8499 62.9781 62.6643V66.1705C61.0843 67.3083 58.9167 67.9093 56.7074 67.9093C54.4981 67.9093 52.3304 67.3083 50.4366 66.1705V66.1699ZM68.9063 55.7097C68.9068 57.4643 68.5281 59.1984 67.7961 60.793C67.064 62.3877 65.996 63.8053 64.6651 64.9488V62.6643C64.6642 61.3534 64.1645 60.092 63.2672 59.1363C62.37 58.1806 61.1427 57.6022 59.8345 57.5187C59.389 57.4856 59.1555 57.7734 59.0007 57.9625C58.7242 58.3006 58.3741 58.571 57.9772 58.7532C57.5803 58.9355 57.147 59.0246 56.7104 59.014C56.2738 59.0034 55.8453 58.8932 55.4578 58.6919C55.0702 58.4905 54.7337 58.2034 54.474 57.8523C54.3931 57.7435 54.2875 57.6557 54.1657 57.5962C54.044 57.5367 53.9098 57.5072 53.7744 57.5101C52.4326 57.552 51.1592 58.1125 50.222 59.0736C49.2848 60.0348 48.7567 61.3219 48.7486 62.6643V64.9486C47.1997 63.6144 46.011 61.9123 45.2917 59.9987C44.5724 58.0851 44.3457 56.0214 44.6323 53.9973C44.9189 51.9731 45.7096 50.0535 46.9319 48.4148C48.1541 46.7761 49.7686 45.4709 51.6271 44.6191C53.4855 43.7674 55.5282 43.3963 57.5674 43.5402C59.6067 43.6841 61.577 44.3382 63.2975 45.4424C65.0179 46.5467 66.4332 48.0656 67.4132 49.8597C68.3933 51.6538 68.9067 53.6654 68.9063 55.7097Z" fill="#002766"/>
<path d="M52.0312 51.054V53.1976C52.0326 54.4072 52.5137 55.5668 53.369 56.4221C54.2243 57.2773 55.384 57.7584 56.5935 57.7598H56.8211C58.0305 57.7583 59.19 57.2771 60.0452 56.4219C60.9004 55.5666 61.3814 54.4071 61.3828 53.1976V51.054C61.3815 49.8445 60.9004 48.6848 60.0451 47.8295C59.1899 46.9742 58.0302 46.493 56.8207 46.4916H56.5931C55.3836 46.4931 54.2241 46.9743 53.3688 47.8296C52.5136 48.6849 52.0326 49.8445 52.0312 51.054ZM59.6953 51.054V53.1976C59.6945 53.9597 59.3913 54.6904 58.8524 55.2293C58.3135 55.7683 57.5828 56.0714 56.8207 56.0723H56.5931C55.831 56.0713 55.1005 55.7681 54.5616 55.2292C54.0228 54.6903 53.7196 53.9597 53.7188 53.1976V51.054C53.7196 50.2919 54.0228 49.5611 54.5617 49.0222C55.1006 48.4832 55.8314 48.18 56.5935 48.1791H56.8211C57.5832 48.1801 58.3138 48.4834 58.8526 49.0223C59.3914 49.5613 59.6945 50.2919 59.6953 51.054Z" fill="#002766"/>
<path d="M15.407 26.7819H15.1795C13.9699 26.7833 12.8103 27.2644 11.955 28.1197C11.0997 28.975 10.6186 30.1346 10.6172 31.3442V33.4878C10.6186 34.6973 11.0997 35.857 11.955 36.7123C12.8103 37.5676 13.9699 38.0487 15.1795 38.0501H15.407C16.6165 38.0486 17.776 37.5674 18.6312 36.7121C19.4864 35.8568 19.9674 34.6973 19.9688 33.4878V31.3442C19.9674 30.1347 19.4864 28.9752 18.6312 28.1199C17.776 27.2646 16.6165 26.7834 15.407 26.7819ZM18.2812 33.4878C18.2804 34.2499 17.9773 34.9806 17.4383 35.5196C16.8994 36.0585 16.1687 36.3617 15.4066 36.3626H15.1791C14.417 36.3616 13.6864 36.0583 13.1475 35.5194C12.6087 34.9805 12.3056 34.2499 12.3047 33.4878V31.3442C12.3055 30.582 12.6087 29.8513 13.1476 29.3124C13.6866 28.7734 14.4173 28.4703 15.1795 28.4694H15.407C16.1691 28.4704 16.8997 28.7736 17.4385 29.3125C17.9774 29.8515 18.2804 30.5821 18.2812 31.3442V33.4878Z" fill="#1388F7"/>
<path d="M15.2928 22.113C12.5462 22.1129 9.86126 22.9273 7.57749 24.4531C5.29371 25.979 3.51369 28.1478 2.46253 30.6853C1.41137 33.2228 1.13628 36.015 1.67205 38.7089C2.20782 41.4027 3.53038 43.8772 5.47249 45.8194C7.4146 47.7616 9.88902 49.0843 12.5829 49.6201C15.2767 50.156 18.0689 49.881 20.6065 48.83C23.144 47.7789 25.3129 45.999 26.8389 43.7153C28.3648 41.4316 29.1793 38.7466 29.1793 36C29.1751 32.3183 27.7108 28.7886 25.1075 26.1852C22.5042 23.5818 18.9745 22.1173 15.2928 22.113ZM9.02209 46.4607V42.9546C9.02738 42.1193 9.33175 41.3136 9.88005 40.6834C10.4283 40.0533 11.1843 39.6404 12.0108 39.5197C12.4362 39.9823 12.9526 40.3519 13.5277 40.6054C14.1027 40.8588 14.724 40.9906 15.3524 40.9924C15.9808 40.9943 16.6029 40.8661 17.1794 40.6161C17.7559 40.366 18.2745 39.9994 18.7026 39.5393C19.5042 39.6828 20.2299 40.1035 20.7528 40.7278C21.2758 41.3521 21.5627 42.1403 21.5636 42.9546V46.4605C19.6698 47.5983 17.5021 48.1994 15.2928 48.1994C13.0835 48.1994 10.9159 47.5983 9.02209 46.4605V46.4607ZM23.2511 45.2391V42.9546C23.2503 41.6436 22.7504 40.3821 21.8531 39.4263C20.9557 38.4705 19.7281 37.8922 18.4198 37.8089C17.9755 37.7792 17.7417 38.0637 17.5866 38.2528C17.31 38.5908 16.96 38.8613 16.5631 39.0434C16.1662 39.2256 15.7329 39.3148 15.2963 39.3042C14.8597 39.2935 14.4313 39.1833 14.0438 38.982C13.6562 38.7807 13.3197 38.4935 13.06 38.1424C12.9795 38.0334 12.8739 37.9453 12.7521 37.8857C12.6304 37.8261 12.4961 37.7967 12.3605 37.8C11.0186 37.8419 9.74517 38.4023 8.8079 39.3636C7.87064 40.3249 7.34253 41.6121 7.33459 42.9546V45.2391C5.44696 43.6144 4.1018 41.4509 3.47986 39.0393C2.85791 36.6277 2.98898 34.0835 3.85545 31.7485C4.72191 29.4136 6.28227 27.3997 8.32686 25.9776C10.3714 24.5555 12.8023 23.7933 15.2928 23.7933C17.7834 23.7933 20.2142 24.5555 22.2588 25.9776C24.3034 27.3997 25.8638 29.4136 26.7302 31.7485C27.5967 34.0835 27.7278 36.6277 27.1058 39.0393C26.4839 41.4509 25.1387 43.6144 23.2511 45.2391Z" fill="#1388F7"/>
</svg>
