<svg width="72" height="72" viewBox="0 0 72 72" fill="none" xmlns="http://www.w3.org/2000/svg">
<g clip-path="url(#clip0)">
<path d="M28.544 56.6118L30.1696 52.6646C30.344 52.2408 30.1415 51.7565 29.7183 51.5822C29.2945 51.4078 28.8096 51.6097 28.6352 52.033L27.0102 55.9801C23.3675 54.9554 19.558 56.9487 18.3233 60.5255C17.0886 64.1017 18.8567 68.0208 22.3557 69.4618C25.8543 70.9028 29.8694 69.3651 31.5113 65.9563C33.1531 62.5474 31.8519 58.4491 28.5445 56.6118H28.544ZM30.1475 64.9434C29.1508 67.3627 26.5842 68.7416 24.017 68.2362C21.4498 67.7309 19.5969 65.4822 19.5915 62.8659C19.5861 60.2496 21.4304 57.9934 23.9954 57.4778C26.5604 56.9622 29.133 58.3303 30.1388 60.7458C30.702 62.0879 30.7052 63.5996 30.1469 64.9434H30.1475Z" fill="#002766"/>
<path d="M43.7287 15.3872L42.1036 19.3344C41.9292 19.7576 42.1311 20.2425 42.555 20.4169C42.9788 20.5912 43.4636 20.3893 43.638 19.9655L45.2631 16.0189C47.8988 16.7607 50.7273 15.9309 52.5435 13.8814C54.3603 11.8326 54.8451 8.92522 53.7917 6.39744C52.5889 3.5074 49.6438 1.73763 46.5275 2.03133C43.4107 2.32557 40.8489 4.61418 40.207 7.67807C39.565 10.742 40.993 13.8669 43.7292 15.3872H43.7287ZM42.1257 7.05557C43.1218 4.63577 45.689 3.25743 48.2562 3.76277C50.8234 4.26811 52.6763 6.51676 52.6817 9.13308C52.6866 11.7494 50.8429 14.0056 48.2778 14.5212C45.7123 15.0368 43.1402 13.6682 42.1338 11.2532C41.5707 9.91107 41.568 8.39937 42.1263 7.05557H42.1257Z" fill="#002766"/>
<path d="M65.7124 40.4555C62.3613 39.0804 58.5119 40.4274 56.7491 43.5918L52.802 41.9667C52.3781 41.7923 51.8933 41.9942 51.7189 42.418C51.5445 42.8413 51.7465 43.3261 52.1703 43.5005L56.1169 45.1256C55.0781 48.8195 57.1427 52.6744 60.7929 53.8557C64.4437 55.0375 68.3752 53.1236 69.6979 49.5219C71.0201 45.9198 69.2601 41.917 65.7124 40.4561V40.4555ZM68.0631 49.1489C67.067 51.5687 64.4998 52.947 61.9326 52.4417C59.3649 51.9363 57.512 49.6882 57.5071 47.0714C57.5017 44.4545 59.3455 42.1988 61.911 41.6832C64.4761 41.1676 67.0487 42.5357 68.055 44.9512C68.6181 46.2934 68.6214 47.8051 68.0637 49.1494L68.0631 49.1489Z" fill="#002766"/>
<path d="M6.56041 31.5435C9.91153 32.9235 13.7653 31.5759 15.5253 28.4078L19.4709 30.0323C19.8947 30.2067 20.3795 30.0048 20.5539 29.581C20.7283 29.1572 20.5258 28.6729 20.1026 28.4985L16.1554 26.8729C17.1947 23.1795 15.1296 19.3252 11.4794 18.1434C7.82862 16.9621 3.89712 18.8754 2.57492 22.4776C1.25272 26.0798 3.01223 30.0826 6.56041 31.5435ZM4.20918 22.8496C5.20582 20.4303 7.77247 19.0515 10.3397 19.5568C12.9074 20.0621 14.7603 22.3108 14.7657 24.9277C14.7706 27.544 12.9268 29.8002 10.3613 30.3158C7.79623 30.8314 5.22364 29.4633 4.21728 27.0478C3.65417 25.7056 3.65093 24.1939 4.20918 22.8496Z" fill="#002766"/>
<path d="M45.3422 55.9434L43.7015 52.0038C43.5238 51.5827 43.0395 51.384 42.6179 51.56C42.1962 51.7355 41.9959 52.2192 42.1703 52.6414L43.8116 56.5816C40.5112 58.4323 39.2268 62.5355 40.8827 65.9374C42.5385 69.3398 46.5597 70.8607 50.0528 69.4051C53.5453 67.9501 55.2973 64.024 54.048 60.4526C52.7981 56.8812 48.9805 54.9036 45.3422 55.9434ZM52.3765 64.8997C51.4317 67.1937 49.0642 68.5677 46.6034 68.2508C44.1425 67.9334 42.2016 66.0032 41.8696 63.5446C41.5381 61.0854 42.8981 58.7104 45.1872 57.7521C45.1899 57.751 45.1932 57.7499 45.1959 57.7488C45.1986 57.7477 45.2018 57.7461 45.2045 57.7445C47.2523 56.8958 49.6095 57.3628 51.179 58.9285C52.7479 60.4936 53.2209 62.8503 52.3765 64.8997Z" fill="#002766"/>
<path d="M24.9772 16.332C25.6381 16.3309 26.2951 16.2381 26.93 16.0556L28.5713 19.9952C28.7484 20.4163 29.2332 20.615 29.6549 20.439C30.0765 20.2635 30.2768 19.7798 30.1025 19.3576L28.4612 15.4174C31.5936 13.659 32.932 9.8468 31.5855 6.5162C30.2396 3.1856 26.6282 1.37372 23.1535 2.28506C19.6787 3.19694 17.4225 6.54806 17.8852 10.1108C18.3474 13.6736 21.3848 16.3374 24.9772 16.332ZM19.8963 7.09983C20.8411 4.80582 23.2086 3.43179 25.6694 3.74925C28.1297 4.06671 30.0711 5.99628 30.4026 8.45496C30.7347 10.9142 29.3741 13.2892 27.0855 14.2475C27.0828 14.2486 27.0796 14.2496 27.0769 14.2507C27.0742 14.2518 27.071 14.2534 27.0683 14.255C25.0204 15.1037 22.6633 14.6367 21.0938 13.0716C19.5249 11.5059 19.0519 9.14926 19.8963 7.09983Z" fill="#002766"/>
<path d="M52.1403 28.4348C51.8655 28.5482 51.6728 28.7992 51.6339 29.094C51.5956 29.3882 51.7176 29.6809 51.9535 29.8607C52.19 30.041 52.5042 30.0809 52.7779 29.9654L56.717 28.3252C58.5651 31.6315 62.671 32.9229 66.0788 31.2703C69.4871 29.6172 71.015 25.5939 69.5627 22.0954C68.1104 18.5974 64.1821 16.8379 60.6059 18.0845C57.0291 19.3311 55.045 23.1503 56.0816 26.7935L52.1403 28.4348ZM60.838 19.769C63.6331 18.6044 66.8427 19.925 68.0089 22.7195C69.1751 25.5134 67.8561 28.7242 65.0627 29.892C62.2687 31.0598 59.0575 29.743 57.888 26.9496C57.887 26.9469 57.8864 26.9436 57.8848 26.9409C57.8837 26.9382 57.8821 26.935 57.881 26.9323C56.7251 24.1373 58.0473 20.9341 60.838 19.7679V19.769Z" fill="#002766"/>
<path d="M20.1323 43.5643C20.5534 43.3872 20.7515 42.9029 20.5761 42.4812C20.4001 42.0596 19.9168 41.8593 19.4941 42.0331L15.5545 43.6744C13.7038 40.3746 9.60057 39.0902 6.19816 40.7455C2.79629 42.4013 1.27541 46.423 2.73042 49.9156C4.18544 53.4081 8.11208 55.1606 11.6835 53.9108C15.2549 52.6615 17.232 48.8433 16.1921 45.2055L20.1323 43.5643ZM11.4346 52.2301C8.63902 53.3946 5.42935 52.0741 4.26318 49.279C3.09755 46.4845 4.41705 43.2738 7.211 42.1065C10.0049 40.9393 13.2162 42.2572 14.3851 45.0506C14.3856 45.0533 14.3862 45.0554 14.3873 45.0581C14.3889 45.0608 14.39 45.0625 14.391 45.0646C15.548 47.8596 14.2258 51.0645 11.4346 52.2312V52.2301Z" fill="#002766"/>
<path d="M43.1867 18.8836C38.6462 17.0177 33.5512 17.0274 29.0178 18.9111C24.4945 20.8115 20.9026 24.418 19.02 28.9488C17.1541 33.4898 17.1644 38.5848 19.0481 43.1177C20.9485 47.6415 24.555 51.2334 29.0858 53.1155C33.6263 54.9814 38.7213 54.9716 43.2547 53.088C47.778 51.1875 51.3699 47.581 53.2525 43.0503C55.1184 38.5098 55.1081 33.4142 53.2244 28.8813C51.3245 24.3575 47.7175 20.7656 43.1867 18.8836ZM51.7192 42.4175C50.005 46.5428 46.7349 49.827 42.616 51.5574C38.4891 53.271 33.8514 53.2802 29.718 51.5822C25.5927 49.8686 22.309 46.5979 20.5787 42.4796C18.8645 38.3526 18.8553 33.715 20.5533 29.5815C22.2669 25.4557 25.5376 22.1721 29.6565 20.4417C33.7829 18.7275 38.4211 18.7189 42.5545 20.4169C46.6798 22.1305 49.9635 25.4012 51.6938 29.5195C53.408 33.6464 53.4172 38.2841 51.7192 42.4175Z" fill="#1388F7"/>
<path d="M47.4888 32.7021C45.9879 32.7043 44.677 33.7177 44.2975 35.17H38.1378L42.4964 30.812C43.9271 31.6526 45.7595 31.2989 46.775 29.9859C47.79 28.6734 47.6713 26.8108 46.4981 25.6371C45.3243 24.4639 43.4617 24.3451 42.1492 25.3607C40.8367 26.3756 40.4826 28.208 41.3232 29.6393L36.9652 33.9973V27.8377C38.5714 27.4203 39.6171 25.8746 39.4066 24.2285C39.196 22.5824 37.7955 21.3492 36.1359 21.3492C34.4763 21.3492 33.0752 22.5824 32.8652 24.2285C32.6547 25.8746 33.7004 27.4203 35.3066 27.8377V33.9973L30.9481 29.6393C31.7903 28.2064 31.4367 26.3713 30.1226 25.3547C28.8079 24.3376 26.9426 24.4563 25.7678 25.6311C24.5924 26.8065 24.4742 28.6718 25.4908 29.9859C26.5074 31.3006 28.3431 31.6542 29.7754 30.812L34.134 35.17H27.9743C27.557 33.5643 26.0107 32.5186 24.3646 32.7286C22.719 32.9391 21.4854 34.3402 21.4854 35.9992C21.4854 37.6589 22.719 39.0599 24.3646 39.2705C26.0107 39.4805 27.557 38.4347 27.9743 36.8285H34.134L29.7754 41.1871C28.3447 40.3465 26.5123 40.7001 25.4968 42.0131C24.4818 43.3256 24.6 45.1882 25.7737 46.3614C26.9469 47.5351 28.8095 47.6534 30.1226 46.6384C31.435 45.6234 31.7887 43.7904 30.9481 42.3597L35.3066 38.0017V44.1608C33.7004 44.5787 32.6547 46.1244 32.8652 47.7705C33.0752 49.4167 34.4763 50.6498 36.1359 50.6498C37.7955 50.6498 39.196 49.4167 39.4066 47.7705C39.6171 46.1244 38.5714 44.5787 36.9652 44.1608V38.0017L41.3232 42.3597C40.4826 43.791 40.8362 45.6234 42.1492 46.6389C43.4617 47.6545 45.3243 47.5357 46.4981 46.3625C47.6718 45.1888 47.7906 43.3261 46.775 42.0131C45.76 40.7006 43.9271 40.3465 42.4964 41.1871L38.1378 36.8285H44.2975C44.7283 38.4865 46.3566 39.5388 48.0449 39.2499C49.7336 38.9611 50.9198 37.4273 50.7746 35.7207C50.6299 34.0141 49.2019 32.7021 47.4888 32.7021ZM43.005 26.813C43.6447 26.1726 44.6824 26.1726 45.3227 26.813C45.9625 27.4527 45.9625 28.4904 45.3227 29.1302C44.6824 29.7705 43.6447 29.7705 43.005 29.1302C42.6951 28.8246 42.5201 28.4073 42.5201 27.9716C42.5201 27.5359 42.6951 27.1185 43.005 26.813ZM34.4968 24.6464C34.4968 23.741 35.2305 23.0073 36.1359 23.0073C37.0408 23.0073 37.7745 23.741 37.7745 24.6464C37.7745 25.5512 37.0408 26.2849 36.1359 26.2849C35.231 26.2839 34.4979 25.5507 34.4968 24.6464ZM26.9491 29.1302C26.3093 28.4904 26.3093 27.4527 26.9491 26.813C27.5888 26.1726 28.6265 26.1726 29.2668 26.813C29.9066 27.4527 29.9066 28.4904 29.2668 29.1302C28.9607 29.4406 28.5434 29.615 28.1077 29.615C27.6725 29.615 27.2552 29.4406 26.9491 29.1302ZM24.7825 37.6384C23.8776 37.6384 23.1439 36.9046 23.1439 35.9992C23.1439 35.0944 23.8776 34.3607 24.7825 34.3607C25.6879 34.3607 26.4216 35.0944 26.4216 35.9992C26.4205 36.9041 25.6873 37.6373 24.7825 37.6384ZM29.2668 45.1861C28.6271 45.8253 27.5899 45.8253 26.9502 45.1855C26.3109 44.5458 26.3109 43.5092 26.9502 42.8694C27.5899 42.2296 28.6271 42.2291 29.2668 42.8688C29.5767 43.1744 29.7511 43.5918 29.7511 44.0275C29.7511 44.4632 29.5767 44.8805 29.2668 45.1861ZM37.7745 47.3527C37.7745 48.2575 37.0408 48.9912 36.1359 48.9912C35.2305 48.9912 34.4968 48.2575 34.4968 47.3527C34.4968 46.4478 35.2305 45.7141 36.1359 45.7141C37.0402 45.7146 37.7734 46.4478 37.7745 47.3527ZM45.3227 42.8688C45.8766 43.4217 45.9625 44.2888 45.5284 44.9399C45.0938 45.591 44.2602 45.8447 43.5368 45.5456C42.8138 45.2465 42.4024 44.4777 42.5547 43.71C42.7075 42.9423 43.3807 42.3894 44.1636 42.3894C44.5982 42.3878 45.0155 42.5606 45.3227 42.8688ZM47.4888 37.6384C46.5839 37.6384 45.8502 36.9046 45.8502 35.9992C45.8502 35.0944 46.5839 34.3607 47.4888 34.3607C48.3942 34.3607 49.1279 35.0944 49.1279 35.9992C49.1268 36.9041 48.3936 37.6373 47.4888 37.6384Z" fill="#1388F7"/>
</g>
<defs>
<clipPath id="clip0">
<rect width="68" height="68" fill="white" transform="translate(2 2)"/>
</clipPath>
</defs>
</svg>
