<svg width="24" height="24" viewBox="0 0 24 24" fill="none" xmlns="http://www.w3.org/2000/svg">
<path d="M9.35651 7.11122C8.8286 7.48661 8.5 8.01923 8.5 8.7499H7C7 7.48066 7.6089 6.51335 8.48724 5.88877C9.34327 5.28006 10.4419 5.00001 11.5 5C12.5581 4.99999 13.6567 5.28001 14.5128 5.88871C15.3911 6.51327 16 7.48058 16 8.74983C16 9.86131 15.7236 11.0531 14.9512 11.9801C14.2817 12.7835 13.3013 13.3141 12 13.4596V14.75H10.5V12H11.25C12.5696 12 13.3413 11.5689 13.7988 11.0198C14.2764 10.4467 14.5 9.63848 14.5 8.74983C14.5 8.01915 14.1714 7.48654 13.6435 7.11117C13.0933 6.71993 12.3169 6.49999 11.5 6.5C10.6831 6.50001 9.90673 6.71996 9.35651 7.11122Z" fill="#1388F7"/>
<path d="M12.25 17.75C12.25 18.3023 11.8023 18.75 11.25 18.75C10.6977 18.75 10.25 18.3023 10.25 17.75C10.25 17.1978 10.6977 16.75 11.25 16.75C11.8023 16.75 12.25 17.1978 12.25 17.75Z" fill="#1388F7"/>
<path fill-rule="evenodd" clip-rule="evenodd" d="M24 12C24 18.6274 18.6274 24 12 24C5.37258 24 0 18.6274 0 12C0 5.37258 5.37258 0 12 0C18.6274 0 24 5.37258 24 12ZM22.5 12C22.5 17.799 17.799 22.5 12 22.5C6.20101 22.5 1.5 17.799 1.5 12C1.5 6.20101 6.20101 1.5 12 1.5C17.799 1.5 22.5 6.20101 22.5 12Z" fill="#1388F7"/>
</svg>
