<svg width="24" height="24" viewBox="0 0 24 24" fill="none" xmlns="http://www.w3.org/2000/svg">
<path d="M8.46967 14.4697L6.5 16.4393L4.53033 14.4697L3.46967 15.5303L5.43934 17.5L3.46967 19.4697L4.53033 20.5303L6.5 18.5607L8.46967 20.5303L9.53033 19.4697L7.56066 17.5L9.53033 15.5303L8.46967 14.4697Z" fill="#1388F7"/>
<path d="M5.75 3V5.75H3V7.25H5.75V10H7.25V7.25H10V5.75H7.25V3H5.75Z" fill="#1388F7"/>
<path d="M14 16.75H21V15.25H14V16.75Z" fill="#1388F7"/>
<path d="M14 19.75H21V18.25H14V19.75Z" fill="#1388F7"/>
<path d="M14 7.25H21V5.75H14V7.25Z" fill="#1388F7"/>
<path fill-rule="evenodd" clip-rule="evenodd" d="M24 12V0H12H0V12V24H12H24V12ZM1.5 12.75H11.25V22.5H1.5V12.75ZM1.5 11.25H11.25V1.5H1.5V11.25ZM12.75 22.5V12.75H22.5V22.5H12.75ZM12.75 11.25H22.5V1.5H12.75V11.25Z" fill="#1388F7"/>
</svg>
