<svg width="48" height="48" viewBox="0 0 48 48" fill="none" xmlns="http://www.w3.org/2000/svg">
<g id="icons/social/blue/Instagram">
<path id="Combined Shape" fill-rule="evenodd" clip-rule="evenodd" d="M24 0C10.7452 0 0 10.7452 0 24C0 37.2548 10.7452 48 24 48C37.2548 48 48 37.2548 48 24C48 10.7452 37.2548 0 24 0ZM18.7235 11.2769C20.0888 11.2148 20.5251 11.1996 24.0014 11.1996H23.9974C27.4748 11.1996 27.9094 11.2148 29.2748 11.2769C30.6375 11.3393 31.5681 11.5551 32.3841 11.8716C33.2268 12.1983 33.9388 12.6356 34.6508 13.3476C35.3628 14.0591 35.8002 14.7732 36.1282 15.6151C36.4429 16.429 36.6589 17.3591 36.7229 18.7218C36.7842 20.0872 36.8002 20.5234 36.8002 23.9997C36.8002 27.476 36.7842 27.9113 36.7229 29.2766C36.6589 30.6387 36.4429 31.5692 36.1282 32.3833C35.8002 33.2249 35.3628 33.939 34.6508 34.6505C33.9396 35.3625 33.2266 35.8009 32.3849 36.1279C31.5705 36.4444 30.6393 36.6601 29.2767 36.7225C27.9113 36.7847 27.4764 36.7999 23.9998 36.7999C20.5238 36.7999 20.0878 36.7847 18.7224 36.7225C17.36 36.6601 16.4296 36.4444 15.6152 36.1279C14.7738 35.8009 14.0597 35.3625 13.3485 34.6505C12.6367 33.939 12.1994 33.2249 11.8722 32.383C11.5559 31.5692 11.3402 30.639 11.2775 29.2763C11.2157 27.911 11.2002 27.476 11.2002 23.9997C11.2002 20.5234 11.2162 20.0869 11.2773 18.7216C11.3386 17.3594 11.5546 16.429 11.8719 15.6149C12.1999 14.7732 12.6373 14.0591 13.3493 13.3476C14.0608 12.6359 14.7749 12.1986 15.6168 11.8716C16.4307 11.5551 17.3608 11.3393 18.7235 11.2769Z" fill="#002766"/>
<path id="Combined Shape_2" fill-rule="evenodd" clip-rule="evenodd" d="M22.853 13.5074C23.0759 13.507 23.3158 13.5071 23.5746 13.5072L24.0013 13.5074C27.4189 13.5074 27.824 13.5196 29.1736 13.581C30.4216 13.638 31.0989 13.8466 31.5501 14.0218C32.1475 14.2538 32.5733 14.5311 33.0211 14.9791C33.4691 15.4271 33.7464 15.8538 33.979 16.4511C34.1542 16.9018 34.363 17.5791 34.4198 18.8271C34.4811 20.1765 34.4944 20.5818 34.4944 23.9979C34.4944 27.4139 34.4811 27.8192 34.4198 29.1686C34.3627 30.4166 34.1542 31.0939 33.979 31.5446C33.747 32.1419 33.4691 32.5673 33.0211 33.015C32.5731 33.463 32.1477 33.7404 31.5501 33.9724C31.0995 34.1484 30.4216 34.3564 29.1736 34.4134C27.8242 34.4748 27.4189 34.4881 24.0013 34.4881C20.5834 34.4881 20.1783 34.4748 18.8289 34.4134C17.5809 34.3558 16.9036 34.1473 16.4521 33.9721C15.8548 33.7401 15.4281 33.4628 14.9801 33.0148C14.5321 32.5667 14.2548 32.1411 14.0222 31.5435C13.847 31.0929 13.6382 30.4155 13.5814 29.1675C13.5201 27.8182 13.5078 27.4128 13.5078 23.9947C13.5078 20.5765 13.5201 20.1733 13.5814 18.8239C13.6385 17.5759 13.847 16.8986 14.0222 16.4474C14.2542 15.85 14.5321 15.4234 14.9801 14.9754C15.4281 14.5274 15.8548 14.25 16.4521 14.0175C16.9033 13.8415 17.5809 13.6335 18.8289 13.5762C20.0097 13.5228 20.4674 13.5068 22.853 13.5042V13.5074ZM30.833 15.6324C29.985 15.6324 29.297 16.3196 29.297 17.1679C29.297 18.0159 29.985 18.7039 30.833 18.7039C31.681 18.7039 32.369 18.0159 32.369 17.1679C32.369 16.3199 31.681 15.6319 30.833 15.6319V15.6324ZM17.4279 24.0006C17.4279 20.3705 20.371 17.4273 24.0011 17.4272C27.6312 17.4272 30.5737 20.3704 30.5737 24.0006C30.5737 27.6308 27.6315 30.5727 24.0013 30.5727C20.3712 30.5727 17.4279 27.6308 17.4279 24.0006Z" fill="#002766"/>
<path id="Shape" fill-rule="evenodd" clip-rule="evenodd" d="M24.0011 19.7332C26.3574 19.7332 28.2678 21.6433 28.2678 23.9999C28.2678 26.3562 26.3574 28.2666 24.0011 28.2666C21.6445 28.2666 19.7344 26.3562 19.7344 23.9999C19.7344 21.6433 21.6445 19.7332 24.0011 19.7332V19.7332Z" fill="#002766"/>
</g>
</svg>
