<svg width="48" height="48" viewBox="0 0 48 48" fill="none" xmlns="http://www.w3.org/2000/svg">
<g id="icons/social/colors/VK">
<path id="Combined Shape" fill-rule="evenodd" clip-rule="evenodd" d="M24 0C10.7452 0 0 10.7452 0 24C0 37.2548 10.7452 48 24 48C37.2548 48 48 37.2548 48 24C48 10.7452 37.2548 0 24 0ZM25.9537 31.5763C25.7171 31.8258 25.2551 31.8762 25.2551 31.8762H23.725C23.725 31.8762 20.3494 32.0753 17.3756 29.0371C14.1327 25.7223 11.2691 19.1456 11.2691 19.1456C11.2691 19.1456 11.1039 18.7142 11.2829 18.5065C11.4845 18.2718 12.0342 18.257 12.0342 18.257L15.6916 18.2337C15.6916 18.2337 16.0359 18.289 16.2825 18.4672C16.4866 18.6147 16.6006 18.8888 16.6006 18.8888C16.6006 18.8888 17.1916 20.3563 17.9741 21.6836C19.5029 24.2757 20.2141 24.8423 20.7325 24.5645C21.4888 24.1602 21.2621 20.9007 21.2621 20.9007C21.2621 20.9007 21.2759 19.7184 20.8815 19.1911C20.576 18.7831 20 18.6638 19.7458 18.6307C19.5392 18.6036 19.8773 18.1341 20.3155 17.924C20.9742 17.6081 22.1361 17.5897 23.5096 17.6032C24.5802 17.6142 24.8882 17.6794 25.3064 17.7789C26.277 18.0088 26.2467 18.7456 26.1813 20.3358C26.1617 20.8114 26.1391 21.3632 26.1391 22.0007C26.1391 22.144 26.1348 22.2967 26.1304 22.4538C26.1077 23.2684 26.0817 24.2013 26.6286 24.5486C26.9091 24.7255 27.594 24.5744 29.3081 21.718C30.1207 20.3636 30.7292 18.772 30.7292 18.772C30.7292 18.772 30.8632 18.4881 31.0698 18.3664C31.2814 18.2423 31.5669 18.2804 31.5669 18.2804L35.4158 18.257C35.4158 18.257 36.5728 18.1206 36.7593 18.6343C36.9559 19.1714 36.3274 20.4275 34.7547 22.485C33.263 24.4372 32.537 25.1559 32.6036 25.7916C32.6523 26.2561 33.1242 26.6762 34.0298 27.5007C35.9202 29.2236 36.4269 30.13 36.5486 30.3477C36.5587 30.3658 36.5662 30.3791 36.5715 30.3878C37.4192 31.768 35.6312 31.8762 35.6312 31.8762L32.2117 31.9229C32.2117 31.9229 31.478 32.0655 30.5114 31.4141C30.005 31.0731 29.5102 30.5163 29.039 29.9859C28.3192 29.1759 27.6544 28.4277 27.0869 28.6044C26.134 28.9019 26.1628 30.9163 26.1628 30.9163C26.1628 30.9163 26.1704 31.3477 25.9537 31.5763Z" fill="#45668E"/>
</g>
</svg>
