<svg width="48" height="48" viewBox="0 0 48 48" fill="none" xmlns="http://www.w3.org/2000/svg">
<g id="icons/social/blue/VK">
<path id="Combined Shape" fill-rule="evenodd" clip-rule="evenodd" d="M24 0C10.7452 0 0 10.7452 0 24C0 37.2548 10.7452 48 24 48C37.2548 48 48 37.2548 48 24C48 10.7452 37.2548 0 24 0ZM25.9537 31.5766C25.7171 31.8261 25.2551 31.8765 25.2551 31.8765H23.725C23.725 31.8765 20.3494 32.0756 17.3756 29.0374C14.1327 25.7226 11.2691 19.1459 11.2691 19.1459C11.2691 19.1459 11.1039 18.7145 11.2829 18.5068C11.4845 18.2721 12.0342 18.2573 12.0342 18.2573L15.6916 18.234C15.6916 18.234 16.0359 18.2893 16.2825 18.4675C16.4866 18.615 16.6006 18.8891 16.6006 18.8891C16.6006 18.8891 17.1916 20.3565 17.9741 21.6839C19.5029 24.276 20.2141 24.8426 20.7325 24.5648C21.4888 24.1605 21.2621 20.901 21.2621 20.901C21.2621 20.901 21.2759 19.7187 20.8815 19.1914C20.576 18.7834 20 18.6641 19.7458 18.631C19.5392 18.6039 19.8773 18.1344 20.3155 17.9242C20.9742 17.6084 22.1361 17.5899 23.5096 17.6035C24.5802 17.6145 24.8882 17.6797 25.3064 17.7792C26.277 18.0091 26.2467 18.7459 26.1813 20.3361C26.1617 20.8116 26.1391 21.3635 26.1391 22.001C26.1391 22.1443 26.1348 22.297 26.1304 22.4541C26.1077 23.2687 26.0817 24.2016 26.6286 24.5489C26.9091 24.7258 27.594 24.5747 29.3081 21.7183C30.1207 20.3639 30.7292 18.7723 30.7292 18.7723C30.7292 18.7723 30.8632 18.4884 31.0698 18.3667C31.2814 18.2426 31.5669 18.2807 31.5669 18.2807L35.4158 18.2573C35.4158 18.2573 36.5728 18.1209 36.7593 18.6346C36.9559 19.1717 36.3274 20.4278 34.7547 22.4853C33.263 24.4375 32.537 25.1562 32.6036 25.7919C32.6523 26.2564 33.1242 26.6765 34.0298 27.501C35.9202 29.2239 36.4269 30.1303 36.5486 30.348C36.5587 30.3661 36.5662 30.3794 36.5715 30.3881C37.4192 31.7683 35.6312 31.8765 35.6312 31.8765L32.2117 31.9232C32.2117 31.9232 31.478 32.0657 30.5114 31.4143C30.005 31.0734 29.5102 30.5166 29.039 29.9862C28.3192 29.1762 27.6544 28.428 27.0869 28.6047C26.134 28.9022 26.1628 30.9166 26.1628 30.9166C26.1628 30.9166 26.1704 31.348 25.9537 31.5766Z" fill="#002766"/>
</g>
</svg>
