<svg width="48" height="48" viewBox="0 0 48 48" fill="none" xmlns="http://www.w3.org/2000/svg">
<g id="icons/social/colors/Instagram">
<g id="Vector">
<path fill-rule="evenodd" clip-rule="evenodd" d="M24 0C10.7452 0 0 10.7452 0 24C0 37.2548 10.7452 48 24 48C37.2548 48 48 37.2548 48 24C48 10.7452 37.2548 0 24 0ZM18.7235 11.2772C20.0888 11.2151 20.5251 11.1999 24.0014 11.1999H23.9974C27.4748 11.1999 27.9094 11.2151 29.2748 11.2772C30.6375 11.3396 31.5681 11.5554 32.3841 11.8719C33.2268 12.1986 33.9388 12.6359 34.6508 13.3479C35.3628 14.0594 35.8002 14.7735 36.1282 15.6154C36.4429 16.4293 36.6589 17.3594 36.7229 18.7221C36.7842 20.0875 36.8002 20.5237 36.8002 24C36.8002 27.4763 36.7842 27.9115 36.7229 29.2769C36.6589 30.639 36.4429 31.5694 36.1282 32.3836C35.8002 33.2252 35.3628 33.9393 34.6508 34.6508C33.9396 35.3628 33.2266 35.8012 32.3849 36.1282C31.5705 36.4447 30.6393 36.6604 29.2767 36.7228C27.9113 36.785 27.4764 36.8002 23.9998 36.8002C20.5238 36.8002 20.0878 36.785 18.7224 36.7228C17.36 36.6604 16.4296 36.4447 15.6152 36.1282C14.7738 35.8012 14.0597 35.3628 13.3485 34.6508C12.6367 33.9393 12.1994 33.2252 11.8722 32.3833C11.5559 31.5694 11.3402 30.6393 11.2775 29.2766C11.2157 27.9113 11.2002 27.4763 11.2002 24C11.2002 20.5237 11.2162 20.0872 11.2773 18.7218C11.3386 17.3597 11.5546 16.4293 11.8719 15.6151C12.1999 14.7735 12.6373 14.0594 13.3493 13.3479C14.0608 12.6362 14.7749 12.1988 15.6168 11.8719C16.4307 11.5554 17.3608 11.3396 18.7235 11.2772Z" fill="url(#paint0_linear)"/>
<path fill-rule="evenodd" clip-rule="evenodd" d="M22.8534 13.5072C23.0763 13.5068 23.3162 13.5069 23.575 13.507L24.0016 13.5072C27.4193 13.5072 27.8244 13.5194 29.174 13.5808C30.422 13.6378 31.0993 13.8464 31.5505 14.0216C32.1479 14.2536 32.5737 14.5309 33.0215 14.9789C33.4695 15.4269 33.7468 15.8536 33.9794 16.4509C34.1546 16.9016 34.3634 17.5789 34.4202 18.827C34.4815 20.1763 34.4948 20.5816 34.4948 23.9977C34.4948 27.4137 34.4815 27.819 34.4202 29.1684C34.3631 30.4164 34.1546 31.0937 33.9794 31.5444C33.7473 32.1418 33.4695 32.5671 33.0215 33.0148C32.5735 33.4628 32.1481 33.7402 31.5505 33.9722C31.0999 34.1482 30.422 34.3562 29.174 34.4132C27.8246 34.4746 27.4193 34.4879 24.0016 34.4879C20.5837 34.4879 20.1787 34.4746 18.8293 34.4132C17.5813 34.3556 16.904 34.1471 16.4525 33.9719C15.8552 33.7399 15.4285 33.4626 14.9805 33.0146C14.5325 32.5666 14.2551 32.141 14.0226 31.5433C13.8474 31.0927 13.6386 30.4153 13.5818 29.1673C13.5205 27.818 13.5082 27.4126 13.5082 23.9945C13.5082 20.5763 13.5205 20.1731 13.5818 18.8237C13.6389 17.5757 13.8474 16.8984 14.0226 16.4472C14.2546 15.8499 14.5325 15.4232 14.9805 14.9752C15.4285 14.5272 15.8552 14.2498 16.4525 14.0173C16.9037 13.8413 17.5813 13.6333 18.8293 13.576C20.0101 13.5226 20.4677 13.5066 22.8534 13.504V13.5072ZM30.834 15.6322C29.986 15.6322 29.298 16.3194 29.298 17.1677C29.298 18.0157 29.986 18.7037 30.834 18.7037C31.682 18.7037 32.37 18.0157 32.37 17.1677C32.37 16.3197 31.682 15.6322 30.834 15.6322ZM17.4286 24.0007C17.4286 20.3706 20.3717 17.4274 24.0017 17.4273C27.6319 17.4273 30.5744 20.3705 30.5744 24.0007C30.5744 27.6309 27.6322 30.5728 24.002 30.5728C20.3718 30.5728 17.4286 27.6309 17.4286 24.0007Z" fill="url(#paint1_linear)"/>
<path fill-rule="evenodd" clip-rule="evenodd" d="M24.0011 19.7335C26.3574 19.7335 28.2678 21.6436 28.2678 24.0002C28.2678 26.3565 26.3574 28.2669 24.0011 28.2669C21.6445 28.2669 19.7344 26.3565 19.7344 24.0002C19.7344 21.6436 21.6445 19.7335 24.0011 19.7335Z" fill="url(#paint2_linear)"/>
</g>
</g>
<defs>
<linearGradient id="paint0_linear" x1="48" y1="-0.000489235" x2="-2.86102e-06" y2="47.9995" gradientUnits="userSpaceOnUse">
<stop stop-color="#9124FF"/>
<stop offset="1" stop-color="#FF5722"/>
</linearGradient>
<linearGradient id="paint1_linear" x1="48" y1="-0.000489235" x2="-2.86102e-06" y2="47.9995" gradientUnits="userSpaceOnUse">
<stop stop-color="#9124FF"/>
<stop offset="1" stop-color="#FF5722"/>
</linearGradient>
<linearGradient id="paint2_linear" x1="48" y1="-0.000489235" x2="-2.86102e-06" y2="47.9995" gradientUnits="userSpaceOnUse">
<stop stop-color="#9124FF"/>
<stop offset="1" stop-color="#FF5722"/>
</linearGradient>
</defs>
</svg>
