<svg width="48" height="48" viewBox="0 0 48 48" fill="none" xmlns="http://www.w3.org/2000/svg">
<g id="icons/social/blue/Youtube">
<path id="Combined Shape" fill-rule="evenodd" clip-rule="evenodd" d="M24 0C10.7452 0 0 10.7452 0 24C0 37.2548 10.7452 48 24 48C37.2548 48 48 37.2548 48 24C48 10.7452 37.2548 0 24 0ZM34.0018 15.7491C35.1033 16.0514 35.9708 16.942 36.2652 18.073C36.8002 20.1228 36.8002 24.3998 36.8002 24.3998C36.8002 24.3998 36.8002 28.6766 36.2652 30.7266C35.9708 31.8576 35.1033 32.7482 34.0018 33.0506C32.0056 33.5998 24.0002 33.5998 24.0002 33.5998C24.0002 33.5998 15.9948 33.5998 13.9985 33.0506C12.8969 32.7482 12.0294 31.8576 11.735 30.7266C11.2002 28.6766 11.2002 24.3998 11.2002 24.3998C11.2002 24.3998 11.2002 20.1228 11.735 18.073C12.0294 16.942 12.8969 16.0514 13.9985 15.7491C15.9948 15.1998 24.0002 15.1998 24.0002 15.1998C24.0002 15.1998 32.0056 15.1998 34.0018 15.7491Z" fill="#002766"/>
<path id="Fill 2" fill-rule="evenodd" clip-rule="evenodd" d="M21.6006 28.8002V20.8002L28.0006 24.8003L21.6006 28.8002Z" fill="#002766"/>
</g>
</svg>
