<svg width="32" height="32" viewBox="0 0 32 32" fill="none" xmlns="http://www.w3.org/2000/svg">
<path fill-rule="evenodd" clip-rule="evenodd" d="M32 16C32 24.8366 24.8366 32 16 32C7.16344 32 0 24.8366 0 16C0 7.16344 7.16344 0 16 0C24.8366 0 32 7.16344 32 16ZM13.3387 19.2542L20.7576 12.5593C21.0832 12.2703 20.6865 12.1294 20.2542 12.3915L11.0978 18.1682L7.14275 16.9338C6.28863 16.6722 6.2825 16.0853 7.33451 15.6634L22.7465 9.72056C23.4504 9.40099 24.1298 9.88963 23.8611 10.967L21.2364 23.3354C21.0532 24.2143 20.5221 24.4245 19.7863 24.0185L15.7884 21.0644L13.8664 22.9333L13.8483 22.9509C13.6334 23.1602 13.4555 23.3333 13.0664 23.3333L13.3387 19.2542Z" fill="white"/>
</svg>
