<svg width="64" height="64" viewBox="0 0 64 64" fill="none" xmlns="http://www.w3.org/2000/svg">
<path d="M27.8706 41.2904V40.2582H25.8061V34.0646C25.8061 32.924 26.73 32.0001 27.8706 32.0001V27.8711H11.3545V46.4517H22.7093H27.8706H40.2577V41.2904H27.8706Z" fill="#1388F7"/>
<path d="M11.3545 6.1936V24.7743H27.8706V20.6452L40.2577 17.5484V6.1936H11.3545Z" fill="#1388F7"/>
<path d="M62.1997 19.4034L46.4516 15.6986V0H6.19355C2.77781 0 0 2.77781 0 6.19355V57.8064C0 61.2222 2.77781 64 6.19355 64H46.4516V61.9355C44.1744 61.9355 42.3226 60.0836 42.3226 57.8064C42.3226 55.5293 44.1744 53.6774 46.4516 53.6774V52.6452V51.6129V40.032L58.8387 36.9352V24.7422L62.1997 23.9515C63.2599 23.7006 64 22.7665 64 21.6774C64 20.5884 63.2599 19.6542 62.1997 19.4034ZM5.16129 2.2111V51.7058C3.98245 51.905 2.91819 52.4366 2.06452 53.2026V6.19355C2.06452 4.27458 3.38477 2.67252 5.16129 2.2111ZM41.8384 61.9355H6.19355C3.91639 61.9355 2.06452 60.0836 2.06452 57.8064C2.06452 55.5293 3.91639 53.6774 6.19355 53.6774H41.8384C40.8568 54.7737 40.2581 56.2219 40.2581 57.8064C40.2581 59.391 40.8568 60.8392 41.8384 61.9355ZM7.22581 51.6129V2.06452H44.3871V15.6986L28.639 19.4034C27.5788 19.6542 26.8387 20.5884 26.8387 21.6774V26.8387H11.3548V28.9032H26.8387V31.1577C25.6403 31.585 24.7742 32.7205 24.7742 34.0645V41.2903H30.9677V34.0645C30.9677 32.7205 30.1017 31.585 28.9032 31.1577V24.0134L32 24.7422V36.9352L44.3871 40.032V51.6129H7.22581ZM28.9032 34.0645V39.2258H26.8387V34.0645C26.8387 33.4947 27.3012 33.0323 27.871 33.0323C28.4408 33.0323 28.9032 33.4947 28.9032 34.0645ZM56.7742 31.1948L54.4877 31.7667L54.9874 33.7683L56.7742 33.3213V35.3218L45.4194 38.1605L34.0645 35.3218V33.3213L45.4194 36.161L52.9125 34.2875L52.4129 32.2859L45.4194 34.0325L34.0645 31.1948V25.2284L45.4194 27.8999L56.7742 25.2284V31.1948ZM61.7259 21.9417L45.4194 25.7786L29.1128 21.9417C28.9899 21.9128 28.9032 21.8044 28.9032 21.6774C28.9032 21.5505 28.9899 21.4421 29.1128 21.4132L45.4194 17.5763L61.7259 21.4132C61.8488 21.4421 61.9355 21.5505 61.9355 21.6774C61.9355 21.8044 61.8488 21.9128 61.7259 21.9417Z" fill="white"/>
<path d="M22.7093 32H11.3545V34.0645H22.7093V32Z" fill="white"/>
<path d="M22.7093 36.1289H11.3545V38.1934H22.7093V36.1289Z" fill="white"/>
<path d="M22.7093 40.2581H11.3545V42.3226H22.7093V40.2581Z" fill="white"/>
<path d="M11.3607 46.5205L26.8447 46.4446L26.8346 44.3801L11.3506 44.4559L11.3607 46.5205Z" fill="white"/>
<path d="M28.9086 46.518L40.2637 46.4487L40.2511 44.3842L28.896 44.4535L28.9086 46.518Z" fill="white"/>
<path d="M34.0648 56.7742H5.16162V58.8387H34.0648V56.7742Z" fill="white"/>
<path d="M38.1934 56.7742H36.1289V58.8387H38.1934V56.7742Z" fill="white"/>
</svg>
