<svg width="32" height="32" viewBox="0 0 32 32" fill="none" xmlns="http://www.w3.org/2000/svg">
<path fill-rule="evenodd" clip-rule="evenodd" d="M16 0C24.8366 0 32 7.16344 32 16C32 24.8366 24.8366 32 16 32C7.16344 32 0 24.8366 0 16C0 7.16344 7.16344 0 16 0ZM16.9582 6.51727C18.0461 6.65306 18.9253 6.91514 19.8899 7.38565C20.8387 7.84987 21.4459 8.28879 22.2492 9.0877C23.0019 9.84241 23.4194 10.414 23.8621 11.3013C24.4788 12.5392 24.8299 14.0107 24.8899 15.6306C24.9121 16.1832 24.8963 16.3064 24.7698 16.4643C24.5294 16.7706 24.0012 16.72 23.821 16.3759C23.7641 16.2622 23.7482 16.1643 23.7293 15.7222C23.6976 15.0433 23.6502 14.6044 23.5553 14.0802C23.1822 12.0245 22.1954 10.3824 20.6205 9.20453C19.308 8.21933 17.9512 7.73932 16.1739 7.63512C15.573 7.60039 15.4687 7.57831 15.3327 7.47408C15.0796 7.27514 15.067 6.8078 15.3105 6.58992C15.4592 6.45411 15.5635 6.43517 16.079 6.45096C16.3478 6.46043 16.7431 6.49201 16.9582 6.51727ZM9.72847 6.85862C9.83918 6.8965 10.01 6.98491 10.108 7.04807C10.7089 7.44597 12.3819 9.58376 12.929 10.6511C13.2421 11.2606 13.3464 11.7121 13.2485 12.0469C13.1472 12.4068 12.9796 12.5963 12.2301 13.1995C11.9296 13.4426 11.6481 13.6921 11.6039 13.7584C11.49 13.9226 11.3983 14.2447 11.3983 14.472C11.4015 14.9994 11.743 15.9562 12.1921 16.692C12.54 17.2635 13.163 17.9961 13.7797 18.5582C14.504 19.2214 15.1428 19.6729 15.8639 20.0298C16.7905 20.4908 17.3566 20.6076 17.7709 20.415C17.8753 20.3676 17.9859 20.3045 18.0208 20.2761C18.0523 20.2476 18.2959 19.9508 18.5616 19.6224C19.0739 18.9782 19.1909 18.874 19.5419 18.754C19.9879 18.6024 20.4433 18.6435 20.9018 18.8772C21.2497 19.0572 22.0088 19.5277 22.4989 19.8687C23.1441 20.3203 24.523 21.4444 24.7096 21.6687C25.0385 22.0729 25.0954 22.5907 24.874 23.1623C24.64 23.7654 23.7292 24.8959 23.0935 25.3791C22.5179 25.8148 22.11 25.9822 21.5723 26.0074C21.1296 26.0295 20.9461 25.9917 20.38 25.758C15.9398 23.9296 12.3945 21.2013 9.57982 17.453C8.10925 15.4952 6.98968 13.4647 6.22431 11.3585C5.77842 10.1301 5.75629 9.59642 6.12311 8.96803C6.28127 8.70279 6.95489 8.04595 7.44508 7.67966C8.26105 7.07335 8.63738 6.84914 8.93783 6.786C9.14338 6.74178 9.50074 6.77651 9.72847 6.85862ZM17.1761 8.80676C19.0959 9.08778 20.5822 9.9783 21.5563 11.4246C22.1035 12.2393 22.445 13.1961 22.562 14.2223C22.6031 14.5981 22.6031 15.2834 22.5589 15.3971C22.5177 15.5044 22.3849 15.6497 22.271 15.7097C22.1477 15.7728 21.8852 15.7665 21.7397 15.6907C21.4962 15.5676 21.4235 15.3718 21.4235 14.8413C21.4235 14.0234 21.2116 13.1613 20.8448 12.4919C20.4273 11.7277 19.8201 11.0961 19.08 10.6572C18.4444 10.2783 17.5051 9.99724 16.648 9.92778C16.338 9.90249 16.1673 9.83934 16.0503 9.70356C15.87 9.49829 15.851 9.22041 16.0028 8.98991C16.1673 8.73412 16.4203 8.69307 17.1761 8.80676ZM17.8504 11.1908C18.4734 11.3234 18.951 11.5603 19.3589 11.9424C19.8839 12.4381 20.1717 13.0381 20.2982 13.9002C20.3836 14.4623 20.3488 14.6833 20.1496 14.8665C19.963 15.037 19.6183 15.0433 19.4095 14.8823C19.2577 14.7686 19.2103 14.6486 19.1755 14.3233C19.1344 13.8907 19.0585 13.5876 18.9289 13.3065C18.6505 12.7097 18.1603 12.4002 17.3318 12.2992C16.9427 12.2518 16.8257 12.2076 16.6992 12.0592C16.4683 11.7845 16.5569 11.3392 16.8763 11.175C16.9965 11.115 17.0471 11.1087 17.3127 11.1245C17.4772 11.134 17.7207 11.1624 17.8504 11.1908Z" fill="#002766"/>
</svg>
