<svg width="32" height="32" viewBox="0 0 32 32" fill="none" xmlns="http://www.w3.org/2000/svg">
<path fill-rule="evenodd" clip-rule="evenodd" d="M32 16C32 24.8366 24.8366 32 16 32C7.16344 32 0 24.8366 0 16C0 7.16344 7.16344 0 16 0C24.8366 0 32 7.16344 32 16ZM16.5237 24.9018H16.5276C21.7733 24.8997 26.0396 20.6323 26.0417 15.3878C26.0427 12.8457 25.054 10.4553 23.2577 8.65707C21.4615 6.85871 19.0727 5.8679 16.5276 5.8668C11.2835 5.8668 7.01545 10.1346 7.01336 15.3803C7.01265 17.0571 7.45075 18.6938 8.28334 20.1367L6.93359 25.0668L11.9772 23.7438C13.3668 24.5017 14.9314 24.9013 16.5237 24.9018Z" fill="white"/>
<path fill-rule="evenodd" clip-rule="evenodd" d="M12.499 22.1924L12.2103 22.021L9.21734 22.8061L10.0162 19.888L9.82818 19.5889C9.0366 18.3298 8.61853 16.8747 8.61914 15.3805C8.62087 11.0205 12.1683 7.47339 16.5302 7.47339C18.6423 7.47412 20.6278 8.29769 22.1208 9.79242C23.6138 11.2872 24.4355 13.2739 24.4347 15.3869C24.433 19.7472 20.8856 23.2947 16.5271 23.2947H16.5239C15.1049 23.2941 13.7131 22.9129 12.499 22.1924ZM20.9949 17.4356C21.1607 17.5158 21.2727 17.5699 21.3205 17.6497C21.3799 17.7488 21.3799 18.2248 21.1819 18.7801C20.9837 19.3354 20.034 19.8422 19.5772 19.9105C19.1677 19.9717 18.6494 19.9972 18.0799 19.8163C17.7346 19.7067 17.2919 19.5605 16.7247 19.3155C14.4961 18.3532 12.99 16.1932 12.7053 15.7849C12.6854 15.7563 12.6714 15.7363 12.6637 15.7259L12.6617 15.7234C12.5359 15.5555 11.693 14.4308 11.693 13.2668C11.693 12.1717 12.2309 11.5978 12.4785 11.3336C12.4954 11.3155 12.511 11.2988 12.525 11.2836C12.7429 11.0456 13.0004 10.9861 13.1589 10.9861C13.3174 10.9861 13.476 10.9875 13.6145 10.9945C13.6316 10.9954 13.6494 10.9953 13.6678 10.9952C13.8063 10.9943 13.979 10.9933 14.1494 11.4026C14.215 11.5601 14.3109 11.7936 14.412 12.0398C14.6166 12.5379 14.8426 13.0881 14.8824 13.1677C14.9418 13.2867 14.9814 13.4255 14.9022 13.5842C14.8903 13.608 14.8793 13.6305 14.8688 13.6519C14.8093 13.7734 14.7655 13.8628 14.6645 13.9808C14.6247 14.0271 14.5837 14.0771 14.5426 14.1271C14.4609 14.2267 14.3791 14.3263 14.3079 14.3973C14.1889 14.5158 14.065 14.6444 14.2036 14.8824C14.3423 15.1204 14.8194 15.8989 15.5261 16.5292C16.2858 17.2068 16.9461 17.4932 17.2807 17.6384C17.3461 17.6668 17.399 17.6897 17.4379 17.7092C17.6755 17.8282 17.8142 17.8083 17.9529 17.6497C18.0915 17.491 18.5471 16.9555 18.7056 16.7175C18.864 16.4796 19.0226 16.5193 19.2404 16.5986C19.4584 16.678 20.6272 17.253 20.8649 17.372C20.9113 17.3952 20.9547 17.4162 20.9949 17.4356Z" fill="white"/>
</svg>
