<svg width="64" height="64" viewBox="0 0 64 64" fill="none" xmlns="http://www.w3.org/2000/svg">
<path d="M30.8102 59.7292H4.10803V49.4591H30.8102V59.7292Z" fill="#1388F7"/>
<path d="M49.2963 8.37883H27.7292V10.4328H49.2963V8.37883Z" fill="#002766"/>
<path d="M49.2963 12.4869H21.5671V14.5409H49.2963V12.4869Z" fill="#002766"/>
<path d="M63.4269 42.6285C60.7423 39.4961 57.2577 37.2429 53.4044 36.0526V0.162781H12.9259L0 13.0887V63.8372H53.4044V50.5416C57.2567 49.3503 60.7423 47.098 63.4269 43.9657L64 43.2971L63.4269 42.6285ZM12.3241 3.66898V12.4869H3.5062L12.3241 3.66898ZM51.3504 61.7832H2.05401V14.5409H14.3781V2.21679H51.3504V35.5247C49.9362 35.2361 48.486 35.081 47.0164 35.081H45.4143C39.7236 35.081 34.3113 37.3189 30.2875 41.2677L8.9555 40.2007L4.31035 43.2971L8.95447 46.3935L30.2864 45.3264C34.3103 49.2753 39.7236 51.5131 45.4143 51.5131H47.0174C48.4871 51.5131 49.9372 51.3581 51.3514 51.0695V61.7832H51.3504V61.7832ZM28.4851 43.3608L9.53063 44.3087L8.01374 43.2971L9.53165 42.2855L28.4851 43.2334L28.4306 43.2971L28.4851 43.3608ZM47.0164 49.4591H45.4143C40.4969 49.4591 35.8169 47.6013 32.2326 44.3241H42.7091L46.5162 48.1312L47.9684 46.679L45.6135 44.3241H55.4584V42.2701H51.3493L52.9925 41.0377L51.7612 39.3945L47.9273 42.2701H41.3904L44.7303 40.0435L43.5913 38.3346L37.6881 42.2701H32.2326C35.8169 38.9929 40.4969 37.135 45.4143 37.135H47.0174C52.4338 37.135 57.5781 39.3698 61.2682 43.2971C57.5771 47.2244 52.4338 49.4591 47.0164 49.4591Z" fill="#002766"/>
<path d="M49.2963 16.5949H8.21606V18.6489H49.2963V16.5949Z" fill="#002766"/>
<path d="M49.2963 20.7029H4.10803V22.7569H49.2963V20.7029Z" fill="#002766"/>
<path d="M12.3241 24.8109H4.10803V26.865H12.3241V24.8109Z" fill="#002766"/>
<path d="M49.2964 24.8109H14.3781V26.865H49.2964V24.8109Z" fill="#002766"/>
<path d="M49.2963 28.919H4.10803V30.973H49.2963V28.919Z" fill="#002766"/>
<path d="M30.8102 33.027H4.10803V35.081H30.8102V33.027Z" fill="#002766"/>
<path d="M49.2963 4.27081H47.2423V6.32483H49.2963V4.27081Z" fill="#002766"/>
<path d="M43.1343 4.27081H41.0803V6.32483H43.1343V4.27081Z" fill="#002766"/>
<path d="M36.9722 4.27081H34.9182V6.32483H36.9722V4.27081Z" fill="#002766"/>
<path d="M6.16205 16.5949H4.10803V18.6489H6.16205V16.5949Z" fill="#002766"/>
</svg>
