<svg width="56" height="56" viewBox="0 0 56 56" fill="none" xmlns="http://www.w3.org/2000/svg">
<path d="M49 40.25H47.25C45.8027 40.25 44.625 39.0723 44.625 37.625V35H51.625V37.625C51.625 39.0723 50.4473 40.25 49 40.25Z" fill="#1388F7"/>
<path d="M42.0464 14.8752C39.0023 14.8752 36.1051 16.3391 34.2991 18.7909L24.892 31.5571L19.7295 32.2457C16.982 32.6124 14.6291 34.1366 13.1259 36.2804V15.2909C15.2968 13.8349 16.6259 11.3744 16.6259 8.75023C16.6259 5.91173 15.1174 3.27448 12.6892 1.86836L11.6322 1.25586L10.5893 6.47348L8.75 7.69848L6.91163 6.47348L5.86862 1.25586L4.81163 1.86836C2.3835 3.27448 0.875 5.91173 0.875 8.75023C0.875 11.3744 2.20413 13.8357 4.375 15.2909V37.2787C2.20413 38.7347 0.875 41.1952 0.875 43.8194C0.875 46.6579 2.3835 49.2951 4.81163 50.7012L5.86862 51.3137L6.91163 46.0961L8.75 44.8711L10.0896 45.7645C9.79825 46.1871 9.625 46.6981 9.625 47.2502V49.0002C9.625 50.4475 10.8027 51.6252 12.25 51.6252H20.1906V49.8752H12.25C11.767 49.8752 11.375 49.4824 11.375 49.0002V47.2502C11.375 46.7681 11.767 46.3752 12.25 46.3752H19.4749V44.6252H13.125V42.0002V41.7859C13.125 41.3344 13.1679 40.8916 13.2431 40.4585C14.0079 40.8802 14.8592 41.1252 15.75 41.1252C18.6454 41.1252 21 38.7706 21 35.8752C21 35.1884 20.8486 34.5242 20.5861 33.8969L25.8589 33.1942L35.707 19.8295C37.1849 17.8231 39.5553 16.6252 42.0464 16.6252H53.375V18.3752H42.4673C40.8013 18.3752 39.2184 19.1776 38.2331 20.5207L33.7453 26.6405C31.4169 27.5076 29.75 29.7476 29.75 32.3752V33.2502V41.7867H31.5V33.2502H35H36.75H53.375V49.8752H32.3094V51.6252H55.125V14.8752H42.0464ZM11.375 44.5176L8.75 42.7676L5.33837 45.0426L4.66025 48.435C3.38188 47.2765 2.625 45.5991 2.625 43.8194C2.625 41.6459 3.79925 39.615 5.68837 38.5204L6.125 38.2675V14.3012L5.68837 14.0484C3.79925 12.9546 2.625 10.9237 2.625 8.75023C2.625 6.97048 3.38187 5.29311 4.65937 4.13461L5.3375 7.52698L8.74912 9.80198L12.1607 7.52698L12.8389 4.13461C14.1181 5.29311 14.875 6.97048 14.875 8.75023C14.875 10.9237 13.7007 12.9546 11.8116 14.0492L11.375 14.3021V41.7867V42.0002V44.5176ZM15.75 39.3752C15.0273 39.3752 14.3386 39.1451 13.7533 38.733C14.6676 36.5779 16.5165 34.8944 18.8204 34.2276C19.1021 34.7377 19.25 35.2977 19.25 35.8752C19.25 37.8055 17.6803 39.3752 15.75 39.3752ZM35 31.5002H31.5884C31.9953 29.5061 33.7619 28.0002 35.875 28.0002H36.75C37.7151 28.0002 38.5 28.7851 38.5 29.7502C38.5 30.7154 37.7151 31.5002 36.75 31.5002H35ZM39.7635 31.5002C40.0645 30.9831 40.25 30.3907 40.25 29.7502C40.25 27.82 38.6803 26.2502 36.75 26.2502H36.2014L39.6445 21.555C40.3016 20.6599 41.3569 20.1252 42.4673 20.1252H53.375V31.5002H39.7635Z" fill="white"/>
<path d="M30.2627 19.25C29.7054 19.25 29.1611 19.0242 28.7682 18.6305L25.0128 14.875H22.75C20.3376 14.875 18.375 12.9124 18.375 10.5V5.25C18.375 2.83763 20.3376 0.875 22.75 0.875H35C37.4124 0.875 39.375 2.83763 39.375 5.25V10.5C39.375 12.9124 37.4124 14.875 35 14.875H32.375V17.1378C32.375 18.3024 31.4274 19.25 30.2627 19.25Z" fill="#1388F7"/>
<path d="M27.1255 12.6122L23.8818 9.3686L25.1191 8.13135L27.1255 10.1377L33.5068 3.75635L34.7441 4.9936L27.1255 12.6122Z" fill="white"/>
<path d="M7.875 14H9.625V15.75H7.875V14Z" fill="white"/>
<path d="M7.875 17.5H9.625V19.25H7.875V17.5Z" fill="white"/>
<path d="M7.875 21H9.625V22.75H7.875V21Z" fill="white"/>
<path d="M35.875 46.375H37.625V48.125H35.875V46.375Z" fill="white"/>
<path d="M26.25 55.125C21.9074 55.125 18.375 51.5917 18.375 47.25C18.375 42.9083 21.9074 39.375 26.25 39.375C30.5926 39.375 34.125 42.9083 34.125 47.25C34.125 51.5917 30.5926 55.125 26.25 55.125ZM26.25 43.75C24.3206 43.75 22.75 45.3197 22.75 47.25C22.75 49.1803 24.3206 50.75 26.25 50.75C28.1794 50.75 29.75 49.1803 29.75 47.25C29.75 45.3197 28.1794 43.75 26.25 43.75Z" fill="#1388F7"/>
<path d="M26.25 51.625C23.8376 51.625 21.875 49.6624 21.875 47.25C21.875 44.8376 23.8376 42.875 26.25 42.875C28.6624 42.875 30.625 44.8376 30.625 47.25C30.625 49.6624 28.6624 51.625 26.25 51.625ZM26.25 44.625C24.8027 44.625 23.625 45.8027 23.625 47.25C23.625 48.6973 24.8027 49.875 26.25 49.875C27.6973 49.875 28.875 48.6973 28.875 47.25C28.875 45.8027 27.6973 44.625 26.25 44.625Z" fill="white"/>
<path d="M39.375 46.375H41.125V48.125H39.375V46.375Z" fill="white"/>
<path d="M42.875 46.375H44.625V48.125H42.875V46.375Z" fill="white"/>
</svg>
