<svg width="56" height="56" viewBox="0 0 56 56" fill="none" xmlns="http://www.w3.org/2000/svg">
<g clip-path="url(#clip0)">
<path d="M8.12891 36.1292H31.6128V51.484H8.12891V36.1292Z" fill="#1388F7"/>
<path d="M56 32.5161V27.787L51.4839 18.7547V14.4516H36.5145L36.129 13.3896V9.03223H28.9032V10.8387H34.3226V12.6451H28V14.4516H30.0195L32.237 22.5806H28.7052L27.0699 16.0384L25.3172 16.4768L26.8432 22.5806H23.3211L22.5634 18.7909L20.7923 19.1454L21.4785 22.5806H18.2634L18.9505 19.1446L17.1794 18.79L16.4208 22.5806H12.8988L14.4247 16.4777L12.6721 16.0393L11.0367 22.5806H7.50498L9.72247 14.4516H11.7419V12.6451H5.41935V10.8387H10.8387V9.03223H3.6129V13.3896L0 23.3251V26.1935C0 27.8716 1.15593 29.2745 2.70968 29.6781V50.5806H0.903226V56H38.8387V52.3871H56V46.9677H53.2903V32.5161H56ZM37.0323 30.7096V29.6781C37.5822 29.5356 38.0775 29.2662 38.4938 28.9032H54.1935V30.7096H37.0323ZM7.22581 24.3871H10.8387V26.1935C10.8387 27.1898 10.0285 28 9.03226 28C8.03598 28 7.22581 27.1898 7.22581 26.1935V24.3871ZM12.6452 24.3871H16.2581V26.1935C16.2581 27.1898 15.4479 28 14.4516 28C13.4553 28 12.6452 27.1898 12.6452 26.1935V24.3871ZM18.0645 24.3871H21.6774V26.1935C21.6774 27.1898 20.8672 28 19.871 28C18.8747 28 18.0645 27.1898 18.0645 26.1935V24.3871ZM23.4839 24.3871H27.0968V26.1935C27.0968 27.1898 26.2866 28 25.2903 28C24.294 28 23.4839 27.1898 23.4839 26.1935V24.3871ZM28.9032 24.3871H32.5161V26.1935C32.5161 27.1898 31.706 28 30.7097 28C29.7134 28 28.9032 27.1898 28.9032 26.1935V24.3871ZM34.3226 24.3871H37.9355V26.1935C37.9355 27.1898 37.1253 28 36.129 28C35.1327 28 34.3226 27.1898 34.3226 26.1935V24.3871ZM38.4854 19.8709H50.0214L53.6343 27.0967H39.6136C39.6895 26.8061 39.7419 26.5071 39.7419 26.1935V23.3251L38.4854 19.8709ZM49.6774 16.258V18.0645H37.8288L37.1721 16.258H49.6774ZM31.8921 14.4516H34.5925L37.5487 22.5806H34.1096L31.8921 14.4516ZM5.63237 22.5806H2.19323L5.14856 14.4516H7.84898L5.63237 22.5806ZM1.80645 26.1935V24.3871H5.41935V26.1935C5.41935 27.1898 4.60919 28 3.6129 28C2.61662 28 1.80645 27.1898 1.80645 26.1935ZM4.51613 29.6781C5.22971 29.4928 5.852 29.0972 6.32258 28.5583C6.98545 29.3169 7.94821 29.8064 9.03226 29.8064C10.1163 29.8064 11.0791 29.3169 11.7419 28.5583C12.4048 29.3169 13.3676 29.8064 14.4516 29.8064C15.5357 29.8064 16.4984 29.3169 17.1613 28.5583C17.8242 29.3169 18.7869 29.8064 19.871 29.8064C20.955 29.8064 21.9178 29.3169 22.5806 28.5583C23.2435 29.3169 24.2063 29.8064 25.2903 29.8064C26.3744 29.8064 27.3371 29.3169 28 28.5583C28.6629 29.3169 29.6256 29.8064 30.7097 29.8064C31.7937 29.8064 32.7565 29.3169 33.4194 28.5583C33.8899 29.0972 34.5122 29.4928 35.2258 29.6781V50.5806H20.7742V37.0322H33.4194V31.6129H6.32258V37.0322H18.9677V50.5806H4.51613V29.6781ZM8.12903 35.2258V33.4193H31.6129V35.2258H8.12903ZM37.0323 54.1935H2.70968V52.3871H37.0323V54.1935ZM54.1935 50.5806H37.0323V48.7742H54.1935V50.5806ZM51.4839 46.9677H37.0323V32.5161H51.4839V46.9677Z" fill="white"/>
<path d="M19.871 19.871C14.393 19.871 9.93555 15.4135 9.93555 9.93548C9.93555 4.45747 14.393 0 19.871 0C25.349 0 29.8065 4.45747 29.8065 9.93548C29.8065 15.4135 25.349 19.871 19.871 19.871Z" fill="#1388F7"/>
<path d="M44.2582 45.1612C47.2471 45.1612 49.6776 42.7307 49.6776 39.7419C49.6776 36.753 47.2471 34.3225 44.2582 34.3225C41.2694 34.3225 38.8389 36.753 38.8389 39.7419C38.8389 42.7307 41.2694 45.1612 44.2582 45.1612ZM40.7737 40.6451H43.355V43.2264C42.0914 42.8979 41.1022 41.9086 40.7737 40.6451ZM45.1614 43.2264V40.6451H47.7428C47.4142 41.9086 46.425 42.8979 45.1614 43.2264ZM47.7428 38.8386H45.1614V36.2573C46.425 36.5859 47.4142 37.5751 47.7428 38.8386ZM43.355 36.2573V38.8386H40.7737C41.1022 37.5751 42.0914 36.5859 43.355 36.2573Z" fill="white"/>
<path d="M15.3547 13.5484H16.6407C17.3402 15.141 18.927 16.2581 20.7741 16.2581C23.2641 16.2581 25.2902 14.232 25.2902 11.742V7.22583H16.2579V8.12906H15.3547C13.8609 8.12906 12.645 9.34497 12.645 10.8387C12.645 12.3325 13.8609 13.5484 15.3547 13.5484ZM18.0644 9.03228H23.4837V11.742C23.4837 13.2357 22.2678 14.4516 20.7741 14.4516C19.2803 14.4516 18.0644 13.2357 18.0644 11.742V9.03228ZM15.3547 9.93551H16.2579V11.742H15.3547C14.8572 11.742 14.4515 11.3362 14.4515 10.8387C14.4515 10.3413 14.8572 9.93551 15.3547 9.93551Z" fill="white"/>
<path d="M18.9678 3.61279H20.7742V5.41924H18.9678V3.61279Z" fill="white"/>
<path d="M22.5806 3.61279H24.387V5.41924H22.5806V3.61279Z" fill="white"/>
<path d="M15.355 3.61279H17.1614V5.41924H15.355V3.61279Z" fill="white"/>
</g>
<defs>
<clipPath id="clip0">
<rect width="56" height="56" fill="white"/>
</clipPath>
</defs>
</svg>
