<svg width="56" height="56" viewBox="0 0 56 56" fill="none" xmlns="http://www.w3.org/2000/svg">
<path d="M16.625 1.75C8.40963 1.75 1.75 8.40963 1.75 16.625C1.75 19.8975 2.807 22.9206 4.59813 25.375L4.60513 25.3628C6.63425 20.7357 11.249 17.5 16.625 17.5C13.2423 17.5 10.5 14.7577 10.5 11.375C10.5 7.99225 13.2423 5.25 16.625 5.25C20.0077 5.25 22.75 7.99225 22.75 11.375C22.75 14.7577 20.0077 17.5 16.625 17.5C18.0968 17.5 19.5073 17.7502 20.8268 18.1965L20.8311 18.1895L20.8276 18.1965C24.3302 19.383 27.1705 22.0019 28.644 25.3619L28.6519 25.3558C30.4395 22.9049 31.5 19.8914 31.5 16.625C31.5 8.40963 24.8404 1.75 16.625 1.75Z" fill="#1388F7"/>
<path d="M53.3748 37.625H25.3748C24.4097 37.625 23.6248 38.4099 23.6248 39.375V41.125C23.6248 42.0901 24.4097 42.875 25.3748 42.875H25.4903L26.9183 52.871C26.9437 53.046 26.9892 53.2131 27.046 53.375H16.6248C13.2482 53.375 10.4998 50.6275 10.4998 47.25V41.125H7.17829L11.3748 36.3292L15.5713 41.125H12.2498V46.375C12.2498 49.2704 14.6044 51.625 17.4998 51.625V49.875C15.5695 49.875 13.9998 48.3053 13.9998 46.375V42.875H19.4283L11.3748 33.6709L3.32129 42.875H8.74979V47.25C8.74979 51.5918 12.2822 55.125 16.6248 55.125H29.517H29.7498H49.2325C50.5302 55.125 51.6475 54.1564 51.8313 52.871L53.2593 42.875H53.3748C54.3399 42.875 55.1248 42.0901 55.1248 41.125V39.375C55.1248 38.4099 54.3399 37.625 53.3748 37.625V37.625ZM33.2498 53.375H31.4998V49C31.4998 48.5179 31.8918 48.125 32.3748 48.125C32.8578 48.125 33.2498 48.5179 33.2498 49V53.375ZM40.2498 53.375H38.4998V49C38.4998 48.5179 38.8918 48.125 39.3748 48.125C39.8578 48.125 40.2498 48.5179 40.2498 49V53.375ZM47.2498 53.375H45.4998V49C45.4998 48.5179 45.8918 48.125 46.3748 48.125C46.8578 48.125 47.2498 48.5179 47.2498 49V53.375ZM50.0979 52.6243C50.0375 53.0521 49.6648 53.375 49.2325 53.375H48.9998V49C48.9998 47.5528 47.822 46.375 46.3748 46.375C44.9275 46.375 43.7498 47.5528 43.7498 49V53.375H41.9998V49C41.9998 47.5528 40.822 46.375 39.3748 46.375C37.9275 46.375 36.7498 47.5528 36.7498 49V53.375H34.9998V49C34.9998 47.5528 33.822 46.375 32.3748 46.375C30.9275 46.375 29.7498 47.5528 29.7498 49V53.375H29.517C29.0848 53.375 28.712 53.0521 28.6517 52.6234L27.2587 42.875H51.49L50.0979 52.6243ZM25.3748 41.125V39.375H53.3748L53.3757 41.125H25.3748Z" fill="white"/>
<path d="M19.25 49.875H21V51.625H19.25V49.875Z" fill="white"/>
<path d="M22.75 49.875H24.5V51.625H22.75V49.875Z" fill="white"/>
<path d="M48.1254 20.125V8.75C48.1254 4.40825 44.593 0.875 40.2504 0.875H17.0296C8.39511 0.875 0.998738 7.98175 0.877113 16.3931C0.812363 20.902 2.68574 25.2306 6.01861 28.2677C8.92886 30.9207 12.7334 32.3724 16.6604 32.3724C17.2265 32.3724 17.7952 32.3418 18.3631 32.2814C25.4987 31.5158 31.3359 25.8011 32.2424 18.6935C32.8689 13.7874 31.2422 8.98013 27.7799 5.50725L26.5409 6.74275C29.6182 9.83062 31.0637 14.1059 30.5055 18.4721C30.2692 20.3263 29.6462 22.0693 28.7354 23.6303C26.9154 20.4785 23.9596 18.1834 20.5244 17.1841C22.3942 15.9259 23.6254 13.7918 23.6254 11.375C23.6254 7.51538 20.485 4.375 16.6254 4.375C12.7657 4.375 9.62536 7.51538 9.62536 11.375C9.62536 13.7918 10.8565 15.9259 12.7246 17.1841C9.28936 18.1834 6.33361 20.4785 4.51361 23.6303C3.25974 21.4611 2.58949 18.9744 2.62711 16.4185C2.73474 8.94162 9.33049 2.625 17.0296 2.625H40.2504C43.627 2.625 46.3754 5.3725 46.3754 8.75V21.875H49.6969L45.5004 26.6709L41.3039 21.875H44.6254V9.625C44.6254 6.72962 42.2707 4.375 39.3754 4.375H37.6254V6.125H39.3754C41.3056 6.125 42.8754 7.69475 42.8754 9.625V20.125H37.4469L45.5004 29.3291L53.5539 20.125H48.1254ZM27.6241 25.2604C25.3482 28.1426 21.9742 30.1341 18.1776 30.5419C17.3586 30.6294 16.5501 30.6303 15.7512 30.5821V27.3901L21.1727 19.2579C23.9482 20.3709 26.2687 22.4849 27.6241 25.2604V25.2604ZM11.3754 11.375C11.3754 8.47962 13.73 6.125 16.6254 6.125C19.5207 6.125 21.8754 8.47962 21.8754 11.375C21.8754 14.2704 19.5207 16.625 16.6254 16.625C13.73 16.625 11.3754 14.2704 11.3754 11.375ZM19.4359 18.7066L16.6254 22.9224L13.8149 18.7066C14.724 18.4914 15.6646 18.375 16.6254 18.375C17.5861 18.375 18.5267 18.4914 19.4359 18.7066ZM12.0789 19.2579L15.5736 24.5L14.0004 26.8599V30.373C11.4865 29.9014 9.15111 28.7551 7.19811 26.9745C6.61886 26.4469 6.10611 25.8641 5.62924 25.2569C6.98374 22.4831 9.30336 20.37 12.0789 19.2579V19.2579Z" fill="white"/>
<path d="M46.3751 43.7509C45.6655 43.7509 45.0311 43.3282 44.759 42.6737L40.384 32.1746C40.2038 31.7432 40.2029 31.2673 40.3805 30.8359C40.559 30.4028 40.8941 30.0659 41.3264 29.8856C41.5416 29.7964 41.7683 29.75 42.001 29.75C42.7098 29.75 43.3433 30.1735 43.6154 30.828L47.9904 41.3271C48.1706 41.7585 48.1715 42.2345 47.9939 42.6659C47.8154 43.099 47.4803 43.4359 47.048 43.6161C46.8354 43.7054 46.6088 43.7509 46.3751 43.7509Z" fill="#1388F7"/>
<path d="M32.3748 43.7509C33.0845 43.7509 33.7188 43.3282 33.991 42.6737L38.366 32.1746C38.5462 31.7432 38.5471 31.2673 38.3695 30.8359C38.191 30.4028 37.8559 30.0659 37.4236 29.8856C37.2092 29.7964 36.9826 29.75 36.7499 29.75C36.0411 29.75 35.4076 30.1735 35.1355 30.828L30.7605 41.3271C30.5802 41.7585 30.5793 42.2345 30.757 42.6659C30.9355 43.099 31.2706 43.4359 31.7028 43.6161C31.9155 43.7054 32.1421 43.7509 32.3748 43.7509Z" fill="#1388F7"/>
<path d="M34.125 4.375H35.875V6.125H34.125V4.375Z" fill="white"/>
</svg>
