<svg width="56" height="56" viewBox="0 0 56 56" fill="none" xmlns="http://www.w3.org/2000/svg">
<path d="M5.41943 8.12891H50.5807V12.645H5.41943V8.12891Z" fill="#1388F7"/>
<path d="M10.8389 39.7418C10.8389 41.7344 12.4592 43.3547 14.4518 43.3547C16.4443 43.3547 18.0647 41.7344 18.0647 39.7418C18.0647 37.7492 16.4443 36.1289 14.4518 36.1289C12.4592 36.1289 10.8389 37.7492 10.8389 39.7418ZM16.2582 39.7418C16.2582 40.7381 15.4481 41.5483 14.4518 41.5483C13.4555 41.5483 12.6453 40.7381 12.6453 39.7418C12.6453 38.7455 13.4555 37.9354 14.4518 37.9354C15.4481 37.9354 16.2582 38.7455 16.2582 39.7418Z" fill="white"/>
<path d="M53.2903 2.70968C53.2903 1.21591 52.0744 0 50.5806 0H5.41935C3.92559 0 2.70968 1.21591 2.70968 2.70968V9.03226H4.51613V34.1656L0 37.4777V44.2219L3.6129 41.6018V56H25.2903V48.6569H23.4839V54.1935H19.871V45.1613H9.03226V54.1935H5.41935V40.2919L14.4587 33.7365L20.2538 37.8243L21.2946 36.3487L14.4446 31.5146L1.80645 40.6813V38.3933L14.4516 29.1202L22.4955 35.019L23.565 33.5622L14.4516 26.8798L6.32258 32.8412V9.03226H49.6774V26.3109H51.4839V9.03226H53.2903V2.70968ZM10.8387 46.9677H18.0645V54.1935H10.8387V46.9677ZM51.4839 7.22581H4.51613V2.70968C4.51613 2.2122 4.92099 1.80645 5.41935 1.80645H50.5806C51.079 1.80645 51.4839 2.2122 51.4839 2.70968V7.22581Z" fill="white"/>
<path d="M18.9676 25.2904V14.4517H8.12891V25.2904H18.9676ZM9.93536 16.2581H17.1612V23.4839H9.93536V16.2581Z" fill="white"/>
<path d="M27.214 25.2904H22.5806V14.4517H33.4193V23.5796H31.6128V16.2581H24.387V23.4839H27.214V25.2904Z" fill="white"/>
<path d="M47.8709 24.489H46.0645V16.2581H38.8387V20.7742H37.0322V14.4517H47.8709V24.489Z" fill="white"/>
<path d="M53.6508 33.8071C53.2777 32.3862 52.7123 31.0251 51.9647 29.7479L53.0889 27.5432L48.328 22.7823L46.1233 23.9065C44.8461 23.159 43.4851 22.5936 42.0641 22.2205L41.302 19.8711H34.5701L33.8071 22.2205C32.3862 22.5936 31.0251 23.159 29.7479 23.9065L27.5432 22.7823L22.7823 27.5432L23.9065 29.7479C23.159 31.0251 22.5936 32.3862 22.2205 33.8071L19.8711 34.5692V41.3011L22.2205 42.0641C22.5936 43.4851 23.159 44.8461 23.9065 46.1233L22.7823 48.328L27.5432 53.0889L29.7479 51.9647C31.0251 52.7123 32.3862 53.2777 33.8071 53.6508L34.5692 56.0001H41.3011L42.0641 53.6508C43.4851 53.2777 44.8461 52.7123 46.1233 51.9647L48.328 53.0889L53.0889 48.328L51.9647 46.1233C52.7123 44.8461 53.2777 43.4851 53.6508 42.0641L56.0001 41.302V34.5701L53.6508 33.8071ZM37.9356 49.6775C31.4503 49.6775 26.1937 44.4209 26.1937 37.9356C26.1937 31.4503 31.4503 26.1937 37.9356 26.1937C44.4209 26.1937 49.6775 31.4503 49.6775 37.9356C49.6775 44.4209 44.4209 49.6775 37.9356 49.6775Z" fill="#1388F7"/>
<path d="M37.9357 25.2905C30.9626 25.2905 25.2905 30.9626 25.2905 37.9357C25.2905 44.9088 30.9626 50.5808 37.9357 50.5808C44.9088 50.5808 50.5808 44.9088 50.5808 37.9357C50.5808 30.9626 44.9088 25.2905 37.9357 25.2905ZM36.1482 48.6147L36.1275 41.2729L35.6062 41.0308C33.7292 40.1585 32.5163 38.2942 32.5163 36.2801C32.5163 34.7735 33.1946 33.3499 34.3228 32.3637V35.7094L37.9357 38.1183L41.5486 35.7094V32.3637C42.6767 33.3499 43.355 34.7735 43.355 36.2801C43.355 38.2942 42.1422 40.1585 40.2652 41.0308L39.7439 41.2729L39.7232 48.6147C39.1406 48.7113 38.5452 48.7744 37.9357 48.7744C37.3262 48.7744 36.7308 48.7113 36.1482 48.6147V48.6147ZM41.5305 48.1486L41.5468 42.4002C43.7599 41.1451 45.1615 38.801 45.1615 36.2801C45.1615 33.566 43.5385 31.0574 41.0255 29.8905L39.7421 29.2946V34.7426L37.9357 35.9467L36.1292 34.7426V29.2946L34.8458 29.8905C32.3329 31.0574 30.7099 33.566 30.7099 36.2801C30.7099 38.8019 32.1115 41.1451 34.3245 42.4002L34.3409 48.1486C30.1282 46.661 27.097 42.6507 27.097 37.9357C27.097 31.9589 31.9589 27.097 37.9357 27.097C43.9125 27.097 48.7744 31.9589 48.7744 37.9357C48.7744 42.6507 45.7432 46.661 41.5305 48.1486V48.1486Z" fill="white"/>
</svg>
