<svg width="56" height="56" viewBox="0 0 56 56" fill="none" xmlns="http://www.w3.org/2000/svg">
<path d="M33.4194 31.613H44.2581V38.8388H33.4194V31.613Z" fill="#1388F7"/>
<path d="M17.1616 24.3872H28.0003V31.613H17.1616V24.3872Z" fill="#1388F7"/>
<path d="M22.5811 46.0645H33.4198V53.2903H22.5811V46.0645Z" fill="#1388F7"/>
<path d="M33.4194 17.1614H44.2581V24.3872H33.4194V17.1614Z" fill="#1388F7"/>
<path d="M6.32275 38.8389H17.1615V46.0647H6.32275V38.8389Z" fill="#1388F7"/>
<path d="M6.32275 9.93555H17.1615V17.1614H6.32275V9.93555Z" fill="#1388F7"/>
<path d="M47.871 16.258V9.0322H34.3226V1.8064H0V54.1935H56V16.258H47.871ZM54.1935 18.0645V23.4838H45.1613V18.0645H54.1935ZM43.3548 18.0645V23.4838H34.3226V18.0645H43.3548ZM39.7419 30.7096V25.2903H48.7742V30.7096H39.7419ZM34.3226 37.9354V32.5161H43.3548V37.9354H34.3226ZM28.9032 45.1612V39.7419H37.9355V45.1612H28.9032ZM18.0645 45.1612V39.7419H27.0968V45.1612H18.0645ZM16.2581 25.2903V30.7096H7.22581V25.2903H16.2581ZM21.6774 18.0645V23.4838H12.6452V18.0645H21.6774ZM37.9355 25.2903V30.7096H28.9032V25.2903H37.9355ZM23.4839 37.9354V32.5161H32.5161V37.9354H23.4839ZM27.0968 30.7096H18.0645V25.2903H27.0968V30.7096ZM21.6774 32.5161V37.9354H12.6452V32.5161H21.6774ZM32.5161 23.4838H23.4839V18.0645H32.5161V23.4838ZM18.0645 16.258V10.8387H27.0968V16.258H18.0645ZM12.6452 9.0322V3.61285H21.6774V9.0322H12.6452ZM16.2581 10.8387V16.258H7.22581V10.8387H16.2581ZM5.41935 16.258H1.80645V10.8387H5.41935V16.258ZM10.8387 18.0645V23.4838H1.80645V18.0645H10.8387ZM5.41935 25.2903V30.7096H1.80645V25.2903H5.41935ZM10.8387 32.5161V37.9354H1.80645V32.5161H10.8387ZM5.41935 39.7419V45.1612H1.80645V39.7419H5.41935ZM7.22581 39.7419H16.2581V45.1612H7.22581V39.7419ZM21.6774 46.9677V52.387H12.6452V46.9677H21.6774ZM23.4839 46.9677H32.5161V52.387H23.4839V46.9677ZM34.3226 46.9677H43.3548V52.387H34.3226V46.9677ZM39.7419 45.1612V39.7419H48.7742V45.1612H39.7419ZM50.5806 39.7419H54.1935V45.1612H50.5806V39.7419ZM45.1613 37.9354V32.5161H54.1935V37.9354H45.1613ZM50.5806 30.7096V25.2903H54.1935V30.7096H50.5806ZM46.0645 16.258H39.7419V10.8387H46.0645V16.258ZM37.9355 10.8387V16.258H28.9032V10.8387H37.9355ZM32.5161 9.0322H23.4839V3.61285H32.5161V9.0322ZM10.8387 3.61285V9.0322H1.80645V3.61285H10.8387ZM1.80645 46.9677H10.8387V52.387H1.80645V46.9677ZM45.1613 52.387V46.9677H54.1935V52.387H45.1613Z" fill="white"/>
</svg>
