<svg width="56" height="56" viewBox="0 0 56 56" fill="none" xmlns="http://www.w3.org/2000/svg">
<path d="M47.7746 9.625H39.7246L40.2496 5.25H47.2496L47.7746 9.625Z" fill="#1388F7"/>
<path d="M24.5 55.125H3.5C2.05275 55.125 0.875 53.9473 0.875 52.5V50.75C0.875 49.3027 2.05275 48.125 3.5 48.125H24.5C25.9473 48.125 27.125 49.3027 27.125 50.75V52.5C27.125 53.9473 25.9473 55.125 24.5 55.125Z" fill="#1388F7"/>
<path d="M24.5 48.125H3.5C2.05275 48.125 0.875 46.9473 0.875 45.5V43.75C0.875 42.3027 2.05275 41.125 3.5 41.125H24.5C25.9473 41.125 27.125 42.3027 27.125 43.75V45.5C27.125 46.9473 25.9473 48.125 24.5 48.125Z" fill="#1388F7"/>
<path d="M55.1249 39.375H53.2533L48.236 5.929C49.1959 5.53788 49.8749 4.59812 49.8749 3.5C49.8749 2.05275 48.6972 0.875 47.2499 0.875H40.2499C38.8027 0.875 37.6249 2.05275 37.6249 3.5C37.6249 3.808 37.6879 4.10025 37.7859 4.375H15.9459H15.7499H14.6238L6.99992 9.14025V11.0373L12.2875 13.7183L4.4668 29.3589L6.03217 30.142L13.8477 14.5101L14.2537 14.7158L21.9668 30.1411L23.5322 29.358L16.8752 16.044L36.2704 25.8781L34.2465 39.375H32.3749V51.625H34.3165L35.1915 55.125H52.3083L53.1833 51.625H55.1249V39.375ZM28.8347 12.3821L23.6249 16.8472V9.92775L28.8347 12.3821ZM21.118 8.7465L15.7499 13.3472V6.21688L21.118 8.7465ZM21.8749 10.4029V16.618L17.3188 14.308L21.8749 10.4029ZM29.7499 13.9029V20.6106L24.8324 18.1177L29.7499 13.9029ZM31.4999 13.6378L36.5504 16.0177L31.4999 20.3472V13.6378ZM41.0033 6.125H41.1249H46.4965L49.6465 27.125H37.8533L41.0033 6.125ZM39.3749 3.5C39.3749 3.01788 39.7678 2.625 40.2499 2.625H47.2499C47.732 2.625 48.1249 3.01788 48.1249 3.5C48.1249 3.98212 47.732 4.375 47.2499 4.375H41.1249H40.2499C39.7678 4.375 39.3749 3.98212 39.3749 3.5ZM39.234 6.125L37.9417 14.7385L19.6603 6.125H39.234ZM13.9999 6.8285V12.6245L8.8803 10.0284L13.9999 6.8285ZM32.3469 21.9266L37.5304 17.4834L36.5443 24.0555L32.3469 21.9266ZM37.5908 28.875H49.909L51.484 39.375H47.2499V30.625H40.2499V39.375H36.0158L37.5908 28.875ZM45.4999 39.375H41.9999V32.375H45.4999V39.375ZM41.1249 49.875H37.6249V44.625H41.1249V49.875ZM50.9415 53.375H36.5583L36.1208 51.625H51.379L50.9415 53.375ZM49.8749 49.875H46.3749V44.625H49.8749V49.875ZM53.3749 49.875H51.6249V42.875H44.6249V49.875H42.8749V42.875H35.8749V49.875H34.1249V41.125H53.3749V49.875Z" fill="white"/>
<path d="M24.5 35.875H3.5C2.05275 35.875 0.875 34.6973 0.875 33.25V31.5C0.875 30.0527 2.05275 28.875 3.5 28.875H24.5C25.9473 28.875 27.125 30.0527 27.125 31.5V33.25C27.125 34.6973 25.9473 35.875 24.5 35.875Z" fill="#1388F7"/>
</svg>
