<svg width="56" height="56" viewBox="0 0 56 56" fill="none" xmlns="http://www.w3.org/2000/svg">
<path d="M21.875 42H35.875V43.75H21.875V42Z" fill="#1388F7"/>
<path d="M7.875 12.25V10.5C5.46263 10.5 3.5 12.4626 3.5 14.875V18.4993C1.995 18.8904 0.875 20.2492 0.875 21.875C0.875 23.5008 1.995 24.8596 3.5 25.2507V28.875C3.5 31.2874 5.46263 33.25 7.875 33.25V31.5C6.42775 31.5 5.25 30.3223 5.25 28.875V14.875C5.25 13.4277 6.42775 12.25 7.875 12.25ZM2.625 21.875C2.625 21.2301 2.97937 20.6719 3.5 20.3682V23.3818C2.97937 23.0781 2.625 22.5199 2.625 21.875V21.875Z" fill="white"/>
<path d="M55.125 21.875C55.125 20.2492 54.005 18.8904 52.5 18.4993V14.875C52.5 12.4626 50.5374 10.5 48.125 10.5V12.25C49.5723 12.25 50.75 13.4277 50.75 14.875V28.875C50.75 30.3223 49.5723 31.5 48.125 31.5V33.25C50.5374 33.25 52.5 31.2874 52.5 28.875V25.2507C54.005 24.8596 55.125 23.5008 55.125 21.875ZM52.5 23.3818V20.3682C53.0206 20.6719 53.375 21.2301 53.375 21.875C53.375 22.5199 53.0206 23.0781 52.5 23.3818V23.3818Z" fill="white"/>
<path d="M39.375 19.25H42.875V17.5H39.375V16.625C39.375 15.1777 38.1973 14 36.75 14C36.4044 14 36.0762 14.0709 35.7735 14.1925C35.4716 13.0769 34.4601 12.25 33.25 12.25C32.9044 12.25 32.5762 12.3209 32.2735 12.4425C31.9716 11.3269 30.9601 10.5 29.75 10.5C29.0754 10.5 28.4655 10.7634 28 11.1825C27.5345 10.7625 26.9246 10.5 26.25 10.5C24.8027 10.5 23.625 11.6777 23.625 13.125V14H22.8559C21.4253 14 20.0804 14.5574 19.0689 15.5689C18.5132 16.1245 18.1002 16.7834 17.8351 17.5H13.125V19.25H17.5053C17.5044 19.2859 17.5 19.32 17.5 19.3559V24.5H13.125V26.25H17.5V28.8295C17.5 29.6214 17.7721 30.3975 18.2665 31.0161L21 34.4321V55.125H36.75V34.3315L38.1299 31.5709C38.3722 31.087 38.5 30.5462 38.5 30.0055V26.25H42.875V24.5H39.214C39.312 24.2252 39.375 23.933 39.375 23.625V19.25ZM36.75 15.75C37.2321 15.75 37.625 16.1429 37.625 16.625V23.625C37.625 24.1071 37.2321 24.5 36.75 24.5C36.2679 24.5 35.875 24.1071 35.875 23.625V16.625C35.875 16.1429 36.2679 15.75 36.75 15.75ZM33.25 14C33.7321 14 34.125 14.3929 34.125 14.875V16.625V23.625C34.125 24.1071 33.7321 24.5 33.25 24.5C32.7679 24.5 32.375 24.1071 32.375 23.625V14.875C32.375 14.3929 32.7679 14 33.25 14ZM29.75 12.25C30.2321 12.25 30.625 12.6429 30.625 13.125V14.875V23.625C30.625 24.1071 30.2321 24.5 29.75 24.5C29.2679 24.5 28.875 24.1071 28.875 23.625V18.5675C29.4079 18.0871 29.75 17.3976 29.75 16.625C29.75 15.8524 29.4079 15.1638 28.875 14.6825V13.125C28.875 12.6429 29.2679 12.25 29.75 12.25V12.25ZM26.6857 24.367C26.1826 22.4849 25.2569 20.7393 23.9488 19.25H27.125V23.625C27.125 23.9452 26.943 24.2139 26.6857 24.367ZM25.375 13.125C25.375 12.6429 25.7679 12.25 26.25 12.25C26.7321 12.25 27.125 12.6429 27.125 13.125V14H25.375V13.125ZM22.75 40.25H25.3977C24.8421 40.9832 24.5 41.8863 24.5 42.875C24.5 43.8637 24.8421 44.7668 25.3977 45.5H22.75V40.25ZM26.25 42.875C26.25 41.4277 27.4277 40.25 28.875 40.25H31.5H35V45.5H31.5H28.875C27.4277 45.5 26.25 44.3223 26.25 42.875ZM22.75 53.375V47.25H28.875H31.5H35V53.375H22.75ZM36.75 30.0055C36.75 30.2759 36.6861 30.5463 36.5654 30.7878L35 33.9185V38.5H31.5H28.875H22.75V33.8179L19.6332 29.9224C19.3865 29.6135 19.25 29.225 19.25 28.8295V19.3559C19.25 18.3925 19.6254 17.4869 20.3061 16.8061C20.9869 16.1254 21.8934 15.75 22.8559 15.75H27.125C27.6071 15.75 28 16.1429 28 16.625C28 17.1071 27.6071 17.5 27.125 17.5H21.875V19.6122L22.1314 19.8686C24.2235 21.9608 25.375 24.7415 25.375 27.6999V28.875H27.125V27.6999C27.125 27.167 27.0813 26.6429 27.0174 26.1223C27.3866 26.0085 27.72 25.8195 28 25.5675C28.4655 25.9875 29.0754 26.25 29.75 26.25C30.4246 26.25 31.0345 25.9866 31.5 25.5675C31.9655 25.9875 32.5754 26.25 33.25 26.25C33.9246 26.25 34.5345 25.9866 35 25.5675C35.4655 25.9875 36.0754 26.25 36.75 26.25V30.0055Z" fill="white"/>
<path d="M10.5 35.875C8.56975 35.875 7 34.3053 7 32.375V11.375C7 9.44475 8.56975 7.875 10.5 7.875C12.4303 7.875 14 9.44475 14 11.375V32.375C14 34.3053 12.4303 35.875 10.5 35.875Z" fill="#1388F7"/>
<path d="M45.5 35.875C43.5697 35.875 42 34.3053 42 32.375V11.375C42 9.44475 43.5697 7.875 45.5 7.875C47.4303 7.875 49 9.44475 49 11.375V32.375C49 34.3053 47.4303 35.875 45.5 35.875Z" fill="#1388F7"/>
</svg>
