<svg width="56" height="56" viewBox="0 0 56 56" fill="none" xmlns="http://www.w3.org/2000/svg">
<path d="M24.3872 32.516L26.1936 30.1071V19.8708H0.90332V45.1612H24.3872V32.516Z" fill="#1388F7"/>
<path d="M43.3547 51.4836H27.0967V35.2256H43.3547V51.4836Z" fill="#1388F7"/>
<path d="M51.4839 25.0311V18.9677H37.9355V5.41935H19.871V0H3.6129V5.41935H0V56H23.4839H24.3871H56V32.2569L51.4839 25.0311ZM50.5806 26.9947L53.4664 31.6129H47.6939L50.5806 26.9947ZM50.5806 51.8578L52.9164 54.1935H48.2449L50.5806 51.8578ZM51.4839 50.2067V37.0323H49.6774V50.2067L46.9677 52.9164V33.4194H49.6774V35.2258H51.4839V33.4194H54.1935V52.9164L51.4839 50.2067ZM49.6774 24.3871H30.7097V20.7742H49.6774V24.3871ZM32.5161 18.9677V17.1613H30.7097V18.9677H28.9032V24.9895L27.0968 27.3985V8.50297L30.7097 12.1159V15.3548H32.5161V12.1159L36.129 8.50297V18.9677H32.5161ZM31.6129 10.4648L28.3739 7.22581H34.8519L31.6129 10.4648ZM18.0645 5.41935H16.2581V1.80645H18.0645V5.41935ZM9.03226 5.41935V1.80645H10.8387V5.41935H9.03226ZM12.6452 1.80645H14.4516V5.41935H12.6452V1.80645ZM5.41935 1.80645H7.22581V5.41935H5.41935V1.80645ZM1.80645 54.1935V7.22581H25.2903V29.8065L23.4839 32.2154V54.1935H1.80645ZM25.2903 32.8169L30.2581 26.1935H48.9512L45.1613 32.2569V54.1935H25.2903V32.8169Z" fill="white"/>
<path d="M38.116 42.0913L35.2257 38.2363L32.3345 42.0922C31.8693 42.7136 31.6128 43.4832 31.6128 44.2581C31.6128 46.2506 33.2332 47.871 35.2257 47.871C37.2182 47.871 38.8386 46.2506 38.8386 44.2581C38.8386 43.4832 38.5821 42.7136 38.116 42.0913ZM35.2257 46.0646C34.2294 46.0646 33.4192 45.2544 33.4192 44.2581C33.4192 43.8697 33.5484 43.4859 33.7796 43.1743L35.2257 41.2477L36.6709 43.1734C36.903 43.4859 37.0321 43.8697 37.0321 44.2581C37.0321 45.2544 36.222 46.0646 35.2257 46.0646Z" fill="white"/>
<path d="M21.6775 24.3872H5.41943V26.1937H21.6775V24.3872Z" fill="white"/>
<path d="M5.41943 37.0323H21.6775V28H5.41943V37.0323ZM7.22589 29.8065H19.871V35.2258H7.22589V29.8065Z" fill="white"/>
<path d="M21.6775 38.8386H5.41943V40.6451H21.6775V38.8386Z" fill="white"/>
</svg>
