<svg width="56" height="56" viewBox="0 0 56 56" fill="none" xmlns="http://www.w3.org/2000/svg">
<path d="M44.625 21L42.875 22.75L40.4469 17.8929C40.1817 18.0154 39.9184 18.1422 39.6497 18.2577C39.4686 18.3347 39.2735 18.375 39.0766 18.375C38.2751 18.375 37.625 17.7249 37.625 16.9234C37.625 16.7265 37.6652 16.5323 37.7422 16.3511C37.8577 16.0825 37.9846 15.8191 38.1071 15.554L33.25 13.125L35 11.375L36.6371 11.7845C34.062 10.4099 31.1237 9.625 28 9.625C23.6372 9.625 19.635 11.1528 16.4832 13.6929C16.3826 13.874 16.2934 14.0604 16.1779 14.2336L10.9856 22.022C10.8491 22.2276 10.6654 22.3886 10.4598 22.512C9.91813 24.2454 9.625 26.0881 9.625 28C9.625 31.1763 10.4527 34.1478 11.8755 36.75H21C21.9669 36.75 22.75 37.5331 22.75 38.5C22.75 39.4669 21.9669 40.25 21 40.25L23.814 45.8771C25.1606 46.1921 26.5571 46.375 28 46.375C31.1675 46.375 34.1486 45.5726 36.75 44.1613V40.25C36.75 39.2831 37.5331 38.5 38.5 38.5H43.0675C45.1465 35.5224 46.375 31.9069 46.375 28C46.375 24.8763 45.5901 21.938 44.2155 19.3629L44.625 21Z" fill="#1388F7"/>
<path d="M49.875 42.875H41.125V38.5H49.875V42.875Z" fill="#1388F7"/>
<path d="M14.875 9.625C14.875 6.72962 12.5204 4.375 9.625 4.375C6.72962 4.375 4.375 6.72962 4.375 9.625C4.375 12.5204 6.72962 14.875 9.625 14.875C12.5204 14.875 14.875 12.5204 14.875 9.625ZM6.125 9.625C6.125 7.69475 7.69475 6.125 9.625 6.125C11.5553 6.125 13.125 7.69475 13.125 9.625C13.125 11.5553 11.5553 13.125 9.625 13.125C7.69475 13.125 6.125 11.5553 6.125 9.625Z" fill="white"/>
<path d="M45.5381 9.22241L46.7753 7.98516L48.0126 9.22241L46.7753 10.4597L45.5381 9.22241Z" fill="white"/>
<path d="M43.1265 11.6353L44.3012 10.4605L45.5385 11.6977L44.3637 12.8725L43.1265 11.6353Z" fill="white"/>
<path d="M48.0127 6.74854L49.2499 5.51128L50.4872 6.74854L49.2499 7.98579L48.0127 6.74854Z" fill="white"/>
<path d="M49.875 49.875H51.625V51.625H49.875V49.875Z" fill="white"/>
<path d="M46.375 49.875H48.125V51.625H46.375V49.875Z" fill="white"/>
<path d="M11.375 42.875H13.125V44.625H11.375V42.875Z" fill="white"/>
<path d="M14.875 42.875H16.625V44.625H14.875V42.875Z" fill="white"/>
<path d="M18.375 42.875H20.125V44.625H18.375V42.875Z" fill="white"/>
<path d="M52.5 37.6248H47.6464C49.1067 34.6437 49.875 31.3467 49.875 27.9998C49.875 23.5548 48.5485 19.3207 46.0591 15.6833C46.7197 15.2222 47.3646 14.7383 47.992 14.2299L53.375 19.612L55.251 17.736L52.626 9.86015L52.906 9.58015C53.7731 8.71478 54.25 7.56328 54.25 6.33653C54.25 3.80778 52.192 1.74978 49.6624 1.74978C48.4382 1.74978 47.2859 2.22665 46.4187 3.09203L46.137 3.37378L38.2629 0.748779L36.3877 2.62478L41.7707 8.00778C41.2615 8.63428 40.7785 9.28003 40.3174 9.93978C36.6791 7.45128 32.445 6.12478 28 6.12478C24.6181 6.12478 21.2853 6.90965 18.2796 8.40065C17.6811 4.15515 14.0333 0.874779 9.625 0.874779C4.80025 0.874779 0.875 4.80003 0.875 9.62478V9.8654C0.875 11.5979 1.38338 13.2762 2.345 14.719L7.04112 21.7628C6.44087 23.7797 6.125 25.8744 6.125 27.9998C6.125 30.7263 6.61938 33.3688 7.58888 35.8748H7C5.55275 35.8748 4.375 37.0525 4.375 38.4998C4.375 39.639 5.10912 40.6015 6.125 40.9638V42.8748H0.875V45.8052C0.875 50.944 5.05575 55.1248 10.1946 55.1248H19.88C23.4754 55.1248 26.7251 53.0265 28.2634 49.8678C30.8962 49.8372 33.4504 49.3489 35.8759 48.4109V52.4998C35.8759 53.947 37.0536 55.1248 38.5009 55.1248H52.5009C53.9481 55.1248 55.1259 53.947 55.1259 52.4998V40.2498C55.125 38.8025 53.9473 37.6248 52.5 37.6248V37.6248ZM38.5 37.6248H35.8872C36.3939 34.9788 36.694 32.0213 36.7413 28.8748H48.0961C47.9631 31.9434 47.131 34.9403 45.6662 37.6248H38.5ZM28.8479 47.948L28.875 46.3748H25.0408L22.2504 40.7932C22.8121 40.486 23.2461 39.9847 23.464 39.3748H33.7111C32.5281 44.0875 30.6863 47.2025 28.8479 47.948ZM23.464 37.6248C23.1682 36.7953 22.4726 36.1583 21.6046 35.9518C21.2511 33.7022 21.0551 31.3292 21.0175 28.8748H34.9913C34.9414 32.1097 34.6168 35.0584 34.104 37.6248H23.464ZM7.90825 27.1248C7.96338 25.8368 8.12788 24.5619 8.4245 23.3168C8.78763 23.5154 9.198 23.6248 9.625 23.6248C10.4659 23.6248 11.2464 23.2065 11.7136 22.5074L14.4681 18.3748H20.1128C19.6061 21.0208 19.306 23.9783 19.2588 27.1248H7.90825ZM21.9013 18.3748H34.1101C34.6404 21.0505 34.9361 24.029 34.9842 27.1248H21.0166C21.0674 23.8908 21.3876 20.9394 21.9013 18.3748ZM28 7.87478C29.5549 7.87478 31.1544 9.63528 32.438 12.6995L31.773 13.3645L32.914 13.935C33.2115 14.7794 33.4819 15.6745 33.719 16.6248H22.2941C23.6618 11.1902 25.9052 7.87478 28 7.87478V7.87478ZM37.695 14.369L34.727 12.885L35.2686 12.3443L38.3434 13.1125C38.1176 13.5255 37.9041 13.9455 37.695 14.369ZM36.96 15.958C36.953 15.9738 36.9451 15.9895 36.9381 16.0053C36.8524 16.2039 36.8069 16.413 36.7798 16.6248H35.5145C35.385 16.0762 35.2441 15.545 35.0954 15.0262L36.96 15.958ZM48.0909 27.1248H36.7342C36.6879 24.0465 36.4 21.0759 35.8872 18.3748H37.2732C37.7002 18.9042 38.3451 19.2498 39.0766 19.2498C39.3916 19.2498 39.6996 19.1868 39.9936 19.0617C40.0103 19.0547 40.0251 19.0468 40.0418 19.0398L42.6353 24.2268L45.5936 21.2675L44.4614 16.7377C44.5086 16.7088 44.5541 16.6773 44.6014 16.6475C46.7355 19.7599 47.9299 23.3474 48.0909 27.1248ZM42.8872 17.6564L43.6555 20.7312L43.1139 21.2719L41.6299 18.3039C42.0542 18.0957 42.4742 17.8822 42.8872 17.6564ZM53.123 16.8855L49.3273 13.0898C49.7674 12.6934 50.1996 12.2874 50.6196 11.8665L51.2418 11.2444L53.123 16.8855ZM49.6624 3.49978C51.2269 3.49978 52.5 4.77203 52.5 6.33653C52.5 7.09515 52.2051 7.8074 51.6687 8.3429L49.3824 10.6293C46.4748 13.5369 43.0833 15.8329 39.3059 17.4525C38.9358 17.6083 38.5 17.3195 38.5 16.9232C38.5 16.8444 38.5158 16.7674 38.5464 16.6948C40.1669 12.9157 42.462 9.52503 45.3696 6.61653L47.6551 4.33015V4.33103C48.1924 3.79465 48.9055 3.49978 49.6624 3.49978ZM39.1151 2.87678L44.7554 4.75715L44.1332 5.38015C43.7124 5.80103 43.3064 6.23328 42.91 6.67253L39.1151 2.87678ZM39.2612 11.5384L34.7323 10.4053L33.7715 11.366C33.1966 10.1174 32.5605 9.0744 31.8754 8.25978C34.5494 8.77865 37.0772 9.8374 39.3522 11.3975C39.3216 11.4457 39.2901 11.4912 39.2612 11.5384ZM18.3391 10.3519C20.167 9.35003 22.1375 8.6369 24.1806 8.24315C22.6371 10.0719 21.357 12.99 20.4881 16.6248H15.6345L16.905 14.719C17.7756 13.4127 18.2525 11.9103 18.3391 10.3519V10.3519ZM2.625 9.8654V9.62478C2.625 5.76515 5.76538 2.62478 9.625 2.62478C13.4846 2.62478 16.625 5.76515 16.625 9.62478V9.8654C16.625 11.2523 16.2181 12.5945 15.449 13.7487L10.2568 21.5362C9.97413 21.9597 9.275 21.9597 8.99238 21.5362L3.80012 13.7487C3.03187 12.5954 2.625 11.2523 2.625 9.8654V9.8654ZM7.89775 28.8748H19.2675C19.3043 31.295 19.4906 33.64 19.8249 35.8748H9.4815C8.53388 33.6505 8.001 31.3029 7.89775 28.8748ZM7 37.6248H21C21.4821 37.6248 21.875 38.0168 21.875 38.4998C21.875 38.9828 21.4821 39.3748 21 39.3748H7C6.51788 39.3748 6.125 38.9828 6.125 38.4998C6.125 38.0168 6.51788 37.6248 7 37.6248ZM7.875 41.1248H20.4592L23.0842 46.3748H11.0408L9.29075 42.8748H7.875V41.1248ZM19.88 53.3748H10.1946C6.02088 53.3748 2.625 49.9789 2.625 45.8052V44.6248H8.20925L9.95925 48.1248H27.0856C26.0855 51.2284 23.1577 53.3748 19.88 53.3748V53.3748ZM31.8185 47.7573C33.362 45.9285 34.643 43.0095 35.5119 39.3748H36.036C35.938 39.6495 35.875 39.9418 35.875 40.2498V46.5174C34.5625 47.0774 33.208 47.4913 31.8185 47.7573V47.7573ZM53.375 52.4998C53.375 52.9828 52.9821 53.3748 52.5 53.3748H38.5C38.0179 53.3748 37.625 52.9828 37.625 52.4998V40.2498C37.625 39.7668 38.0179 39.3748 38.5 39.3748H52.5C52.9821 39.3748 53.375 39.7668 53.375 40.2498V52.4998Z" fill="white"/>
<path d="M23.625 30.625H25.375V32.375H23.625V30.625Z" fill="white"/>
<path d="M27.125 30.625H28.875V32.375H27.125V30.625Z" fill="white"/>
<path d="M30.625 30.625H32.375V32.375H30.625V30.625Z" fill="white"/>
<path d="M30.625 23.625H32.375V25.375H30.625V23.625Z" fill="white"/>
<path d="M27.125 23.625H28.875V25.375H27.125V23.625Z" fill="white"/>
<path d="M23.625 23.625H25.375V25.375H23.625V23.625Z" fill="white"/>
</svg>
