<svg width="56" height="56" viewBox="0 0 56 56" fill="none" xmlns="http://www.w3.org/2000/svg">
<path d="M48.125 42.875H41.125V36.75H48.125V42.875Z" fill="#1388F7"/>
<path d="M51.625 51.625H42.875V47.25H51.625V51.625Z" fill="#1388F7"/>
<path d="M39.375 5.25V14H38.5L28.875 5.25H28V14H14V18.375H50.75V14L40.25 5.25H39.375Z" fill="#1388F7"/>
<path d="M52.5 35.875H51.625V13.5896L40.5667 4.375H38.5V12.817L29.2136 4.375H27.125V13.125H25.2595L23.5095 0.875H16.7423L14.9923 13.125H13.125V20.8661C11.1414 21.7376 9.5095 23.3284 8.61613 25.375H7.875C6.42775 25.375 5.25 26.5527 5.25 28C5.25 29.4473 6.42775 30.625 7.875 30.625H8.05437C8.568 33.1642 10.1649 35.2686 12.3209 36.4875C5.72513 38.367 0.875 44.4342 0.875 51.625V55.125H32.375V51.625C32.375 47.5895 30.8359 43.9154 28.3307 41.125H34.125V52.5C34.125 53.9473 35.3027 55.125 36.75 55.125H52.5C53.9473 55.125 55.125 53.9473 55.125 52.5V38.5C55.125 37.0527 53.9473 35.875 52.5 35.875ZM18.2586 2.625H21.9914L23.4911 13.125H16.7597L18.2586 2.625ZM16.625 21.875C19.1433 21.875 21.4288 23.2444 22.6643 25.375H10.5857C11.8212 23.2444 14.1067 21.875 16.625 21.875ZM7 28C7 27.517 7.392 27.125 7.875 27.125H25.375C25.858 27.125 26.25 27.517 26.25 28C26.25 28.483 25.858 28.875 25.375 28.875H7.875C7.392 28.875 7 28.483 7 28ZM9.856 30.625H23.3949C22.6135 33.6761 19.8616 35.875 16.6259 35.875C13.3901 35.875 10.6374 33.6761 9.856 30.625V30.625ZM11.1011 38.7651L15.428 43.7097L13.4969 45.6409L10.9751 38.8264C11.018 38.8071 11.0583 38.7835 11.1011 38.7651V38.7651ZM16.625 44.9873L19.0846 47.4469L16.891 53.375H16.359L14.1654 47.4469L16.625 44.9873ZM19.7531 45.6409L17.822 43.7097L22.1489 38.7651C22.1917 38.7835 22.232 38.8071 22.274 38.8255L19.7531 45.6409ZM16.625 42.4217L12.8852 38.1474C14.0779 37.8158 15.3283 37.625 16.625 37.625C17.9217 37.625 19.1721 37.8158 20.3648 38.1474L16.625 42.4217ZM2.625 51.625C2.625 46.5447 5.35412 42.1015 9.41412 39.6471L14.4935 53.375H7.875V46.375H6.125V53.375H2.625V51.625ZM30.625 53.375H27.125V46.375H25.375V53.375H18.7565L23.8359 39.6471C27.8959 42.1015 30.625 46.5447 30.625 51.625V53.375ZM26.502 39.375C24.878 38.0634 22.988 37.0746 20.9282 36.4875C23.0842 35.2686 24.6811 33.1634 25.1948 30.625H25.375C26.8223 30.625 28 29.4473 28 28C28 26.5527 26.8223 25.375 25.375 25.375H24.6339C23.2514 22.211 20.1093 20.125 16.625 20.125C16.0291 20.125 15.4446 20.1924 14.875 20.3096V14.875H28.875V6.433L38.1614 14.875H40.25V6.38925L49.875 14.4104V35.875H36.75C35.3027 35.875 34.125 37.0527 34.125 38.5V39.375H26.502ZM53.375 52.5C53.375 52.983 52.983 53.375 52.5 53.375H36.75C36.267 53.375 35.875 52.983 35.875 52.5V38.5C35.875 38.017 36.267 37.625 36.75 37.625H52.5C52.983 37.625 53.375 38.017 53.375 38.5V52.5Z" fill="white"/>
<path d="M42.875 49.875H44.625V51.625H42.875V49.875Z" fill="white"/>
<path d="M46.375 49.875H48.125V51.625H46.375V49.875Z" fill="white"/>
<path d="M49.875 49.875H51.625V51.625H49.875V49.875Z" fill="white"/>
<path d="M42.875 46.375H51.625V48.125H42.875V46.375Z" fill="white"/>
<path d="M48.125 20.125H30.625V32.375H48.125V20.125ZM46.375 25.375H42.875V21.875H46.375V25.375ZM37.625 25.375V21.875H41.125V25.375H37.625ZM41.125 27.125V30.625H37.625V27.125H41.125ZM35.875 21.875V25.375H32.375V21.875H35.875ZM32.375 27.125H35.875V30.625H32.375V27.125ZM42.875 30.625V27.125H46.375V30.625H42.875Z" fill="white"/>
</svg>
