<svg width="56" height="56" viewBox="0 0 56 56" fill="none" xmlns="http://www.w3.org/2000/svg">
<path d="M49.9907 45.911L44.9019 42.9728C44.5903 43.3232 44.2678 43.6656 43.9382 43.9943L43.2996 44.6311L36.2634 37.595L36.9056 36.9564C39.3163 34.5583 40.645 31.3772 40.645 28C40.645 21.0271 34.9727 15.3548 27.9998 15.3548C24.6227 15.3548 21.4415 16.6835 19.0434 19.0951L18.4049 19.7373L11.3687 12.7012L12.0055 12.0626C12.3343 11.7329 12.6766 11.4095 13.0271 11.0988L10.0889 6.00916L17.9108 1.49303L20.8472 6.5791C21.7053 6.29368 22.5877 6.05884 23.4837 5.87729V0H32.516V5.87729C33.412 6.05884 34.2944 6.29368 35.1525 6.5791L38.0889 1.49303L45.9108 6.00916L42.9726 11.0979C43.6527 11.7013 44.2985 12.3471 44.9019 13.0272L49.9907 10.089L54.5068 17.911L49.4207 20.8474C49.7062 21.7054 49.941 22.5879 50.1225 23.4839H55.9998V32.5161H50.1225C49.941 33.4121 49.7062 34.2946 49.4207 35.1526L54.5068 38.089L49.9907 45.911Z" fill="#1388F7"/>
<path d="M6.22594 10.3669L5.6009 11.1988C1.93652 16.0762 0 21.8858 0 27.9997C0 34.6655 2.64826 41.2952 7.45613 46.6667L8.0929 47.3775L25.6643 29.8062L6.22594 10.3669ZM1.80645 27.9997C1.80645 22.63 3.40335 17.5124 6.43458 13.1308L23.1099 29.8062L8.176 44.7392C4.06181 39.8356 1.80645 33.9267 1.80645 27.9997Z" fill="white"/>
<path d="M28 32.1421L10.3682 49.774L11.2 50.399C16.0756 54.0625 21.8852 55.9999 28 55.9999C34.1149 55.9999 39.9244 54.0625 44.8009 50.3999L45.6328 49.7749L28 32.1421ZM34.3226 51.4838V53.4167C33.7265 53.5639 33.124 53.6876 32.5162 53.7933V39.2125L34.3226 41.019V49.6773H36.1291V42.8254L37.9355 44.6319V52.2389C37.3412 52.4827 36.7387 52.704 36.1291 52.9027V51.4838H34.3226ZM23.4839 43.3547V53.7933C22.876 53.6885 22.2736 53.5639 21.6775 53.4167V41.019L23.4839 39.2125V41.5483H25.2904V37.4061L27.0968 35.5996V54.16C26.4907 54.1393 25.8883 54.1004 25.2904 54.039V43.3547H23.4839ZM19.871 52.9018C19.2613 52.7031 18.6589 52.4818 18.0646 52.238V44.6319L19.871 42.8254V52.9018ZM28.9033 35.5996L30.7097 37.4061V54.039C30.1118 54.1004 29.5093 54.1393 28.9033 54.16V35.5996ZM16.2581 46.4384V51.4124C15.1824 50.8705 14.1346 50.2599 13.1311 49.5653L16.2581 46.4384ZM39.742 51.4124V46.4374L42.8689 49.5644C41.8655 50.2599 40.8177 50.8705 39.742 51.4124Z" fill="white"/>
</svg>
