<svg width="56" height="56" viewBox="0 0 56 56" fill="none" xmlns="http://www.w3.org/2000/svg">
<path d="M56.0002 32.5161V23.4838H51.7334C51.3992 22.3286 50.9377 21.215 50.355 20.1599L53.3737 17.1422L46.9867 10.7556L43.969 13.7743C42.914 13.1909 41.8013 12.7301 40.6451 12.3959V8.12915H31.6129V12.4068L29.9248 12.8982L31.2606 13.9847C35.5032 17.4368 37.9354 22.5446 37.9354 28C37.9354 33.4555 35.503 38.5633 31.2606 42.0153L29.9248 43.1019L31.5785 43.5825L31.6129 47.8709H40.6451V43.6042C41.8004 43.27 42.914 42.8084 43.969 42.2258L46.9867 45.2444L53.3735 38.8577L50.3548 35.84C50.9382 34.7849 51.3991 33.6722 51.7332 32.5161H56.0002ZM37.0134 36.0793C38.1714 33.6252 38.8388 30.8939 38.8388 28C38.8388 25.1062 38.1722 22.3747 37.0134 19.9208C41.086 20.3616 44.2582 23.8092 44.2582 28C44.2582 32.1909 41.086 35.6387 37.0134 36.0793Z" fill="#1388F7"/>
<path d="M19.8708 11.7419C10.9063 11.7419 3.61279 19.0354 3.61279 28C3.61279 36.9645 10.9063 44.258 19.8708 44.258C28.8354 44.258 36.1288 36.9645 36.1288 28C36.1288 19.0354 28.8354 11.7419 19.8708 11.7419ZM19.8708 42.4515C11.9025 42.4515 5.41914 35.9681 5.41914 27.9998C5.41914 20.0315 11.9025 13.5481 19.8708 13.5481C27.8391 13.5481 34.3225 20.0315 34.3225 27.9998C34.3225 35.9681 27.8391 42.4515 19.8708 42.4515Z" fill="white"/>
<path d="M21.6778 18.0644H20.7746V15.3547H18.9681V18.0644H18.0649C15.0761 18.0644 12.6455 20.495 12.6455 23.4838C12.6455 26.4726 15.0761 28.9032 18.0649 28.9032H21.6778C23.6703 28.9032 25.2907 30.5236 25.2907 32.5161C25.2907 34.5087 23.6703 36.129 21.6778 36.129H18.0649C16.0724 36.129 14.452 34.5087 14.452 32.5161V30.7096H12.6455V32.5161C12.6455 35.5049 15.0761 37.9355 18.0649 37.9355H18.9681V40.6452H20.7746V37.9355H21.6778C24.6666 37.9355 27.0972 35.5049 27.0972 32.5161C27.0972 29.5273 24.6666 27.0967 21.6778 27.0967H18.0649C16.0724 27.0967 14.452 25.4764 14.452 23.4838C14.452 21.4913 16.0724 19.871 18.0649 19.871H21.6778C23.6703 19.871 25.2907 21.4913 25.2907 23.4838V25.2904H27.0972V23.4838C27.0972 20.495 24.6666 18.0644 21.6778 18.0644Z" fill="white"/>
<path d="M45.1612 28C45.1612 23.5562 41.9584 19.8267 37.6319 19.1042C34.3623 12.6027 27.6306 8.12915 19.8709 8.12915C8.91399 8.12915 0 17.043 0 28C0 38.9571 8.91399 47.8709 19.8709 47.8709C27.6304 47.8709 34.3623 43.3972 37.6319 36.8959C41.9584 36.1734 45.1612 32.4439 45.1612 28ZM19.8709 46.0646C9.91008 46.0646 1.80634 37.9609 1.80634 28C1.80634 18.0392 9.91008 9.93549 19.8709 9.93549C29.8317 9.93549 37.9354 18.0392 37.9354 28C37.9354 37.9609 29.8317 46.0646 19.8709 46.0646ZM38.5407 34.8058C39.3174 32.6814 39.742 30.39 39.742 28C39.742 25.6101 39.3175 23.3187 38.5407 21.1943C41.3722 22.1905 43.3549 24.8739 43.3549 28C43.3549 31.1262 41.3722 33.8096 38.5407 34.8058Z" fill="white"/>
<path fill-rule="evenodd" clip-rule="evenodd" d="M13.4352 27.8491L0 41.2843L1.41421 42.6985L14.8494 29.2633L28.2845 42.6985L29.6987 41.2843L16.2636 27.8491L29.6985 14.4142L28.2843 13L14.8494 26.4349L1.41446 13L0.000246167 14.4142L13.4352 27.8491Z" fill="#1388F7"/>
</svg>
