<svg width="56" height="56" viewBox="0 0 56 56" fill="none" xmlns="http://www.w3.org/2000/svg">
<path d="M48.1512 51.6248C44.2531 51.6248 41.125 48.4966 41.125 44.651C41.125 43.3219 41.5021 42.0269 42.2152 40.9069L48.125 31.6196L54.0348 40.906C54.7479 42.0269 55.125 43.3219 55.125 44.651C55.125 48.4966 51.9969 51.6248 48.1512 51.6248Z" fill="#1388F7"/>
<path d="M48.1516 48.1249L48.0991 46.3749C49.1019 46.3749 49.8754 45.6014 49.8754 44.6512C49.8754 44.323 49.7826 44.0028 49.6059 43.7254L48.2496 41.5948L49.7266 40.655L51.0829 42.7857C51.4381 43.3448 51.6254 43.9897 51.6254 44.6512C51.6254 46.5665 50.067 48.1249 48.1516 48.1249Z" fill="white"/>
<path d="M24.5571 42.875H31.4434L30.8912 39.375H25.1093L24.5571 42.875Z" fill="#1388F7"/>
<path d="M31.9365 16.4492L42.3387 14.6768L42.6327 16.4023L32.2305 18.1747L31.9365 16.4492Z" fill="white"/>
<path d="M37.4876 53.3749L33.1984 26.0653L31.4702 26.3374L35.7367 53.3749H33.9859L29.9451 27.768L28.2161 28.041L32.214 53.3749H23.7851L27.7839 28.041L26.0549 27.768L22.0141 53.3749H20.2633L24.5306 26.3374L22.8016 26.0644L18.4914 53.3749H16.625V46.3749H13.125V34.1249H14.875V27.1249H12.25V21.5713L22.7841 19.7784L22.4901 18.0529L5.3725 20.9666C5.24212 20.9885 5.11 20.9999 4.977 20.9999C3.68025 20.9999 2.625 19.9446 2.625 18.6479V17.632C2.625 16.4674 3.45975 15.4909 4.61038 15.3089L38.8456 9.89526L38.5726 8.16626L4.3365 13.5799C2.331 13.8975 0.875 15.602 0.875 17.632V18.6479C0.875 20.9098 2.71513 22.7499 4.977 22.7499C5.20713 22.7499 5.43725 22.7306 5.66562 22.6921L7 22.4646V27.1249H4.375V34.1249H6.125V46.3749H2.625V53.3749H0.875V55.1249H55.125V53.3749H37.4876ZM8.75 22.1671L10.5 21.8696V27.1249H8.75V22.1671ZM6.125 28.8749H13.125V32.3749H6.125V28.8749ZM7.875 34.1249H11.375V46.3749H7.875V34.1249ZM4.375 48.1249H14.875V53.3749H4.375V48.1249Z" fill="white"/>
<path d="M28 28.875C24.1404 28.875 21 25.7346 21 21.875C21 18.0154 24.1404 14.875 28 14.875C31.8596 14.875 35 18.0154 35 21.875C35 25.7346 31.8596 28.875 28 28.875ZM28 19.25C26.5527 19.25 25.375 20.4277 25.375 21.875C25.375 23.3223 26.5527 24.5 28 24.5C29.4473 24.5 30.625 23.3223 30.625 21.875C30.625 20.4277 29.4473 19.25 28 19.25Z" fill="#1388F7"/>
<path d="M28 25.375C26.0697 25.375 24.5 23.8053 24.5 21.875C24.5 19.9447 26.0697 18.375 28 18.375C29.9303 18.375 31.5 19.9447 31.5 21.875C31.5 23.8053 29.9303 25.375 28 25.375ZM28 20.125C27.0349 20.125 26.25 20.9099 26.25 21.875C26.25 22.8401 27.0349 23.625 28 23.625C28.9651 23.625 29.75 22.8401 29.75 21.875C29.75 20.9099 28.9651 20.125 28 20.125Z" fill="white"/>
<path d="M50.75 30.6251H45.5V19.25H47.25V28.8751H49V19.2483H50.75V30.6251Z" fill="white"/>
<path d="M53.8571 11.3059L46.6366 2.772C45.6155 1.56625 44.1254 0.875 42.546 0.875H34.125V2.86038L44.1201 20.125H49.7674C52.7214 20.125 55.125 17.7214 55.125 14.7665C55.125 13.5012 54.6744 12.2719 53.8571 11.3059V11.3059ZM49.7674 15.75H46.6427L40.5641 5.25H42.546C42.8356 5.25 43.1086 5.37687 43.2959 5.59737L50.5173 14.1321C50.6678 14.3097 50.75 14.5346 50.75 14.7665C50.75 15.309 50.309 15.75 49.7674 15.75Z" fill="#1388F7"/>
<path d="M49.7674 16.625H46.1387L39.0469 4.375H42.5469C43.0938 4.375 43.61 4.61475 43.9644 5.03212L51.1858 13.5669C51.4684 13.9011 51.625 14.3281 51.625 14.7665C51.625 15.7911 50.792 16.625 49.7674 16.625V16.625ZM47.1476 14.875H49.7674C49.826 14.875 49.875 14.8251 49.875 14.7665L42.6282 6.16263C42.6072 6.139 42.5784 6.125 42.546 6.125H42.0814L47.1476 14.875Z" fill="white"/>
</svg>
