<svg width="56" height="56" viewBox="0 0 56 56" fill="none" xmlns="http://www.w3.org/2000/svg">
<path d="M47.8708 37.0323C43.8804 37.0323 40.645 33.7969 40.645 29.8065V18.9678H55.0966V29.8065C55.0966 33.7969 51.8612 37.0323 47.8708 37.0323Z" fill="#1388F7"/>
<path d="M55.0967 47.8711C55.0967 51.8615 51.8614 55.0969 47.8709 55.0969H37.0322V40.6453H47.8709C51.8614 40.6453 55.0967 43.8806 55.0967 47.8711Z" fill="#1388F7"/>
<path d="M27.0969 41.5484H5.41943V16.2581H27.0969V41.5484Z" fill="#1388F7"/>
<path d="M47.871 39.7419H32.5161V15.3548C32.5161 12.497 30.6087 10.0784 28 9.29864V6.32258C28 5.1468 27.2423 4.15316 26.1935 3.77917V2.70968C26.1935 1.21591 24.9776 0 23.4839 0H9.03226C7.5385 0 6.32258 1.21591 6.32258 2.70968V3.77917C5.27382 4.15316 4.51613 5.1468 4.51613 6.32258V9.29864C1.90833 10.0784 0 12.497 0 15.3548V42.4516C0 45.9371 2.83713 48.7742 6.32258 48.7742H18.1179C18.5686 52.8325 22.0161 56 26.1935 56H47.871C52.3536 56 56 52.3536 56 47.871C56 43.3884 52.3536 39.7419 47.871 39.7419ZM24.3871 9.03226V5.41935H25.2903C25.7887 5.41935 26.1935 5.82422 26.1935 6.32258V9.03226H24.3871ZM11.7419 5.41935V9.03226H9.93548V5.41935H11.7419ZM13.5484 5.41935H15.3548V9.03226H13.5484V5.41935ZM17.1613 5.41935H18.9677V9.03226H17.1613V5.41935ZM20.7742 5.41935H22.5806V9.03226H20.7742V5.41935ZM9.03226 1.80645H23.4839C23.9822 1.80645 24.3871 2.21132 24.3871 2.70968V3.6129H8.12903V2.70968C8.12903 2.21132 8.5339 1.80645 9.03226 1.80645ZM6.32258 6.32258C6.32258 5.82422 6.72744 5.41935 7.22581 5.41935H8.12903V9.03226H6.32258V6.32258ZM1.80645 42.4516V15.3548C1.80645 12.8648 3.83254 10.8387 6.32258 10.8387H26.1935C28.6836 10.8387 30.7097 12.8648 30.7097 15.3548V39.7419H26.1935C22.0161 39.7419 18.5686 42.9094 18.1179 46.9677H6.32258C3.83254 46.9677 1.80645 44.9417 1.80645 42.4516ZM19.871 47.871C19.871 44.3855 22.7081 41.5484 26.1935 41.5484H36.129V54.1935H26.1935C22.7081 54.1935 19.871 51.3564 19.871 47.871ZM47.871 54.1935H37.9355V41.5484H47.871C51.3564 41.5484 54.1935 44.3855 54.1935 47.871C54.1935 51.3564 51.3564 54.1935 47.871 54.1935Z" fill="white"/>
<path d="M16.2582 30.7096C19.2471 30.7096 21.6776 28.2791 21.6776 25.2902C21.6776 22.3014 19.2471 19.8708 16.2582 19.8708C13.2694 19.8708 10.8389 22.3014 10.8389 25.2902C10.8389 28.2791 13.2694 30.7096 16.2582 30.7096ZM16.2582 21.6773C18.2508 21.6773 19.8711 23.2976 19.8711 25.2902C19.8711 27.2828 18.2508 28.9031 16.2582 28.9031C14.2657 28.9031 12.6453 27.2828 12.6453 25.2902C12.6453 23.2976 14.2657 21.6773 16.2582 21.6773Z" fill="white"/>
<path d="M9.03223 32.5161H23.4838V34.3226H9.03223V32.5161Z" fill="white"/>
<path d="M9.03223 36.1292H10.8387V37.9356H9.03223V36.1292Z" fill="white"/>
<path d="M12.645 36.1292H19.8708V37.9356H12.645V36.1292Z" fill="white"/>
<path d="M21.6772 36.1292H23.4837V37.9356H21.6772V36.1292Z" fill="white"/>
<path d="M21.6772 47.8709H23.4837C23.4837 46.3771 24.6996 45.1612 26.1934 45.1612H28.9031V43.3547H26.1934C23.7033 43.3547 21.6772 45.3808 21.6772 47.8709Z" fill="white"/>
<path d="M30.7095 43.3547H32.5159V45.1612H30.7095V43.3547Z" fill="white"/>
<path d="M47.8707 0C43.3881 0 39.7417 3.64642 39.7417 8.12903V29.8065C39.7417 34.2891 43.3881 37.9355 47.8707 37.9355C52.3533 37.9355 55.9998 34.2891 55.9998 29.8065V8.12903C55.9998 3.64642 52.3533 0 47.8707 0ZM47.8707 1.80645C51.3562 1.80645 54.1933 4.64359 54.1933 8.12903V18.0645H41.5482V8.12903C41.5482 4.64359 44.3853 1.80645 47.8707 1.80645ZM47.8707 36.129C44.3853 36.129 41.5482 33.2919 41.5482 29.8065V19.871H54.1933V29.8065C54.1933 33.2919 51.3562 36.129 47.8707 36.129Z" fill="white"/>
<path d="M50.5808 8.12892V10.8386H52.3872V8.12892C52.3872 5.63888 50.3611 3.61279 47.8711 3.61279V5.41924C49.3649 5.41924 50.5808 6.63516 50.5808 8.12892Z" fill="white"/>
<path d="M50.5806 12.6453H52.387V14.4517H50.5806V12.6453Z" fill="white"/>
</svg>
