<svg width="56" height="56" viewBox="0 0 56 56" fill="none" xmlns="http://www.w3.org/2000/svg">
<path d="M36.4268 7.49026L28.0005 0L19.5742 7.49026H0.152344V10.6443L3.01621 12.7122L4.06906 11.2561L1.949 9.7262V9.28692H18.8439L16.8523 20.4891L13.0263 17.7258L11.9734 19.182L16.5028 22.4528L11.845 48.6562L11.8306 49.7117H12.7289L13.3452 50.3657L21.0412 43.1225L27.325 50.3037L28.0005 49.7117L28.677 50.3037L34.9608 43.1225L42.6568 50.3657L43.2721 49.7117H44.1704V48.8134L39.4937 22.4564L43.3871 19.6446L42.3343 18.1885L39.1452 20.4918L39.1254 20.3786L39.1488 20.3615L39.1137 20.313L37.1572 9.28692H54.052V9.7262L51.3499 11.6774L52.4027 13.1336L55.8487 10.6443V7.49026H36.4268ZM25.9631 21.8635L22.1677 26.0192L19.0666 21.8635H25.9631ZM19.108 20.0669L22.9277 14.9257L26.3287 20.0669H19.108ZM27.1022 23.2802V32.6318L23.2618 27.4853L27.1022 23.2802ZM26.2093 34.4401H16.9089L22.0275 28.8363L26.2093 34.4401ZM28.8989 23.3035L32.7221 27.5454L28.8989 32.6435V23.3035ZM30.02 21.8635H36.9838L33.8208 26.0803L30.02 21.8635ZM24.0667 13.3923L27.1022 9.30668V17.9791L24.0667 13.3923ZM23.013 11.7986L21.3502 9.28692H24.8788L23.013 11.7986ZM21.873 13.333L19.3433 16.7377L20.3557 11.0405L21.873 13.333ZM20.9334 27.3703L16.6124 32.1009L18.1234 23.6045L20.9334 27.3703ZM25.7349 36.2368L21.166 40.5371L17.4038 36.2368H25.7349ZM29.7972 34.4401L33.9484 28.9055L38.9368 34.4401H34.2888V36.2368H38.5972L34.835 40.5371L30.2661 36.2368H32.4922V34.4401H29.7972ZM35.047 27.4403L37.8866 23.6539L39.4228 32.2958L35.047 27.4403ZM29.6651 20.0669L33.0051 14.9814L36.7125 20.0669H29.6651ZM28.8989 17.9612V9.34801L31.8741 13.43L28.8989 17.9612ZM31.0764 9.28692H34.5952L32.927 11.8265L31.0764 9.28692ZM28.8989 7.49026V3.20254L33.7229 7.49026H28.8989ZM27.1022 3.20254V7.49026H22.2782L27.1022 3.20254ZM13.8959 47.3796L15.7312 37.0551L19.8563 41.7696L13.8959 47.3796ZM27.1022 37.4172V47.3194L22.3509 41.8891L27.1022 37.4172ZM28.8989 47.3203V37.4172L33.6501 41.8891L28.8989 47.3203ZM40.269 37.0551L42.1043 47.3796L36.1439 41.7696L40.269 37.0551ZM34.058 13.3779L35.6336 10.9794L36.7053 17.0098L34.058 13.3779Z" fill="white"/>
<path d="M49.5601 10.1851C47.5783 10.1851 45.9667 11.7967 45.9667 13.7784C45.9667 13.8233 45.9784 13.8655 45.9802 13.9104C45.6874 13.8323 45.3855 13.7784 45.0684 13.7784C43.0867 13.7784 41.4751 15.39 41.4751 17.3717C41.4751 19.3534 43.0867 20.965 45.0684 20.965C47.0501 20.965 48.6617 19.3534 48.6617 17.3717C48.6617 17.3268 48.65 17.2846 48.6483 17.2396C48.9411 17.3178 49.2429 17.3717 49.5601 17.3717C51.5418 17.3717 53.1534 15.7601 53.1534 13.7784C53.1534 11.7967 51.5418 10.1851 49.5601 10.1851ZM45.0684 19.1683C44.0776 19.1683 43.2718 18.3625 43.2718 17.3717C43.2718 16.3808 44.0776 15.575 45.0684 15.575C46.0593 15.575 46.8651 16.3808 46.8651 17.3717C46.8651 18.3625 46.0593 19.1683 45.0684 19.1683ZM49.5601 15.575C48.5692 15.575 47.7634 14.7692 47.7634 13.7784C47.7634 12.7875 48.5692 11.9817 49.5601 11.9817C50.5509 11.9817 51.3567 12.7875 51.3567 13.7784C51.3567 14.7692 50.5509 15.575 49.5601 15.575Z" fill="#1388F7"/>
<path d="M10.0337 13.7784C9.71658 13.7784 9.41474 13.8323 9.12188 13.9104C9.12368 13.8655 9.13536 13.8233 9.13536 13.7784C9.13536 11.7967 7.52376 10.1851 5.54204 10.1851C3.56033 10.1851 1.94873 11.7967 1.94873 13.7784C1.94873 15.7601 3.56033 17.3717 5.54204 17.3717C5.85915 17.3717 6.16099 17.3178 6.45385 17.2396C6.45205 17.2846 6.44037 17.3268 6.44037 17.3717C6.44037 19.3534 8.05197 20.965 10.0337 20.965C12.0154 20.965 13.627 19.3534 13.627 17.3717C13.627 15.39 12.0154 13.7784 10.0337 13.7784ZM3.74539 13.7784C3.74539 12.7875 4.55119 11.9817 5.54204 11.9817C6.5329 11.9817 7.3387 12.7875 7.3387 13.7784C7.3387 14.7692 6.5329 15.575 5.54204 15.575C4.55119 15.575 3.74539 14.7692 3.74539 13.7784ZM10.0337 19.1683C9.04283 19.1683 8.23703 18.3625 8.23703 17.3717C8.23703 16.3808 9.04283 15.575 10.0337 15.575C11.0245 15.575 11.8303 16.3808 11.8303 17.3717C11.8303 18.3625 11.0245 19.1683 10.0337 19.1683Z" fill="#1388F7"/>
<path d="M45.9668 55.9998H10.0337V48.8132H45.9668V55.9998Z" fill="#1388F7"/>
<path d="M48.625 29H53.875L52.125 33.375H55.625L49.5 43V36.875H46L48.625 29Z" fill="#1388F7"/>
<path d="M2.625 23H7.875L6.125 27.375H9.625L3.5 37V30.875H0L2.625 23Z" fill="#1388F7"/>
</svg>
