<svg width="56" height="56" viewBox="0 0 56 56" fill="none" xmlns="http://www.w3.org/2000/svg">
<path d="M56.0002 26.6497C56.0002 20.6641 51.1471 15.811 45.1615 15.811C39.1758 15.811 34.3228 20.6641 34.3228 26.6497C34.3228 31.3665 37.3412 35.368 41.5486 36.8565V45.6175L43.355 47.4239L41.5486 49.2304V52.8433L44.2582 55.553H46.0647L48.7744 52.8433V36.8565C52.9818 35.368 56.0002 31.3665 56.0002 26.6497V26.6497Z" fill="#1388F7"/>
<path d="M45.1612 22.1334C46.1575 22.1334 46.9677 22.9436 46.9677 23.9399H48.7741C48.7741 22.2618 47.6191 20.8593 46.0645 20.4553V18.5205H44.258V20.4553C42.7034 20.8593 41.5483 22.2618 41.5483 23.9399C41.5483 25.9324 43.1687 27.5528 45.1612 27.5528C46.1575 27.5528 46.9677 28.3629 46.9677 29.3592C46.9677 30.3555 46.1575 31.1657 45.1612 31.1657C44.165 31.1657 43.3548 30.3555 43.3548 29.3592H41.5483C41.5483 31.0382 42.7034 32.4402 44.258 32.8438V34.7786H46.0645V32.8438C47.6191 32.4402 48.7741 31.0382 48.7741 29.3592C48.7741 27.3667 47.1538 25.7463 45.1612 25.7463C44.165 25.7463 43.3548 24.9361 43.3548 23.9399C43.3548 22.9436 44.165 22.1334 45.1612 22.1334Z" fill="white"/>
<path d="M37.0322 25.7466H38.8387V27.553H37.0322V25.7466Z" fill="white"/>
<path d="M51.4839 25.7466H53.2903V27.553H51.4839V25.7466Z" fill="white"/>
<path d="M0 9.84611V14.0046H3.6129V15.811H1.80645V55.553H34.3226V15.811H32.5161V14.0046H36.129V9.84611L18.0645 0.338867L0 9.84611ZM21.6774 44.7142V53.7465H14.4516V44.7142H21.6774ZM32.5161 53.7465H23.4839V44.7142H25.2903V42.9078H10.8387V44.7142H12.6452V53.7465H3.6129V17.6175H32.5161V53.7465ZM30.7097 15.811H5.41935V14.0046H30.7097V15.811ZM34.3226 12.1981H1.80645V10.9372L18.0645 2.37995L34.3226 10.9372V12.1981Z" fill="white"/>
<path d="M12.6452 28.4558H5.41943V21.23H12.6452V28.4558Z" fill="#1388F7"/>
<path d="M21.6775 28.4558H14.4517V21.23H21.6775V28.4558Z" fill="#1388F7"/>
<path d="M30.7097 28.4558H23.4839V21.23H30.7097V28.4558Z" fill="#1388F7"/>
<path d="M12.6452 39.2947H5.41943V32.0688H12.6452V39.2947Z" fill="#1388F7"/>
<path d="M21.6775 39.2947H14.4517V32.0688H21.6775V39.2947Z" fill="#1388F7"/>
<path d="M30.7097 39.2947H23.4839V32.0688H30.7097V39.2947Z" fill="#1388F7"/>
</svg>
