<svg width="56" height="56" viewBox="0 0 56 56" fill="none" xmlns="http://www.w3.org/2000/svg">
<path d="M16.2581 22.5806L7.82825 16.2581H2.70968C1.21591 16.2581 0 15.0421 0 13.5484V2.70968C0 1.21591 1.21591 0 2.70968 0H24.3871C25.8809 0 27.0968 1.21591 27.0968 2.70968V7.22581H25.2903V2.70968C25.2903 2.21132 24.8846 1.80645 24.3871 1.80645H2.70968C2.2122 1.80645 1.80645 2.21132 1.80645 2.70968V13.5484C1.80645 14.0467 2.2122 14.4516 2.70968 14.4516H8.42981L14.4516 18.9677V14.4516H24.3871V16.2581H16.2581V22.5806Z" fill="white"/>
<path d="M3.61279 3.61279H21.6773V5.41924H3.61279V3.61279Z" fill="white"/>
<path d="M3.61279 7.22583H21.6773V9.03228H3.61279V7.22583Z" fill="white"/>
<path d="M13.5483 10.8386H15.3548V12.6451H13.5483V10.8386Z" fill="white"/>
<path d="M18.9678 10.8386H20.7742V12.6451H18.9678V10.8386Z" fill="white"/>
<path d="M8.12891 10.8386H9.93536V12.6451H8.12891V10.8386Z" fill="white"/>
<path d="M27.4626 35.1041L32.5164 33.4194V30.4036C30.317 29.1308 28.7037 26.9578 28.1819 24.3871H28.0002C26.005 24.3871 24.3873 22.7694 24.3873 20.7742C24.3873 18.779 26.005 17.1613 28.0002 17.1613V16.2581H30.4903C32.9437 16.2581 35.2975 15.2834 37.0325 13.5484C38.7675 15.2834 41.1204 16.2581 43.5747 16.2581H46.0648V17.1613C48.06 17.1613 49.6777 18.779 49.6777 20.7742C49.6777 22.7694 48.06 24.3871 46.0648 24.3871H45.883C45.3613 26.9578 43.748 29.1308 41.5486 30.4036V33.4194L46.6024 35.1041C51.6998 34.5682 54.5986 32.4385 54.7358 32.3353L55.8106 31.53L54.6591 30.838C52.1426 29.3297 50.5809 26.5693 50.5809 23.6365V13.5484C50.5809 6.07781 44.5031 0 37.0325 0C29.5619 0 23.4841 6.07781 23.4841 13.5484V23.6365C23.4841 26.5693 21.9224 29.3297 19.4059 30.8389L18.2544 31.5309L19.3292 32.3353C19.4663 32.4385 22.3652 34.5682 27.4626 35.1041V35.1041Z" fill="#1388F7"/>
<path d="M33.4197 19.871C33.4197 20.3698 33.0153 20.7742 32.5165 20.7742C32.0177 20.7742 31.6133 20.3698 31.6133 19.871C31.6133 19.3722 32.0177 18.9678 32.5165 18.9678C33.0153 18.9678 33.4197 19.3722 33.4197 19.871Z" fill="white"/>
<path d="M42.452 19.871C42.452 20.3698 42.0475 20.7742 41.5487 20.7742C41.0499 20.7742 40.6455 20.3698 40.6455 19.871C40.6455 19.3722 41.0499 18.9678 41.5487 18.9678C42.0475 18.9678 42.452 19.3722 42.452 19.871Z" fill="white"/>
<path d="M51.677 35.8446L42.4516 32.768V30.8967C44.4477 29.5917 45.9415 27.5882 46.5964 25.2361C48.8337 24.9698 50.5806 23.0822 50.5806 20.7743C50.5806 18.5938 49.026 16.7693 46.9677 16.3494V13.5485H45.1613V15.3549H43.5745C41.3442 15.3549 39.248 14.487 37.6709 12.9098L37.0323 12.2712L36.3936 12.9098C34.8165 14.487 32.7203 15.3549 30.49 15.3549H28.9032V13.5485H27.0968V16.3494C25.0385 16.7693 23.4839 18.5929 23.4839 20.7743C23.4839 23.0822 25.2308 24.9698 27.4681 25.2361C28.1217 27.589 29.6168 29.5917 31.6129 30.8967V32.768L22.3884 35.8438C21.4009 36.1723 20.5413 36.7289 19.8502 37.4407C19.8582 37.3049 19.871 37.1704 19.871 37.0323C19.871 33.0481 16.6294 29.8065 12.6452 29.8065C8.66091 29.8065 5.41935 33.0481 5.41935 37.0323C5.41935 41.0166 8.66091 44.2581 12.6452 44.2581C14.8058 44.2581 16.7432 43.2998 18.068 41.7915C18.068 41.8087 18.0645 41.825 18.0645 41.8413V45.6266L16.9589 44.9708L16.5236 45.1786C16.2444 45.3113 15.9582 45.4313 15.6636 45.5354L15.2084 45.6959L14.6532 47.871H10.6372L10.0828 45.6959L9.62765 45.5354C9.33304 45.4322 9.04681 45.3122 8.76764 45.1786L8.33235 44.9708L6.40108 46.1171L3.5613 43.2764L4.70665 41.346L4.49893 40.9116C4.3653 40.6307 4.24622 40.3436 4.14125 40.049L3.98072 39.5956L1.80645 39.0412V35.0243L3.9794 34.47L4.14037 34.0157C4.24534 33.7211 4.36442 33.434 4.49805 33.1539L4.70577 32.7195L3.56042 30.7891L6.4002 27.9485L8.33146 29.0947L8.76676 28.887C9.04593 28.7542 9.33216 28.6343 9.62676 28.5302L10.0819 28.3697L10.6372 26.1936H14.6532L15.2075 28.3688L15.6627 28.5293C15.9573 28.6325 16.2435 28.7525 16.5227 28.8861L16.958 29.0938L18.8892 27.9476L20.7508 29.8092C21.198 29.3972 21.5989 28.9439 21.9447 28.449L19.1737 25.6789L16.8552 27.0536C16.8107 27.0347 16.7666 27.0166 16.7233 26.9985L16.0565 24.3872H9.23381L8.56697 27.0003C8.52287 27.0183 8.47877 27.0364 8.43511 27.0554L6.11662 25.6807L1.29265 30.5038L2.66822 32.8223C2.64926 32.8668 2.63117 32.9109 2.61309 32.9541L0 33.6219V40.4437L2.61309 41.1114C2.63117 41.1555 2.64926 41.1996 2.66822 41.2433L1.29177 43.5618L6.11574 48.3848L8.43422 47.0102C8.47877 47.0291 8.52287 47.0472 8.56609 47.0653L9.23381 49.6775H16.0565L16.7233 47.0644C16.7675 47.0463 16.8116 47.0282 16.8552 47.0093L18.0645 47.7273V56.0001H56V41.8413C56 39.1162 54.2632 36.7055 51.677 35.8446V35.8446ZM12.6452 42.4517C9.65631 42.4517 7.22581 40.0212 7.22581 37.0323C7.22581 34.0435 9.65631 31.613 12.6452 31.613C15.634 31.613 18.0645 34.0435 18.0645 37.0323C18.0645 40.0212 15.634 42.4517 12.6452 42.4517ZM43.6719 35.0795C44.0495 35.6621 44.2581 36.3298 44.2581 37.0323C44.2581 39.0249 42.6377 40.6452 40.6452 40.6452C39.7186 40.6452 38.8506 40.292 38.1847 39.6609L41.8942 34.4872L43.6719 35.0795ZM48.7742 20.7743C48.7742 21.9637 47.9984 22.9662 46.9298 23.3296C46.9488 23.0813 46.9677 22.8334 46.9677 22.5807V18.2309C48.0165 18.6048 48.7742 19.5985 48.7742 20.7743ZM25.2903 20.7743C25.2903 19.5985 26.048 18.6048 27.0968 18.2309V22.5807C27.0968 22.8334 27.1157 23.0813 27.1347 23.3296C26.0661 22.9662 25.2903 21.9637 25.2903 20.7743ZM28.9032 22.5807V17.1614H30.49C32.9117 17.1614 35.2033 16.3194 37.0323 14.7741C38.8603 16.3194 41.1528 17.1614 43.5745 17.1614H45.1613V22.5807C45.1613 27.0633 41.514 30.7097 37.0323 30.7097C32.5505 30.7097 28.9032 27.0633 28.9032 22.5807ZM37.0323 32.5162C38.3077 32.5162 39.5232 32.2661 40.6452 31.826V33.1288L37.0323 38.1667L33.4194 33.1288V31.826C34.5413 32.2661 35.7568 32.5162 37.0323 32.5162ZM32.1704 34.4872L35.8799 39.6609C35.2139 40.292 34.346 40.6452 33.4194 40.6452C31.4268 40.6452 29.8065 39.0249 29.8065 37.0323C29.8065 36.3298 30.0151 35.6621 30.3926 35.0795L32.1704 34.4872ZM54.1935 54.1936H48.7742V52.7466C49.942 51.4478 50.5806 49.7869 50.5806 48.0254V47.7149C50.5806 45.9543 49.942 44.2925 48.7742 42.9937V40.6452H46.9677V43.7289L47.2324 43.9935C48.2269 44.988 48.7742 46.3094 48.7742 47.7158V48.0263C48.7742 49.4327 48.2269 50.7549 47.2324 51.7486L46.9677 52.0132V54.1936H27.0968V52.0132L26.8322 51.7486C25.8376 50.754 25.2903 49.4327 25.2903 48.0263V47.7158C25.2903 46.3094 25.8376 44.9872 26.8322 43.9935L27.0968 43.7289V40.6452H25.2903V42.9955C24.1225 44.2943 23.4839 45.9552 23.4839 47.7167V48.0272C23.4839 49.7877 24.1225 51.4495 25.2903 52.7484V54.1936H19.871V41.8413C19.871 39.8946 21.112 38.1724 22.959 37.5572L28.1508 35.8266C28.0613 36.2195 28 36.6204 28 37.0323C28 40.0212 30.4305 42.4517 33.4194 42.4517C34.7777 42.4517 36.0452 41.9449 37.0323 41.0452C38.0193 41.9449 39.2868 42.4517 40.6452 42.4517C43.634 42.4517 46.0645 40.0212 46.0645 37.0323C46.0645 36.6204 46.0032 36.2195 45.9137 35.8266L51.1063 37.5572C52.9525 38.1733 54.1935 39.8946 54.1935 41.8413V54.1936Z" fill="white"/>
<path d="M40.6457 24.3872H38.8393C38.8393 25.3835 38.0291 26.1937 37.0328 26.1937C36.0365 26.1937 35.2264 25.3835 35.2264 24.3872H33.4199C33.4199 26.3798 35.0403 28.0001 37.0328 28.0001C39.0254 28.0001 40.6457 26.3798 40.6457 24.3872Z" fill="white"/>
</svg>
