<svg width="56" height="56" viewBox="0 0 56 56" fill="none" xmlns="http://www.w3.org/2000/svg">
<path d="M42 17.5H14V28.875H42V17.5Z" fill="#1388F7"/>
<path d="M30.4334 55.125H25.5666L25.0197 52.9349C24.318 52.7275 23.6408 52.4457 22.9959 52.0949L21.0586 53.2569L17.6181 49.8164L18.7801 47.8791C18.4292 47.2343 18.1475 46.5561 17.9401 45.8552L15.75 45.3084V40.4416L17.9401 39.8948C18.1475 39.193 18.4292 38.5157 18.7801 37.8709L17.6181 35.9336L21.0586 32.4931L22.9959 33.6551C23.6408 33.3043 24.3189 33.0225 25.0197 32.8151L25.5666 30.625H30.4334L30.9802 32.8151C31.682 33.0225 32.3593 33.3043 33.0041 33.6551L34.9414 32.4931L38.3819 35.9336L37.2199 37.8709C37.5707 38.5157 37.8525 39.1939 38.0599 39.8948L40.25 40.4416V45.3084L38.0599 45.8552C37.8525 46.557 37.5707 47.2343 37.2199 47.8791L38.3819 49.8164L34.9414 53.2569L33.0041 52.0949C32.3593 52.4457 31.6811 52.7275 30.9802 52.9349L30.4334 55.125Z" fill="#1388F7"/>
<path d="M42 23.625H14V25.375H42V23.625Z" fill="white"/>
<path d="M42 27.125H30.625V28.875H42V27.125Z" fill="white"/>
<path d="M25.375 27.125H14V28.875H25.375V27.125Z" fill="white"/>
<path d="M42 20.125H30.625V21.875H42V20.125Z" fill="white"/>
<path d="M25.375 20.125H14V21.875H25.375V20.125Z" fill="white"/>
<path d="M42 16.625H14V18.375H42V16.625Z" fill="white"/>
<path d="M45.5 34.125C45.5 36.0553 43.9303 37.625 42 37.625V39.375C44.8954 39.375 47.25 37.0204 47.25 34.125V29.6004C47.25 28.238 47.7803 26.957 48.7436 25.9936L49.3623 25.375L48.7436 24.7564C47.7803 23.793 47.25 22.5129 47.25 21.1496V16.625C47.25 13.7296 44.8954 11.375 42 11.375V13.125C43.9303 13.125 45.5 14.6947 45.5 16.625V21.1496C45.5 22.701 46.0119 24.1745 46.9569 25.375C46.0119 26.5755 45.5 28.049 45.5 29.6004V34.125Z" fill="white"/>
<path d="M10.4999 16.625C10.4999 14.6947 12.0697 13.125 13.9999 13.125V11.375C11.1046 11.375 8.74995 13.7296 8.74995 16.625V21.1496C8.74995 22.512 8.2197 23.793 7.25632 24.7564L6.6377 25.375L7.25632 25.9936C8.2197 26.957 8.74995 28.2371 8.74995 29.6004V34.125C8.74995 37.0204 11.1046 39.375 13.9999 39.375V37.625C12.0697 37.625 10.4999 36.0553 10.4999 34.125V29.6004C10.4999 28.049 9.98807 26.5755 9.04307 25.375C9.98807 24.1745 10.4999 22.701 10.4999 21.1496V16.625Z" fill="white"/>
<path d="M28 39.375C26.0697 39.375 24.5 40.9447 24.5 42.875C24.5 44.8053 26.0697 46.375 28 46.375C29.9303 46.375 31.5 44.8053 31.5 42.875C31.5 40.9447 29.9303 39.375 28 39.375ZM28 44.625C27.0349 44.625 26.25 43.8401 26.25 42.875C26.25 41.9099 27.0349 41.125 28 41.125C28.9651 41.125 29.75 41.9099 29.75 42.875C29.75 43.8401 28.9651 44.625 28 44.625Z" fill="white"/>
<path d="M28.0001 35.875C26.8381 35.875 25.6857 36.1664 24.6689 36.7168L25.5028 38.2559C26.2649 37.8438 27.1277 37.625 28.0001 37.625C30.8954 37.625 33.2501 39.9796 33.2501 42.875C33.2501 43.7474 33.0313 44.6101 32.6192 45.3722L34.1583 46.2061C34.7087 45.1894 35.0001 44.037 35.0001 42.875C35.0001 39.0154 31.8597 35.875 28.0001 35.875Z" fill="white"/>
<path d="M28 48.1251C25.1046 48.1251 22.75 45.7704 22.75 42.8751C22.75 42.0027 22.9688 41.1399 23.3809 40.3778L21.8417 39.5439C21.2914 40.5607 21 41.7131 21 42.8751C21 46.7347 24.1404 49.8751 28 49.8751C29.162 49.8751 30.3144 49.5837 31.3311 49.0333L30.4972 47.4942C29.7351 47.9063 28.8724 48.1251 28 48.1251Z" fill="white"/>
<path d="M52.5 0.875H3.5C2.05275 0.875 0.875 2.05275 0.875 3.5V43.75H15.75V42H2.625V9.625H53.375V42H40.25V43.75H55.125V3.5C55.125 2.05275 53.9473 0.875 52.5 0.875ZM2.625 7.875V3.5C2.625 3.01788 3.01788 2.625 3.5 2.625H52.5C52.9821 2.625 53.375 3.01788 53.375 3.5V7.875H2.625Z" fill="white"/>
<path d="M6.125 4.375H4.375V6.125H6.125V4.375Z" fill="white"/>
<path d="M9.625 4.375H7.875V6.125H9.625V4.375Z" fill="white"/>
<path d="M13.125 4.375H11.375V6.125H13.125V4.375Z" fill="white"/>
</svg>
