<svg width="56" height="56" viewBox="0 0 56 56" fill="none" xmlns="http://www.w3.org/2000/svg">
<path d="M33.4193 9.93547C33.4193 12.9283 30.9927 15.3548 27.9999 15.3548C25.0071 15.3548 22.5806 12.9283 22.5806 9.93547C22.5806 6.94265 25.0071 4.51611 27.9999 4.51611C30.9927 4.51611 33.4193 6.94265 33.4193 9.93547Z" fill="#1388F7"/>
<path d="M39.742 9.93537C39.742 6.44993 36.9049 3.61279 33.4194 3.61279V5.41924C35.9095 5.41924 37.9356 7.44533 37.9356 9.93537C37.9356 12.4254 35.9095 14.4515 33.4194 14.4515V16.258C36.9049 16.258 39.742 13.4208 39.742 9.93537Z" fill="white"/>
<path d="M33.4194 0V1.80645C37.902 1.80645 41.5485 5.45287 41.5485 9.93548C41.5485 14.4181 37.902 18.0645 33.4194 18.0645V19.871C38.8974 19.871 43.3549 15.4135 43.3549 9.93548C43.3549 4.45747 38.8974 0 33.4194 0Z" fill="white"/>
<path d="M22.5809 5.41924V3.61279C19.0954 3.61279 16.2583 6.44993 16.2583 9.93537C16.2583 13.4208 19.0954 16.258 22.5809 16.258V14.4515C20.0908 14.4515 18.0648 12.4254 18.0648 9.93537C18.0648 7.44533 20.0908 5.41924 22.5809 5.41924Z" fill="white"/>
<path d="M22.5805 18.0645C18.0979 18.0645 14.4515 14.4181 14.4515 9.93548C14.4515 5.45287 18.0979 1.80645 22.5805 1.80645V0C17.1025 0 12.645 4.45747 12.645 9.93548C12.645 15.4135 17.1025 19.871 22.5805 19.871V18.0645Z" fill="white"/>
<path d="M28.9034 21.6774V12.4789C29.9521 12.1049 30.7098 11.1113 30.7098 9.93551C30.7098 8.44174 29.4939 7.22583 28.0001 7.22583C26.5064 7.22583 25.2904 8.44174 25.2904 9.93551C25.2904 11.1113 26.0481 12.1049 27.0969 12.4789V21.6774H22.0224L19.9668 25.79L21.5827 26.5984L23.1391 23.4839H32.8611L34.4184 26.5971L36.0343 25.7887L33.9778 21.6774H28.9034ZM28.0001 9.03228C28.4985 9.03228 28.9034 9.43715 28.9034 9.93551C28.9034 10.4339 28.4985 10.8387 28.0001 10.8387C27.5018 10.8387 27.0969 10.4339 27.0969 9.93551C27.0969 9.43715 27.5018 9.03228 28.0001 9.03228Z" fill="white"/>
<path d="M37.9354 36.129H18.0645V25.2903H37.9354V36.129Z" fill="#1388F7"/>
<path d="M0 54.1934H1.80645V55.9998H0V54.1934Z" fill="white"/>
<path d="M54.1934 54.1934H55.9998V55.9998H54.1934V54.1934Z" fill="white"/>
<path d="M27.0966 36.1291H25.2901V30.7098H23.4837V36.1291H21.6772V28.9033H27.0966V36.1291Z" fill="white"/>
<path d="M34.3227 36.1291H32.5162V30.7098H30.7098V36.1291H28.9033V28.9033H34.3227V36.1291Z" fill="white"/>
<path d="M40.3002 54.1937L38.4937 50.5808H36.1289V36.1292H34.3225V41.5485H27.0967V43.355H34.3225V50.5808H21.6773V46.9679H28.9031V45.1614H21.6773V39.7421H28.9031V37.9356H21.6773V36.1292H19.8709V50.5808H17.5061L15.6996 54.1937H3.61279V56.0001H52.387V54.1937H40.3002ZM18.6227 52.3872H37.377L38.2803 54.1937H17.7195L18.6227 52.3872Z" fill="white"/>
<path d="M48.7744 18.9678H50.5809V20.7742H48.7744V18.9678Z" fill="white"/>
<path d="M48.7744 22.5806H50.5809V24.387H48.7744V22.5806Z" fill="white"/>
<path d="M50.5806 20.7742H52.387V22.5806H50.5806V20.7742Z" fill="white"/>
<path d="M46.9678 20.7742H48.7742V22.5806H46.9678V20.7742Z" fill="white"/>
<path d="M8.12891 22.5806H9.93536V24.387H8.12891V22.5806Z" fill="white"/>
<path d="M8.12891 26.1936H9.93536V28.0001H8.12891V26.1936Z" fill="white"/>
<path d="M9.93555 24.3872H11.742V26.1937H9.93555V24.3872Z" fill="white"/>
<path d="M6.32275 24.3872H8.12921V26.1937H6.32275V24.3872Z" fill="white"/>
<path d="M3.61279 43.3547H5.41924V45.1612H3.61279V43.3547Z" fill="white"/>
<path d="M3.61279 46.9678H5.41924V48.7742H3.61279V46.9678Z" fill="white"/>
<path d="M5.41943 45.1614H7.22589V46.9678H5.41943V45.1614Z" fill="white"/>
<path d="M1.80664 45.1614H3.61309V46.9678H1.80664V45.1614Z" fill="white"/>
<path d="M43.355 36.1292H45.1614V37.9356H43.355V36.1292Z" fill="white"/>
<path d="M43.355 39.7419H45.1614V41.5484H43.355V39.7419Z" fill="white"/>
<path d="M45.1611 37.9355H46.9676V39.742H45.1611V37.9355Z" fill="white"/>
<path d="M41.5483 37.9355H43.3548V39.742H41.5483V37.9355Z" fill="white"/>
</svg>
